G04 #@! TF.GenerationSoftware,KiCad,Pcbnew,(5.1.5)-3*
G04 #@! TF.CreationDate,2020-05-29T16:33:12+07:00*
G04 #@! TF.ProjectId,LIBV_Pannel,4c494256-5f50-4616-9e6e-656c2e6b6963,rev?*
G04 #@! TF.SameCoordinates,PX53724e0PY5fd8220*
G04 #@! TF.FileFunction,Copper,L2,Bot*
G04 #@! TF.FilePolarity,Positive*
%FSLAX46Y46*%
G04 Gerber Fmt 4.6, Leading zero omitted, Abs format (unit mm)*
G04 Created by KiCad (PCBNEW (5.1.5)-3) date 2020-05-29 16:33:12*
%MOMM*%
%LPD*%
G04 APERTURE LIST*
%ADD10O,1.200000X1.750000*%
%ADD11C,0.100000*%
%ADD12O,1.700000X1.700000*%
%ADD13R,1.700000X1.700000*%
%ADD14C,0.400000*%
%ADD15C,0.254000*%
G04 APERTURE END LIST*
D10*
X60800000Y15200000D03*
X58800000Y15200000D03*
X56800000Y15200000D03*
X54800000Y15200000D03*
X52800000Y15200000D03*
G04 #@! TA.AperFunction,ComponentPad*
D11*
G36*
X51174505Y16073796D02*
G01*
X51198773Y16070196D01*
X51222572Y16064235D01*
X51245671Y16055970D01*
X51267850Y16045480D01*
X51288893Y16032868D01*
X51308599Y16018253D01*
X51326777Y16001777D01*
X51343253Y15983599D01*
X51357868Y15963893D01*
X51370480Y15942850D01*
X51380970Y15920671D01*
X51389235Y15897572D01*
X51395196Y15873773D01*
X51398796Y15849505D01*
X51400000Y15825001D01*
X51400000Y14574999D01*
X51398796Y14550495D01*
X51395196Y14526227D01*
X51389235Y14502428D01*
X51380970Y14479329D01*
X51370480Y14457150D01*
X51357868Y14436107D01*
X51343253Y14416401D01*
X51326777Y14398223D01*
X51308599Y14381747D01*
X51288893Y14367132D01*
X51267850Y14354520D01*
X51245671Y14344030D01*
X51222572Y14335765D01*
X51198773Y14329804D01*
X51174505Y14326204D01*
X51150001Y14325000D01*
X50449999Y14325000D01*
X50425495Y14326204D01*
X50401227Y14329804D01*
X50377428Y14335765D01*
X50354329Y14344030D01*
X50332150Y14354520D01*
X50311107Y14367132D01*
X50291401Y14381747D01*
X50273223Y14398223D01*
X50256747Y14416401D01*
X50242132Y14436107D01*
X50229520Y14457150D01*
X50219030Y14479329D01*
X50210765Y14502428D01*
X50204804Y14526227D01*
X50201204Y14550495D01*
X50200000Y14574999D01*
X50200000Y15825001D01*
X50201204Y15849505D01*
X50204804Y15873773D01*
X50210765Y15897572D01*
X50219030Y15920671D01*
X50229520Y15942850D01*
X50242132Y15963893D01*
X50256747Y15983599D01*
X50273223Y16001777D01*
X50291401Y16018253D01*
X50311107Y16032868D01*
X50332150Y16045480D01*
X50354329Y16055970D01*
X50377428Y16064235D01*
X50401227Y16070196D01*
X50425495Y16073796D01*
X50449999Y16075000D01*
X51150001Y16075000D01*
X51174505Y16073796D01*
G37*
G04 #@! TD.AperFunction*
D10*
X33700000Y15200000D03*
G04 #@! TA.AperFunction,ComponentPad*
D11*
G36*
X32074505Y16073796D02*
G01*
X32098773Y16070196D01*
X32122572Y16064235D01*
X32145671Y16055970D01*
X32167850Y16045480D01*
X32188893Y16032868D01*
X32208599Y16018253D01*
X32226777Y16001777D01*
X32243253Y15983599D01*
X32257868Y15963893D01*
X32270480Y15942850D01*
X32280970Y15920671D01*
X32289235Y15897572D01*
X32295196Y15873773D01*
X32298796Y15849505D01*
X32300000Y15825001D01*
X32300000Y14574999D01*
X32298796Y14550495D01*
X32295196Y14526227D01*
X32289235Y14502428D01*
X32280970Y14479329D01*
X32270480Y14457150D01*
X32257868Y14436107D01*
X32243253Y14416401D01*
X32226777Y14398223D01*
X32208599Y14381747D01*
X32188893Y14367132D01*
X32167850Y14354520D01*
X32145671Y14344030D01*
X32122572Y14335765D01*
X32098773Y14329804D01*
X32074505Y14326204D01*
X32050001Y14325000D01*
X31349999Y14325000D01*
X31325495Y14326204D01*
X31301227Y14329804D01*
X31277428Y14335765D01*
X31254329Y14344030D01*
X31232150Y14354520D01*
X31211107Y14367132D01*
X31191401Y14381747D01*
X31173223Y14398223D01*
X31156747Y14416401D01*
X31142132Y14436107D01*
X31129520Y14457150D01*
X31119030Y14479329D01*
X31110765Y14502428D01*
X31104804Y14526227D01*
X31101204Y14550495D01*
X31100000Y14574999D01*
X31100000Y15825001D01*
X31101204Y15849505D01*
X31104804Y15873773D01*
X31110765Y15897572D01*
X31119030Y15920671D01*
X31129520Y15942850D01*
X31142132Y15963893D01*
X31156747Y15983599D01*
X31173223Y16001777D01*
X31191401Y16018253D01*
X31211107Y16032868D01*
X31232150Y16045480D01*
X31254329Y16055970D01*
X31277428Y16064235D01*
X31301227Y16070196D01*
X31325495Y16073796D01*
X31349999Y16075000D01*
X32050001Y16075000D01*
X32074505Y16073796D01*
G37*
G04 #@! TD.AperFunction*
D10*
X87800000Y15200000D03*
X85800000Y15200000D03*
X83800000Y15200000D03*
G04 #@! TA.AperFunction,ComponentPad*
D11*
G36*
X82174505Y16073796D02*
G01*
X82198773Y16070196D01*
X82222572Y16064235D01*
X82245671Y16055970D01*
X82267850Y16045480D01*
X82288893Y16032868D01*
X82308599Y16018253D01*
X82326777Y16001777D01*
X82343253Y15983599D01*
X82357868Y15963893D01*
X82370480Y15942850D01*
X82380970Y15920671D01*
X82389235Y15897572D01*
X82395196Y15873773D01*
X82398796Y15849505D01*
X82400000Y15825001D01*
X82400000Y14574999D01*
X82398796Y14550495D01*
X82395196Y14526227D01*
X82389235Y14502428D01*
X82380970Y14479329D01*
X82370480Y14457150D01*
X82357868Y14436107D01*
X82343253Y14416401D01*
X82326777Y14398223D01*
X82308599Y14381747D01*
X82288893Y14367132D01*
X82267850Y14354520D01*
X82245671Y14344030D01*
X82222572Y14335765D01*
X82198773Y14329804D01*
X82174505Y14326204D01*
X82150001Y14325000D01*
X81449999Y14325000D01*
X81425495Y14326204D01*
X81401227Y14329804D01*
X81377428Y14335765D01*
X81354329Y14344030D01*
X81332150Y14354520D01*
X81311107Y14367132D01*
X81291401Y14381747D01*
X81273223Y14398223D01*
X81256747Y14416401D01*
X81242132Y14436107D01*
X81229520Y14457150D01*
X81219030Y14479329D01*
X81210765Y14502428D01*
X81204804Y14526227D01*
X81201204Y14550495D01*
X81200000Y14574999D01*
X81200000Y15825001D01*
X81201204Y15849505D01*
X81204804Y15873773D01*
X81210765Y15897572D01*
X81219030Y15920671D01*
X81229520Y15942850D01*
X81242132Y15963893D01*
X81256747Y15983599D01*
X81273223Y16001777D01*
X81291401Y16018253D01*
X81311107Y16032868D01*
X81332150Y16045480D01*
X81354329Y16055970D01*
X81377428Y16064235D01*
X81401227Y16070196D01*
X81425495Y16073796D01*
X81449999Y16075000D01*
X82150001Y16075000D01*
X82174505Y16073796D01*
G37*
G04 #@! TD.AperFunction*
D10*
X43200000Y15200000D03*
G04 #@! TA.AperFunction,ComponentPad*
D11*
G36*
X41574505Y16073796D02*
G01*
X41598773Y16070196D01*
X41622572Y16064235D01*
X41645671Y16055970D01*
X41667850Y16045480D01*
X41688893Y16032868D01*
X41708599Y16018253D01*
X41726777Y16001777D01*
X41743253Y15983599D01*
X41757868Y15963893D01*
X41770480Y15942850D01*
X41780970Y15920671D01*
X41789235Y15897572D01*
X41795196Y15873773D01*
X41798796Y15849505D01*
X41800000Y15825001D01*
X41800000Y14574999D01*
X41798796Y14550495D01*
X41795196Y14526227D01*
X41789235Y14502428D01*
X41780970Y14479329D01*
X41770480Y14457150D01*
X41757868Y14436107D01*
X41743253Y14416401D01*
X41726777Y14398223D01*
X41708599Y14381747D01*
X41688893Y14367132D01*
X41667850Y14354520D01*
X41645671Y14344030D01*
X41622572Y14335765D01*
X41598773Y14329804D01*
X41574505Y14326204D01*
X41550001Y14325000D01*
X40849999Y14325000D01*
X40825495Y14326204D01*
X40801227Y14329804D01*
X40777428Y14335765D01*
X40754329Y14344030D01*
X40732150Y14354520D01*
X40711107Y14367132D01*
X40691401Y14381747D01*
X40673223Y14398223D01*
X40656747Y14416401D01*
X40642132Y14436107D01*
X40629520Y14457150D01*
X40619030Y14479329D01*
X40610765Y14502428D01*
X40604804Y14526227D01*
X40601204Y14550495D01*
X40600000Y14574999D01*
X40600000Y15825001D01*
X40601204Y15849505D01*
X40604804Y15873773D01*
X40610765Y15897572D01*
X40619030Y15920671D01*
X40629520Y15942850D01*
X40642132Y15963893D01*
X40656747Y15983599D01*
X40673223Y16001777D01*
X40691401Y16018253D01*
X40711107Y16032868D01*
X40732150Y16045480D01*
X40754329Y16055970D01*
X40777428Y16064235D01*
X40801227Y16070196D01*
X40825495Y16073796D01*
X40849999Y16075000D01*
X41550001Y16075000D01*
X41574505Y16073796D01*
G37*
G04 #@! TD.AperFunction*
D10*
X74300000Y15200000D03*
X72300000Y15200000D03*
X70300000Y15200000D03*
G04 #@! TA.AperFunction,ComponentPad*
D11*
G36*
X68674505Y16073796D02*
G01*
X68698773Y16070196D01*
X68722572Y16064235D01*
X68745671Y16055970D01*
X68767850Y16045480D01*
X68788893Y16032868D01*
X68808599Y16018253D01*
X68826777Y16001777D01*
X68843253Y15983599D01*
X68857868Y15963893D01*
X68870480Y15942850D01*
X68880970Y15920671D01*
X68889235Y15897572D01*
X68895196Y15873773D01*
X68898796Y15849505D01*
X68900000Y15825001D01*
X68900000Y14574999D01*
X68898796Y14550495D01*
X68895196Y14526227D01*
X68889235Y14502428D01*
X68880970Y14479329D01*
X68870480Y14457150D01*
X68857868Y14436107D01*
X68843253Y14416401D01*
X68826777Y14398223D01*
X68808599Y14381747D01*
X68788893Y14367132D01*
X68767850Y14354520D01*
X68745671Y14344030D01*
X68722572Y14335765D01*
X68698773Y14329804D01*
X68674505Y14326204D01*
X68650001Y14325000D01*
X67949999Y14325000D01*
X67925495Y14326204D01*
X67901227Y14329804D01*
X67877428Y14335765D01*
X67854329Y14344030D01*
X67832150Y14354520D01*
X67811107Y14367132D01*
X67791401Y14381747D01*
X67773223Y14398223D01*
X67756747Y14416401D01*
X67742132Y14436107D01*
X67729520Y14457150D01*
X67719030Y14479329D01*
X67710765Y14502428D01*
X67704804Y14526227D01*
X67701204Y14550495D01*
X67700000Y14574999D01*
X67700000Y15825001D01*
X67701204Y15849505D01*
X67704804Y15873773D01*
X67710765Y15897572D01*
X67719030Y15920671D01*
X67729520Y15942850D01*
X67742132Y15963893D01*
X67756747Y15983599D01*
X67773223Y16001777D01*
X67791401Y16018253D01*
X67811107Y16032868D01*
X67832150Y16045480D01*
X67854329Y16055970D01*
X67877428Y16064235D01*
X67901227Y16070196D01*
X67925495Y16073796D01*
X67949999Y16075000D01*
X68650001Y16075000D01*
X68674505Y16073796D01*
G37*
G04 #@! TD.AperFunction*
D10*
X24200000Y15200000D03*
X22200000Y15200000D03*
X20200000Y15200000D03*
X18200000Y15200000D03*
X16200000Y15200000D03*
X14200000Y15200000D03*
X12200000Y15200000D03*
G04 #@! TA.AperFunction,ComponentPad*
D11*
G36*
X10574505Y16073796D02*
G01*
X10598773Y16070196D01*
X10622572Y16064235D01*
X10645671Y16055970D01*
X10667850Y16045480D01*
X10688893Y16032868D01*
X10708599Y16018253D01*
X10726777Y16001777D01*
X10743253Y15983599D01*
X10757868Y15963893D01*
X10770480Y15942850D01*
X10780970Y15920671D01*
X10789235Y15897572D01*
X10795196Y15873773D01*
X10798796Y15849505D01*
X10800000Y15825001D01*
X10800000Y14574999D01*
X10798796Y14550495D01*
X10795196Y14526227D01*
X10789235Y14502428D01*
X10780970Y14479329D01*
X10770480Y14457150D01*
X10757868Y14436107D01*
X10743253Y14416401D01*
X10726777Y14398223D01*
X10708599Y14381747D01*
X10688893Y14367132D01*
X10667850Y14354520D01*
X10645671Y14344030D01*
X10622572Y14335765D01*
X10598773Y14329804D01*
X10574505Y14326204D01*
X10550001Y14325000D01*
X9849999Y14325000D01*
X9825495Y14326204D01*
X9801227Y14329804D01*
X9777428Y14335765D01*
X9754329Y14344030D01*
X9732150Y14354520D01*
X9711107Y14367132D01*
X9691401Y14381747D01*
X9673223Y14398223D01*
X9656747Y14416401D01*
X9642132Y14436107D01*
X9629520Y14457150D01*
X9619030Y14479329D01*
X9610765Y14502428D01*
X9604804Y14526227D01*
X9601204Y14550495D01*
X9600000Y14574999D01*
X9600000Y15825001D01*
X9601204Y15849505D01*
X9604804Y15873773D01*
X9610765Y15897572D01*
X9619030Y15920671D01*
X9629520Y15942850D01*
X9642132Y15963893D01*
X9656747Y15983599D01*
X9673223Y16001777D01*
X9691401Y16018253D01*
X9711107Y16032868D01*
X9732150Y16045480D01*
X9754329Y16055970D01*
X9777428Y16064235D01*
X9801227Y16070196D01*
X9825495Y16073796D01*
X9849999Y16075000D01*
X10550001Y16075000D01*
X10574505Y16073796D01*
G37*
G04 #@! TD.AperFunction*
D12*
X59120000Y8040000D03*
X59120000Y5500000D03*
X56580000Y8040000D03*
X56580000Y5500000D03*
X54040000Y8040000D03*
X54040000Y5500000D03*
X51500000Y8040000D03*
X51500000Y5500000D03*
X48960000Y8040000D03*
X48960000Y5500000D03*
X46420000Y8040000D03*
X46420000Y5500000D03*
X43880000Y8040000D03*
X43880000Y5500000D03*
X41340000Y8040000D03*
X41340000Y5500000D03*
X38800000Y8040000D03*
D13*
X38800000Y5500000D03*
D14*
X72300000Y11200000D02*
X72300000Y15200000D01*
X73925000Y18100000D02*
X72300000Y16475000D01*
X72300000Y16475000D02*
X72300000Y15200000D01*
X84175000Y18100000D02*
X73925000Y18100000D01*
X85800000Y16475000D02*
X84175000Y18100000D01*
X85800000Y15200000D02*
X85800000Y16475000D01*
X56580000Y9242081D02*
X57237919Y9900000D01*
X56580000Y8040000D02*
X56580000Y9242081D01*
X71000000Y9900000D02*
X72300000Y11200000D01*
X57237919Y9900000D02*
X71000000Y9900000D01*
X74300000Y10600000D02*
X74300000Y15200000D01*
X56580000Y4297919D02*
X57477919Y3400000D01*
X56580000Y5500000D02*
X56580000Y4297919D01*
X57477919Y3400000D02*
X68200000Y3400000D01*
X74300000Y9500000D02*
X74300000Y10600000D01*
X68200000Y3400000D02*
X74300000Y9500000D01*
X68200000Y3400000D02*
X81700000Y3400000D01*
X87800000Y9500000D02*
X87800000Y15200000D01*
X81700000Y3400000D02*
X87800000Y9500000D01*
X51500000Y9242081D02*
X53257919Y11000000D01*
X51500000Y8040000D02*
X51500000Y9242081D01*
X55700000Y11000000D02*
X56800000Y12100000D01*
X53257919Y11000000D02*
X55700000Y11000000D01*
X56800000Y12100000D02*
X56800000Y15200000D01*
X10200000Y16075000D02*
X12425000Y18300000D01*
X10200000Y15200000D02*
X10200000Y16075000D01*
X12425000Y18300000D02*
X44200000Y18300000D01*
X48960000Y13540000D02*
X48960000Y8040000D01*
X44200000Y18300000D02*
X48960000Y13540000D01*
X46420000Y9242081D02*
X45262081Y10400000D01*
X46420000Y8040000D02*
X46420000Y9242081D01*
X45262081Y10400000D02*
X20200000Y10400000D01*
X18200000Y12400000D02*
X18200000Y15200000D01*
X20200000Y10400000D02*
X18200000Y12400000D01*
X12200000Y13925000D02*
X23125000Y3000000D01*
X12200000Y15200000D02*
X12200000Y13925000D01*
X45122081Y3000000D02*
X23125000Y3000000D01*
X46420000Y4297919D02*
X45122081Y3000000D01*
X46420000Y5500000D02*
X46420000Y4297919D01*
D15*
G36*
X94117023Y19185163D02*
G01*
X93814837Y18882977D01*
X93577412Y18527645D01*
X93413870Y18132821D01*
X93330497Y17713677D01*
X93330497Y17286323D01*
X93413870Y16867179D01*
X93577412Y16472355D01*
X93814837Y16117023D01*
X94117023Y15814837D01*
X94472355Y15577412D01*
X94867179Y15413870D01*
X95286323Y15330497D01*
X95713677Y15330497D01*
X96132821Y15413870D01*
X96527645Y15577412D01*
X96882977Y15814837D01*
X97185163Y16117023D01*
X97340001Y16348754D01*
X97340000Y3651247D01*
X97185163Y3882977D01*
X96882977Y4185163D01*
X96527645Y4422588D01*
X96132821Y4586130D01*
X95713677Y4669503D01*
X95286323Y4669503D01*
X94867179Y4586130D01*
X94472355Y4422588D01*
X94117023Y4185163D01*
X93814837Y3882977D01*
X93577412Y3527645D01*
X93413870Y3132821D01*
X93330497Y2713677D01*
X93330497Y2286323D01*
X93413870Y1867179D01*
X93577412Y1472355D01*
X93814837Y1117023D01*
X94117023Y814837D01*
X94348753Y660000D01*
X3651247Y660000D01*
X3882977Y814837D01*
X4185163Y1117023D01*
X4422588Y1472355D01*
X4586130Y1867179D01*
X4669503Y2286323D01*
X4669503Y2713677D01*
X4586130Y3132821D01*
X4422588Y3527645D01*
X4185163Y3882977D01*
X3882977Y4185163D01*
X3527645Y4422588D01*
X3132821Y4586130D01*
X2713677Y4669503D01*
X2286323Y4669503D01*
X1867179Y4586130D01*
X1472355Y4422588D01*
X1117023Y4185163D01*
X814837Y3882977D01*
X660000Y3651247D01*
X660000Y16348753D01*
X814837Y16117023D01*
X1117023Y15814837D01*
X1472355Y15577412D01*
X1867179Y15413870D01*
X2286323Y15330497D01*
X2713677Y15330497D01*
X3132821Y15413870D01*
X3527645Y15577412D01*
X3882977Y15814837D01*
X3893141Y15825001D01*
X8961928Y15825001D01*
X8961928Y14574999D01*
X8978992Y14401745D01*
X9029528Y14235149D01*
X9111595Y14081613D01*
X9222038Y13947038D01*
X9356613Y13836595D01*
X9510149Y13754528D01*
X9676745Y13703992D01*
X9849999Y13686928D01*
X10550001Y13686928D01*
X10723255Y13703992D01*
X10889851Y13754528D01*
X11043387Y13836595D01*
X11177962Y13947038D01*
X11288405Y14081613D01*
X11290810Y14086112D01*
X11322499Y14047498D01*
X11365001Y14012618D01*
X11365001Y13966028D01*
X11360960Y13925000D01*
X11377082Y13761312D01*
X11424828Y13603914D01*
X11458991Y13540000D01*
X11502365Y13458854D01*
X11606710Y13331709D01*
X11638574Y13305559D01*
X22505559Y2438573D01*
X22531709Y2406709D01*
X22658854Y2302364D01*
X22803913Y2224828D01*
X22961311Y2177082D01*
X23124999Y2160960D01*
X23166018Y2165000D01*
X45081063Y2165000D01*
X45122081Y2160960D01*
X45163099Y2165000D01*
X45163100Y2165000D01*
X45285770Y2177082D01*
X45443168Y2224828D01*
X45588227Y2302364D01*
X45715372Y2406709D01*
X45741527Y2438578D01*
X46981432Y3678482D01*
X47013291Y3704628D01*
X47039440Y3736490D01*
X47117636Y3831773D01*
X47195172Y3976832D01*
X47231817Y4097636D01*
X47242918Y4134230D01*
X47255000Y4256900D01*
X47255000Y4256901D01*
X47256585Y4272994D01*
X47366632Y4346525D01*
X47573475Y4553368D01*
X47690000Y4727760D01*
X47806525Y4553368D01*
X48013368Y4346525D01*
X48256589Y4184010D01*
X48526842Y4072068D01*
X48813740Y4015000D01*
X49106260Y4015000D01*
X49393158Y4072068D01*
X49663411Y4184010D01*
X49906632Y4346525D01*
X50113475Y4553368D01*
X50230000Y4727760D01*
X50346525Y4553368D01*
X50553368Y4346525D01*
X50796589Y4184010D01*
X51066842Y4072068D01*
X51353740Y4015000D01*
X51646260Y4015000D01*
X51933158Y4072068D01*
X52203411Y4184010D01*
X52446632Y4346525D01*
X52653475Y4553368D01*
X52770000Y4727760D01*
X52886525Y4553368D01*
X53093368Y4346525D01*
X53336589Y4184010D01*
X53606842Y4072068D01*
X53893740Y4015000D01*
X54186260Y4015000D01*
X54473158Y4072068D01*
X54743411Y4184010D01*
X54986632Y4346525D01*
X55193475Y4553368D01*
X55310000Y4727760D01*
X55426525Y4553368D01*
X55633368Y4346525D01*
X55743415Y4272994D01*
X55757082Y4134231D01*
X55804828Y3976833D01*
X55880640Y3835000D01*
X55882365Y3831773D01*
X55986710Y3704628D01*
X56018574Y3678478D01*
X56858477Y2838574D01*
X56884628Y2806709D01*
X57011773Y2702364D01*
X57156832Y2624828D01*
X57314230Y2577082D01*
X57436900Y2565000D01*
X57436902Y2565000D01*
X57477918Y2560960D01*
X57518934Y2565000D01*
X68158982Y2565000D01*
X68200000Y2560960D01*
X68241018Y2565000D01*
X81658982Y2565000D01*
X81700000Y2560960D01*
X81741018Y2565000D01*
X81741019Y2565000D01*
X81863689Y2577082D01*
X82021087Y2624828D01*
X82166146Y2702364D01*
X82293291Y2806709D01*
X82319446Y2838579D01*
X88361433Y8880564D01*
X88393291Y8906709D01*
X88497636Y9033854D01*
X88575172Y9178913D01*
X88622918Y9336311D01*
X88635000Y9458981D01*
X88635000Y9458982D01*
X88639040Y9500000D01*
X88635000Y9541018D01*
X88635000Y14012618D01*
X88677502Y14047498D01*
X88831833Y14235551D01*
X88946511Y14450100D01*
X89017130Y14682899D01*
X89035000Y14864336D01*
X89035000Y15535665D01*
X89017130Y15717102D01*
X88946511Y15949901D01*
X88831833Y16164449D01*
X88677502Y16352502D01*
X88489448Y16506833D01*
X88274900Y16621511D01*
X88042101Y16692130D01*
X87800000Y16715975D01*
X87557898Y16692130D01*
X87325099Y16621511D01*
X87110551Y16506833D01*
X86922498Y16352502D01*
X86800000Y16203237D01*
X86677502Y16352502D01*
X86635000Y16387382D01*
X86635000Y16433982D01*
X86639040Y16475001D01*
X86622918Y16638689D01*
X86575172Y16796087D01*
X86497636Y16941146D01*
X86419439Y17036429D01*
X86393291Y17068291D01*
X86361426Y17094441D01*
X84794446Y18661421D01*
X84768291Y18693291D01*
X84641146Y18797636D01*
X84496087Y18875172D01*
X84338689Y18922918D01*
X84216019Y18935000D01*
X84216018Y18935000D01*
X84175000Y18939040D01*
X84133982Y18935000D01*
X73966018Y18935000D01*
X73924999Y18939040D01*
X73770642Y18923837D01*
X73761311Y18922918D01*
X73603913Y18875172D01*
X73458854Y18797636D01*
X73331709Y18693291D01*
X73305559Y18661426D01*
X71738579Y17094446D01*
X71706709Y17068291D01*
X71623673Y16967110D01*
X71602364Y16941145D01*
X71524828Y16796086D01*
X71477082Y16638688D01*
X71460960Y16475000D01*
X71465000Y16433981D01*
X71465000Y16387383D01*
X71422498Y16352502D01*
X71300000Y16203237D01*
X71177502Y16352502D01*
X70989448Y16506833D01*
X70774900Y16621511D01*
X70542101Y16692130D01*
X70300000Y16715975D01*
X70057898Y16692130D01*
X69825099Y16621511D01*
X69610551Y16506833D01*
X69456691Y16380564D01*
X69430537Y16429494D01*
X69351185Y16526185D01*
X69254494Y16605537D01*
X69144180Y16664502D01*
X69024482Y16700812D01*
X68900000Y16713072D01*
X68585750Y16710000D01*
X68427000Y16551250D01*
X68427000Y15327000D01*
X68447000Y15327000D01*
X68447000Y15073000D01*
X68427000Y15073000D01*
X68427000Y13848750D01*
X68585750Y13690000D01*
X68900000Y13686928D01*
X69024482Y13699188D01*
X69144180Y13735498D01*
X69254494Y13794463D01*
X69351185Y13873815D01*
X69430537Y13970506D01*
X69456692Y14019437D01*
X69610552Y13893167D01*
X69825100Y13778489D01*
X70057899Y13707870D01*
X70300000Y13684025D01*
X70542102Y13707870D01*
X70774901Y13778489D01*
X70989449Y13893167D01*
X71177502Y14047498D01*
X71300001Y14196763D01*
X71422499Y14047498D01*
X71465001Y14012618D01*
X71465000Y11545869D01*
X70654133Y10735000D01*
X57278937Y10735000D01*
X57237919Y10739040D01*
X57196900Y10735000D01*
X57074230Y10722918D01*
X56916832Y10675172D01*
X56771773Y10597636D01*
X56644628Y10493291D01*
X56618480Y10461429D01*
X56018574Y9861522D01*
X55986710Y9835372D01*
X55960562Y9803510D01*
X55882364Y9708226D01*
X55804828Y9563167D01*
X55757082Y9405769D01*
X55743415Y9267006D01*
X55633368Y9193475D01*
X55426525Y8986632D01*
X55310000Y8812240D01*
X55193475Y8986632D01*
X54986632Y9193475D01*
X54743411Y9355990D01*
X54473158Y9467932D01*
X54186260Y9525000D01*
X53893740Y9525000D01*
X53606842Y9467932D01*
X53336589Y9355990D01*
X53093368Y9193475D01*
X52886525Y8986632D01*
X52770000Y8812240D01*
X52653475Y8986632D01*
X52539447Y9100660D01*
X53603788Y10165000D01*
X55658982Y10165000D01*
X55700000Y10160960D01*
X55741018Y10165000D01*
X55741019Y10165000D01*
X55863689Y10177082D01*
X56021087Y10224828D01*
X56166146Y10302364D01*
X56293291Y10406709D01*
X56319445Y10438578D01*
X57361433Y11480564D01*
X57393291Y11506709D01*
X57438199Y11561429D01*
X57497636Y11633854D01*
X57575172Y11778913D01*
X57622918Y11936311D01*
X57639040Y12100000D01*
X57635000Y12141018D01*
X57635000Y14012618D01*
X57677502Y14047498D01*
X57800481Y14197348D01*
X57843693Y14133275D01*
X58016526Y13961922D01*
X58219467Y13827579D01*
X58444718Y13735409D01*
X58482391Y13731538D01*
X58673000Y13856269D01*
X58673000Y15073000D01*
X58927000Y15073000D01*
X58927000Y13856269D01*
X59117609Y13731538D01*
X59155282Y13735409D01*
X59380533Y13827579D01*
X59583474Y13961922D01*
X59756307Y14133275D01*
X59800000Y14198061D01*
X59843693Y14133275D01*
X60016526Y13961922D01*
X60219467Y13827579D01*
X60444718Y13735409D01*
X60482391Y13731538D01*
X60673000Y13856269D01*
X60673000Y15073000D01*
X60927000Y15073000D01*
X60927000Y13856269D01*
X61117609Y13731538D01*
X61155282Y13735409D01*
X61380533Y13827579D01*
X61583474Y13961922D01*
X61756307Y14133275D01*
X61885609Y14325000D01*
X67061928Y14325000D01*
X67074188Y14200518D01*
X67110498Y14080820D01*
X67169463Y13970506D01*
X67248815Y13873815D01*
X67345506Y13794463D01*
X67455820Y13735498D01*
X67575518Y13699188D01*
X67700000Y13686928D01*
X68014250Y13690000D01*
X68173000Y13848750D01*
X68173000Y15073000D01*
X67223750Y15073000D01*
X67065000Y14914250D01*
X67061928Y14325000D01*
X61885609Y14325000D01*
X61892390Y14335054D01*
X61986493Y14559504D01*
X62035000Y14798000D01*
X62035000Y15073000D01*
X60927000Y15073000D01*
X60673000Y15073000D01*
X58927000Y15073000D01*
X58673000Y15073000D01*
X58653000Y15073000D01*
X58653000Y15327000D01*
X58673000Y15327000D01*
X58673000Y16543731D01*
X58927000Y16543731D01*
X58927000Y15327000D01*
X60673000Y15327000D01*
X60673000Y16543731D01*
X60927000Y16543731D01*
X60927000Y15327000D01*
X62035000Y15327000D01*
X62035000Y15602000D01*
X61986493Y15840496D01*
X61892390Y16064946D01*
X61885610Y16075000D01*
X67061928Y16075000D01*
X67065000Y15485750D01*
X67223750Y15327000D01*
X68173000Y15327000D01*
X68173000Y16551250D01*
X68014250Y16710000D01*
X67700000Y16713072D01*
X67575518Y16700812D01*
X67455820Y16664502D01*
X67345506Y16605537D01*
X67248815Y16526185D01*
X67169463Y16429494D01*
X67110498Y16319180D01*
X67074188Y16199482D01*
X67061928Y16075000D01*
X61885610Y16075000D01*
X61756307Y16266725D01*
X61583474Y16438078D01*
X61380533Y16572421D01*
X61155282Y16664591D01*
X61117609Y16668462D01*
X60927000Y16543731D01*
X60673000Y16543731D01*
X60482391Y16668462D01*
X60444718Y16664591D01*
X60219467Y16572421D01*
X60016526Y16438078D01*
X59843693Y16266725D01*
X59800000Y16201939D01*
X59756307Y16266725D01*
X59583474Y16438078D01*
X59380533Y16572421D01*
X59155282Y16664591D01*
X59117609Y16668462D01*
X58927000Y16543731D01*
X58673000Y16543731D01*
X58482391Y16668462D01*
X58444718Y16664591D01*
X58219467Y16572421D01*
X58016526Y16438078D01*
X57843693Y16266725D01*
X57800481Y16202652D01*
X57677502Y16352502D01*
X57489448Y16506833D01*
X57274900Y16621511D01*
X57042101Y16692130D01*
X56800000Y16715975D01*
X56557898Y16692130D01*
X56325099Y16621511D01*
X56110551Y16506833D01*
X55922498Y16352502D01*
X55800000Y16203237D01*
X55677502Y16352502D01*
X55489448Y16506833D01*
X55274900Y16621511D01*
X55042101Y16692130D01*
X54800000Y16715975D01*
X54557898Y16692130D01*
X54325099Y16621511D01*
X54110551Y16506833D01*
X53922498Y16352502D01*
X53800000Y16203237D01*
X53677502Y16352502D01*
X53489448Y16506833D01*
X53274900Y16621511D01*
X53042101Y16692130D01*
X52800000Y16715975D01*
X52557898Y16692130D01*
X52325099Y16621511D01*
X52110551Y16506833D01*
X51922498Y16352502D01*
X51890809Y16313889D01*
X51888405Y16318387D01*
X51777962Y16452962D01*
X51643387Y16563405D01*
X51489851Y16645472D01*
X51323255Y16696008D01*
X51150001Y16713072D01*
X50449999Y16713072D01*
X50276745Y16696008D01*
X50110149Y16645472D01*
X49956613Y16563405D01*
X49822038Y16452962D01*
X49711595Y16318387D01*
X49629528Y16164851D01*
X49578992Y15998255D01*
X49561928Y15825001D01*
X49561928Y14574999D01*
X49578992Y14401745D01*
X49629528Y14235149D01*
X49711595Y14081613D01*
X49822038Y13947038D01*
X49956613Y13836595D01*
X50110149Y13754528D01*
X50276745Y13703992D01*
X50449999Y13686928D01*
X51150001Y13686928D01*
X51323255Y13703992D01*
X51489851Y13754528D01*
X51643387Y13836595D01*
X51777962Y13947038D01*
X51888405Y14081613D01*
X51890810Y14086112D01*
X51922499Y14047498D01*
X52110552Y13893167D01*
X52325100Y13778489D01*
X52557899Y13707870D01*
X52800000Y13684025D01*
X53042102Y13707870D01*
X53274901Y13778489D01*
X53489449Y13893167D01*
X53677502Y14047498D01*
X53800001Y14196763D01*
X53922499Y14047498D01*
X54110552Y13893167D01*
X54325100Y13778489D01*
X54557899Y13707870D01*
X54800000Y13684025D01*
X55042102Y13707870D01*
X55274901Y13778489D01*
X55489449Y13893167D01*
X55677502Y14047498D01*
X55800001Y14196763D01*
X55922499Y14047498D01*
X55965001Y14012618D01*
X55965000Y12445869D01*
X55354133Y11835000D01*
X53298937Y11835000D01*
X53257919Y11839040D01*
X53216900Y11835000D01*
X53094230Y11822918D01*
X52936832Y11775172D01*
X52791773Y11697636D01*
X52664628Y11593291D01*
X52638482Y11561432D01*
X50938574Y9861522D01*
X50906710Y9835372D01*
X50880562Y9803510D01*
X50802364Y9708226D01*
X50724828Y9563167D01*
X50677082Y9405769D01*
X50663415Y9267006D01*
X50553368Y9193475D01*
X50346525Y8986632D01*
X50230000Y8812240D01*
X50113475Y8986632D01*
X49906632Y9193475D01*
X49795000Y9268065D01*
X49795000Y13498982D01*
X49799040Y13540000D01*
X49782918Y13703688D01*
X49781650Y13707870D01*
X49735172Y13861087D01*
X49657636Y14006146D01*
X49553291Y14133291D01*
X49521433Y14159436D01*
X44819446Y18861421D01*
X44793291Y18893291D01*
X44666146Y18997636D01*
X44521087Y19075172D01*
X44363689Y19122918D01*
X44241019Y19135000D01*
X44241018Y19135000D01*
X44200000Y19139040D01*
X44158982Y19135000D01*
X12466018Y19135000D01*
X12424999Y19139040D01*
X12383981Y19135000D01*
X12261311Y19122918D01*
X12103913Y19075172D01*
X11958854Y18997636D01*
X11831709Y18893291D01*
X11805559Y18861427D01*
X9638574Y16694441D01*
X9619221Y16678558D01*
X9510149Y16645472D01*
X9356613Y16563405D01*
X9222038Y16452962D01*
X9111595Y16318387D01*
X9029528Y16164851D01*
X8978992Y15998255D01*
X8961928Y15825001D01*
X3893141Y15825001D01*
X4185163Y16117023D01*
X4422588Y16472355D01*
X4586130Y16867179D01*
X4669503Y17286323D01*
X4669503Y17713677D01*
X4586130Y18132821D01*
X4422588Y18527645D01*
X4185163Y18882977D01*
X3882977Y19185163D01*
X3651247Y19340000D01*
X94348753Y19340000D01*
X94117023Y19185163D01*
G37*
X94117023Y19185163D02*
X93814837Y18882977D01*
X93577412Y18527645D01*
X93413870Y18132821D01*
X93330497Y17713677D01*
X93330497Y17286323D01*
X93413870Y16867179D01*
X93577412Y16472355D01*
X93814837Y16117023D01*
X94117023Y15814837D01*
X94472355Y15577412D01*
X94867179Y15413870D01*
X95286323Y15330497D01*
X95713677Y15330497D01*
X96132821Y15413870D01*
X96527645Y15577412D01*
X96882977Y15814837D01*
X97185163Y16117023D01*
X97340001Y16348754D01*
X97340000Y3651247D01*
X97185163Y3882977D01*
X96882977Y4185163D01*
X96527645Y4422588D01*
X96132821Y4586130D01*
X95713677Y4669503D01*
X95286323Y4669503D01*
X94867179Y4586130D01*
X94472355Y4422588D01*
X94117023Y4185163D01*
X93814837Y3882977D01*
X93577412Y3527645D01*
X93413870Y3132821D01*
X93330497Y2713677D01*
X93330497Y2286323D01*
X93413870Y1867179D01*
X93577412Y1472355D01*
X93814837Y1117023D01*
X94117023Y814837D01*
X94348753Y660000D01*
X3651247Y660000D01*
X3882977Y814837D01*
X4185163Y1117023D01*
X4422588Y1472355D01*
X4586130Y1867179D01*
X4669503Y2286323D01*
X4669503Y2713677D01*
X4586130Y3132821D01*
X4422588Y3527645D01*
X4185163Y3882977D01*
X3882977Y4185163D01*
X3527645Y4422588D01*
X3132821Y4586130D01*
X2713677Y4669503D01*
X2286323Y4669503D01*
X1867179Y4586130D01*
X1472355Y4422588D01*
X1117023Y4185163D01*
X814837Y3882977D01*
X660000Y3651247D01*
X660000Y16348753D01*
X814837Y16117023D01*
X1117023Y15814837D01*
X1472355Y15577412D01*
X1867179Y15413870D01*
X2286323Y15330497D01*
X2713677Y15330497D01*
X3132821Y15413870D01*
X3527645Y15577412D01*
X3882977Y15814837D01*
X3893141Y15825001D01*
X8961928Y15825001D01*
X8961928Y14574999D01*
X8978992Y14401745D01*
X9029528Y14235149D01*
X9111595Y14081613D01*
X9222038Y13947038D01*
X9356613Y13836595D01*
X9510149Y13754528D01*
X9676745Y13703992D01*
X9849999Y13686928D01*
X10550001Y13686928D01*
X10723255Y13703992D01*
X10889851Y13754528D01*
X11043387Y13836595D01*
X11177962Y13947038D01*
X11288405Y14081613D01*
X11290810Y14086112D01*
X11322499Y14047498D01*
X11365001Y14012618D01*
X11365001Y13966028D01*
X11360960Y13925000D01*
X11377082Y13761312D01*
X11424828Y13603914D01*
X11458991Y13540000D01*
X11502365Y13458854D01*
X11606710Y13331709D01*
X11638574Y13305559D01*
X22505559Y2438573D01*
X22531709Y2406709D01*
X22658854Y2302364D01*
X22803913Y2224828D01*
X22961311Y2177082D01*
X23124999Y2160960D01*
X23166018Y2165000D01*
X45081063Y2165000D01*
X45122081Y2160960D01*
X45163099Y2165000D01*
X45163100Y2165000D01*
X45285770Y2177082D01*
X45443168Y2224828D01*
X45588227Y2302364D01*
X45715372Y2406709D01*
X45741527Y2438578D01*
X46981432Y3678482D01*
X47013291Y3704628D01*
X47039440Y3736490D01*
X47117636Y3831773D01*
X47195172Y3976832D01*
X47231817Y4097636D01*
X47242918Y4134230D01*
X47255000Y4256900D01*
X47255000Y4256901D01*
X47256585Y4272994D01*
X47366632Y4346525D01*
X47573475Y4553368D01*
X47690000Y4727760D01*
X47806525Y4553368D01*
X48013368Y4346525D01*
X48256589Y4184010D01*
X48526842Y4072068D01*
X48813740Y4015000D01*
X49106260Y4015000D01*
X49393158Y4072068D01*
X49663411Y4184010D01*
X49906632Y4346525D01*
X50113475Y4553368D01*
X50230000Y4727760D01*
X50346525Y4553368D01*
X50553368Y4346525D01*
X50796589Y4184010D01*
X51066842Y4072068D01*
X51353740Y4015000D01*
X51646260Y4015000D01*
X51933158Y4072068D01*
X52203411Y4184010D01*
X52446632Y4346525D01*
X52653475Y4553368D01*
X52770000Y4727760D01*
X52886525Y4553368D01*
X53093368Y4346525D01*
X53336589Y4184010D01*
X53606842Y4072068D01*
X53893740Y4015000D01*
X54186260Y4015000D01*
X54473158Y4072068D01*
X54743411Y4184010D01*
X54986632Y4346525D01*
X55193475Y4553368D01*
X55310000Y4727760D01*
X55426525Y4553368D01*
X55633368Y4346525D01*
X55743415Y4272994D01*
X55757082Y4134231D01*
X55804828Y3976833D01*
X55880640Y3835000D01*
X55882365Y3831773D01*
X55986710Y3704628D01*
X56018574Y3678478D01*
X56858477Y2838574D01*
X56884628Y2806709D01*
X57011773Y2702364D01*
X57156832Y2624828D01*
X57314230Y2577082D01*
X57436900Y2565000D01*
X57436902Y2565000D01*
X57477918Y2560960D01*
X57518934Y2565000D01*
X68158982Y2565000D01*
X68200000Y2560960D01*
X68241018Y2565000D01*
X81658982Y2565000D01*
X81700000Y2560960D01*
X81741018Y2565000D01*
X81741019Y2565000D01*
X81863689Y2577082D01*
X82021087Y2624828D01*
X82166146Y2702364D01*
X82293291Y2806709D01*
X82319446Y2838579D01*
X88361433Y8880564D01*
X88393291Y8906709D01*
X88497636Y9033854D01*
X88575172Y9178913D01*
X88622918Y9336311D01*
X88635000Y9458981D01*
X88635000Y9458982D01*
X88639040Y9500000D01*
X88635000Y9541018D01*
X88635000Y14012618D01*
X88677502Y14047498D01*
X88831833Y14235551D01*
X88946511Y14450100D01*
X89017130Y14682899D01*
X89035000Y14864336D01*
X89035000Y15535665D01*
X89017130Y15717102D01*
X88946511Y15949901D01*
X88831833Y16164449D01*
X88677502Y16352502D01*
X88489448Y16506833D01*
X88274900Y16621511D01*
X88042101Y16692130D01*
X87800000Y16715975D01*
X87557898Y16692130D01*
X87325099Y16621511D01*
X87110551Y16506833D01*
X86922498Y16352502D01*
X86800000Y16203237D01*
X86677502Y16352502D01*
X86635000Y16387382D01*
X86635000Y16433982D01*
X86639040Y16475001D01*
X86622918Y16638689D01*
X86575172Y16796087D01*
X86497636Y16941146D01*
X86419439Y17036429D01*
X86393291Y17068291D01*
X86361426Y17094441D01*
X84794446Y18661421D01*
X84768291Y18693291D01*
X84641146Y18797636D01*
X84496087Y18875172D01*
X84338689Y18922918D01*
X84216019Y18935000D01*
X84216018Y18935000D01*
X84175000Y18939040D01*
X84133982Y18935000D01*
X73966018Y18935000D01*
X73924999Y18939040D01*
X73770642Y18923837D01*
X73761311Y18922918D01*
X73603913Y18875172D01*
X73458854Y18797636D01*
X73331709Y18693291D01*
X73305559Y18661426D01*
X71738579Y17094446D01*
X71706709Y17068291D01*
X71623673Y16967110D01*
X71602364Y16941145D01*
X71524828Y16796086D01*
X71477082Y16638688D01*
X71460960Y16475000D01*
X71465000Y16433981D01*
X71465000Y16387383D01*
X71422498Y16352502D01*
X71300000Y16203237D01*
X71177502Y16352502D01*
X70989448Y16506833D01*
X70774900Y16621511D01*
X70542101Y16692130D01*
X70300000Y16715975D01*
X70057898Y16692130D01*
X69825099Y16621511D01*
X69610551Y16506833D01*
X69456691Y16380564D01*
X69430537Y16429494D01*
X69351185Y16526185D01*
X69254494Y16605537D01*
X69144180Y16664502D01*
X69024482Y16700812D01*
X68900000Y16713072D01*
X68585750Y16710000D01*
X68427000Y16551250D01*
X68427000Y15327000D01*
X68447000Y15327000D01*
X68447000Y15073000D01*
X68427000Y15073000D01*
X68427000Y13848750D01*
X68585750Y13690000D01*
X68900000Y13686928D01*
X69024482Y13699188D01*
X69144180Y13735498D01*
X69254494Y13794463D01*
X69351185Y13873815D01*
X69430537Y13970506D01*
X69456692Y14019437D01*
X69610552Y13893167D01*
X69825100Y13778489D01*
X70057899Y13707870D01*
X70300000Y13684025D01*
X70542102Y13707870D01*
X70774901Y13778489D01*
X70989449Y13893167D01*
X71177502Y14047498D01*
X71300001Y14196763D01*
X71422499Y14047498D01*
X71465001Y14012618D01*
X71465000Y11545869D01*
X70654133Y10735000D01*
X57278937Y10735000D01*
X57237919Y10739040D01*
X57196900Y10735000D01*
X57074230Y10722918D01*
X56916832Y10675172D01*
X56771773Y10597636D01*
X56644628Y10493291D01*
X56618480Y10461429D01*
X56018574Y9861522D01*
X55986710Y9835372D01*
X55960562Y9803510D01*
X55882364Y9708226D01*
X55804828Y9563167D01*
X55757082Y9405769D01*
X55743415Y9267006D01*
X55633368Y9193475D01*
X55426525Y8986632D01*
X55310000Y8812240D01*
X55193475Y8986632D01*
X54986632Y9193475D01*
X54743411Y9355990D01*
X54473158Y9467932D01*
X54186260Y9525000D01*
X53893740Y9525000D01*
X53606842Y9467932D01*
X53336589Y9355990D01*
X53093368Y9193475D01*
X52886525Y8986632D01*
X52770000Y8812240D01*
X52653475Y8986632D01*
X52539447Y9100660D01*
X53603788Y10165000D01*
X55658982Y10165000D01*
X55700000Y10160960D01*
X55741018Y10165000D01*
X55741019Y10165000D01*
X55863689Y10177082D01*
X56021087Y10224828D01*
X56166146Y10302364D01*
X56293291Y10406709D01*
X56319445Y10438578D01*
X57361433Y11480564D01*
X57393291Y11506709D01*
X57438199Y11561429D01*
X57497636Y11633854D01*
X57575172Y11778913D01*
X57622918Y11936311D01*
X57639040Y12100000D01*
X57635000Y12141018D01*
X57635000Y14012618D01*
X57677502Y14047498D01*
X57800481Y14197348D01*
X57843693Y14133275D01*
X58016526Y13961922D01*
X58219467Y13827579D01*
X58444718Y13735409D01*
X58482391Y13731538D01*
X58673000Y13856269D01*
X58673000Y15073000D01*
X58927000Y15073000D01*
X58927000Y13856269D01*
X59117609Y13731538D01*
X59155282Y13735409D01*
X59380533Y13827579D01*
X59583474Y13961922D01*
X59756307Y14133275D01*
X59800000Y14198061D01*
X59843693Y14133275D01*
X60016526Y13961922D01*
X60219467Y13827579D01*
X60444718Y13735409D01*
X60482391Y13731538D01*
X60673000Y13856269D01*
X60673000Y15073000D01*
X60927000Y15073000D01*
X60927000Y13856269D01*
X61117609Y13731538D01*
X61155282Y13735409D01*
X61380533Y13827579D01*
X61583474Y13961922D01*
X61756307Y14133275D01*
X61885609Y14325000D01*
X67061928Y14325000D01*
X67074188Y14200518D01*
X67110498Y14080820D01*
X67169463Y13970506D01*
X67248815Y13873815D01*
X67345506Y13794463D01*
X67455820Y13735498D01*
X67575518Y13699188D01*
X67700000Y13686928D01*
X68014250Y13690000D01*
X68173000Y13848750D01*
X68173000Y15073000D01*
X67223750Y15073000D01*
X67065000Y14914250D01*
X67061928Y14325000D01*
X61885609Y14325000D01*
X61892390Y14335054D01*
X61986493Y14559504D01*
X62035000Y14798000D01*
X62035000Y15073000D01*
X60927000Y15073000D01*
X60673000Y15073000D01*
X58927000Y15073000D01*
X58673000Y15073000D01*
X58653000Y15073000D01*
X58653000Y15327000D01*
X58673000Y15327000D01*
X58673000Y16543731D01*
X58927000Y16543731D01*
X58927000Y15327000D01*
X60673000Y15327000D01*
X60673000Y16543731D01*
X60927000Y16543731D01*
X60927000Y15327000D01*
X62035000Y15327000D01*
X62035000Y15602000D01*
X61986493Y15840496D01*
X61892390Y16064946D01*
X61885610Y16075000D01*
X67061928Y16075000D01*
X67065000Y15485750D01*
X67223750Y15327000D01*
X68173000Y15327000D01*
X68173000Y16551250D01*
X68014250Y16710000D01*
X67700000Y16713072D01*
X67575518Y16700812D01*
X67455820Y16664502D01*
X67345506Y16605537D01*
X67248815Y16526185D01*
X67169463Y16429494D01*
X67110498Y16319180D01*
X67074188Y16199482D01*
X67061928Y16075000D01*
X61885610Y16075000D01*
X61756307Y16266725D01*
X61583474Y16438078D01*
X61380533Y16572421D01*
X61155282Y16664591D01*
X61117609Y16668462D01*
X60927000Y16543731D01*
X60673000Y16543731D01*
X60482391Y16668462D01*
X60444718Y16664591D01*
X60219467Y16572421D01*
X60016526Y16438078D01*
X59843693Y16266725D01*
X59800000Y16201939D01*
X59756307Y16266725D01*
X59583474Y16438078D01*
X59380533Y16572421D01*
X59155282Y16664591D01*
X59117609Y16668462D01*
X58927000Y16543731D01*
X58673000Y16543731D01*
X58482391Y16668462D01*
X58444718Y16664591D01*
X58219467Y16572421D01*
X58016526Y16438078D01*
X57843693Y16266725D01*
X57800481Y16202652D01*
X57677502Y16352502D01*
X57489448Y16506833D01*
X57274900Y16621511D01*
X57042101Y16692130D01*
X56800000Y16715975D01*
X56557898Y16692130D01*
X56325099Y16621511D01*
X56110551Y16506833D01*
X55922498Y16352502D01*
X55800000Y16203237D01*
X55677502Y16352502D01*
X55489448Y16506833D01*
X55274900Y16621511D01*
X55042101Y16692130D01*
X54800000Y16715975D01*
X54557898Y16692130D01*
X54325099Y16621511D01*
X54110551Y16506833D01*
X53922498Y16352502D01*
X53800000Y16203237D01*
X53677502Y16352502D01*
X53489448Y16506833D01*
X53274900Y16621511D01*
X53042101Y16692130D01*
X52800000Y16715975D01*
X52557898Y16692130D01*
X52325099Y16621511D01*
X52110551Y16506833D01*
X51922498Y16352502D01*
X51890809Y16313889D01*
X51888405Y16318387D01*
X51777962Y16452962D01*
X51643387Y16563405D01*
X51489851Y16645472D01*
X51323255Y16696008D01*
X51150001Y16713072D01*
X50449999Y16713072D01*
X50276745Y16696008D01*
X50110149Y16645472D01*
X49956613Y16563405D01*
X49822038Y16452962D01*
X49711595Y16318387D01*
X49629528Y16164851D01*
X49578992Y15998255D01*
X49561928Y15825001D01*
X49561928Y14574999D01*
X49578992Y14401745D01*
X49629528Y14235149D01*
X49711595Y14081613D01*
X49822038Y13947038D01*
X49956613Y13836595D01*
X50110149Y13754528D01*
X50276745Y13703992D01*
X50449999Y13686928D01*
X51150001Y13686928D01*
X51323255Y13703992D01*
X51489851Y13754528D01*
X51643387Y13836595D01*
X51777962Y13947038D01*
X51888405Y14081613D01*
X51890810Y14086112D01*
X51922499Y14047498D01*
X52110552Y13893167D01*
X52325100Y13778489D01*
X52557899Y13707870D01*
X52800000Y13684025D01*
X53042102Y13707870D01*
X53274901Y13778489D01*
X53489449Y13893167D01*
X53677502Y14047498D01*
X53800001Y14196763D01*
X53922499Y14047498D01*
X54110552Y13893167D01*
X54325100Y13778489D01*
X54557899Y13707870D01*
X54800000Y13684025D01*
X55042102Y13707870D01*
X55274901Y13778489D01*
X55489449Y13893167D01*
X55677502Y14047498D01*
X55800001Y14196763D01*
X55922499Y14047498D01*
X55965001Y14012618D01*
X55965000Y12445869D01*
X55354133Y11835000D01*
X53298937Y11835000D01*
X53257919Y11839040D01*
X53216900Y11835000D01*
X53094230Y11822918D01*
X52936832Y11775172D01*
X52791773Y11697636D01*
X52664628Y11593291D01*
X52638482Y11561432D01*
X50938574Y9861522D01*
X50906710Y9835372D01*
X50880562Y9803510D01*
X50802364Y9708226D01*
X50724828Y9563167D01*
X50677082Y9405769D01*
X50663415Y9267006D01*
X50553368Y9193475D01*
X50346525Y8986632D01*
X50230000Y8812240D01*
X50113475Y8986632D01*
X49906632Y9193475D01*
X49795000Y9268065D01*
X49795000Y13498982D01*
X49799040Y13540000D01*
X49782918Y13703688D01*
X49781650Y13707870D01*
X49735172Y13861087D01*
X49657636Y14006146D01*
X49553291Y14133291D01*
X49521433Y14159436D01*
X44819446Y18861421D01*
X44793291Y18893291D01*
X44666146Y18997636D01*
X44521087Y19075172D01*
X44363689Y19122918D01*
X44241019Y19135000D01*
X44241018Y19135000D01*
X44200000Y19139040D01*
X44158982Y19135000D01*
X12466018Y19135000D01*
X12424999Y19139040D01*
X12383981Y19135000D01*
X12261311Y19122918D01*
X12103913Y19075172D01*
X11958854Y18997636D01*
X11831709Y18893291D01*
X11805559Y18861427D01*
X9638574Y16694441D01*
X9619221Y16678558D01*
X9510149Y16645472D01*
X9356613Y16563405D01*
X9222038Y16452962D01*
X9111595Y16318387D01*
X9029528Y16164851D01*
X8978992Y15998255D01*
X8961928Y15825001D01*
X3893141Y15825001D01*
X4185163Y16117023D01*
X4422588Y16472355D01*
X4586130Y16867179D01*
X4669503Y17286323D01*
X4669503Y17713677D01*
X4586130Y18132821D01*
X4422588Y18527645D01*
X4185163Y18882977D01*
X3882977Y19185163D01*
X3651247Y19340000D01*
X94348753Y19340000D01*
X94117023Y19185163D01*
G36*
X17322499Y14047498D02*
G01*
X17365001Y14012618D01*
X17365000Y12441019D01*
X17360960Y12400000D01*
X17365000Y12358982D01*
X17377082Y12236312D01*
X17424828Y12078914D01*
X17502364Y11933855D01*
X17606709Y11806709D01*
X17638579Y11780554D01*
X19580559Y9838573D01*
X19606709Y9806709D01*
X19726710Y9708227D01*
X19733854Y9702364D01*
X19878913Y9624828D01*
X20036311Y9577082D01*
X20199999Y9560960D01*
X20241018Y9565000D01*
X44916214Y9565000D01*
X45380553Y9100660D01*
X45266525Y8986632D01*
X45150000Y8812240D01*
X45033475Y8986632D01*
X44826632Y9193475D01*
X44583411Y9355990D01*
X44313158Y9467932D01*
X44026260Y9525000D01*
X43733740Y9525000D01*
X43446842Y9467932D01*
X43176589Y9355990D01*
X42933368Y9193475D01*
X42726525Y8986632D01*
X42610000Y8812240D01*
X42493475Y8986632D01*
X42286632Y9193475D01*
X42043411Y9355990D01*
X41773158Y9467932D01*
X41486260Y9525000D01*
X41193740Y9525000D01*
X40906842Y9467932D01*
X40636589Y9355990D01*
X40393368Y9193475D01*
X40186525Y8986632D01*
X40064805Y8804466D01*
X39995178Y8921355D01*
X39800269Y9137588D01*
X39566920Y9311641D01*
X39304099Y9436825D01*
X39156890Y9481476D01*
X38927000Y9360155D01*
X38927000Y8167000D01*
X38947000Y8167000D01*
X38947000Y7913000D01*
X38927000Y7913000D01*
X38927000Y7893000D01*
X38673000Y7893000D01*
X38673000Y7913000D01*
X37479186Y7913000D01*
X37358519Y7683109D01*
X37455843Y7408748D01*
X37604822Y7158645D01*
X37781626Y6962498D01*
X37705820Y6939502D01*
X37595506Y6880537D01*
X37498815Y6801185D01*
X37419463Y6704494D01*
X37360498Y6594180D01*
X37324188Y6474482D01*
X37311928Y6350000D01*
X37311928Y4650000D01*
X37324188Y4525518D01*
X37360498Y4405820D01*
X37419463Y4295506D01*
X37498815Y4198815D01*
X37595506Y4119463D01*
X37705820Y4060498D01*
X37825518Y4024188D01*
X37950000Y4011928D01*
X39650000Y4011928D01*
X39774482Y4024188D01*
X39894180Y4060498D01*
X40004494Y4119463D01*
X40101185Y4198815D01*
X40180537Y4295506D01*
X40239502Y4405820D01*
X40261513Y4478380D01*
X40393368Y4346525D01*
X40636589Y4184010D01*
X40906842Y4072068D01*
X41193740Y4015000D01*
X41486260Y4015000D01*
X41773158Y4072068D01*
X42043411Y4184010D01*
X42286632Y4346525D01*
X42493475Y4553368D01*
X42610000Y4727760D01*
X42726525Y4553368D01*
X42933368Y4346525D01*
X43176589Y4184010D01*
X43446842Y4072068D01*
X43733740Y4015000D01*
X44026260Y4015000D01*
X44313158Y4072068D01*
X44583411Y4184010D01*
X44826632Y4346525D01*
X45033475Y4553368D01*
X45150000Y4727760D01*
X45266525Y4553368D01*
X45380553Y4439340D01*
X44776214Y3835000D01*
X23470868Y3835000D01*
X18908977Y8396891D01*
X37358519Y8396891D01*
X37479186Y8167000D01*
X38673000Y8167000D01*
X38673000Y9360155D01*
X38443110Y9481476D01*
X38295901Y9436825D01*
X38033080Y9311641D01*
X37799731Y9137588D01*
X37604822Y8921355D01*
X37455843Y8671252D01*
X37358519Y8396891D01*
X18908977Y8396891D01*
X13159029Y14146838D01*
X13200001Y14196763D01*
X13322499Y14047498D01*
X13510552Y13893167D01*
X13725100Y13778489D01*
X13957899Y13707870D01*
X14200000Y13684025D01*
X14442102Y13707870D01*
X14674901Y13778489D01*
X14889449Y13893167D01*
X15077502Y14047498D01*
X15200001Y14196763D01*
X15322499Y14047498D01*
X15510552Y13893167D01*
X15725100Y13778489D01*
X15957899Y13707870D01*
X16200000Y13684025D01*
X16442102Y13707870D01*
X16674901Y13778489D01*
X16889449Y13893167D01*
X17077502Y14047498D01*
X17200001Y14196763D01*
X17322499Y14047498D01*
G37*
X17322499Y14047498D02*
X17365001Y14012618D01*
X17365000Y12441019D01*
X17360960Y12400000D01*
X17365000Y12358982D01*
X17377082Y12236312D01*
X17424828Y12078914D01*
X17502364Y11933855D01*
X17606709Y11806709D01*
X17638579Y11780554D01*
X19580559Y9838573D01*
X19606709Y9806709D01*
X19726710Y9708227D01*
X19733854Y9702364D01*
X19878913Y9624828D01*
X20036311Y9577082D01*
X20199999Y9560960D01*
X20241018Y9565000D01*
X44916214Y9565000D01*
X45380553Y9100660D01*
X45266525Y8986632D01*
X45150000Y8812240D01*
X45033475Y8986632D01*
X44826632Y9193475D01*
X44583411Y9355990D01*
X44313158Y9467932D01*
X44026260Y9525000D01*
X43733740Y9525000D01*
X43446842Y9467932D01*
X43176589Y9355990D01*
X42933368Y9193475D01*
X42726525Y8986632D01*
X42610000Y8812240D01*
X42493475Y8986632D01*
X42286632Y9193475D01*
X42043411Y9355990D01*
X41773158Y9467932D01*
X41486260Y9525000D01*
X41193740Y9525000D01*
X40906842Y9467932D01*
X40636589Y9355990D01*
X40393368Y9193475D01*
X40186525Y8986632D01*
X40064805Y8804466D01*
X39995178Y8921355D01*
X39800269Y9137588D01*
X39566920Y9311641D01*
X39304099Y9436825D01*
X39156890Y9481476D01*
X38927000Y9360155D01*
X38927000Y8167000D01*
X38947000Y8167000D01*
X38947000Y7913000D01*
X38927000Y7913000D01*
X38927000Y7893000D01*
X38673000Y7893000D01*
X38673000Y7913000D01*
X37479186Y7913000D01*
X37358519Y7683109D01*
X37455843Y7408748D01*
X37604822Y7158645D01*
X37781626Y6962498D01*
X37705820Y6939502D01*
X37595506Y6880537D01*
X37498815Y6801185D01*
X37419463Y6704494D01*
X37360498Y6594180D01*
X37324188Y6474482D01*
X37311928Y6350000D01*
X37311928Y4650000D01*
X37324188Y4525518D01*
X37360498Y4405820D01*
X37419463Y4295506D01*
X37498815Y4198815D01*
X37595506Y4119463D01*
X37705820Y4060498D01*
X37825518Y4024188D01*
X37950000Y4011928D01*
X39650000Y4011928D01*
X39774482Y4024188D01*
X39894180Y4060498D01*
X40004494Y4119463D01*
X40101185Y4198815D01*
X40180537Y4295506D01*
X40239502Y4405820D01*
X40261513Y4478380D01*
X40393368Y4346525D01*
X40636589Y4184010D01*
X40906842Y4072068D01*
X41193740Y4015000D01*
X41486260Y4015000D01*
X41773158Y4072068D01*
X42043411Y4184010D01*
X42286632Y4346525D01*
X42493475Y4553368D01*
X42610000Y4727760D01*
X42726525Y4553368D01*
X42933368Y4346525D01*
X43176589Y4184010D01*
X43446842Y4072068D01*
X43733740Y4015000D01*
X44026260Y4015000D01*
X44313158Y4072068D01*
X44583411Y4184010D01*
X44826632Y4346525D01*
X45033475Y4553368D01*
X45150000Y4727760D01*
X45266525Y4553368D01*
X45380553Y4439340D01*
X44776214Y3835000D01*
X23470868Y3835000D01*
X18908977Y8396891D01*
X37358519Y8396891D01*
X37479186Y8167000D01*
X38673000Y8167000D01*
X38673000Y9360155D01*
X38443110Y9481476D01*
X38295901Y9436825D01*
X38033080Y9311641D01*
X37799731Y9137588D01*
X37604822Y8921355D01*
X37455843Y8671252D01*
X37358519Y8396891D01*
X18908977Y8396891D01*
X13159029Y14146838D01*
X13200001Y14196763D01*
X13322499Y14047498D01*
X13510552Y13893167D01*
X13725100Y13778489D01*
X13957899Y13707870D01*
X14200000Y13684025D01*
X14442102Y13707870D01*
X14674901Y13778489D01*
X14889449Y13893167D01*
X15077502Y14047498D01*
X15200001Y14196763D01*
X15322499Y14047498D01*
X15510552Y13893167D01*
X15725100Y13778489D01*
X15957899Y13707870D01*
X16200000Y13684025D01*
X16442102Y13707870D01*
X16674901Y13778489D01*
X16889449Y13893167D01*
X17077502Y14047498D01*
X17200001Y14196763D01*
X17322499Y14047498D01*
G36*
X84840971Y16253161D02*
G01*
X84800000Y16203237D01*
X84677502Y16352502D01*
X84489448Y16506833D01*
X84274900Y16621511D01*
X84042101Y16692130D01*
X83800000Y16715975D01*
X83557898Y16692130D01*
X83325099Y16621511D01*
X83110551Y16506833D01*
X82956691Y16380564D01*
X82930537Y16429494D01*
X82851185Y16526185D01*
X82754494Y16605537D01*
X82644180Y16664502D01*
X82524482Y16700812D01*
X82400000Y16713072D01*
X82085750Y16710000D01*
X81927000Y16551250D01*
X81927000Y15327000D01*
X81947000Y15327000D01*
X81947000Y15073000D01*
X81927000Y15073000D01*
X81927000Y13848750D01*
X82085750Y13690000D01*
X82400000Y13686928D01*
X82524482Y13699188D01*
X82644180Y13735498D01*
X82754494Y13794463D01*
X82851185Y13873815D01*
X82930537Y13970506D01*
X82956692Y14019437D01*
X83110552Y13893167D01*
X83325100Y13778489D01*
X83557899Y13707870D01*
X83800000Y13684025D01*
X84042102Y13707870D01*
X84274901Y13778489D01*
X84489449Y13893167D01*
X84677502Y14047498D01*
X84800001Y14196763D01*
X84922499Y14047498D01*
X85110552Y13893167D01*
X85325100Y13778489D01*
X85557899Y13707870D01*
X85800000Y13684025D01*
X86042102Y13707870D01*
X86274901Y13778489D01*
X86489449Y13893167D01*
X86677502Y14047498D01*
X86800001Y14196763D01*
X86922499Y14047498D01*
X86965001Y14012618D01*
X86965000Y9845869D01*
X81354133Y4235000D01*
X70215867Y4235000D01*
X74861433Y8880564D01*
X74893291Y8906709D01*
X74997636Y9033854D01*
X75075172Y9178913D01*
X75122918Y9336311D01*
X75135000Y9458981D01*
X75135000Y9458982D01*
X75139040Y9500000D01*
X75135000Y9541018D01*
X75135000Y14012618D01*
X75177502Y14047498D01*
X75331833Y14235551D01*
X75379644Y14325000D01*
X80561928Y14325000D01*
X80574188Y14200518D01*
X80610498Y14080820D01*
X80669463Y13970506D01*
X80748815Y13873815D01*
X80845506Y13794463D01*
X80955820Y13735498D01*
X81075518Y13699188D01*
X81200000Y13686928D01*
X81514250Y13690000D01*
X81673000Y13848750D01*
X81673000Y15073000D01*
X80723750Y15073000D01*
X80565000Y14914250D01*
X80561928Y14325000D01*
X75379644Y14325000D01*
X75446511Y14450100D01*
X75517130Y14682899D01*
X75535000Y14864336D01*
X75535000Y15535665D01*
X75517130Y15717102D01*
X75446511Y15949901D01*
X75379645Y16075000D01*
X80561928Y16075000D01*
X80565000Y15485750D01*
X80723750Y15327000D01*
X81673000Y15327000D01*
X81673000Y16551250D01*
X81514250Y16710000D01*
X81200000Y16713072D01*
X81075518Y16700812D01*
X80955820Y16664502D01*
X80845506Y16605537D01*
X80748815Y16526185D01*
X80669463Y16429494D01*
X80610498Y16319180D01*
X80574188Y16199482D01*
X80561928Y16075000D01*
X75379645Y16075000D01*
X75331833Y16164449D01*
X75177502Y16352502D01*
X74989448Y16506833D01*
X74774900Y16621511D01*
X74542101Y16692130D01*
X74300000Y16715975D01*
X74057898Y16692130D01*
X73825099Y16621511D01*
X73610551Y16506833D01*
X73422498Y16352502D01*
X73300000Y16203237D01*
X73259029Y16253161D01*
X74270868Y17265000D01*
X83829133Y17265000D01*
X84840971Y16253161D01*
G37*
X84840971Y16253161D02*
X84800000Y16203237D01*
X84677502Y16352502D01*
X84489448Y16506833D01*
X84274900Y16621511D01*
X84042101Y16692130D01*
X83800000Y16715975D01*
X83557898Y16692130D01*
X83325099Y16621511D01*
X83110551Y16506833D01*
X82956691Y16380564D01*
X82930537Y16429494D01*
X82851185Y16526185D01*
X82754494Y16605537D01*
X82644180Y16664502D01*
X82524482Y16700812D01*
X82400000Y16713072D01*
X82085750Y16710000D01*
X81927000Y16551250D01*
X81927000Y15327000D01*
X81947000Y15327000D01*
X81947000Y15073000D01*
X81927000Y15073000D01*
X81927000Y13848750D01*
X82085750Y13690000D01*
X82400000Y13686928D01*
X82524482Y13699188D01*
X82644180Y13735498D01*
X82754494Y13794463D01*
X82851185Y13873815D01*
X82930537Y13970506D01*
X82956692Y14019437D01*
X83110552Y13893167D01*
X83325100Y13778489D01*
X83557899Y13707870D01*
X83800000Y13684025D01*
X84042102Y13707870D01*
X84274901Y13778489D01*
X84489449Y13893167D01*
X84677502Y14047498D01*
X84800001Y14196763D01*
X84922499Y14047498D01*
X85110552Y13893167D01*
X85325100Y13778489D01*
X85557899Y13707870D01*
X85800000Y13684025D01*
X86042102Y13707870D01*
X86274901Y13778489D01*
X86489449Y13893167D01*
X86677502Y14047498D01*
X86800001Y14196763D01*
X86922499Y14047498D01*
X86965001Y14012618D01*
X86965000Y9845869D01*
X81354133Y4235000D01*
X70215867Y4235000D01*
X74861433Y8880564D01*
X74893291Y8906709D01*
X74997636Y9033854D01*
X75075172Y9178913D01*
X75122918Y9336311D01*
X75135000Y9458981D01*
X75135000Y9458982D01*
X75139040Y9500000D01*
X75135000Y9541018D01*
X75135000Y14012618D01*
X75177502Y14047498D01*
X75331833Y14235551D01*
X75379644Y14325000D01*
X80561928Y14325000D01*
X80574188Y14200518D01*
X80610498Y14080820D01*
X80669463Y13970506D01*
X80748815Y13873815D01*
X80845506Y13794463D01*
X80955820Y13735498D01*
X81075518Y13699188D01*
X81200000Y13686928D01*
X81514250Y13690000D01*
X81673000Y13848750D01*
X81673000Y15073000D01*
X80723750Y15073000D01*
X80565000Y14914250D01*
X80561928Y14325000D01*
X75379644Y14325000D01*
X75446511Y14450100D01*
X75517130Y14682899D01*
X75535000Y14864336D01*
X75535000Y15535665D01*
X75517130Y15717102D01*
X75446511Y15949901D01*
X75379645Y16075000D01*
X80561928Y16075000D01*
X80565000Y15485750D01*
X80723750Y15327000D01*
X81673000Y15327000D01*
X81673000Y16551250D01*
X81514250Y16710000D01*
X81200000Y16713072D01*
X81075518Y16700812D01*
X80955820Y16664502D01*
X80845506Y16605537D01*
X80748815Y16526185D01*
X80669463Y16429494D01*
X80610498Y16319180D01*
X80574188Y16199482D01*
X80561928Y16075000D01*
X75379645Y16075000D01*
X75331833Y16164449D01*
X75177502Y16352502D01*
X74989448Y16506833D01*
X74774900Y16621511D01*
X74542101Y16692130D01*
X74300000Y16715975D01*
X74057898Y16692130D01*
X73825099Y16621511D01*
X73610551Y16506833D01*
X73422498Y16352502D01*
X73300000Y16203237D01*
X73259029Y16253161D01*
X74270868Y17265000D01*
X83829133Y17265000D01*
X84840971Y16253161D01*
G36*
X73422499Y14047498D02*
G01*
X73465001Y14012618D01*
X73465000Y10558982D01*
X73465001Y10558973D01*
X73465000Y9845869D01*
X67854133Y4235000D01*
X59895823Y4235000D01*
X60120269Y4402412D01*
X60315178Y4618645D01*
X60464157Y4868748D01*
X60561481Y5143109D01*
X60440814Y5373000D01*
X59247000Y5373000D01*
X59247000Y5353000D01*
X58993000Y5353000D01*
X58993000Y5373000D01*
X58973000Y5373000D01*
X58973000Y5627000D01*
X58993000Y5627000D01*
X58993000Y5647000D01*
X59247000Y5647000D01*
X59247000Y5627000D01*
X60440814Y5627000D01*
X60561481Y5856891D01*
X60464157Y6131252D01*
X60315178Y6381355D01*
X60120269Y6597588D01*
X59890594Y6768900D01*
X60066632Y6886525D01*
X60273475Y7093368D01*
X60435990Y7336589D01*
X60547932Y7606842D01*
X60605000Y7893740D01*
X60605000Y8186260D01*
X60547932Y8473158D01*
X60435990Y8743411D01*
X60273475Y8986632D01*
X60195107Y9065000D01*
X70958982Y9065000D01*
X71000000Y9060960D01*
X71041018Y9065000D01*
X71041019Y9065000D01*
X71163689Y9077082D01*
X71321087Y9124828D01*
X71466146Y9202364D01*
X71593291Y9306709D01*
X71619446Y9338578D01*
X72861433Y10580564D01*
X72893291Y10606709D01*
X72921449Y10641019D01*
X72997636Y10733854D01*
X73075172Y10878913D01*
X73111903Y11000000D01*
X73122918Y11036311D01*
X73135000Y11158981D01*
X73135000Y11158982D01*
X73139040Y11200000D01*
X73135000Y11241018D01*
X73135000Y14012618D01*
X73177502Y14047498D01*
X73300001Y14196763D01*
X73422499Y14047498D01*
G37*
X73422499Y14047498D02*
X73465001Y14012618D01*
X73465000Y10558982D01*
X73465001Y10558973D01*
X73465000Y9845869D01*
X67854133Y4235000D01*
X59895823Y4235000D01*
X60120269Y4402412D01*
X60315178Y4618645D01*
X60464157Y4868748D01*
X60561481Y5143109D01*
X60440814Y5373000D01*
X59247000Y5373000D01*
X59247000Y5353000D01*
X58993000Y5353000D01*
X58993000Y5373000D01*
X58973000Y5373000D01*
X58973000Y5627000D01*
X58993000Y5627000D01*
X58993000Y5647000D01*
X59247000Y5647000D01*
X59247000Y5627000D01*
X60440814Y5627000D01*
X60561481Y5856891D01*
X60464157Y6131252D01*
X60315178Y6381355D01*
X60120269Y6597588D01*
X59890594Y6768900D01*
X60066632Y6886525D01*
X60273475Y7093368D01*
X60435990Y7336589D01*
X60547932Y7606842D01*
X60605000Y7893740D01*
X60605000Y8186260D01*
X60547932Y8473158D01*
X60435990Y8743411D01*
X60273475Y8986632D01*
X60195107Y9065000D01*
X70958982Y9065000D01*
X71000000Y9060960D01*
X71041018Y9065000D01*
X71041019Y9065000D01*
X71163689Y9077082D01*
X71321087Y9124828D01*
X71466146Y9202364D01*
X71593291Y9306709D01*
X71619446Y9338578D01*
X72861433Y10580564D01*
X72893291Y10606709D01*
X72921449Y10641019D01*
X72997636Y10733854D01*
X73075172Y10878913D01*
X73111903Y11000000D01*
X73122918Y11036311D01*
X73135000Y11158981D01*
X73135000Y11158982D01*
X73139040Y11200000D01*
X73135000Y11241018D01*
X73135000Y14012618D01*
X73177502Y14047498D01*
X73300001Y14196763D01*
X73422499Y14047498D01*
G36*
X48125000Y13194131D02*
G01*
X48125001Y9268066D01*
X48013368Y9193475D01*
X47806525Y8986632D01*
X47690000Y8812240D01*
X47573475Y8986632D01*
X47366632Y9193475D01*
X47256585Y9267006D01*
X47242918Y9405769D01*
X47234399Y9433855D01*
X47195172Y9563168D01*
X47117636Y9708227D01*
X47074359Y9760960D01*
X47039439Y9803511D01*
X47039437Y9803513D01*
X47013291Y9835372D01*
X46981432Y9861518D01*
X45881526Y10961422D01*
X45855372Y10993291D01*
X45728227Y11097636D01*
X45583168Y11175172D01*
X45425770Y11222918D01*
X45303100Y11235000D01*
X45303099Y11235000D01*
X45262081Y11239040D01*
X45221063Y11235000D01*
X20545868Y11235000D01*
X19035000Y12745867D01*
X19035000Y14012618D01*
X19077502Y14047498D01*
X19200001Y14196763D01*
X19322499Y14047498D01*
X19510552Y13893167D01*
X19725100Y13778489D01*
X19957899Y13707870D01*
X20200000Y13684025D01*
X20442102Y13707870D01*
X20674901Y13778489D01*
X20889449Y13893167D01*
X21077502Y14047498D01*
X21200481Y14197348D01*
X21243693Y14133275D01*
X21416526Y13961922D01*
X21619467Y13827579D01*
X21844718Y13735409D01*
X21882391Y13731538D01*
X22073000Y13856269D01*
X22073000Y15073000D01*
X22327000Y15073000D01*
X22327000Y13856269D01*
X22517609Y13731538D01*
X22555282Y13735409D01*
X22780533Y13827579D01*
X22983474Y13961922D01*
X23156307Y14133275D01*
X23200000Y14198061D01*
X23243693Y14133275D01*
X23416526Y13961922D01*
X23619467Y13827579D01*
X23844718Y13735409D01*
X23882391Y13731538D01*
X24073000Y13856269D01*
X24073000Y15073000D01*
X24327000Y15073000D01*
X24327000Y13856269D01*
X24517609Y13731538D01*
X24555282Y13735409D01*
X24780533Y13827579D01*
X24983474Y13961922D01*
X25156307Y14133275D01*
X25292390Y14335054D01*
X25386493Y14559504D01*
X25435000Y14798000D01*
X25435000Y15073000D01*
X24327000Y15073000D01*
X24073000Y15073000D01*
X22327000Y15073000D01*
X22073000Y15073000D01*
X22053000Y15073000D01*
X22053000Y15327000D01*
X22073000Y15327000D01*
X22073000Y16543731D01*
X22327000Y16543731D01*
X22327000Y15327000D01*
X24073000Y15327000D01*
X24073000Y16543731D01*
X24327000Y16543731D01*
X24327000Y15327000D01*
X25435000Y15327000D01*
X25435000Y15602000D01*
X25389645Y15825001D01*
X30461928Y15825001D01*
X30461928Y14574999D01*
X30478992Y14401745D01*
X30529528Y14235149D01*
X30611595Y14081613D01*
X30722038Y13947038D01*
X30856613Y13836595D01*
X31010149Y13754528D01*
X31176745Y13703992D01*
X31349999Y13686928D01*
X32050001Y13686928D01*
X32223255Y13703992D01*
X32389851Y13754528D01*
X32543387Y13836595D01*
X32677962Y13947038D01*
X32788405Y14081613D01*
X32790967Y14086406D01*
X32916526Y13961922D01*
X33119467Y13827579D01*
X33344718Y13735409D01*
X33382391Y13731538D01*
X33573000Y13856269D01*
X33573000Y15073000D01*
X33827000Y15073000D01*
X33827000Y13856269D01*
X34017609Y13731538D01*
X34055282Y13735409D01*
X34280533Y13827579D01*
X34483474Y13961922D01*
X34656307Y14133275D01*
X34792390Y14335054D01*
X34886493Y14559504D01*
X34935000Y14798000D01*
X34935000Y15073000D01*
X33827000Y15073000D01*
X33573000Y15073000D01*
X33553000Y15073000D01*
X33553000Y15327000D01*
X33573000Y15327000D01*
X33573000Y16543731D01*
X33827000Y16543731D01*
X33827000Y15327000D01*
X34935000Y15327000D01*
X34935000Y15602000D01*
X34889645Y15825001D01*
X39961928Y15825001D01*
X39961928Y14574999D01*
X39978992Y14401745D01*
X40029528Y14235149D01*
X40111595Y14081613D01*
X40222038Y13947038D01*
X40356613Y13836595D01*
X40510149Y13754528D01*
X40676745Y13703992D01*
X40849999Y13686928D01*
X41550001Y13686928D01*
X41723255Y13703992D01*
X41889851Y13754528D01*
X42043387Y13836595D01*
X42177962Y13947038D01*
X42288405Y14081613D01*
X42290810Y14086112D01*
X42322499Y14047498D01*
X42510552Y13893167D01*
X42725100Y13778489D01*
X42957899Y13707870D01*
X43200000Y13684025D01*
X43442102Y13707870D01*
X43674901Y13778489D01*
X43889449Y13893167D01*
X44077502Y14047498D01*
X44231833Y14235551D01*
X44346511Y14450100D01*
X44417130Y14682899D01*
X44435000Y14864336D01*
X44435000Y15535665D01*
X44417130Y15717102D01*
X44346511Y15949901D01*
X44231833Y16164449D01*
X44077502Y16352502D01*
X43889448Y16506833D01*
X43674900Y16621511D01*
X43442101Y16692130D01*
X43200000Y16715975D01*
X42957898Y16692130D01*
X42725099Y16621511D01*
X42510551Y16506833D01*
X42322498Y16352502D01*
X42290809Y16313889D01*
X42288405Y16318387D01*
X42177962Y16452962D01*
X42043387Y16563405D01*
X41889851Y16645472D01*
X41723255Y16696008D01*
X41550001Y16713072D01*
X40849999Y16713072D01*
X40676745Y16696008D01*
X40510149Y16645472D01*
X40356613Y16563405D01*
X40222038Y16452962D01*
X40111595Y16318387D01*
X40029528Y16164851D01*
X39978992Y15998255D01*
X39961928Y15825001D01*
X34889645Y15825001D01*
X34886493Y15840496D01*
X34792390Y16064946D01*
X34656307Y16266725D01*
X34483474Y16438078D01*
X34280533Y16572421D01*
X34055282Y16664591D01*
X34017609Y16668462D01*
X33827000Y16543731D01*
X33573000Y16543731D01*
X33382391Y16668462D01*
X33344718Y16664591D01*
X33119467Y16572421D01*
X32916526Y16438078D01*
X32790967Y16313594D01*
X32788405Y16318387D01*
X32677962Y16452962D01*
X32543387Y16563405D01*
X32389851Y16645472D01*
X32223255Y16696008D01*
X32050001Y16713072D01*
X31349999Y16713072D01*
X31176745Y16696008D01*
X31010149Y16645472D01*
X30856613Y16563405D01*
X30722038Y16452962D01*
X30611595Y16318387D01*
X30529528Y16164851D01*
X30478992Y15998255D01*
X30461928Y15825001D01*
X25389645Y15825001D01*
X25386493Y15840496D01*
X25292390Y16064946D01*
X25156307Y16266725D01*
X24983474Y16438078D01*
X24780533Y16572421D01*
X24555282Y16664591D01*
X24517609Y16668462D01*
X24327000Y16543731D01*
X24073000Y16543731D01*
X23882391Y16668462D01*
X23844718Y16664591D01*
X23619467Y16572421D01*
X23416526Y16438078D01*
X23243693Y16266725D01*
X23200000Y16201939D01*
X23156307Y16266725D01*
X22983474Y16438078D01*
X22780533Y16572421D01*
X22555282Y16664591D01*
X22517609Y16668462D01*
X22327000Y16543731D01*
X22073000Y16543731D01*
X21882391Y16668462D01*
X21844718Y16664591D01*
X21619467Y16572421D01*
X21416526Y16438078D01*
X21243693Y16266725D01*
X21200481Y16202652D01*
X21077502Y16352502D01*
X20889448Y16506833D01*
X20674900Y16621511D01*
X20442101Y16692130D01*
X20200000Y16715975D01*
X19957898Y16692130D01*
X19725099Y16621511D01*
X19510551Y16506833D01*
X19322498Y16352502D01*
X19200000Y16203237D01*
X19077502Y16352502D01*
X18889448Y16506833D01*
X18674900Y16621511D01*
X18442101Y16692130D01*
X18200000Y16715975D01*
X17957898Y16692130D01*
X17725099Y16621511D01*
X17510551Y16506833D01*
X17322498Y16352502D01*
X17200000Y16203237D01*
X17077502Y16352502D01*
X16889448Y16506833D01*
X16674900Y16621511D01*
X16442101Y16692130D01*
X16200000Y16715975D01*
X15957898Y16692130D01*
X15725099Y16621511D01*
X15510551Y16506833D01*
X15322498Y16352502D01*
X15200000Y16203237D01*
X15077502Y16352502D01*
X14889448Y16506833D01*
X14674900Y16621511D01*
X14442101Y16692130D01*
X14200000Y16715975D01*
X13957898Y16692130D01*
X13725099Y16621511D01*
X13510551Y16506833D01*
X13322498Y16352502D01*
X13200000Y16203237D01*
X13077502Y16352502D01*
X12889448Y16506833D01*
X12674900Y16621511D01*
X12442101Y16692130D01*
X12200000Y16715975D01*
X12002378Y16696511D01*
X12770868Y17465000D01*
X43854133Y17465000D01*
X48125000Y13194131D01*
G37*
X48125000Y13194131D02*
X48125001Y9268066D01*
X48013368Y9193475D01*
X47806525Y8986632D01*
X47690000Y8812240D01*
X47573475Y8986632D01*
X47366632Y9193475D01*
X47256585Y9267006D01*
X47242918Y9405769D01*
X47234399Y9433855D01*
X47195172Y9563168D01*
X47117636Y9708227D01*
X47074359Y9760960D01*
X47039439Y9803511D01*
X47039437Y9803513D01*
X47013291Y9835372D01*
X46981432Y9861518D01*
X45881526Y10961422D01*
X45855372Y10993291D01*
X45728227Y11097636D01*
X45583168Y11175172D01*
X45425770Y11222918D01*
X45303100Y11235000D01*
X45303099Y11235000D01*
X45262081Y11239040D01*
X45221063Y11235000D01*
X20545868Y11235000D01*
X19035000Y12745867D01*
X19035000Y14012618D01*
X19077502Y14047498D01*
X19200001Y14196763D01*
X19322499Y14047498D01*
X19510552Y13893167D01*
X19725100Y13778489D01*
X19957899Y13707870D01*
X20200000Y13684025D01*
X20442102Y13707870D01*
X20674901Y13778489D01*
X20889449Y13893167D01*
X21077502Y14047498D01*
X21200481Y14197348D01*
X21243693Y14133275D01*
X21416526Y13961922D01*
X21619467Y13827579D01*
X21844718Y13735409D01*
X21882391Y13731538D01*
X22073000Y13856269D01*
X22073000Y15073000D01*
X22327000Y15073000D01*
X22327000Y13856269D01*
X22517609Y13731538D01*
X22555282Y13735409D01*
X22780533Y13827579D01*
X22983474Y13961922D01*
X23156307Y14133275D01*
X23200000Y14198061D01*
X23243693Y14133275D01*
X23416526Y13961922D01*
X23619467Y13827579D01*
X23844718Y13735409D01*
X23882391Y13731538D01*
X24073000Y13856269D01*
X24073000Y15073000D01*
X24327000Y15073000D01*
X24327000Y13856269D01*
X24517609Y13731538D01*
X24555282Y13735409D01*
X24780533Y13827579D01*
X24983474Y13961922D01*
X25156307Y14133275D01*
X25292390Y14335054D01*
X25386493Y14559504D01*
X25435000Y14798000D01*
X25435000Y15073000D01*
X24327000Y15073000D01*
X24073000Y15073000D01*
X22327000Y15073000D01*
X22073000Y15073000D01*
X22053000Y15073000D01*
X22053000Y15327000D01*
X22073000Y15327000D01*
X22073000Y16543731D01*
X22327000Y16543731D01*
X22327000Y15327000D01*
X24073000Y15327000D01*
X24073000Y16543731D01*
X24327000Y16543731D01*
X24327000Y15327000D01*
X25435000Y15327000D01*
X25435000Y15602000D01*
X25389645Y15825001D01*
X30461928Y15825001D01*
X30461928Y14574999D01*
X30478992Y14401745D01*
X30529528Y14235149D01*
X30611595Y14081613D01*
X30722038Y13947038D01*
X30856613Y13836595D01*
X31010149Y13754528D01*
X31176745Y13703992D01*
X31349999Y13686928D01*
X32050001Y13686928D01*
X32223255Y13703992D01*
X32389851Y13754528D01*
X32543387Y13836595D01*
X32677962Y13947038D01*
X32788405Y14081613D01*
X32790967Y14086406D01*
X32916526Y13961922D01*
X33119467Y13827579D01*
X33344718Y13735409D01*
X33382391Y13731538D01*
X33573000Y13856269D01*
X33573000Y15073000D01*
X33827000Y15073000D01*
X33827000Y13856269D01*
X34017609Y13731538D01*
X34055282Y13735409D01*
X34280533Y13827579D01*
X34483474Y13961922D01*
X34656307Y14133275D01*
X34792390Y14335054D01*
X34886493Y14559504D01*
X34935000Y14798000D01*
X34935000Y15073000D01*
X33827000Y15073000D01*
X33573000Y15073000D01*
X33553000Y15073000D01*
X33553000Y15327000D01*
X33573000Y15327000D01*
X33573000Y16543731D01*
X33827000Y16543731D01*
X33827000Y15327000D01*
X34935000Y15327000D01*
X34935000Y15602000D01*
X34889645Y15825001D01*
X39961928Y15825001D01*
X39961928Y14574999D01*
X39978992Y14401745D01*
X40029528Y14235149D01*
X40111595Y14081613D01*
X40222038Y13947038D01*
X40356613Y13836595D01*
X40510149Y13754528D01*
X40676745Y13703992D01*
X40849999Y13686928D01*
X41550001Y13686928D01*
X41723255Y13703992D01*
X41889851Y13754528D01*
X42043387Y13836595D01*
X42177962Y13947038D01*
X42288405Y14081613D01*
X42290810Y14086112D01*
X42322499Y14047498D01*
X42510552Y13893167D01*
X42725100Y13778489D01*
X42957899Y13707870D01*
X43200000Y13684025D01*
X43442102Y13707870D01*
X43674901Y13778489D01*
X43889449Y13893167D01*
X44077502Y14047498D01*
X44231833Y14235551D01*
X44346511Y14450100D01*
X44417130Y14682899D01*
X44435000Y14864336D01*
X44435000Y15535665D01*
X44417130Y15717102D01*
X44346511Y15949901D01*
X44231833Y16164449D01*
X44077502Y16352502D01*
X43889448Y16506833D01*
X43674900Y16621511D01*
X43442101Y16692130D01*
X43200000Y16715975D01*
X42957898Y16692130D01*
X42725099Y16621511D01*
X42510551Y16506833D01*
X42322498Y16352502D01*
X42290809Y16313889D01*
X42288405Y16318387D01*
X42177962Y16452962D01*
X42043387Y16563405D01*
X41889851Y16645472D01*
X41723255Y16696008D01*
X41550001Y16713072D01*
X40849999Y16713072D01*
X40676745Y16696008D01*
X40510149Y16645472D01*
X40356613Y16563405D01*
X40222038Y16452962D01*
X40111595Y16318387D01*
X40029528Y16164851D01*
X39978992Y15998255D01*
X39961928Y15825001D01*
X34889645Y15825001D01*
X34886493Y15840496D01*
X34792390Y16064946D01*
X34656307Y16266725D01*
X34483474Y16438078D01*
X34280533Y16572421D01*
X34055282Y16664591D01*
X34017609Y16668462D01*
X33827000Y16543731D01*
X33573000Y16543731D01*
X33382391Y16668462D01*
X33344718Y16664591D01*
X33119467Y16572421D01*
X32916526Y16438078D01*
X32790967Y16313594D01*
X32788405Y16318387D01*
X32677962Y16452962D01*
X32543387Y16563405D01*
X32389851Y16645472D01*
X32223255Y16696008D01*
X32050001Y16713072D01*
X31349999Y16713072D01*
X31176745Y16696008D01*
X31010149Y16645472D01*
X30856613Y16563405D01*
X30722038Y16452962D01*
X30611595Y16318387D01*
X30529528Y16164851D01*
X30478992Y15998255D01*
X30461928Y15825001D01*
X25389645Y15825001D01*
X25386493Y15840496D01*
X25292390Y16064946D01*
X25156307Y16266725D01*
X24983474Y16438078D01*
X24780533Y16572421D01*
X24555282Y16664591D01*
X24517609Y16668462D01*
X24327000Y16543731D01*
X24073000Y16543731D01*
X23882391Y16668462D01*
X23844718Y16664591D01*
X23619467Y16572421D01*
X23416526Y16438078D01*
X23243693Y16266725D01*
X23200000Y16201939D01*
X23156307Y16266725D01*
X22983474Y16438078D01*
X22780533Y16572421D01*
X22555282Y16664591D01*
X22517609Y16668462D01*
X22327000Y16543731D01*
X22073000Y16543731D01*
X21882391Y16668462D01*
X21844718Y16664591D01*
X21619467Y16572421D01*
X21416526Y16438078D01*
X21243693Y16266725D01*
X21200481Y16202652D01*
X21077502Y16352502D01*
X20889448Y16506833D01*
X20674900Y16621511D01*
X20442101Y16692130D01*
X20200000Y16715975D01*
X19957898Y16692130D01*
X19725099Y16621511D01*
X19510551Y16506833D01*
X19322498Y16352502D01*
X19200000Y16203237D01*
X19077502Y16352502D01*
X18889448Y16506833D01*
X18674900Y16621511D01*
X18442101Y16692130D01*
X18200000Y16715975D01*
X17957898Y16692130D01*
X17725099Y16621511D01*
X17510551Y16506833D01*
X17322498Y16352502D01*
X17200000Y16203237D01*
X17077502Y16352502D01*
X16889448Y16506833D01*
X16674900Y16621511D01*
X16442101Y16692130D01*
X16200000Y16715975D01*
X15957898Y16692130D01*
X15725099Y16621511D01*
X15510551Y16506833D01*
X15322498Y16352502D01*
X15200000Y16203237D01*
X15077502Y16352502D01*
X14889448Y16506833D01*
X14674900Y16621511D01*
X14442101Y16692130D01*
X14200000Y16715975D01*
X13957898Y16692130D01*
X13725099Y16621511D01*
X13510551Y16506833D01*
X13322498Y16352502D01*
X13200000Y16203237D01*
X13077502Y16352502D01*
X12889448Y16506833D01*
X12674900Y16621511D01*
X12442101Y16692130D01*
X12200000Y16715975D01*
X12002378Y16696511D01*
X12770868Y17465000D01*
X43854133Y17465000D01*
X48125000Y13194131D01*
M02*
