M48
; DRILL file {KiCad (5.1.5)-3} date 5/29/2020 4:33:17 PM
; FORMAT={3:3/ absolute / metric / suppress leading zeros}
; #@! TF.CreationDate,2020-05-29T16:33:17+07:00
; #@! TF.GenerationSoftware,Kicad,Pcbnew,(5.1.5)-3
FMAT,2
METRIC,TZ
T1C0.750
T2C1.000
%
G90
G05
T1
X10200Y15200
X12200Y15200
X14200Y15200
X16200Y15200
X18200Y15200
X20200Y15200
X22200Y15200
X24200Y15200
X68300Y15200
X70300Y15200
X72300Y15200
X74300Y15200
X50800Y15200
X52800Y15200
X54800Y15200
X56800Y15200
X58800Y15200
X60800Y15200
X41200Y15200
X43200Y15200
X31700Y15200
X33700Y15200
X81800Y15200
X83800Y15200
X85800Y15200
X87800Y15200
T2
X38800Y8040
X38800Y5500
X41340Y8040
X41340Y5500
X43880Y8040
X43880Y5500
X46420Y8040
X46420Y5500
X48960Y8040
X48960Y5500
X51500Y8040
X51500Y5500
X54040Y8040
X54040Y5500
X56580Y8040
X56580Y5500
X59120Y8040
X59120Y5500
T0
M30
