G04 #@! TF.GenerationSoftware,KiCad,Pcbnew,(5.1.5)-3*
G04 #@! TF.CreationDate,2020-05-29T16:30:41+07:00*
G04 #@! TF.ProjectId,LIBV,4c494256-2e6b-4696-9361-645f70636258,rev?*
G04 #@! TF.SameCoordinates,PX6b93100PY86f1e60*
G04 #@! TF.FileFunction,Legend,Top*
G04 #@! TF.FilePolarity,Positive*
%FSLAX46Y46*%
G04 Gerber Fmt 4.6, Leading zero omitted, Abs format (unit mm)*
G04 Created by KiCad (PCBNEW (5.1.5)-3) date 2020-05-29 16:30:41*
%MOMM*%
%LPD*%
G04 APERTURE LIST*
%ADD10C,0.300000*%
%ADD11C,0.150000*%
%ADD12C,0.010000*%
%ADD13C,0.120000*%
%ADD14C,0.100000*%
G04 APERTURE END LIST*
D10*
X9778571Y53050000D02*
X10778571Y53335715D01*
X10064285Y53621429D01*
X10778571Y53907143D01*
X9778571Y54192858D01*
X9778571Y54621429D02*
X10778571Y54907143D01*
X10064285Y55192858D01*
X10778571Y55478572D01*
X9778571Y55764286D01*
X9778571Y56192858D02*
X10778571Y56478572D01*
X10064285Y56764286D01*
X10778571Y57050000D01*
X9778571Y57335715D01*
X10635714Y57907143D02*
X10707142Y57978572D01*
X10778571Y57907143D01*
X10707142Y57835715D01*
X10635714Y57907143D01*
X10778571Y57907143D01*
X10778571Y58621429D02*
X9278571Y58621429D01*
X9850000Y58621429D02*
X9778571Y58764286D01*
X9778571Y59050000D01*
X9850000Y59192858D01*
X9921428Y59264286D01*
X10064285Y59335715D01*
X10492857Y59335715D01*
X10635714Y59264286D01*
X10707142Y59192858D01*
X10778571Y59050000D01*
X10778571Y58764286D01*
X10707142Y58621429D01*
X9778571Y59835715D02*
X10778571Y60192858D01*
X9778571Y60550000D01*
X10778571Y61121429D02*
X9778571Y61121429D01*
X9921428Y61121429D02*
X9850000Y61192858D01*
X9778571Y61335715D01*
X9778571Y61550000D01*
X9850000Y61692858D01*
X9992857Y61764286D01*
X10778571Y61764286D01*
X9992857Y61764286D02*
X9850000Y61835715D01*
X9778571Y61978572D01*
X9778571Y62192858D01*
X9850000Y62335715D01*
X9992857Y62407143D01*
X10778571Y62407143D01*
X9778571Y62978572D02*
X10778571Y63335715D01*
X9778571Y63692858D01*
X10707142Y64835715D02*
X10778571Y64692858D01*
X10778571Y64407143D01*
X10707142Y64264286D01*
X10564285Y64192858D01*
X9992857Y64192858D01*
X9850000Y64264286D01*
X9778571Y64407143D01*
X9778571Y64692858D01*
X9850000Y64835715D01*
X9992857Y64907143D01*
X10135714Y64907143D01*
X10278571Y64192858D01*
X9778571Y65550000D02*
X10778571Y65550000D01*
X9921428Y65550000D02*
X9850000Y65621429D01*
X9778571Y65764286D01*
X9778571Y65978572D01*
X9850000Y66121429D01*
X9992857Y66192858D01*
X10778571Y66192858D01*
X9778571Y66692858D02*
X9778571Y67264286D01*
X9278571Y66907143D02*
X10564285Y66907143D01*
X10707142Y66978572D01*
X10778571Y67121429D01*
X10778571Y67264286D01*
X10635714Y67764286D02*
X10707142Y67835715D01*
X10778571Y67764286D01*
X10707142Y67692858D01*
X10635714Y67764286D01*
X10778571Y67764286D01*
X10778571Y68692858D02*
X10707142Y68550000D01*
X10635714Y68478572D01*
X10492857Y68407143D01*
X10064285Y68407143D01*
X9921428Y68478572D01*
X9850000Y68550000D01*
X9778571Y68692858D01*
X9778571Y68907143D01*
X9850000Y69050000D01*
X9921428Y69121429D01*
X10064285Y69192858D01*
X10492857Y69192858D01*
X10635714Y69121429D01*
X10707142Y69050000D01*
X10778571Y68907143D01*
X10778571Y68692858D01*
X10778571Y69835715D02*
X9778571Y69835715D01*
X10064285Y69835715D02*
X9921428Y69907143D01*
X9850000Y69978572D01*
X9778571Y70121429D01*
X9778571Y70264286D01*
X9778571Y71407143D02*
X10992857Y71407143D01*
X11135714Y71335715D01*
X11207142Y71264286D01*
X11278571Y71121429D01*
X11278571Y70907143D01*
X11207142Y70764286D01*
X10707142Y71407143D02*
X10778571Y71264286D01*
X10778571Y70978572D01*
X10707142Y70835715D01*
X10635714Y70764286D01*
X10492857Y70692858D01*
X10064285Y70692858D01*
X9921428Y70764286D01*
X9850000Y70835715D01*
X9778571Y70978572D01*
X9778571Y71264286D01*
X9850000Y71407143D01*
X4778571Y67014286D02*
X6278571Y67514286D01*
X4778571Y68014286D01*
X6278571Y69300000D02*
X6278571Y68442858D01*
X6278571Y68871429D02*
X4778571Y68871429D01*
X4992857Y68728572D01*
X5135714Y68585715D01*
X5207142Y68442858D01*
X6135714Y69942858D02*
X6207142Y70014286D01*
X6278571Y69942858D01*
X6207142Y69871429D01*
X6135714Y69942858D01*
X6278571Y69942858D01*
X4778571Y70942858D02*
X4778571Y71085715D01*
X4850000Y71228572D01*
X4921428Y71300000D01*
X5064285Y71371429D01*
X5350000Y71442858D01*
X5707142Y71442858D01*
X5992857Y71371429D01*
X6135714Y71300000D01*
X6207142Y71228572D01*
X6278571Y71085715D01*
X6278571Y70942858D01*
X6207142Y70800000D01*
X6135714Y70728572D01*
X5992857Y70657143D01*
X5707142Y70585715D01*
X5350000Y70585715D01*
X5064285Y70657143D01*
X4921428Y70728572D01*
X4850000Y70800000D01*
X4778571Y70942858D01*
D11*
X27552380Y62952381D02*
X27552380Y62476191D01*
X28028571Y62428572D01*
X27980952Y62476191D01*
X27933333Y62571429D01*
X27933333Y62809524D01*
X27980952Y62904762D01*
X28028571Y62952381D01*
X28123809Y63000000D01*
X28361904Y63000000D01*
X28457142Y62952381D01*
X28504761Y62904762D01*
X28552380Y62809524D01*
X28552380Y62571429D01*
X28504761Y62476191D01*
X28457142Y62428572D01*
X27552380Y63285715D02*
X28552380Y63619048D01*
X27552380Y63952381D01*
X28647619Y64047620D02*
X28647619Y64809524D01*
X27647619Y65000000D02*
X27600000Y65047620D01*
X27552380Y65142858D01*
X27552380Y65380953D01*
X27600000Y65476191D01*
X27647619Y65523810D01*
X27742857Y65571429D01*
X27838095Y65571429D01*
X27980952Y65523810D01*
X28552380Y64952381D01*
X28552380Y65571429D01*
X11952380Y62952381D02*
X11952380Y62476191D01*
X12428571Y62428572D01*
X12380952Y62476191D01*
X12333333Y62571429D01*
X12333333Y62809524D01*
X12380952Y62904762D01*
X12428571Y62952381D01*
X12523809Y63000000D01*
X12761904Y63000000D01*
X12857142Y62952381D01*
X12904761Y62904762D01*
X12952380Y62809524D01*
X12952380Y62571429D01*
X12904761Y62476191D01*
X12857142Y62428572D01*
X11952380Y63285715D02*
X12952380Y63619048D01*
X11952380Y63952381D01*
X13047619Y64047620D02*
X13047619Y64809524D01*
X12952380Y65571429D02*
X12952380Y65000000D01*
X12952380Y65285715D02*
X11952380Y65285715D01*
X12095238Y65190477D01*
X12190476Y65095239D01*
X12238095Y65000000D01*
D10*
X1807142Y83728572D02*
X1807142Y84871429D01*
X1707142Y70628572D02*
X1707142Y71771429D01*
X2278571Y71200000D02*
X1135714Y71200000D01*
X13578571Y73057143D02*
X13578571Y72200000D01*
X13578571Y72628572D02*
X12078571Y72628572D01*
X12292857Y72485715D01*
X12435714Y72342858D01*
X12507142Y72200000D01*
X12221428Y73628572D02*
X12150000Y73700000D01*
X12078571Y73842858D01*
X12078571Y74200000D01*
X12150000Y74342858D01*
X12221428Y74414286D01*
X12364285Y74485715D01*
X12507142Y74485715D01*
X12721428Y74414286D01*
X13578571Y73557143D01*
X13578571Y74485715D01*
X12078571Y74914286D02*
X13578571Y75414286D01*
X12078571Y75914286D01*
X13578571Y77557143D02*
X12078571Y77557143D01*
X13578571Y78271429D02*
X12078571Y78271429D01*
X13578571Y79128572D01*
X12078571Y79128572D01*
D11*
X12019047Y27928572D02*
X12780952Y27928572D01*
X12400000Y27547620D02*
X12400000Y28309524D01*
X1719047Y37128572D02*
X2480952Y37128572D01*
X2100000Y36747620D02*
X2100000Y37509524D01*
X12019047Y37128572D02*
X12780952Y37128572D01*
X12400000Y36747620D02*
X12400000Y37509524D01*
X1719047Y45328572D02*
X2480952Y45328572D01*
X2100000Y44947620D02*
X2100000Y45709524D01*
X12019047Y45328572D02*
X12780952Y45328572D01*
X12400000Y44947620D02*
X12400000Y45709524D01*
D12*
G36*
X27577004Y44374766D02*
G01*
X27945320Y44753163D01*
X28499085Y45287602D01*
X29171471Y45917015D01*
X29895653Y46580330D01*
X30604804Y47216478D01*
X31232097Y47764389D01*
X31710707Y48162992D01*
X31973808Y48351217D01*
X31996489Y48358333D01*
X32220051Y48218052D01*
X32636363Y47858506D01*
X33152106Y47371639D01*
X33673962Y46849398D01*
X34108612Y46383725D01*
X34362737Y46066568D01*
X34393333Y45996774D01*
X34198846Y45906476D01*
X33660320Y45735876D01*
X32845156Y45504311D01*
X31820752Y45231120D01*
X30958222Y45011179D01*
X29817363Y44730012D01*
X28829287Y44494878D01*
X28062710Y44321451D01*
X27586349Y44225403D01*
X27460961Y44213482D01*
X27577004Y44374766D01*
G37*
X27577004Y44374766D02*
X27945320Y44753163D01*
X28499085Y45287602D01*
X29171471Y45917015D01*
X29895653Y46580330D01*
X30604804Y47216478D01*
X31232097Y47764389D01*
X31710707Y48162992D01*
X31973808Y48351217D01*
X31996489Y48358333D01*
X32220051Y48218052D01*
X32636363Y47858506D01*
X33152106Y47371639D01*
X33673962Y46849398D01*
X34108612Y46383725D01*
X34362737Y46066568D01*
X34393333Y45996774D01*
X34198846Y45906476D01*
X33660320Y45735876D01*
X32845156Y45504311D01*
X31820752Y45231120D01*
X30958222Y45011179D01*
X29817363Y44730012D01*
X28829287Y44494878D01*
X28062710Y44321451D01*
X27586349Y44225403D01*
X27460961Y44213482D01*
X27577004Y44374766D01*
G36*
X33711569Y49899557D02*
G01*
X34294572Y50460852D01*
X34764044Y50883891D01*
X35039889Y51097431D01*
X35072376Y51110000D01*
X35296744Y50963465D01*
X35702038Y50588185D01*
X36198189Y50080643D01*
X36695129Y49537322D01*
X37102792Y49054706D01*
X37331108Y48729279D01*
X37352100Y48667876D01*
X37213475Y48417633D01*
X36846101Y47975129D01*
X36343979Y47450793D01*
X35782857Y46942119D01*
X35301125Y46582750D01*
X35013832Y46453333D01*
X34718489Y46595827D01*
X34234433Y46971582D01*
X33660323Y47503009D01*
X33592367Y47571224D01*
X32488363Y48689114D01*
X33711569Y49899557D01*
G37*
X33711569Y49899557D02*
X34294572Y50460852D01*
X34764044Y50883891D01*
X35039889Y51097431D01*
X35072376Y51110000D01*
X35296744Y50963465D01*
X35702038Y50588185D01*
X36198189Y50080643D01*
X36695129Y49537322D01*
X37102792Y49054706D01*
X37331108Y48729279D01*
X37352100Y48667876D01*
X37213475Y48417633D01*
X36846101Y47975129D01*
X36343979Y47450793D01*
X35782857Y46942119D01*
X35301125Y46582750D01*
X35013832Y46453333D01*
X34718489Y46595827D01*
X34234433Y46971582D01*
X33660323Y47503009D01*
X33592367Y47571224D01*
X32488363Y48689114D01*
X33711569Y49899557D01*
G36*
X35672888Y46161368D02*
G01*
X35987404Y46576752D01*
X36607495Y47152090D01*
X36774583Y47299221D01*
X37780000Y48182644D01*
X37780000Y46030349D01*
X37762878Y45143149D01*
X37716647Y44448099D01*
X37649003Y44030201D01*
X37591460Y43948611D01*
X37347109Y44120555D01*
X36899362Y44497706D01*
X36421964Y44928021D01*
X35904249Y45431696D01*
X35649863Y45811247D01*
X35672888Y46161368D01*
G37*
X35672888Y46161368D02*
X35987404Y46576752D01*
X36607495Y47152090D01*
X36774583Y47299221D01*
X37780000Y48182644D01*
X37780000Y46030349D01*
X37762878Y45143149D01*
X37716647Y44448099D01*
X37649003Y44030201D01*
X37591460Y43948611D01*
X37347109Y44120555D01*
X36899362Y44497706D01*
X36421964Y44928021D01*
X35904249Y45431696D01*
X35649863Y45811247D01*
X35672888Y46161368D01*
G36*
X3993479Y56878883D02*
G01*
X4143925Y56941187D01*
X4312078Y56874439D01*
X4424806Y56711428D01*
X4406240Y56556804D01*
X4311000Y56482618D01*
X4103877Y56469125D01*
X3962131Y56578585D01*
X3930000Y56706000D01*
X3993479Y56878883D01*
G37*
X3993479Y56878883D02*
X4143925Y56941187D01*
X4312078Y56874439D01*
X4424806Y56711428D01*
X4406240Y56556804D01*
X4311000Y56482618D01*
X4103877Y56469125D01*
X3962131Y56578585D01*
X3930000Y56706000D01*
X3993479Y56878883D01*
G36*
X1191251Y59010798D02*
G01*
X1213435Y59029864D01*
X1324131Y59021416D01*
X1343197Y58999232D01*
X1334749Y58888536D01*
X1312565Y58869469D01*
X1201869Y58877918D01*
X1182802Y58900102D01*
X1191251Y59010798D01*
G37*
X1191251Y59010798D02*
X1213435Y59029864D01*
X1324131Y59021416D01*
X1343197Y58999232D01*
X1334749Y58888536D01*
X1312565Y58869469D01*
X1201869Y58877918D01*
X1182802Y58900102D01*
X1191251Y59010798D01*
G36*
X1451460Y58480555D02*
G01*
X1474667Y58484000D01*
X1557132Y58455113D01*
X1559333Y58446664D01*
X1500004Y58374378D01*
X1474667Y58357000D01*
X1396648Y58363713D01*
X1390000Y58394337D01*
X1451460Y58480555D01*
G37*
X1451460Y58480555D02*
X1474667Y58484000D01*
X1557132Y58455113D01*
X1559333Y58446664D01*
X1500004Y58374378D01*
X1474667Y58357000D01*
X1396648Y58363713D01*
X1390000Y58394337D01*
X1451460Y58480555D01*
G36*
X1455506Y59499029D02*
G01*
X1474667Y59500000D01*
X1556080Y59434912D01*
X1559333Y59410337D01*
X1507463Y59359771D01*
X1474667Y59373000D01*
X1393896Y59449082D01*
X1390000Y59462664D01*
X1455506Y59499029D01*
G37*
X1455506Y59499029D02*
X1474667Y59500000D01*
X1556080Y59434912D01*
X1559333Y59410337D01*
X1507463Y59359771D01*
X1474667Y59373000D01*
X1393896Y59449082D01*
X1390000Y59462664D01*
X1455506Y59499029D01*
G36*
X1949870Y58285563D02*
G01*
X1982667Y58272334D01*
X2063437Y58196251D01*
X2067333Y58182670D01*
X2001827Y58146304D01*
X1982667Y58145334D01*
X1901253Y58210421D01*
X1898000Y58234997D01*
X1949870Y58285563D01*
G37*
X1949870Y58285563D02*
X1982667Y58272334D01*
X2063437Y58196251D01*
X2067333Y58182670D01*
X2001827Y58146304D01*
X1982667Y58145334D01*
X1901253Y58210421D01*
X1898000Y58234997D01*
X1949870Y58285563D01*
G36*
X1940333Y59669334D02*
G01*
X2016415Y59750104D01*
X2029997Y59754000D01*
X2066362Y59688494D01*
X2067333Y59669334D01*
X2002245Y59587920D01*
X1977670Y59584667D01*
X1927104Y59636537D01*
X1940333Y59669334D01*
G37*
X1940333Y59669334D02*
X2016415Y59750104D01*
X2029997Y59754000D01*
X2066362Y59688494D01*
X2067333Y59669334D01*
X2002245Y59587920D01*
X1977670Y59584667D01*
X1927104Y59636537D01*
X1940333Y59669334D01*
G36*
X2470429Y58481540D02*
G01*
X2490667Y58484000D01*
X2572873Y58419571D01*
X2575333Y58399334D01*
X2510904Y58317127D01*
X2490667Y58314667D01*
X2408460Y58379096D01*
X2406000Y58399334D01*
X2470429Y58481540D01*
G37*
X2470429Y58481540D02*
X2490667Y58484000D01*
X2572873Y58419571D01*
X2575333Y58399334D01*
X2510904Y58317127D01*
X2490667Y58314667D01*
X2408460Y58379096D01*
X2406000Y58399334D01*
X2470429Y58481540D01*
G36*
X2617667Y58907334D02*
G01*
X2693749Y58988104D01*
X2707330Y58992000D01*
X2743696Y58926494D01*
X2744667Y58907334D01*
X2679579Y58825920D01*
X2655003Y58822667D01*
X2604437Y58874537D01*
X2617667Y58907334D01*
G37*
X2617667Y58907334D02*
X2693749Y58988104D01*
X2707330Y58992000D01*
X2743696Y58926494D01*
X2744667Y58907334D01*
X2679579Y58825920D01*
X2655003Y58822667D01*
X2604437Y58874537D01*
X2617667Y58907334D01*
G36*
X2220792Y57779837D02*
G01*
X2353115Y57789931D01*
X2383069Y57773153D01*
X2357818Y57734671D01*
X2271944Y57728684D01*
X2181602Y57749362D01*
X2220792Y57779837D01*
G37*
X2220792Y57779837D02*
X2353115Y57789931D01*
X2383069Y57773153D01*
X2357818Y57734671D01*
X2271944Y57728684D01*
X2181602Y57749362D01*
X2220792Y57779837D01*
G36*
X2470429Y59497540D02*
G01*
X2490667Y59500000D01*
X2572873Y59435571D01*
X2575333Y59415334D01*
X2510904Y59333127D01*
X2490667Y59330667D01*
X2408460Y59395096D01*
X2406000Y59415334D01*
X2470429Y59497540D01*
G37*
X2470429Y59497540D02*
X2490667Y59500000D01*
X2572873Y59435571D01*
X2575333Y59415334D01*
X2510904Y59333127D01*
X2490667Y59330667D01*
X2408460Y59395096D01*
X2406000Y59415334D01*
X2470429Y59497540D01*
G36*
X3127538Y58806512D02*
G01*
X3168000Y58822667D01*
X3250243Y58761899D01*
X3252667Y58742997D01*
X3191122Y58628330D01*
X3168000Y58611000D01*
X3095517Y58630194D01*
X3083333Y58690670D01*
X3127538Y58806512D01*
G37*
X3127538Y58806512D02*
X3168000Y58822667D01*
X3250243Y58761899D01*
X3252667Y58742997D01*
X3191122Y58628330D01*
X3168000Y58611000D01*
X3095517Y58630194D01*
X3083333Y58690670D01*
X3127538Y58806512D01*
G36*
X3521932Y56900456D02*
G01*
X3539208Y56945183D01*
X3685217Y57134951D01*
X3907519Y57283868D01*
X4138825Y57354280D01*
X4251731Y57343932D01*
X4372165Y57242790D01*
X4511863Y57048163D01*
X4631235Y56825340D01*
X4690692Y56639613D01*
X4692000Y56617854D01*
X4637465Y56503770D01*
X4522667Y56367334D01*
X4279045Y56215209D01*
X4278437Y56215229D01*
X4278437Y56337855D01*
X4359467Y56370616D01*
X4489173Y56523086D01*
X4516187Y56736640D01*
X4431933Y56931593D01*
X4421067Y56943067D01*
X4228537Y57036531D01*
X4012321Y57014485D01*
X3851510Y56886234D01*
X3845333Y56875334D01*
X3803076Y56653434D01*
X3888667Y56462898D01*
X4060867Y56344211D01*
X4278437Y56337855D01*
X4278437Y56215229D01*
X4035287Y56223579D01*
X3818264Y56385772D01*
X3704274Y56570505D01*
X3701811Y56575160D01*
X3701811Y56936697D01*
X3833487Y56987359D01*
X3879830Y57019548D01*
X3998497Y57132845D01*
X4007345Y57199381D01*
X4003983Y57200838D01*
X3879500Y57177771D01*
X3800153Y57126971D01*
X3682824Y56993854D01*
X3701811Y56936697D01*
X3701811Y56575160D01*
X3630359Y56710231D01*
X3612856Y56691293D01*
X3621096Y56642500D01*
X3625466Y56495639D01*
X3589615Y56452000D01*
X3509284Y56522612D01*
X3484599Y56692880D01*
X3521932Y56900456D01*
G37*
X3521932Y56900456D02*
X3539208Y56945183D01*
X3685217Y57134951D01*
X3907519Y57283868D01*
X4138825Y57354280D01*
X4251731Y57343932D01*
X4372165Y57242790D01*
X4511863Y57048163D01*
X4631235Y56825340D01*
X4690692Y56639613D01*
X4692000Y56617854D01*
X4637465Y56503770D01*
X4522667Y56367334D01*
X4279045Y56215209D01*
X4278437Y56215229D01*
X4278437Y56337855D01*
X4359467Y56370616D01*
X4489173Y56523086D01*
X4516187Y56736640D01*
X4431933Y56931593D01*
X4421067Y56943067D01*
X4228537Y57036531D01*
X4012321Y57014485D01*
X3851510Y56886234D01*
X3845333Y56875334D01*
X3803076Y56653434D01*
X3888667Y56462898D01*
X4060867Y56344211D01*
X4278437Y56337855D01*
X4278437Y56215229D01*
X4035287Y56223579D01*
X3818264Y56385772D01*
X3704274Y56570505D01*
X3701811Y56575160D01*
X3701811Y56936697D01*
X3833487Y56987359D01*
X3879830Y57019548D01*
X3998497Y57132845D01*
X4007345Y57199381D01*
X4003983Y57200838D01*
X3879500Y57177771D01*
X3800153Y57126971D01*
X3682824Y56993854D01*
X3701811Y56936697D01*
X3701811Y56575160D01*
X3630359Y56710231D01*
X3612856Y56691293D01*
X3621096Y56642500D01*
X3625466Y56495639D01*
X3589615Y56452000D01*
X3509284Y56522612D01*
X3484599Y56692880D01*
X3521932Y56900456D01*
G36*
X294892Y59594011D02*
G01*
X318045Y59845948D01*
X380162Y60055152D01*
X499638Y60260293D01*
X694870Y60500040D01*
X984252Y60813065D01*
X1077813Y60911889D01*
X1275791Y61152138D01*
X1365330Y61333478D01*
X1363865Y61393319D01*
X1376614Y61546515D01*
X1471006Y61719782D01*
X1572544Y61859494D01*
X1555963Y61910232D01*
X1413503Y61915686D01*
X1398956Y61919799D01*
X1398956Y61955334D01*
X1455886Y62027842D01*
X1474667Y62167000D01*
X1452897Y62326191D01*
X1411167Y62378607D01*
X1359162Y62305844D01*
X1335456Y62166940D01*
X1352090Y62008168D01*
X1398956Y61955334D01*
X1398956Y61919799D01*
X1196172Y61977142D01*
X1074157Y62135993D01*
X1081733Y62335767D01*
X1156823Y62431712D01*
X1311322Y62455914D01*
X1470147Y62440811D01*
X1682768Y62424267D01*
X1762433Y62457600D01*
X1756067Y62514050D01*
X1673479Y62591223D01*
X1629857Y62581592D01*
X1583597Y62622276D01*
X1570595Y62799678D01*
X1575228Y62893248D01*
X1616426Y63148348D01*
X1718276Y63306656D01*
X1855667Y63403314D01*
X2145890Y63534365D01*
X2356634Y63532344D01*
X2509309Y63402797D01*
X2679903Y63274393D01*
X2880503Y63287138D01*
X3071796Y63427685D01*
X3197151Y63636285D01*
X3321912Y63889162D01*
X3461748Y64099950D01*
X3477996Y64118955D01*
X3632777Y64313635D01*
X3724382Y64452582D01*
X3843580Y64601820D01*
X3980868Y64625743D01*
X4164069Y64519295D01*
X4362667Y64336588D01*
X4706309Y63992945D01*
X4677988Y62979452D01*
X4664312Y62549008D01*
X4646548Y62252068D01*
X4616905Y62052843D01*
X4567597Y61915545D01*
X4490834Y61804383D01*
X4400993Y61706646D01*
X4139853Y61504785D01*
X3964690Y61465130D01*
X3964690Y61549745D01*
X4221094Y61668469D01*
X4429352Y61902017D01*
X4459035Y61956241D01*
X4550422Y62245553D01*
X4603283Y62635644D01*
X4618076Y63073121D01*
X4595261Y63504590D01*
X4535297Y63876660D01*
X4440310Y64133228D01*
X4284195Y64311853D01*
X4086363Y64444307D01*
X3900916Y64502222D01*
X3793926Y64472148D01*
X3819126Y64391375D01*
X3935852Y64244802D01*
X3978958Y64200073D01*
X4081787Y64090627D01*
X4145933Y63985033D01*
X4177929Y63844355D01*
X4184310Y63629658D01*
X4171611Y63302007D01*
X4161639Y63111593D01*
X4122584Y62585486D01*
X4065419Y62204724D01*
X3983062Y61945679D01*
X3868428Y61784723D01*
X3740731Y61707541D01*
X3691779Y61684943D01*
X3691779Y61870667D01*
X3795271Y61885058D01*
X3866764Y61950019D01*
X3920482Y62098232D01*
X3970649Y62362376D01*
X4004994Y62590334D01*
X4063814Y63053780D01*
X4083319Y63395545D01*
X4062512Y63658886D01*
X4000397Y63887064D01*
X3973538Y63955177D01*
X3866558Y64143315D01*
X3761391Y64222924D01*
X3740704Y64221097D01*
X3586575Y64103907D01*
X3434158Y63890825D01*
X3321527Y63649395D01*
X3286754Y63447161D01*
X3290913Y63423142D01*
X3300276Y63258993D01*
X3265842Y63191143D01*
X3222767Y63083205D01*
X3212254Y62881949D01*
X3232063Y62659777D01*
X3279954Y62489089D01*
X3288012Y62474640D01*
X3307474Y62326549D01*
X3291703Y62288665D01*
X3298548Y62162134D01*
X3407578Y62015678D01*
X3568125Y61902236D01*
X3691779Y61870667D01*
X3691779Y61684943D01*
X3610936Y61647622D01*
X3632264Y61602898D01*
X3707074Y61569954D01*
X3964690Y61549745D01*
X3964690Y61465130D01*
X3886085Y61447334D01*
X3718174Y61469115D01*
X3580176Y61557433D01*
X3428092Y61746747D01*
X3345488Y61870748D01*
X3181807Y62107844D01*
X3061483Y62226220D01*
X3041000Y62231307D01*
X3041000Y63140667D01*
X3083333Y63183000D01*
X3041000Y63225334D01*
X2998667Y63183000D01*
X3041000Y63140667D01*
X3041000Y62231307D01*
X2945401Y62255050D01*
X2871667Y62242488D01*
X2871667Y62548000D01*
X2972493Y62623728D01*
X2998667Y62802000D01*
X2960802Y63003652D01*
X2871667Y63056000D01*
X2770840Y62980272D01*
X2744667Y62802000D01*
X2782531Y62600348D01*
X2871667Y62548000D01*
X2871667Y62242488D01*
X2851641Y62239075D01*
X2699084Y62216671D01*
X2670143Y62274146D01*
X2685755Y62323661D01*
X2702318Y62442460D01*
X2612310Y62431535D01*
X2417709Y62291128D01*
X2417378Y62290853D01*
X2319192Y62166944D01*
X2319192Y62304412D01*
X2416017Y62392003D01*
X2471998Y62484500D01*
X2557347Y62789788D01*
X2550167Y63105869D01*
X2452313Y63355606D01*
X2451026Y63357318D01*
X2381194Y63435046D01*
X2343499Y63415219D01*
X2327746Y63272506D01*
X2324026Y63041758D01*
X2313800Y62752260D01*
X2290376Y62519519D01*
X2269941Y62427925D01*
X2256161Y62312371D01*
X2319192Y62304412D01*
X2319192Y62166944D01*
X2274012Y62109927D01*
X2263601Y61976169D01*
X2451248Y61458879D01*
X2669450Y61037658D01*
X2957656Y60639475D01*
X3036549Y60545163D01*
X3261118Y60274350D01*
X3399215Y60069809D01*
X3477116Y59871468D01*
X3521093Y59619257D01*
X3545469Y59381620D01*
X3592766Y59007864D01*
X3664842Y58738343D01*
X3782795Y58507997D01*
X3869847Y58381304D01*
X4264634Y57830312D01*
X4574722Y57377114D01*
X4794248Y57030827D01*
X4917352Y56800567D01*
X4943000Y56712091D01*
X4901149Y56539446D01*
X4827847Y56376653D01*
X4636907Y56155101D01*
X4377097Y55995607D01*
X4172677Y55947000D01*
X4123533Y55963349D01*
X4123533Y56120684D01*
X4359086Y56128142D01*
X4558052Y56237232D01*
X4607333Y56282667D01*
X4732042Y56451525D01*
X4771180Y56643290D01*
X4718218Y56881705D01*
X4566626Y57190513D01*
X4309875Y57593457D01*
X4205167Y57745118D01*
X3977741Y58064620D01*
X3784062Y58326150D01*
X3644997Y58502238D01*
X3581960Y58565433D01*
X3543164Y58491632D01*
X3501629Y58299835D01*
X3481678Y58158529D01*
X3414427Y57847648D01*
X3293734Y57488641D01*
X3199408Y57271895D01*
X3083755Y57020695D01*
X3013607Y56837534D01*
X3003356Y56766624D01*
X3465067Y56434071D01*
X3831993Y56220709D01*
X4123533Y56120684D01*
X4123533Y55963349D01*
X4039788Y55991211D01*
X3814551Y56110864D01*
X3541572Y56281818D01*
X3491738Y56315538D01*
X3211825Y56501279D01*
X3030570Y56599578D01*
X2910655Y56623911D01*
X2814762Y56587755D01*
X2788378Y56569538D01*
X2614757Y56507180D01*
X2330398Y56467389D01*
X1988434Y56450539D01*
X1972300Y56450840D01*
X1972300Y56536667D01*
X2376072Y56551245D01*
X2634032Y56593813D01*
X2723892Y56642500D01*
X2932980Y56968375D01*
X3132718Y57388115D01*
X3294334Y57830895D01*
X3389056Y58225892D01*
X3398371Y58302722D01*
X3416701Y58570278D01*
X3399236Y58760403D01*
X3326146Y58934161D01*
X3177603Y59152615D01*
X3080131Y59282734D01*
X2735361Y59677530D01*
X2405853Y59915917D01*
X2070655Y60006902D01*
X1708814Y59959493D01*
X1595436Y59920965D01*
X1429602Y59841795D01*
X1412356Y59797935D01*
X1524936Y59798837D01*
X1736106Y59850088D01*
X1981026Y59896037D01*
X2216041Y59855272D01*
X2366800Y59796952D01*
X2568867Y59705417D01*
X2631392Y59650246D01*
X2571637Y59603881D01*
X2504743Y59576720D01*
X2363993Y59471542D01*
X2362401Y59357784D01*
X2493146Y59291142D01*
X2540055Y59288334D01*
X2665898Y59339470D01*
X2678834Y59457667D01*
X2674578Y59558736D01*
X2724031Y59539990D01*
X2834084Y59418373D01*
X2947532Y59244375D01*
X2981209Y59042472D01*
X2964033Y58825706D01*
X2928985Y58547268D01*
X2900020Y58312757D01*
X2893450Y58258193D01*
X2842985Y58078447D01*
X2794677Y58004193D01*
X2752630Y58003530D01*
X2770244Y58080248D01*
X2788152Y58163930D01*
X2732560Y58168612D01*
X2692419Y58149486D01*
X2692419Y58699132D01*
X2798233Y58747323D01*
X2906341Y58894574D01*
X2851573Y59011797D01*
X2781309Y59048233D01*
X2614068Y59052209D01*
X2525456Y58952499D01*
X2557868Y58803165D01*
X2573222Y58782878D01*
X2692419Y58699132D01*
X2692419Y58149486D01*
X2571056Y58091658D01*
X2509821Y58059081D01*
X2437947Y58031132D01*
X2437947Y58249708D01*
X2586346Y58286919D01*
X2659803Y58392731D01*
X2660000Y58399334D01*
X2592047Y58503879D01*
X2527309Y58540233D01*
X2370802Y58543808D01*
X2269276Y58459606D01*
X2271636Y58338289D01*
X2298709Y58303425D01*
X2437947Y58249708D01*
X2437947Y58031132D01*
X2144377Y57916972D01*
X1965983Y57918833D01*
X1965983Y58021697D01*
X2031190Y58032425D01*
X2139444Y58141235D01*
X2124239Y58283678D01*
X2019309Y58370900D01*
X1982667Y58370102D01*
X1982667Y58568667D01*
X2176968Y58637199D01*
X2292803Y58803013D01*
X2315254Y59006433D01*
X2229400Y59187783D01*
X2152000Y59246000D01*
X1935494Y59290307D01*
X1901709Y59278054D01*
X1901709Y59455375D01*
X2031609Y59457006D01*
X2117625Y59506605D01*
X2201360Y59607491D01*
X2146464Y59710478D01*
X2122041Y59735579D01*
X1983074Y59811612D01*
X1906125Y59801355D01*
X1820369Y59668563D01*
X1846628Y59511503D01*
X1901709Y59455375D01*
X1901709Y59278054D01*
X1813333Y59246000D01*
X1674205Y59093839D01*
X1650054Y58892915D01*
X1725962Y58702903D01*
X1887009Y58583479D01*
X1982667Y58568667D01*
X1982667Y58370102D01*
X1854459Y58367309D01*
X1794297Y58329497D01*
X1758810Y58203608D01*
X1832509Y58080353D01*
X1965983Y58021697D01*
X1965983Y57918833D01*
X1817253Y57920386D01*
X1490738Y58062837D01*
X1474259Y58077804D01*
X1474259Y58257055D01*
X1551208Y58267312D01*
X1636964Y58400104D01*
X1610705Y58557164D01*
X1555624Y58613292D01*
X1503395Y58612637D01*
X1503395Y59275224D01*
X1599122Y59328555D01*
X1683402Y59445553D01*
X1631150Y59557816D01*
X1534918Y59633036D01*
X1429660Y59575085D01*
X1400901Y59547188D01*
X1326248Y59399467D01*
X1375372Y59292312D01*
X1503395Y59275224D01*
X1503395Y58612637D01*
X1425724Y58611661D01*
X1339708Y58562062D01*
X1291883Y58504442D01*
X1291883Y58753048D01*
X1339122Y58765339D01*
X1456051Y58879816D01*
X1457391Y59035108D01*
X1381875Y59124022D01*
X1253561Y59120240D01*
X1173270Y59065518D01*
X1108769Y58920101D01*
X1160046Y58794696D01*
X1291883Y58753048D01*
X1291883Y58504442D01*
X1255973Y58461176D01*
X1310869Y58358189D01*
X1335292Y58333088D01*
X1474259Y58257055D01*
X1474259Y58077804D01*
X1195113Y58331351D01*
X1035948Y58671163D01*
X1019392Y59045435D01*
X1151594Y59417333D01*
X1242372Y59550697D01*
X1335166Y59693556D01*
X1324187Y59744273D01*
X1307648Y59740661D01*
X1180514Y59631512D01*
X1045538Y59420909D01*
X935430Y59171802D01*
X882898Y58947143D01*
X882000Y58921450D01*
X919420Y58659760D01*
X1043187Y58404233D01*
X1270563Y58133392D01*
X1618811Y57825759D01*
X1989458Y57543526D01*
X2306894Y57306776D01*
X2562832Y57106097D01*
X2732410Y56961713D01*
X2790761Y56893847D01*
X2789979Y56892423D01*
X2707940Y56920353D01*
X2524351Y57030830D01*
X2270480Y57201361D01*
X1977595Y57409457D01*
X1676965Y57632626D01*
X1399858Y57848376D01*
X1177542Y58034217D01*
X1091030Y58114465D01*
X843012Y58462033D01*
X753553Y58841517D01*
X821016Y59229960D01*
X1043765Y59604403D01*
X1209489Y59776163D01*
X1600108Y60046135D01*
X1986231Y60146994D01*
X2366726Y60078928D01*
X2740458Y59842125D01*
X3084734Y59465652D01*
X3263198Y59231950D01*
X3396267Y59062730D01*
X3456894Y58992339D01*
X3457733Y58992000D01*
X3457620Y59068798D01*
X3442365Y59269739D01*
X3416461Y59539430D01*
X3374093Y59854174D01*
X3304457Y60071938D01*
X3173497Y60264928D01*
X2973404Y60478792D01*
X2743526Y60735681D01*
X2547079Y60996333D01*
X2450198Y61159029D01*
X2354600Y61332010D01*
X2243682Y61417007D01*
X2057672Y61445004D01*
X2045585Y61445176D01*
X2045585Y61870667D01*
X2133170Y61919683D01*
X2132570Y62087140D01*
X2129621Y62103500D01*
X2121045Y62341374D01*
X2155420Y62505667D01*
X2225073Y62843896D01*
X2198924Y63222511D01*
X2182836Y63290618D01*
X2124289Y63420400D01*
X2035713Y63402459D01*
X2012607Y63384382D01*
X1949292Y63253895D01*
X1910379Y63018757D01*
X1894874Y62724608D01*
X1901783Y62417088D01*
X1930111Y62141836D01*
X1978865Y61944492D01*
X2045585Y61870667D01*
X2045585Y61445176D01*
X1894028Y61447334D01*
X1686333Y61433157D01*
X1686333Y62040000D01*
X1728667Y62082334D01*
X1686333Y62124667D01*
X1644000Y62082334D01*
X1686333Y62040000D01*
X1686333Y61433157D01*
X1627492Y61429140D01*
X1488268Y61378972D01*
X1474667Y61350890D01*
X1422118Y61245847D01*
X1282562Y61052521D01*
X1083129Y60807714D01*
X1022094Y60737057D01*
X794991Y60468564D01*
X603895Y60226632D01*
X484073Y60056267D01*
X471760Y60034733D01*
X395145Y59766190D01*
X368949Y59380056D01*
X388494Y58918858D01*
X449103Y58425124D01*
X546098Y57941381D01*
X674804Y57510158D01*
X775401Y57273875D01*
X961481Y56929705D01*
X1131729Y56713076D01*
X1333508Y56594819D01*
X1614177Y56545762D01*
X1972300Y56536667D01*
X1972300Y56450840D01*
X1641996Y56457004D01*
X1344216Y56487157D01*
X1148226Y56541370D01*
X1122447Y56557834D01*
X954060Y56755339D01*
X770784Y57066465D01*
X597536Y57440245D01*
X459236Y57825712D01*
X408400Y58018334D01*
X353445Y58355212D01*
X312334Y58777756D01*
X292874Y59202402D01*
X292307Y59260671D01*
X294892Y59594011D01*
G37*
X294892Y59594011D02*
X318045Y59845948D01*
X380162Y60055152D01*
X499638Y60260293D01*
X694870Y60500040D01*
X984252Y60813065D01*
X1077813Y60911889D01*
X1275791Y61152138D01*
X1365330Y61333478D01*
X1363865Y61393319D01*
X1376614Y61546515D01*
X1471006Y61719782D01*
X1572544Y61859494D01*
X1555963Y61910232D01*
X1413503Y61915686D01*
X1398956Y61919799D01*
X1398956Y61955334D01*
X1455886Y62027842D01*
X1474667Y62167000D01*
X1452897Y62326191D01*
X1411167Y62378607D01*
X1359162Y62305844D01*
X1335456Y62166940D01*
X1352090Y62008168D01*
X1398956Y61955334D01*
X1398956Y61919799D01*
X1196172Y61977142D01*
X1074157Y62135993D01*
X1081733Y62335767D01*
X1156823Y62431712D01*
X1311322Y62455914D01*
X1470147Y62440811D01*
X1682768Y62424267D01*
X1762433Y62457600D01*
X1756067Y62514050D01*
X1673479Y62591223D01*
X1629857Y62581592D01*
X1583597Y62622276D01*
X1570595Y62799678D01*
X1575228Y62893248D01*
X1616426Y63148348D01*
X1718276Y63306656D01*
X1855667Y63403314D01*
X2145890Y63534365D01*
X2356634Y63532344D01*
X2509309Y63402797D01*
X2679903Y63274393D01*
X2880503Y63287138D01*
X3071796Y63427685D01*
X3197151Y63636285D01*
X3321912Y63889162D01*
X3461748Y64099950D01*
X3477996Y64118955D01*
X3632777Y64313635D01*
X3724382Y64452582D01*
X3843580Y64601820D01*
X3980868Y64625743D01*
X4164069Y64519295D01*
X4362667Y64336588D01*
X4706309Y63992945D01*
X4677988Y62979452D01*
X4664312Y62549008D01*
X4646548Y62252068D01*
X4616905Y62052843D01*
X4567597Y61915545D01*
X4490834Y61804383D01*
X4400993Y61706646D01*
X4139853Y61504785D01*
X3964690Y61465130D01*
X3964690Y61549745D01*
X4221094Y61668469D01*
X4429352Y61902017D01*
X4459035Y61956241D01*
X4550422Y62245553D01*
X4603283Y62635644D01*
X4618076Y63073121D01*
X4595261Y63504590D01*
X4535297Y63876660D01*
X4440310Y64133228D01*
X4284195Y64311853D01*
X4086363Y64444307D01*
X3900916Y64502222D01*
X3793926Y64472148D01*
X3819126Y64391375D01*
X3935852Y64244802D01*
X3978958Y64200073D01*
X4081787Y64090627D01*
X4145933Y63985033D01*
X4177929Y63844355D01*
X4184310Y63629658D01*
X4171611Y63302007D01*
X4161639Y63111593D01*
X4122584Y62585486D01*
X4065419Y62204724D01*
X3983062Y61945679D01*
X3868428Y61784723D01*
X3740731Y61707541D01*
X3691779Y61684943D01*
X3691779Y61870667D01*
X3795271Y61885058D01*
X3866764Y61950019D01*
X3920482Y62098232D01*
X3970649Y62362376D01*
X4004994Y62590334D01*
X4063814Y63053780D01*
X4083319Y63395545D01*
X4062512Y63658886D01*
X4000397Y63887064D01*
X3973538Y63955177D01*
X3866558Y64143315D01*
X3761391Y64222924D01*
X3740704Y64221097D01*
X3586575Y64103907D01*
X3434158Y63890825D01*
X3321527Y63649395D01*
X3286754Y63447161D01*
X3290913Y63423142D01*
X3300276Y63258993D01*
X3265842Y63191143D01*
X3222767Y63083205D01*
X3212254Y62881949D01*
X3232063Y62659777D01*
X3279954Y62489089D01*
X3288012Y62474640D01*
X3307474Y62326549D01*
X3291703Y62288665D01*
X3298548Y62162134D01*
X3407578Y62015678D01*
X3568125Y61902236D01*
X3691779Y61870667D01*
X3691779Y61684943D01*
X3610936Y61647622D01*
X3632264Y61602898D01*
X3707074Y61569954D01*
X3964690Y61549745D01*
X3964690Y61465130D01*
X3886085Y61447334D01*
X3718174Y61469115D01*
X3580176Y61557433D01*
X3428092Y61746747D01*
X3345488Y61870748D01*
X3181807Y62107844D01*
X3061483Y62226220D01*
X3041000Y62231307D01*
X3041000Y63140667D01*
X3083333Y63183000D01*
X3041000Y63225334D01*
X2998667Y63183000D01*
X3041000Y63140667D01*
X3041000Y62231307D01*
X2945401Y62255050D01*
X2871667Y62242488D01*
X2871667Y62548000D01*
X2972493Y62623728D01*
X2998667Y62802000D01*
X2960802Y63003652D01*
X2871667Y63056000D01*
X2770840Y62980272D01*
X2744667Y62802000D01*
X2782531Y62600348D01*
X2871667Y62548000D01*
X2871667Y62242488D01*
X2851641Y62239075D01*
X2699084Y62216671D01*
X2670143Y62274146D01*
X2685755Y62323661D01*
X2702318Y62442460D01*
X2612310Y62431535D01*
X2417709Y62291128D01*
X2417378Y62290853D01*
X2319192Y62166944D01*
X2319192Y62304412D01*
X2416017Y62392003D01*
X2471998Y62484500D01*
X2557347Y62789788D01*
X2550167Y63105869D01*
X2452313Y63355606D01*
X2451026Y63357318D01*
X2381194Y63435046D01*
X2343499Y63415219D01*
X2327746Y63272506D01*
X2324026Y63041758D01*
X2313800Y62752260D01*
X2290376Y62519519D01*
X2269941Y62427925D01*
X2256161Y62312371D01*
X2319192Y62304412D01*
X2319192Y62166944D01*
X2274012Y62109927D01*
X2263601Y61976169D01*
X2451248Y61458879D01*
X2669450Y61037658D01*
X2957656Y60639475D01*
X3036549Y60545163D01*
X3261118Y60274350D01*
X3399215Y60069809D01*
X3477116Y59871468D01*
X3521093Y59619257D01*
X3545469Y59381620D01*
X3592766Y59007864D01*
X3664842Y58738343D01*
X3782795Y58507997D01*
X3869847Y58381304D01*
X4264634Y57830312D01*
X4574722Y57377114D01*
X4794248Y57030827D01*
X4917352Y56800567D01*
X4943000Y56712091D01*
X4901149Y56539446D01*
X4827847Y56376653D01*
X4636907Y56155101D01*
X4377097Y55995607D01*
X4172677Y55947000D01*
X4123533Y55963349D01*
X4123533Y56120684D01*
X4359086Y56128142D01*
X4558052Y56237232D01*
X4607333Y56282667D01*
X4732042Y56451525D01*
X4771180Y56643290D01*
X4718218Y56881705D01*
X4566626Y57190513D01*
X4309875Y57593457D01*
X4205167Y57745118D01*
X3977741Y58064620D01*
X3784062Y58326150D01*
X3644997Y58502238D01*
X3581960Y58565433D01*
X3543164Y58491632D01*
X3501629Y58299835D01*
X3481678Y58158529D01*
X3414427Y57847648D01*
X3293734Y57488641D01*
X3199408Y57271895D01*
X3083755Y57020695D01*
X3013607Y56837534D01*
X3003356Y56766624D01*
X3465067Y56434071D01*
X3831993Y56220709D01*
X4123533Y56120684D01*
X4123533Y55963349D01*
X4039788Y55991211D01*
X3814551Y56110864D01*
X3541572Y56281818D01*
X3491738Y56315538D01*
X3211825Y56501279D01*
X3030570Y56599578D01*
X2910655Y56623911D01*
X2814762Y56587755D01*
X2788378Y56569538D01*
X2614757Y56507180D01*
X2330398Y56467389D01*
X1988434Y56450539D01*
X1972300Y56450840D01*
X1972300Y56536667D01*
X2376072Y56551245D01*
X2634032Y56593813D01*
X2723892Y56642500D01*
X2932980Y56968375D01*
X3132718Y57388115D01*
X3294334Y57830895D01*
X3389056Y58225892D01*
X3398371Y58302722D01*
X3416701Y58570278D01*
X3399236Y58760403D01*
X3326146Y58934161D01*
X3177603Y59152615D01*
X3080131Y59282734D01*
X2735361Y59677530D01*
X2405853Y59915917D01*
X2070655Y60006902D01*
X1708814Y59959493D01*
X1595436Y59920965D01*
X1429602Y59841795D01*
X1412356Y59797935D01*
X1524936Y59798837D01*
X1736106Y59850088D01*
X1981026Y59896037D01*
X2216041Y59855272D01*
X2366800Y59796952D01*
X2568867Y59705417D01*
X2631392Y59650246D01*
X2571637Y59603881D01*
X2504743Y59576720D01*
X2363993Y59471542D01*
X2362401Y59357784D01*
X2493146Y59291142D01*
X2540055Y59288334D01*
X2665898Y59339470D01*
X2678834Y59457667D01*
X2674578Y59558736D01*
X2724031Y59539990D01*
X2834084Y59418373D01*
X2947532Y59244375D01*
X2981209Y59042472D01*
X2964033Y58825706D01*
X2928985Y58547268D01*
X2900020Y58312757D01*
X2893450Y58258193D01*
X2842985Y58078447D01*
X2794677Y58004193D01*
X2752630Y58003530D01*
X2770244Y58080248D01*
X2788152Y58163930D01*
X2732560Y58168612D01*
X2692419Y58149486D01*
X2692419Y58699132D01*
X2798233Y58747323D01*
X2906341Y58894574D01*
X2851573Y59011797D01*
X2781309Y59048233D01*
X2614068Y59052209D01*
X2525456Y58952499D01*
X2557868Y58803165D01*
X2573222Y58782878D01*
X2692419Y58699132D01*
X2692419Y58149486D01*
X2571056Y58091658D01*
X2509821Y58059081D01*
X2437947Y58031132D01*
X2437947Y58249708D01*
X2586346Y58286919D01*
X2659803Y58392731D01*
X2660000Y58399334D01*
X2592047Y58503879D01*
X2527309Y58540233D01*
X2370802Y58543808D01*
X2269276Y58459606D01*
X2271636Y58338289D01*
X2298709Y58303425D01*
X2437947Y58249708D01*
X2437947Y58031132D01*
X2144377Y57916972D01*
X1965983Y57918833D01*
X1965983Y58021697D01*
X2031190Y58032425D01*
X2139444Y58141235D01*
X2124239Y58283678D01*
X2019309Y58370900D01*
X1982667Y58370102D01*
X1982667Y58568667D01*
X2176968Y58637199D01*
X2292803Y58803013D01*
X2315254Y59006433D01*
X2229400Y59187783D01*
X2152000Y59246000D01*
X1935494Y59290307D01*
X1901709Y59278054D01*
X1901709Y59455375D01*
X2031609Y59457006D01*
X2117625Y59506605D01*
X2201360Y59607491D01*
X2146464Y59710478D01*
X2122041Y59735579D01*
X1983074Y59811612D01*
X1906125Y59801355D01*
X1820369Y59668563D01*
X1846628Y59511503D01*
X1901709Y59455375D01*
X1901709Y59278054D01*
X1813333Y59246000D01*
X1674205Y59093839D01*
X1650054Y58892915D01*
X1725962Y58702903D01*
X1887009Y58583479D01*
X1982667Y58568667D01*
X1982667Y58370102D01*
X1854459Y58367309D01*
X1794297Y58329497D01*
X1758810Y58203608D01*
X1832509Y58080353D01*
X1965983Y58021697D01*
X1965983Y57918833D01*
X1817253Y57920386D01*
X1490738Y58062837D01*
X1474259Y58077804D01*
X1474259Y58257055D01*
X1551208Y58267312D01*
X1636964Y58400104D01*
X1610705Y58557164D01*
X1555624Y58613292D01*
X1503395Y58612637D01*
X1503395Y59275224D01*
X1599122Y59328555D01*
X1683402Y59445553D01*
X1631150Y59557816D01*
X1534918Y59633036D01*
X1429660Y59575085D01*
X1400901Y59547188D01*
X1326248Y59399467D01*
X1375372Y59292312D01*
X1503395Y59275224D01*
X1503395Y58612637D01*
X1425724Y58611661D01*
X1339708Y58562062D01*
X1291883Y58504442D01*
X1291883Y58753048D01*
X1339122Y58765339D01*
X1456051Y58879816D01*
X1457391Y59035108D01*
X1381875Y59124022D01*
X1253561Y59120240D01*
X1173270Y59065518D01*
X1108769Y58920101D01*
X1160046Y58794696D01*
X1291883Y58753048D01*
X1291883Y58504442D01*
X1255973Y58461176D01*
X1310869Y58358189D01*
X1335292Y58333088D01*
X1474259Y58257055D01*
X1474259Y58077804D01*
X1195113Y58331351D01*
X1035948Y58671163D01*
X1019392Y59045435D01*
X1151594Y59417333D01*
X1242372Y59550697D01*
X1335166Y59693556D01*
X1324187Y59744273D01*
X1307648Y59740661D01*
X1180514Y59631512D01*
X1045538Y59420909D01*
X935430Y59171802D01*
X882898Y58947143D01*
X882000Y58921450D01*
X919420Y58659760D01*
X1043187Y58404233D01*
X1270563Y58133392D01*
X1618811Y57825759D01*
X1989458Y57543526D01*
X2306894Y57306776D01*
X2562832Y57106097D01*
X2732410Y56961713D01*
X2790761Y56893847D01*
X2789979Y56892423D01*
X2707940Y56920353D01*
X2524351Y57030830D01*
X2270480Y57201361D01*
X1977595Y57409457D01*
X1676965Y57632626D01*
X1399858Y57848376D01*
X1177542Y58034217D01*
X1091030Y58114465D01*
X843012Y58462033D01*
X753553Y58841517D01*
X821016Y59229960D01*
X1043765Y59604403D01*
X1209489Y59776163D01*
X1600108Y60046135D01*
X1986231Y60146994D01*
X2366726Y60078928D01*
X2740458Y59842125D01*
X3084734Y59465652D01*
X3263198Y59231950D01*
X3396267Y59062730D01*
X3456894Y58992339D01*
X3457733Y58992000D01*
X3457620Y59068798D01*
X3442365Y59269739D01*
X3416461Y59539430D01*
X3374093Y59854174D01*
X3304457Y60071938D01*
X3173497Y60264928D01*
X2973404Y60478792D01*
X2743526Y60735681D01*
X2547079Y60996333D01*
X2450198Y61159029D01*
X2354600Y61332010D01*
X2243682Y61417007D01*
X2057672Y61445004D01*
X2045585Y61445176D01*
X2045585Y61870667D01*
X2133170Y61919683D01*
X2132570Y62087140D01*
X2129621Y62103500D01*
X2121045Y62341374D01*
X2155420Y62505667D01*
X2225073Y62843896D01*
X2198924Y63222511D01*
X2182836Y63290618D01*
X2124289Y63420400D01*
X2035713Y63402459D01*
X2012607Y63384382D01*
X1949292Y63253895D01*
X1910379Y63018757D01*
X1894874Y62724608D01*
X1901783Y62417088D01*
X1930111Y62141836D01*
X1978865Y61944492D01*
X2045585Y61870667D01*
X2045585Y61445176D01*
X1894028Y61447334D01*
X1686333Y61433157D01*
X1686333Y62040000D01*
X1728667Y62082334D01*
X1686333Y62124667D01*
X1644000Y62082334D01*
X1686333Y62040000D01*
X1686333Y61433157D01*
X1627492Y61429140D01*
X1488268Y61378972D01*
X1474667Y61350890D01*
X1422118Y61245847D01*
X1282562Y61052521D01*
X1083129Y60807714D01*
X1022094Y60737057D01*
X794991Y60468564D01*
X603895Y60226632D01*
X484073Y60056267D01*
X471760Y60034733D01*
X395145Y59766190D01*
X368949Y59380056D01*
X388494Y58918858D01*
X449103Y58425124D01*
X546098Y57941381D01*
X674804Y57510158D01*
X775401Y57273875D01*
X961481Y56929705D01*
X1131729Y56713076D01*
X1333508Y56594819D01*
X1614177Y56545762D01*
X1972300Y56536667D01*
X1972300Y56450840D01*
X1641996Y56457004D01*
X1344216Y56487157D01*
X1148226Y56541370D01*
X1122447Y56557834D01*
X954060Y56755339D01*
X770784Y57066465D01*
X597536Y57440245D01*
X459236Y57825712D01*
X408400Y58018334D01*
X353445Y58355212D01*
X312334Y58777756D01*
X292874Y59202402D01*
X292307Y59260671D01*
X294892Y59594011D01*
G36*
X4703202Y66065411D02*
G01*
X4732177Y66225698D01*
X4762088Y66259222D01*
X4855712Y66218854D01*
X5083026Y66119807D01*
X5422650Y65971428D01*
X5853204Y65783064D01*
X6353309Y65564062D01*
X6836422Y65352339D01*
X8840667Y64473678D01*
X8839211Y64040006D01*
X8837756Y63606334D01*
X6875692Y62759667D01*
X6335465Y62527203D01*
X5844466Y62317170D01*
X5424775Y62138911D01*
X5098469Y62001769D01*
X4887627Y61915089D01*
X4816723Y61888304D01*
X4768342Y61946450D01*
X4749339Y62119601D01*
X4756069Y62356681D01*
X4784886Y62606614D01*
X4832145Y62818321D01*
X4891653Y62938354D01*
X5000945Y63003804D01*
X5235992Y63120105D01*
X5566271Y63272906D01*
X5961261Y63447857D01*
X6131333Y63521165D01*
X6535684Y63694702D01*
X6880566Y63843893D01*
X7137977Y63956535D01*
X7279915Y64020420D01*
X7298572Y64029940D01*
X7234179Y64068959D01*
X7040662Y64163178D01*
X6744226Y64300360D01*
X6371069Y64468262D01*
X6166844Y64558618D01*
X5746250Y64748044D01*
X5371460Y64924908D01*
X5074736Y65073386D01*
X4888337Y65177654D01*
X4851438Y65203828D01*
X4750374Y65341687D01*
X4701673Y65562082D01*
X4692000Y65813894D01*
X4703202Y66065411D01*
G37*
X4703202Y66065411D02*
X4732177Y66225698D01*
X4762088Y66259222D01*
X4855712Y66218854D01*
X5083026Y66119807D01*
X5422650Y65971428D01*
X5853204Y65783064D01*
X6353309Y65564062D01*
X6836422Y65352339D01*
X8840667Y64473678D01*
X8839211Y64040006D01*
X8837756Y63606334D01*
X6875692Y62759667D01*
X6335465Y62527203D01*
X5844466Y62317170D01*
X5424775Y62138911D01*
X5098469Y62001769D01*
X4887627Y61915089D01*
X4816723Y61888304D01*
X4768342Y61946450D01*
X4749339Y62119601D01*
X4756069Y62356681D01*
X4784886Y62606614D01*
X4832145Y62818321D01*
X4891653Y62938354D01*
X5000945Y63003804D01*
X5235992Y63120105D01*
X5566271Y63272906D01*
X5961261Y63447857D01*
X6131333Y63521165D01*
X6535684Y63694702D01*
X6880566Y63843893D01*
X7137977Y63956535D01*
X7279915Y64020420D01*
X7298572Y64029940D01*
X7234179Y64068959D01*
X7040662Y64163178D01*
X6744226Y64300360D01*
X6371069Y64468262D01*
X6166844Y64558618D01*
X5746250Y64748044D01*
X5371460Y64924908D01*
X5074736Y65073386D01*
X4888337Y65177654D01*
X4851438Y65203828D01*
X4750374Y65341687D01*
X4701673Y65562082D01*
X4692000Y65813894D01*
X4703202Y66065411D01*
G36*
X4651716Y59837260D02*
G01*
X4661325Y60161223D01*
X4683686Y60386329D01*
X4723990Y60547811D01*
X4787428Y60680898D01*
X4857463Y60789340D01*
X5048698Y61019089D01*
X5259612Y61204790D01*
X5302865Y61232949D01*
X5613777Y61345203D01*
X5970559Y61371192D01*
X6296462Y61309755D01*
X6417956Y61249815D01*
X6573985Y61165540D01*
X6678266Y61190500D01*
X6761225Y61272356D01*
X6928699Y61390942D01*
X7180073Y61502072D01*
X7275919Y61532444D01*
X7514763Y61587313D01*
X7699315Y61581414D01*
X7909631Y61504824D01*
X8050447Y61436428D01*
X8313623Y61293487D01*
X8507076Y61148264D01*
X8642214Y60972147D01*
X8730450Y60736526D01*
X8783190Y60412792D01*
X8811847Y59972332D01*
X8825623Y59492633D01*
X8852912Y58227015D01*
X7232000Y58244491D01*
X7232000Y59246000D01*
X7824667Y59246000D01*
X7824667Y59875295D01*
X7819695Y60202398D01*
X7798260Y60398890D01*
X7750585Y60503359D01*
X7666892Y60554395D01*
X7651270Y60559623D01*
X7456259Y60575647D01*
X7326577Y60468472D01*
X7254424Y60224495D01*
X7232000Y59830107D01*
X7232000Y59246000D01*
X7232000Y58244491D01*
X6751289Y58249674D01*
X5623333Y58261835D01*
X5623333Y59246000D01*
X6224080Y59246000D01*
X6198873Y59766364D01*
X6165493Y60104042D01*
X6100411Y60303212D01*
X6032597Y60375287D01*
X5853065Y60421432D01*
X5721647Y60311957D01*
X5643667Y60055081D01*
X5623333Y59743633D01*
X5623333Y59246000D01*
X5623333Y58261835D01*
X4649667Y58272334D01*
X4649667Y59379211D01*
X4651716Y59837260D01*
G37*
X4651716Y59837260D02*
X4661325Y60161223D01*
X4683686Y60386329D01*
X4723990Y60547811D01*
X4787428Y60680898D01*
X4857463Y60789340D01*
X5048698Y61019089D01*
X5259612Y61204790D01*
X5302865Y61232949D01*
X5613777Y61345203D01*
X5970559Y61371192D01*
X6296462Y61309755D01*
X6417956Y61249815D01*
X6573985Y61165540D01*
X6678266Y61190500D01*
X6761225Y61272356D01*
X6928699Y61390942D01*
X7180073Y61502072D01*
X7275919Y61532444D01*
X7514763Y61587313D01*
X7699315Y61581414D01*
X7909631Y61504824D01*
X8050447Y61436428D01*
X8313623Y61293487D01*
X8507076Y61148264D01*
X8642214Y60972147D01*
X8730450Y60736526D01*
X8783190Y60412792D01*
X8811847Y59972332D01*
X8825623Y59492633D01*
X8852912Y58227015D01*
X7232000Y58244491D01*
X7232000Y59246000D01*
X7824667Y59246000D01*
X7824667Y59875295D01*
X7819695Y60202398D01*
X7798260Y60398890D01*
X7750585Y60503359D01*
X7666892Y60554395D01*
X7651270Y60559623D01*
X7456259Y60575647D01*
X7326577Y60468472D01*
X7254424Y60224495D01*
X7232000Y59830107D01*
X7232000Y59246000D01*
X7232000Y58244491D01*
X6751289Y58249674D01*
X5623333Y58261835D01*
X5623333Y59246000D01*
X6224080Y59246000D01*
X6198873Y59766364D01*
X6165493Y60104042D01*
X6100411Y60303212D01*
X6032597Y60375287D01*
X5853065Y60421432D01*
X5721647Y60311957D01*
X5643667Y60055081D01*
X5623333Y59743633D01*
X5623333Y59246000D01*
X5623333Y58261835D01*
X4649667Y58272334D01*
X4649667Y59379211D01*
X4651716Y59837260D01*
G36*
X8840667Y57214000D02*
G01*
X8840667Y56198000D01*
X4988333Y56198000D01*
X4988333Y57214000D01*
X8840667Y57214000D01*
G37*
X8840667Y57214000D02*
X8840667Y56198000D01*
X4988333Y56198000D01*
X4988333Y57214000D01*
X8840667Y57214000D01*
G36*
X7909333Y53915657D02*
G01*
X7909333Y55520667D01*
X8840667Y55520667D01*
X8840667Y52893042D01*
X4649667Y52938334D01*
X4649667Y53869667D01*
X7909333Y53915657D01*
G37*
X7909333Y53915657D02*
X7909333Y55520667D01*
X8840667Y55520667D01*
X8840667Y52893042D01*
X4649667Y52938334D01*
X4649667Y53869667D01*
X7909333Y53915657D01*
D13*
X2670000Y34930000D02*
X4000000Y34930000D01*
X2670000Y33600000D02*
X2670000Y34930000D01*
X5270000Y34930000D02*
X7870000Y34930000D01*
X5270000Y32330000D02*
X5270000Y34930000D01*
X2670000Y32330000D02*
X5270000Y32330000D01*
X7870000Y34930000D02*
X7870000Y11950000D01*
X2670000Y32330000D02*
X2670000Y11950000D01*
X2670000Y11950000D02*
X7870000Y11950000D01*
X41440000Y91210000D02*
X41440000Y86490000D01*
X41440000Y86490000D02*
X47560000Y86490000D01*
X47560000Y86490000D02*
X47560000Y91210000D01*
X47560000Y91210000D02*
X41440000Y91210000D01*
X43200000Y91210000D02*
X43200000Y91410000D01*
X43200000Y91410000D02*
X42900000Y91410000D01*
X42900000Y91410000D02*
X42900000Y91210000D01*
X43200000Y91310000D02*
X42900000Y91310000D01*
X44000000Y91210000D02*
X44000000Y90600000D01*
X44000000Y90600000D02*
X42050000Y90600000D01*
X42050000Y90600000D02*
X42050000Y87100000D01*
X42050000Y87100000D02*
X46950000Y87100000D01*
X46950000Y87100000D02*
X46950000Y90600000D01*
X46950000Y90600000D02*
X45000000Y90600000D01*
X45000000Y90600000D02*
X45000000Y91210000D01*
X41440000Y89900000D02*
X42050000Y89900000D01*
X41440000Y88600000D02*
X42050000Y88600000D01*
X47560000Y89900000D02*
X46950000Y89900000D01*
X47560000Y88600000D02*
X46950000Y88600000D01*
X44400000Y87100000D02*
X44400000Y87600000D01*
X44400000Y87600000D02*
X44600000Y87600000D01*
X44600000Y87600000D02*
X44600000Y87100000D01*
X44500000Y87100000D02*
X44500000Y87600000D01*
X42390000Y91510000D02*
X41140000Y91510000D01*
X41140000Y91510000D02*
X41140000Y90260000D01*
X71690000Y15586252D02*
X71690000Y12813748D01*
X75110000Y15586252D02*
X75110000Y12813748D01*
X53090000Y15586252D02*
X53090000Y12813748D01*
X56510000Y15586252D02*
X56510000Y12813748D01*
X74790000Y45437221D02*
X74790000Y45762779D01*
X75810000Y45437221D02*
X75810000Y45762779D01*
X71910000Y5340000D02*
X71910000Y9600000D01*
X71910000Y9600000D02*
X59590000Y9600000D01*
X59590000Y9600000D02*
X59590000Y5340000D01*
X71910000Y1240000D02*
X71910000Y-7120000D01*
X71910000Y-7120000D02*
X59590000Y-7120000D01*
X59590000Y-7120000D02*
X59590000Y1240000D01*
X67000000Y9820000D02*
X67500000Y10320000D01*
X67500000Y10320000D02*
X66500000Y10320000D01*
X66500000Y10320000D02*
X67000000Y9820000D01*
X53410000Y5340000D02*
X53410000Y9600000D01*
X53410000Y9600000D02*
X41090000Y9600000D01*
X41090000Y9600000D02*
X41090000Y5340000D01*
X53410000Y1240000D02*
X53410000Y-7120000D01*
X53410000Y-7120000D02*
X41090000Y-7120000D01*
X41090000Y-7120000D02*
X41090000Y1240000D01*
X48500000Y9820000D02*
X49000000Y10320000D01*
X49000000Y10320000D02*
X48000000Y10320000D01*
X48000000Y10320000D02*
X48500000Y9820000D01*
X75400000Y41100000D02*
X72100000Y41100000D01*
X72100000Y41100000D02*
X72100000Y37100000D01*
X56850000Y41000000D02*
X53550000Y41000000D01*
X53550000Y41000000D02*
X53550000Y37000000D01*
D11*
X68825000Y30275000D02*
X68825000Y30500000D01*
X61575000Y30275000D02*
X61575000Y30600000D01*
X61575000Y37525000D02*
X61575000Y37200000D01*
X68825000Y37525000D02*
X68825000Y37200000D01*
X68825000Y30275000D02*
X68500000Y30275000D01*
X68825000Y37525000D02*
X68500000Y37525000D01*
X61575000Y37525000D02*
X61900000Y37525000D01*
X61575000Y30275000D02*
X61900000Y30275000D01*
X68825000Y30500000D02*
X70250000Y30500000D01*
D13*
X60690000Y21585000D02*
X60690000Y22310000D01*
X60690000Y22310000D02*
X61415000Y22310000D01*
X65910000Y17815000D02*
X65910000Y17090000D01*
X65910000Y17090000D02*
X65185000Y17090000D01*
X65910000Y21585000D02*
X65910000Y22310000D01*
X65910000Y22310000D02*
X65185000Y22310000D01*
X60690000Y17815000D02*
X60690000Y17090000D01*
X69100000Y72350000D02*
X69100000Y70850000D01*
X69100000Y70850000D02*
X69790000Y70850000D01*
X69790000Y70850000D02*
X69790000Y65725000D01*
X79500000Y72350000D02*
X79500000Y70850000D01*
X79500000Y70850000D02*
X78810000Y70850000D01*
X78810000Y70850000D02*
X78810000Y69750000D01*
X54800000Y72350000D02*
X54800000Y70850000D01*
X54800000Y70850000D02*
X55490000Y70850000D01*
X55490000Y70850000D02*
X55490000Y65725000D01*
X65200000Y72350000D02*
X65200000Y70850000D01*
X65200000Y70850000D02*
X64510000Y70850000D01*
X64510000Y70850000D02*
X64510000Y69750000D01*
X81230000Y50200000D02*
X81230000Y56200000D01*
X68170000Y48200000D02*
X68170000Y53200000D01*
D11*
X50325000Y30275000D02*
X50325000Y30500000D01*
X43075000Y30275000D02*
X43075000Y30600000D01*
X43075000Y37525000D02*
X43075000Y37200000D01*
X50325000Y37525000D02*
X50325000Y37200000D01*
X50325000Y30275000D02*
X50000000Y30275000D01*
X50325000Y37525000D02*
X50000000Y37525000D01*
X43075000Y37525000D02*
X43400000Y37525000D01*
X43075000Y30275000D02*
X43400000Y30275000D01*
X50325000Y30500000D02*
X51750000Y30500000D01*
D13*
X42190000Y21585000D02*
X42190000Y22310000D01*
X42190000Y22310000D02*
X42915000Y22310000D01*
X47410000Y17815000D02*
X47410000Y17090000D01*
X47410000Y17090000D02*
X46685000Y17090000D01*
X47410000Y21585000D02*
X47410000Y22310000D01*
X47410000Y22310000D02*
X46685000Y22310000D01*
X42190000Y17815000D02*
X42190000Y17090000D01*
X42100000Y56290000D02*
X43900000Y56290000D01*
X43900000Y59510000D02*
X41450000Y59510000D01*
X31490000Y67410000D02*
X31490000Y66150000D01*
X31490000Y60590000D02*
X31490000Y61850000D01*
X35250000Y67410000D02*
X31490000Y67410000D01*
X37500000Y60590000D02*
X31490000Y60590000D01*
X15990000Y67410000D02*
X15990000Y66150000D01*
X15990000Y60590000D02*
X15990000Y61850000D01*
X19750000Y67410000D02*
X15990000Y67410000D01*
X22000000Y60590000D02*
X15990000Y60590000D01*
D11*
X77000000Y30800000D02*
X80200000Y30800000D01*
X80200000Y30800000D02*
X80200000Y26600000D01*
X80200000Y26600000D02*
X77000000Y26600000D01*
X77000000Y26600000D02*
X77000000Y30800000D01*
D14*
X79300000Y30800000D02*
X79300000Y30400000D01*
X79300000Y30400000D02*
X79800000Y29900000D01*
X79800000Y29900000D02*
X80200000Y29900000D01*
X80200000Y27500000D02*
X79800000Y27500000D01*
X79800000Y27500000D02*
X79300000Y27000000D01*
X79300000Y27000000D02*
X79300000Y26600000D01*
X77400000Y29900000D02*
X77900000Y30400000D01*
X77900000Y30400000D02*
X77900000Y30800000D01*
X77000000Y29900000D02*
X77400000Y29900000D01*
X77900000Y26600000D02*
X77900000Y27000000D01*
X77400000Y27500000D02*
X77000000Y27500000D01*
X77900000Y27000000D02*
X77400000Y27500000D01*
X79600000Y28300000D02*
G75*
G02X77600000Y28300000I-1000000J0D01*
G01*
X77600000Y29100000D02*
G75*
G02X79600000Y29100000I1000000J0D01*
G01*
X79600000Y29100000D02*
X79600000Y28300000D01*
X77600000Y29100000D02*
X77600000Y28300000D01*
D11*
X39100000Y26700000D02*
X35900000Y26700000D01*
X35900000Y26700000D02*
X35900000Y30900000D01*
X35900000Y30900000D02*
X39100000Y30900000D01*
X39100000Y30900000D02*
X39100000Y26700000D01*
D14*
X36800000Y26700000D02*
X36800000Y27100000D01*
X36800000Y27100000D02*
X36300000Y27600000D01*
X36300000Y27600000D02*
X35900000Y27600000D01*
X35900000Y30000000D02*
X36300000Y30000000D01*
X36300000Y30000000D02*
X36800000Y30500000D01*
X36800000Y30500000D02*
X36800000Y30900000D01*
X38700000Y27600000D02*
X38200000Y27100000D01*
X38200000Y27100000D02*
X38200000Y26700000D01*
X39100000Y27600000D02*
X38700000Y27600000D01*
X38200000Y30900000D02*
X38200000Y30500000D01*
X38700000Y30000000D02*
X39100000Y30000000D01*
X38200000Y30500000D02*
X38700000Y30000000D01*
X36500000Y29200000D02*
G75*
G02X38500000Y29200000I1000000J0D01*
G01*
X38500000Y28400000D02*
G75*
G02X36500000Y28400000I-1000000J0D01*
G01*
X36500000Y28400000D02*
X36500000Y29200000D01*
X38500000Y28400000D02*
X38500000Y29200000D01*
D13*
X60165000Y13212000D02*
X60165000Y10927000D01*
X60165000Y10927000D02*
X61635000Y10927000D01*
X61635000Y10927000D02*
X61635000Y13212000D01*
X65565000Y13200000D02*
X65565000Y10915000D01*
X65565000Y10915000D02*
X67035000Y10915000D01*
X67035000Y10915000D02*
X67035000Y13200000D01*
X41665000Y13200000D02*
X41665000Y10915000D01*
X41665000Y10915000D02*
X43135000Y10915000D01*
X43135000Y10915000D02*
X43135000Y13200000D01*
X47065000Y13200000D02*
X47065000Y10915000D01*
X47065000Y10915000D02*
X48535000Y10915000D01*
X48535000Y10915000D02*
X48535000Y13200000D01*
X78110000Y19850779D02*
X78110000Y19525221D01*
X77090000Y19850779D02*
X77090000Y19525221D01*
X80010000Y19862779D02*
X80010000Y19537221D01*
X78990000Y19862779D02*
X78990000Y19537221D01*
X77090000Y23049221D02*
X77090000Y23374779D01*
X78110000Y23049221D02*
X78110000Y23374779D01*
X60190000Y41049221D02*
X60190000Y41374779D01*
X61210000Y41049221D02*
X61210000Y41374779D01*
X65749221Y24610000D02*
X66074779Y24610000D01*
X65749221Y23590000D02*
X66074779Y23590000D01*
X65737221Y26410000D02*
X66062779Y26410000D01*
X65737221Y25390000D02*
X66062779Y25390000D01*
X61610000Y24962779D02*
X61610000Y24637221D01*
X60590000Y24962779D02*
X60590000Y24637221D01*
X63410000Y24962779D02*
X63410000Y24637221D01*
X62390000Y24962779D02*
X62390000Y24637221D01*
X65010000Y12562779D02*
X65010000Y12237221D01*
X63990000Y12562779D02*
X63990000Y12237221D01*
X63210000Y12562779D02*
X63210000Y12237221D01*
X62190000Y12562779D02*
X62190000Y12237221D01*
X76290000Y63437221D02*
X76290000Y63762779D01*
X77310000Y63437221D02*
X77310000Y63762779D01*
X62090000Y63137221D02*
X62090000Y63462779D01*
X63110000Y63137221D02*
X63110000Y63462779D01*
X74690000Y63437221D02*
X74690000Y63762779D01*
X75710000Y63437221D02*
X75710000Y63762779D01*
X60490000Y63137221D02*
X60490000Y63462779D01*
X61510000Y63137221D02*
X61510000Y63462779D01*
X77390000Y45437221D02*
X77390000Y45762779D01*
X78410000Y45437221D02*
X78410000Y45762779D01*
X72290000Y45449721D02*
X72290000Y45775279D01*
X73310000Y45449721D02*
X73310000Y45775279D01*
X69790000Y45449721D02*
X69790000Y45775279D01*
X70810000Y45449721D02*
X70810000Y45775279D01*
X37210000Y19862779D02*
X37210000Y19537221D01*
X36190000Y19862779D02*
X36190000Y19537221D01*
X34710000Y19862779D02*
X34710000Y19537221D01*
X33690000Y19862779D02*
X33690000Y19537221D01*
X38090000Y23037221D02*
X38090000Y23362779D01*
X39110000Y23037221D02*
X39110000Y23362779D01*
X41690000Y41037221D02*
X41690000Y41362779D01*
X42710000Y41037221D02*
X42710000Y41362779D01*
X47237221Y24610000D02*
X47562779Y24610000D01*
X47237221Y23590000D02*
X47562779Y23590000D01*
X47237221Y26410000D02*
X47562779Y26410000D01*
X47237221Y25390000D02*
X47562779Y25390000D01*
X43110000Y24962779D02*
X43110000Y24637221D01*
X42090000Y24962779D02*
X42090000Y24637221D01*
X44910000Y24962779D02*
X44910000Y24637221D01*
X43890000Y24962779D02*
X43890000Y24637221D01*
X46510000Y12562779D02*
X46510000Y12237221D01*
X45490000Y12562779D02*
X45490000Y12237221D01*
X44710000Y12562779D02*
X44710000Y12237221D01*
X43690000Y12562779D02*
X43690000Y12237221D01*
X41290000Y84037221D02*
X41290000Y84362779D01*
X42310000Y84037221D02*
X42310000Y84362779D01*
X48590000Y84049721D02*
X48590000Y84375279D01*
X49610000Y84049721D02*
X49610000Y84375279D01*
X37649221Y37210000D02*
X37974779Y37210000D01*
X37649221Y36190000D02*
X37974779Y36190000D01*
X55150779Y43390000D02*
X54825221Y43390000D01*
X55150779Y44410000D02*
X54825221Y44410000D01*
X55150779Y45090000D02*
X54825221Y45090000D01*
X55150779Y46110000D02*
X54825221Y46110000D01*
X55150779Y46790000D02*
X54825221Y46790000D01*
X55150779Y47810000D02*
X54825221Y47810000D01*
X55150779Y48490000D02*
X54825221Y48490000D01*
X55150779Y49510000D02*
X54825221Y49510000D01*
X11849221Y89410000D02*
X12174779Y89410000D01*
X11849221Y88390000D02*
X12174779Y88390000D01*
X11849221Y87510000D02*
X12174779Y87510000D01*
X11849221Y86490000D02*
X12174779Y86490000D01*
X55150779Y53590000D02*
X54825221Y53590000D01*
X55150779Y54610000D02*
X54825221Y54610000D01*
X55150779Y50190000D02*
X54825221Y50190000D01*
X55150779Y51210000D02*
X54825221Y51210000D01*
X55150779Y51890000D02*
X54825221Y51890000D01*
X55150779Y52910000D02*
X54825221Y52910000D01*
X13380000Y92560000D02*
X12450000Y92560000D01*
X10220000Y92560000D02*
X11150000Y92560000D01*
X10220000Y92560000D02*
X10220000Y90400000D01*
X13380000Y92560000D02*
X13380000Y91100000D01*
X57220000Y52640000D02*
X58150000Y52640000D01*
X60380000Y52640000D02*
X59450000Y52640000D01*
X60380000Y52640000D02*
X60380000Y54800000D01*
X57220000Y52640000D02*
X57220000Y54100000D01*
X18500000Y84500000D02*
X18500000Y77900000D01*
X18500000Y93500000D02*
X18500000Y86900000D01*
X18500000Y93500000D02*
X38300000Y93500000D01*
X38300000Y93500000D02*
X38300000Y77900000D01*
X38300000Y77900000D02*
X18500000Y77900000D01*
X34050000Y81500000D02*
X34050000Y83950000D01*
X34050000Y89900000D02*
X34050000Y87400000D01*
X23450000Y79650000D02*
X25950000Y79650000D01*
X22550000Y85650000D02*
X21750000Y85650000D01*
X25950000Y91650000D02*
X23450000Y91650000D01*
X29350000Y85650000D02*
X30850000Y85650000D01*
X30850000Y85650000D02*
X35450000Y88150000D01*
X29350000Y82050000D02*
X22550000Y82050000D01*
X29350000Y85650000D02*
X29350000Y82050000D01*
X22550000Y85650000D02*
X22550000Y82050000D01*
X25950000Y91650000D02*
X25950000Y87450000D01*
X25950000Y83850000D02*
X25950000Y79650000D01*
X27950000Y83850000D02*
X23950000Y87450000D01*
X23950000Y83850000D02*
X23950000Y87450000D01*
X23950000Y87450000D02*
X27950000Y87450000D01*
X27950000Y87450000D02*
X27950000Y83850000D01*
X27950000Y83850000D02*
X23950000Y83850000D01*
X57240000Y91210000D02*
X57240000Y86490000D01*
X57240000Y86490000D02*
X71360000Y86490000D01*
X71360000Y86490000D02*
X71360000Y91210000D01*
X71360000Y91210000D02*
X57240000Y91210000D01*
X59000000Y91210000D02*
X59000000Y91410000D01*
X59000000Y91410000D02*
X58700000Y91410000D01*
X58700000Y91410000D02*
X58700000Y91210000D01*
X59000000Y91310000D02*
X58700000Y91310000D01*
X59800000Y91210000D02*
X59800000Y90600000D01*
X59800000Y90600000D02*
X57850000Y90600000D01*
X57850000Y90600000D02*
X57850000Y87100000D01*
X57850000Y87100000D02*
X70750000Y87100000D01*
X70750000Y87100000D02*
X70750000Y90600000D01*
X70750000Y90600000D02*
X68800000Y90600000D01*
X68800000Y90600000D02*
X68800000Y91210000D01*
X57240000Y89900000D02*
X57850000Y89900000D01*
X57240000Y88600000D02*
X57850000Y88600000D01*
X71360000Y89900000D02*
X70750000Y89900000D01*
X71360000Y88600000D02*
X70750000Y88600000D01*
X60200000Y87100000D02*
X60200000Y87600000D01*
X60200000Y87600000D02*
X60400000Y87600000D01*
X60400000Y87600000D02*
X60400000Y87100000D01*
X60300000Y87100000D02*
X60300000Y87600000D01*
X62200000Y87100000D02*
X62200000Y87600000D01*
X62200000Y87600000D02*
X62400000Y87600000D01*
X62400000Y87600000D02*
X62400000Y87100000D01*
X62300000Y87100000D02*
X62300000Y87600000D01*
X64200000Y87100000D02*
X64200000Y87600000D01*
X64200000Y87600000D02*
X64400000Y87600000D01*
X64400000Y87600000D02*
X64400000Y87100000D01*
X64300000Y87100000D02*
X64300000Y87600000D01*
X66200000Y87100000D02*
X66200000Y87600000D01*
X66200000Y87600000D02*
X66400000Y87600000D01*
X66400000Y87600000D02*
X66400000Y87100000D01*
X66300000Y87100000D02*
X66300000Y87600000D01*
X68200000Y87100000D02*
X68200000Y87600000D01*
X68200000Y87600000D02*
X68400000Y87600000D01*
X68400000Y87600000D02*
X68400000Y87100000D01*
X68300000Y87100000D02*
X68300000Y87600000D01*
X58190000Y91510000D02*
X56940000Y91510000D01*
X56940000Y91510000D02*
X56940000Y90260000D01*
X48740000Y91210000D02*
X48740000Y86490000D01*
X48740000Y86490000D02*
X54860000Y86490000D01*
X54860000Y86490000D02*
X54860000Y91210000D01*
X54860000Y91210000D02*
X48740000Y91210000D01*
X50500000Y91210000D02*
X50500000Y91410000D01*
X50500000Y91410000D02*
X50200000Y91410000D01*
X50200000Y91410000D02*
X50200000Y91210000D01*
X50500000Y91310000D02*
X50200000Y91310000D01*
X51300000Y91210000D02*
X51300000Y90600000D01*
X51300000Y90600000D02*
X49350000Y90600000D01*
X49350000Y90600000D02*
X49350000Y87100000D01*
X49350000Y87100000D02*
X54250000Y87100000D01*
X54250000Y87100000D02*
X54250000Y90600000D01*
X54250000Y90600000D02*
X52300000Y90600000D01*
X52300000Y90600000D02*
X52300000Y91210000D01*
X48740000Y89900000D02*
X49350000Y89900000D01*
X48740000Y88600000D02*
X49350000Y88600000D01*
X54860000Y89900000D02*
X54250000Y89900000D01*
X54860000Y88600000D02*
X54250000Y88600000D01*
X51700000Y87100000D02*
X51700000Y87600000D01*
X51700000Y87600000D02*
X51900000Y87600000D01*
X51900000Y87600000D02*
X51900000Y87100000D01*
X51800000Y87100000D02*
X51800000Y87600000D01*
X49690000Y91510000D02*
X48440000Y91510000D01*
X48440000Y91510000D02*
X48440000Y90260000D01*
X13490000Y1440000D02*
X18210000Y1440000D01*
X18210000Y1440000D02*
X18210000Y9560000D01*
X18210000Y9560000D02*
X13490000Y9560000D01*
X13490000Y9560000D02*
X13490000Y1440000D01*
X13490000Y3200000D02*
X13290000Y3200000D01*
X13290000Y3200000D02*
X13290000Y2900000D01*
X13290000Y2900000D02*
X13490000Y2900000D01*
X13390000Y3200000D02*
X13390000Y2900000D01*
X13490000Y4000000D02*
X14100000Y4000000D01*
X14100000Y4000000D02*
X14100000Y2050000D01*
X14100000Y2050000D02*
X17600000Y2050000D01*
X17600000Y2050000D02*
X17600000Y8950000D01*
X17600000Y8950000D02*
X14100000Y8950000D01*
X14100000Y8950000D02*
X14100000Y7000000D01*
X14100000Y7000000D02*
X13490000Y7000000D01*
X14800000Y1440000D02*
X14800000Y2050000D01*
X16100000Y1440000D02*
X16100000Y2050000D01*
X14800000Y9560000D02*
X14800000Y8950000D01*
X16100000Y9560000D02*
X16100000Y8950000D01*
X17600000Y4400000D02*
X17100000Y4400000D01*
X17100000Y4400000D02*
X17100000Y4600000D01*
X17100000Y4600000D02*
X17600000Y4600000D01*
X17600000Y4500000D02*
X17100000Y4500000D01*
X17600000Y6400000D02*
X17100000Y6400000D01*
X17100000Y6400000D02*
X17100000Y6600000D01*
X17100000Y6600000D02*
X17600000Y6600000D01*
X17600000Y6500000D02*
X17100000Y6500000D01*
X13190000Y2390000D02*
X13190000Y1140000D01*
X13190000Y1140000D02*
X14440000Y1140000D01*
X13490000Y15340000D02*
X18210000Y15340000D01*
X18210000Y15340000D02*
X18210000Y23460000D01*
X18210000Y23460000D02*
X13490000Y23460000D01*
X13490000Y23460000D02*
X13490000Y15340000D01*
X13490000Y17100000D02*
X13290000Y17100000D01*
X13290000Y17100000D02*
X13290000Y16800000D01*
X13290000Y16800000D02*
X13490000Y16800000D01*
X13390000Y17100000D02*
X13390000Y16800000D01*
X13490000Y17900000D02*
X14100000Y17900000D01*
X14100000Y17900000D02*
X14100000Y15950000D01*
X14100000Y15950000D02*
X17600000Y15950000D01*
X17600000Y15950000D02*
X17600000Y22850000D01*
X17600000Y22850000D02*
X14100000Y22850000D01*
X14100000Y22850000D02*
X14100000Y20900000D01*
X14100000Y20900000D02*
X13490000Y20900000D01*
X14800000Y15340000D02*
X14800000Y15950000D01*
X16100000Y15340000D02*
X16100000Y15950000D01*
X14800000Y23460000D02*
X14800000Y22850000D01*
X16100000Y23460000D02*
X16100000Y22850000D01*
X17600000Y18300000D02*
X17100000Y18300000D01*
X17100000Y18300000D02*
X17100000Y18500000D01*
X17100000Y18500000D02*
X17600000Y18500000D01*
X17600000Y18400000D02*
X17100000Y18400000D01*
X17600000Y20300000D02*
X17100000Y20300000D01*
X17100000Y20300000D02*
X17100000Y20500000D01*
X17100000Y20500000D02*
X17600000Y20500000D01*
X17600000Y20400000D02*
X17100000Y20400000D01*
X13190000Y16290000D02*
X13190000Y15040000D01*
X13190000Y15040000D02*
X14440000Y15040000D01*
X24390000Y15340000D02*
X29110000Y15340000D01*
X29110000Y15340000D02*
X29110000Y25460000D01*
X29110000Y25460000D02*
X24390000Y25460000D01*
X24390000Y25460000D02*
X24390000Y15340000D01*
X24390000Y17100000D02*
X24190000Y17100000D01*
X24190000Y17100000D02*
X24190000Y16800000D01*
X24190000Y16800000D02*
X24390000Y16800000D01*
X24290000Y17100000D02*
X24290000Y16800000D01*
X24390000Y17900000D02*
X25000000Y17900000D01*
X25000000Y17900000D02*
X25000000Y15950000D01*
X25000000Y15950000D02*
X28500000Y15950000D01*
X28500000Y15950000D02*
X28500000Y24850000D01*
X28500000Y24850000D02*
X25000000Y24850000D01*
X25000000Y24850000D02*
X25000000Y22900000D01*
X25000000Y22900000D02*
X24390000Y22900000D01*
X25700000Y15340000D02*
X25700000Y15950000D01*
X27000000Y15340000D02*
X27000000Y15950000D01*
X25700000Y25460000D02*
X25700000Y24850000D01*
X27000000Y25460000D02*
X27000000Y24850000D01*
X28500000Y18300000D02*
X28000000Y18300000D01*
X28000000Y18300000D02*
X28000000Y18500000D01*
X28000000Y18500000D02*
X28500000Y18500000D01*
X28500000Y18400000D02*
X28000000Y18400000D01*
X28500000Y20300000D02*
X28000000Y20300000D01*
X28000000Y20300000D02*
X28000000Y20500000D01*
X28000000Y20500000D02*
X28500000Y20500000D01*
X28500000Y20400000D02*
X28000000Y20400000D01*
X28500000Y22300000D02*
X28000000Y22300000D01*
X28000000Y22300000D02*
X28000000Y22500000D01*
X28000000Y22500000D02*
X28500000Y22500000D01*
X28500000Y22400000D02*
X28000000Y22400000D01*
X24090000Y16290000D02*
X24090000Y15040000D01*
X24090000Y15040000D02*
X25340000Y15040000D01*
X3190000Y45240000D02*
X7910000Y45240000D01*
X7910000Y45240000D02*
X7910000Y51360000D01*
X7910000Y51360000D02*
X3190000Y51360000D01*
X3190000Y51360000D02*
X3190000Y45240000D01*
X3190000Y47000000D02*
X2990000Y47000000D01*
X2990000Y47000000D02*
X2990000Y46700000D01*
X2990000Y46700000D02*
X3190000Y46700000D01*
X3090000Y47000000D02*
X3090000Y46700000D01*
X3190000Y47800000D02*
X3800000Y47800000D01*
X3800000Y47800000D02*
X3800000Y45850000D01*
X3800000Y45850000D02*
X7300000Y45850000D01*
X7300000Y45850000D02*
X7300000Y50750000D01*
X7300000Y50750000D02*
X3800000Y50750000D01*
X3800000Y50750000D02*
X3800000Y48800000D01*
X3800000Y48800000D02*
X3190000Y48800000D01*
X4500000Y45240000D02*
X4500000Y45850000D01*
X5800000Y45240000D02*
X5800000Y45850000D01*
X4500000Y51360000D02*
X4500000Y50750000D01*
X5800000Y51360000D02*
X5800000Y50750000D01*
X7300000Y48200000D02*
X6800000Y48200000D01*
X6800000Y48200000D02*
X6800000Y48400000D01*
X6800000Y48400000D02*
X7300000Y48400000D01*
X7300000Y48300000D02*
X6800000Y48300000D01*
X2890000Y46190000D02*
X2890000Y44940000D01*
X2890000Y44940000D02*
X4140000Y44940000D01*
X13490000Y36940000D02*
X18210000Y36940000D01*
X18210000Y36940000D02*
X18210000Y43060000D01*
X18210000Y43060000D02*
X13490000Y43060000D01*
X13490000Y43060000D02*
X13490000Y36940000D01*
X13490000Y38700000D02*
X13290000Y38700000D01*
X13290000Y38700000D02*
X13290000Y38400000D01*
X13290000Y38400000D02*
X13490000Y38400000D01*
X13390000Y38700000D02*
X13390000Y38400000D01*
X13490000Y39500000D02*
X14100000Y39500000D01*
X14100000Y39500000D02*
X14100000Y37550000D01*
X14100000Y37550000D02*
X17600000Y37550000D01*
X17600000Y37550000D02*
X17600000Y42450000D01*
X17600000Y42450000D02*
X14100000Y42450000D01*
X14100000Y42450000D02*
X14100000Y40500000D01*
X14100000Y40500000D02*
X13490000Y40500000D01*
X14800000Y36940000D02*
X14800000Y37550000D01*
X16100000Y36940000D02*
X16100000Y37550000D01*
X14800000Y43060000D02*
X14800000Y42450000D01*
X16100000Y43060000D02*
X16100000Y42450000D01*
X17600000Y39900000D02*
X17100000Y39900000D01*
X17100000Y39900000D02*
X17100000Y40100000D01*
X17100000Y40100000D02*
X17600000Y40100000D01*
X17600000Y40000000D02*
X17100000Y40000000D01*
X13190000Y37890000D02*
X13190000Y36640000D01*
X13190000Y36640000D02*
X14440000Y36640000D01*
X24390000Y27840000D02*
X29110000Y27840000D01*
X29110000Y27840000D02*
X29110000Y41960000D01*
X29110000Y41960000D02*
X24390000Y41960000D01*
X24390000Y41960000D02*
X24390000Y27840000D01*
X24390000Y29600000D02*
X24190000Y29600000D01*
X24190000Y29600000D02*
X24190000Y29300000D01*
X24190000Y29300000D02*
X24390000Y29300000D01*
X24290000Y29600000D02*
X24290000Y29300000D01*
X24390000Y30400000D02*
X25000000Y30400000D01*
X25000000Y30400000D02*
X25000000Y28450000D01*
X25000000Y28450000D02*
X28500000Y28450000D01*
X28500000Y28450000D02*
X28500000Y41350000D01*
X28500000Y41350000D02*
X25000000Y41350000D01*
X25000000Y41350000D02*
X25000000Y39400000D01*
X25000000Y39400000D02*
X24390000Y39400000D01*
X25700000Y27840000D02*
X25700000Y28450000D01*
X27000000Y27840000D02*
X27000000Y28450000D01*
X25700000Y41960000D02*
X25700000Y41350000D01*
X27000000Y41960000D02*
X27000000Y41350000D01*
X28500000Y30800000D02*
X28000000Y30800000D01*
X28000000Y30800000D02*
X28000000Y31000000D01*
X28000000Y31000000D02*
X28500000Y31000000D01*
X28500000Y30900000D02*
X28000000Y30900000D01*
X28500000Y32800000D02*
X28000000Y32800000D01*
X28000000Y32800000D02*
X28000000Y33000000D01*
X28000000Y33000000D02*
X28500000Y33000000D01*
X28500000Y32900000D02*
X28000000Y32900000D01*
X28500000Y34800000D02*
X28000000Y34800000D01*
X28000000Y34800000D02*
X28000000Y35000000D01*
X28000000Y35000000D02*
X28500000Y35000000D01*
X28500000Y34900000D02*
X28000000Y34900000D01*
X28500000Y36800000D02*
X28000000Y36800000D01*
X28000000Y36800000D02*
X28000000Y37000000D01*
X28000000Y37000000D02*
X28500000Y37000000D01*
X28500000Y36900000D02*
X28000000Y36900000D01*
X28500000Y38800000D02*
X28000000Y38800000D01*
X28000000Y38800000D02*
X28000000Y39000000D01*
X28000000Y39000000D02*
X28500000Y39000000D01*
X28500000Y38900000D02*
X28000000Y38900000D01*
X24090000Y28790000D02*
X24090000Y27540000D01*
X24090000Y27540000D02*
X25340000Y27540000D01*
X24390000Y1440000D02*
X29110000Y1440000D01*
X29110000Y1440000D02*
X29110000Y11560000D01*
X29110000Y11560000D02*
X24390000Y11560000D01*
X24390000Y11560000D02*
X24390000Y1440000D01*
X24390000Y3200000D02*
X24190000Y3200000D01*
X24190000Y3200000D02*
X24190000Y2900000D01*
X24190000Y2900000D02*
X24390000Y2900000D01*
X24290000Y3200000D02*
X24290000Y2900000D01*
X24390000Y4000000D02*
X25000000Y4000000D01*
X25000000Y4000000D02*
X25000000Y2050000D01*
X25000000Y2050000D02*
X28500000Y2050000D01*
X28500000Y2050000D02*
X28500000Y10950000D01*
X28500000Y10950000D02*
X25000000Y10950000D01*
X25000000Y10950000D02*
X25000000Y9000000D01*
X25000000Y9000000D02*
X24390000Y9000000D01*
X25700000Y1440000D02*
X25700000Y2050000D01*
X27000000Y1440000D02*
X27000000Y2050000D01*
X25700000Y11560000D02*
X25700000Y10950000D01*
X27000000Y11560000D02*
X27000000Y10950000D01*
X28500000Y4400000D02*
X28000000Y4400000D01*
X28000000Y4400000D02*
X28000000Y4600000D01*
X28000000Y4600000D02*
X28500000Y4600000D01*
X28500000Y4500000D02*
X28000000Y4500000D01*
X28500000Y6400000D02*
X28000000Y6400000D01*
X28000000Y6400000D02*
X28000000Y6600000D01*
X28000000Y6600000D02*
X28500000Y6600000D01*
X28500000Y6500000D02*
X28000000Y6500000D01*
X28500000Y8400000D02*
X28000000Y8400000D01*
X28000000Y8400000D02*
X28000000Y8600000D01*
X28000000Y8600000D02*
X28500000Y8600000D01*
X28500000Y8500000D02*
X28000000Y8500000D01*
X24090000Y2390000D02*
X24090000Y1140000D01*
X24090000Y1140000D02*
X25340000Y1140000D01*
X13490000Y45240000D02*
X18210000Y45240000D01*
X18210000Y45240000D02*
X18210000Y51360000D01*
X18210000Y51360000D02*
X13490000Y51360000D01*
X13490000Y51360000D02*
X13490000Y45240000D01*
X13490000Y47000000D02*
X13290000Y47000000D01*
X13290000Y47000000D02*
X13290000Y46700000D01*
X13290000Y46700000D02*
X13490000Y46700000D01*
X13390000Y47000000D02*
X13390000Y46700000D01*
X13490000Y47800000D02*
X14100000Y47800000D01*
X14100000Y47800000D02*
X14100000Y45850000D01*
X14100000Y45850000D02*
X17600000Y45850000D01*
X17600000Y45850000D02*
X17600000Y50750000D01*
X17600000Y50750000D02*
X14100000Y50750000D01*
X14100000Y50750000D02*
X14100000Y48800000D01*
X14100000Y48800000D02*
X13490000Y48800000D01*
X14800000Y45240000D02*
X14800000Y45850000D01*
X16100000Y45240000D02*
X16100000Y45850000D01*
X14800000Y51360000D02*
X14800000Y50750000D01*
X16100000Y51360000D02*
X16100000Y50750000D01*
X17600000Y48200000D02*
X17100000Y48200000D01*
X17100000Y48200000D02*
X17100000Y48400000D01*
X17100000Y48400000D02*
X17600000Y48400000D01*
X17600000Y48300000D02*
X17100000Y48300000D01*
X13190000Y46190000D02*
X13190000Y44940000D01*
X13190000Y44940000D02*
X14440000Y44940000D01*
X3190000Y36940000D02*
X7910000Y36940000D01*
X7910000Y36940000D02*
X7910000Y43060000D01*
X7910000Y43060000D02*
X3190000Y43060000D01*
X3190000Y43060000D02*
X3190000Y36940000D01*
X3190000Y38700000D02*
X2990000Y38700000D01*
X2990000Y38700000D02*
X2990000Y38400000D01*
X2990000Y38400000D02*
X3190000Y38400000D01*
X3090000Y38700000D02*
X3090000Y38400000D01*
X3190000Y39500000D02*
X3800000Y39500000D01*
X3800000Y39500000D02*
X3800000Y37550000D01*
X3800000Y37550000D02*
X7300000Y37550000D01*
X7300000Y37550000D02*
X7300000Y42450000D01*
X7300000Y42450000D02*
X3800000Y42450000D01*
X3800000Y42450000D02*
X3800000Y40500000D01*
X3800000Y40500000D02*
X3190000Y40500000D01*
X4500000Y36940000D02*
X4500000Y37550000D01*
X5800000Y36940000D02*
X5800000Y37550000D01*
X4500000Y43060000D02*
X4500000Y42450000D01*
X5800000Y43060000D02*
X5800000Y42450000D01*
X7300000Y39900000D02*
X6800000Y39900000D01*
X6800000Y39900000D02*
X6800000Y40100000D01*
X6800000Y40100000D02*
X7300000Y40100000D01*
X7300000Y40000000D02*
X6800000Y40000000D01*
X2890000Y37890000D02*
X2890000Y36640000D01*
X2890000Y36640000D02*
X4140000Y36640000D01*
X13490000Y27840000D02*
X18210000Y27840000D01*
X18210000Y27840000D02*
X18210000Y33960000D01*
X18210000Y33960000D02*
X13490000Y33960000D01*
X13490000Y33960000D02*
X13490000Y27840000D01*
X13490000Y29600000D02*
X13290000Y29600000D01*
X13290000Y29600000D02*
X13290000Y29300000D01*
X13290000Y29300000D02*
X13490000Y29300000D01*
X13390000Y29600000D02*
X13390000Y29300000D01*
X13490000Y30400000D02*
X14100000Y30400000D01*
X14100000Y30400000D02*
X14100000Y28450000D01*
X14100000Y28450000D02*
X17600000Y28450000D01*
X17600000Y28450000D02*
X17600000Y33350000D01*
X17600000Y33350000D02*
X14100000Y33350000D01*
X14100000Y33350000D02*
X14100000Y31400000D01*
X14100000Y31400000D02*
X13490000Y31400000D01*
X14800000Y27840000D02*
X14800000Y28450000D01*
X16100000Y27840000D02*
X16100000Y28450000D01*
X14800000Y33960000D02*
X14800000Y33350000D01*
X16100000Y33960000D02*
X16100000Y33350000D01*
X17600000Y30800000D02*
X17100000Y30800000D01*
X17100000Y30800000D02*
X17100000Y31000000D01*
X17100000Y31000000D02*
X17600000Y31000000D01*
X17600000Y30900000D02*
X17100000Y30900000D01*
X13190000Y28790000D02*
X13190000Y27540000D01*
X13190000Y27540000D02*
X14440000Y27540000D01*
X7234756Y75783318D02*
G75*
G02X7380000Y75100000I-1534756J-683318D01*
G01*
X5016958Y76635426D02*
G75*
G02X6384000Y76635000I683042J-1535426D01*
G01*
X4164574Y74416958D02*
G75*
G02X4165000Y75784000I1535426J683042D01*
G01*
X6383042Y73564574D02*
G75*
G02X5016000Y73565000I-683042J1535426D01*
G01*
X7380253Y75128805D02*
G75*
G02X7235000Y74416000I-1680253J-28805D01*
G01*
X7380000Y80100000D02*
G75*
G03X7380000Y80100000I-1680000J0D01*
G01*
X9800000Y72540000D02*
X9800000Y82660000D01*
X8300000Y72540000D02*
X8300000Y82660000D01*
X3399000Y72540000D02*
X3399000Y82660000D01*
X439000Y72540000D02*
X439000Y82660000D01*
X10360000Y72540000D02*
X10360000Y82660000D01*
X439000Y72540000D02*
X10360000Y72540000D01*
X439000Y82660000D02*
X10360000Y82660000D01*
X4631000Y81375000D02*
X4677000Y81328000D01*
X6939000Y79066000D02*
X6974000Y79031000D01*
X4425000Y81170000D02*
X4461000Y81135000D01*
X6723000Y78873000D02*
X6769000Y78826000D01*
X9860000Y72300000D02*
X10600000Y72300000D01*
X10600000Y72300000D02*
X10600000Y72800000D01*
X71815000Y30900000D02*
X71815000Y25215000D01*
X71815000Y25215000D02*
X74985000Y25215000D01*
X74985000Y25215000D02*
X74985000Y30900000D01*
X58365000Y42000000D02*
X58365000Y39715000D01*
X58365000Y39715000D02*
X59835000Y39715000D01*
X59835000Y39715000D02*
X59835000Y42000000D01*
X74985000Y18900000D02*
X74985000Y24585000D01*
X74985000Y24585000D02*
X71815000Y24585000D01*
X71815000Y24585000D02*
X71815000Y18900000D01*
X70000000Y26635000D02*
X67715000Y26635000D01*
X67715000Y26635000D02*
X67715000Y25165000D01*
X67715000Y25165000D02*
X70000000Y25165000D01*
X70000000Y24835000D02*
X67715000Y24835000D01*
X67715000Y24835000D02*
X67715000Y23365000D01*
X67715000Y23365000D02*
X70000000Y23365000D01*
X53215000Y31000000D02*
X53215000Y25315000D01*
X53215000Y25315000D02*
X56385000Y25315000D01*
X56385000Y25315000D02*
X56385000Y31000000D01*
X39665000Y42012000D02*
X39665000Y39727000D01*
X39665000Y39727000D02*
X41135000Y39727000D01*
X41135000Y39727000D02*
X41135000Y42012000D01*
X56385000Y19000000D02*
X56385000Y24685000D01*
X56385000Y24685000D02*
X53215000Y24685000D01*
X53215000Y24685000D02*
X53215000Y19000000D01*
X51500000Y26635000D02*
X49215000Y26635000D01*
X49215000Y26635000D02*
X49215000Y25165000D01*
X49215000Y25165000D02*
X51500000Y25165000D01*
X51500000Y24835000D02*
X49215000Y24835000D01*
X49215000Y24835000D02*
X49215000Y23365000D01*
X49215000Y23365000D02*
X51500000Y23365000D01*
X14315000Y92900000D02*
X14315000Y87215000D01*
X14315000Y87215000D02*
X17485000Y87215000D01*
X17485000Y87215000D02*
X17485000Y92900000D01*
X73337221Y42710000D02*
X73662779Y42710000D01*
X73337221Y41690000D02*
X73662779Y41690000D01*
X77090000Y33237221D02*
X77090000Y33562779D01*
X78110000Y33237221D02*
X78110000Y33562779D01*
X73337221Y36410000D02*
X73662779Y36410000D01*
X73337221Y35390000D02*
X73662779Y35390000D01*
X73310000Y33562779D02*
X73310000Y33237221D01*
X72290000Y33562779D02*
X72290000Y33237221D01*
X59810000Y24962779D02*
X59810000Y24637221D01*
X58790000Y24962779D02*
X58790000Y24637221D01*
X70510000Y15602064D02*
X70510000Y14397936D01*
X68690000Y15602064D02*
X68690000Y14397936D01*
X67910000Y15874779D02*
X67910000Y15549221D01*
X66890000Y15874779D02*
X66890000Y15549221D01*
X68690000Y19897936D02*
X68690000Y21102064D01*
X70510000Y19897936D02*
X70510000Y21102064D01*
X66890000Y19525221D02*
X66890000Y19850779D01*
X67910000Y19525221D02*
X67910000Y19850779D01*
X76710000Y16050779D02*
X76710000Y15725221D01*
X75690000Y16050779D02*
X75690000Y15725221D01*
X51860000Y77460000D02*
X48010000Y77460000D01*
X41140000Y77460000D02*
X44990000Y77460000D01*
X41140000Y67804437D02*
X41140000Y77460000D01*
X51860000Y67804437D02*
X51860000Y77460000D01*
X50795563Y66740000D02*
X48010000Y66740000D01*
X42204437Y66740000D02*
X44990000Y66740000D01*
X42204437Y66740000D02*
X41140000Y67804437D01*
X50795563Y66740000D02*
X51860000Y67804437D01*
X43740000Y65250000D02*
X43740000Y66500000D01*
X43115000Y65875000D02*
X44365000Y65875000D01*
X66590000Y55737221D02*
X66590000Y56062779D01*
X67610000Y55737221D02*
X67610000Y56062779D01*
X54837221Y42610000D02*
X55162779Y42610000D01*
X54837221Y41590000D02*
X55162779Y41590000D01*
X37210000Y23362779D02*
X37210000Y23037221D01*
X36190000Y23362779D02*
X36190000Y23037221D01*
X54837221Y36410000D02*
X55162779Y36410000D01*
X54837221Y35390000D02*
X55162779Y35390000D01*
X54810000Y33562779D02*
X54810000Y33237221D01*
X53790000Y33562779D02*
X53790000Y33237221D01*
X41310000Y24962779D02*
X41310000Y24637221D01*
X40290000Y24962779D02*
X40290000Y24637221D01*
X51910000Y15602064D02*
X51910000Y14397936D01*
X50090000Y15602064D02*
X50090000Y14397936D01*
X49410000Y15950779D02*
X49410000Y15625221D01*
X48390000Y15950779D02*
X48390000Y15625221D01*
X50090000Y19997936D02*
X50090000Y21202064D01*
X51910000Y19997936D02*
X51910000Y21202064D01*
X48390000Y19649221D02*
X48390000Y19974779D01*
X49410000Y19649221D02*
X49410000Y19974779D01*
X58110000Y16050779D02*
X58110000Y15725221D01*
X57090000Y16050779D02*
X57090000Y15725221D01*
X42850779Y51390000D02*
X42525221Y51390000D01*
X42850779Y52410000D02*
X42525221Y52410000D01*
X35549221Y56310000D02*
X35874779Y56310000D01*
X35549221Y55290000D02*
X35874779Y55290000D01*
X20049221Y56310000D02*
X20374779Y56310000D01*
X20049221Y55290000D02*
X20374779Y55290000D01*
X44002064Y53390000D02*
X42797936Y53390000D01*
X44002064Y55210000D02*
X42797936Y55210000D01*
X34497936Y59110000D02*
X35702064Y59110000D01*
X34497936Y57290000D02*
X35702064Y57290000D01*
X18997936Y59110000D02*
X20202064Y59110000D01*
X18997936Y57290000D02*
X20202064Y57290000D01*
X42797936Y62410000D02*
X44002064Y62410000D01*
X42797936Y60590000D02*
X44002064Y60590000D01*
X35802064Y68890000D02*
X34597936Y68890000D01*
X35802064Y70710000D02*
X34597936Y70710000D01*
X20202064Y68890000D02*
X18997936Y68890000D01*
X20202064Y70710000D02*
X18997936Y70710000D01*
X42437221Y64410000D02*
X42762779Y64410000D01*
X42437221Y63390000D02*
X42762779Y63390000D01*
X35974779Y71690000D02*
X35649221Y71690000D01*
X35974779Y72710000D02*
X35649221Y72710000D01*
X20374779Y71690000D02*
X20049221Y71690000D01*
X20374779Y72710000D02*
X20049221Y72710000D01*
D11*
X4460476Y36477620D02*
X4460476Y35763334D01*
X4412857Y35620477D01*
X4317619Y35525239D01*
X4174761Y35477620D01*
X4079523Y35477620D01*
X5460476Y35477620D02*
X4889047Y35477620D01*
X5174761Y35477620D02*
X5174761Y36477620D01*
X5079523Y36334762D01*
X4984285Y36239524D01*
X4889047Y36191905D01*
X6031904Y36049048D02*
X5936666Y36096667D01*
X5889047Y36144286D01*
X5841428Y36239524D01*
X5841428Y36287143D01*
X5889047Y36382381D01*
X5936666Y36430000D01*
X6031904Y36477620D01*
X6222380Y36477620D01*
X6317619Y36430000D01*
X6365238Y36382381D01*
X6412857Y36287143D01*
X6412857Y36239524D01*
X6365238Y36144286D01*
X6317619Y36096667D01*
X6222380Y36049048D01*
X6031904Y36049048D01*
X5936666Y36001429D01*
X5889047Y35953810D01*
X5841428Y35858572D01*
X5841428Y35668096D01*
X5889047Y35572858D01*
X5936666Y35525239D01*
X6031904Y35477620D01*
X6222380Y35477620D01*
X6317619Y35525239D01*
X6365238Y35572858D01*
X6412857Y35668096D01*
X6412857Y35858572D01*
X6365238Y35953810D01*
X6317619Y36001429D01*
X6222380Y36049048D01*
X39852380Y86590477D02*
X40566666Y86590477D01*
X40709523Y86542858D01*
X40804761Y86447620D01*
X40852380Y86304762D01*
X40852380Y86209524D01*
X40852380Y87590477D02*
X40852380Y87019048D01*
X40852380Y87304762D02*
X39852380Y87304762D01*
X39995238Y87209524D01*
X40090476Y87114286D01*
X40138095Y87019048D01*
X40185714Y88447620D02*
X40852380Y88447620D01*
X39804761Y88209524D02*
X40519047Y87971429D01*
X40519047Y88590477D01*
X41109523Y92295239D02*
X41252380Y92247620D01*
X41490476Y92247620D01*
X41585714Y92295239D01*
X41633333Y92342858D01*
X41680952Y92438096D01*
X41680952Y92533334D01*
X41633333Y92628572D01*
X41585714Y92676191D01*
X41490476Y92723810D01*
X41300000Y92771429D01*
X41204761Y92819048D01*
X41157142Y92866667D01*
X41109523Y92961905D01*
X41109523Y93057143D01*
X41157142Y93152381D01*
X41204761Y93200000D01*
X41300000Y93247620D01*
X41538095Y93247620D01*
X41680952Y93200000D01*
X42014285Y92914286D02*
X42204761Y92247620D01*
X42395238Y92723810D01*
X42585714Y92247620D01*
X42776190Y92914286D01*
X43157142Y92247620D02*
X43157142Y92914286D01*
X43157142Y93247620D02*
X43109523Y93200000D01*
X43157142Y93152381D01*
X43204761Y93200000D01*
X43157142Y93247620D01*
X43157142Y93152381D01*
X43490476Y92914286D02*
X43871428Y92914286D01*
X43633333Y93247620D02*
X43633333Y92390477D01*
X43680952Y92295239D01*
X43776190Y92247620D01*
X43871428Y92247620D01*
X44633333Y92295239D02*
X44538095Y92247620D01*
X44347619Y92247620D01*
X44252380Y92295239D01*
X44204761Y92342858D01*
X44157142Y92438096D01*
X44157142Y92723810D01*
X44204761Y92819048D01*
X44252380Y92866667D01*
X44347619Y92914286D01*
X44538095Y92914286D01*
X44633333Y92866667D01*
X45061904Y92247620D02*
X45061904Y93247620D01*
X45490476Y92247620D02*
X45490476Y92771429D01*
X45442857Y92866667D01*
X45347619Y92914286D01*
X45204761Y92914286D01*
X45109523Y92866667D01*
X45061904Y92819048D01*
X45919047Y93152381D02*
X45966666Y93200000D01*
X46061904Y93247620D01*
X46300000Y93247620D01*
X46395238Y93200000D01*
X46442857Y93152381D01*
X46490476Y93057143D01*
X46490476Y92961905D01*
X46442857Y92819048D01*
X45871428Y92247620D01*
X46490476Y92247620D01*
X74266666Y10571429D02*
X73933333Y10571429D01*
X73933333Y10047620D02*
X73933333Y11047620D01*
X74409523Y11047620D01*
X74742857Y10952381D02*
X74790476Y11000000D01*
X74885714Y11047620D01*
X75123809Y11047620D01*
X75219047Y11000000D01*
X75266666Y10952381D01*
X75314285Y10857143D01*
X75314285Y10761905D01*
X75266666Y10619048D01*
X74695238Y10047620D01*
X75314285Y10047620D01*
X55866666Y10571429D02*
X55533333Y10571429D01*
X55533333Y10047620D02*
X55533333Y11047620D01*
X56009523Y11047620D01*
X56914285Y10047620D02*
X56342857Y10047620D01*
X56628571Y10047620D02*
X56628571Y11047620D01*
X56533333Y10904762D01*
X56438095Y10809524D01*
X56342857Y10761905D01*
X74461904Y45085715D02*
X74080952Y44819048D01*
X74461904Y44628572D02*
X73661904Y44628572D01*
X73661904Y44933334D01*
X73700000Y45009524D01*
X73738095Y45047620D01*
X73814285Y45085715D01*
X73928571Y45085715D01*
X74004761Y45047620D01*
X74042857Y45009524D01*
X74080952Y44933334D01*
X74080952Y44628572D01*
X73738095Y45390477D02*
X73700000Y45428572D01*
X73661904Y45504762D01*
X73661904Y45695239D01*
X73700000Y45771429D01*
X73738095Y45809524D01*
X73814285Y45847620D01*
X73890476Y45847620D01*
X74004761Y45809524D01*
X74461904Y45352381D01*
X74461904Y45847620D01*
X73661904Y46533334D02*
X73661904Y46380953D01*
X73700000Y46304762D01*
X73738095Y46266667D01*
X73852380Y46190477D01*
X74004761Y46152381D01*
X74309523Y46152381D01*
X74385714Y46190477D01*
X74423809Y46228572D01*
X74461904Y46304762D01*
X74461904Y46457143D01*
X74423809Y46533334D01*
X74385714Y46571429D01*
X74309523Y46609524D01*
X74119047Y46609524D01*
X74042857Y46571429D01*
X74004761Y46533334D01*
X73966666Y46457143D01*
X73966666Y46304762D01*
X74004761Y46228572D01*
X74042857Y46190477D01*
X74119047Y46152381D01*
X74222380Y430477D02*
X74936666Y430477D01*
X75079523Y382858D01*
X75174761Y287620D01*
X75222380Y144762D01*
X75222380Y49524D01*
X75222380Y1430477D02*
X75222380Y859048D01*
X75222380Y1144762D02*
X74222380Y1144762D01*
X74365238Y1049524D01*
X74460476Y954286D01*
X74508095Y859048D01*
X74222380Y1763810D02*
X74222380Y2430477D01*
X75222380Y2001905D01*
X55722380Y430477D02*
X56436666Y430477D01*
X56579523Y382858D01*
X56674761Y287620D01*
X56722380Y144762D01*
X56722380Y49524D01*
X56722380Y1430477D02*
X56722380Y859048D01*
X56722380Y1144762D02*
X55722380Y1144762D01*
X55865238Y1049524D01*
X55960476Y954286D01*
X56008095Y859048D01*
X55722380Y2287620D02*
X55722380Y2097143D01*
X55770000Y2001905D01*
X55817619Y1954286D01*
X55960476Y1859048D01*
X56150952Y1811429D01*
X56531904Y1811429D01*
X56627142Y1859048D01*
X56674761Y1906667D01*
X56722380Y2001905D01*
X56722380Y2192381D01*
X56674761Y2287620D01*
X56627142Y2335239D01*
X56531904Y2382858D01*
X56293809Y2382858D01*
X56198571Y2335239D01*
X56150952Y2287620D01*
X56103333Y2192381D01*
X56103333Y2001905D01*
X56150952Y1906667D01*
X56198571Y1859048D01*
X56293809Y1811429D01*
X76276190Y39923810D02*
X76752380Y39923810D01*
X75752380Y39590477D02*
X76276190Y39923810D01*
X75752380Y40257143D01*
X75847619Y40542858D02*
X75800000Y40590477D01*
X75752380Y40685715D01*
X75752380Y40923810D01*
X75800000Y41019048D01*
X75847619Y41066667D01*
X75942857Y41114286D01*
X76038095Y41114286D01*
X76180952Y41066667D01*
X76752380Y40495239D01*
X76752380Y41114286D01*
X57676190Y37323810D02*
X58152380Y37323810D01*
X57152380Y36990477D02*
X57676190Y37323810D01*
X57152380Y37657143D01*
X58152380Y38514286D02*
X58152380Y37942858D01*
X58152380Y38228572D02*
X57152380Y38228572D01*
X57295238Y38133334D01*
X57390476Y38038096D01*
X57438095Y37942858D01*
X58652380Y28661905D02*
X59461904Y28661905D01*
X59557142Y28709524D01*
X59604761Y28757143D01*
X59652380Y28852381D01*
X59652380Y29042858D01*
X59604761Y29138096D01*
X59557142Y29185715D01*
X59461904Y29233334D01*
X58652380Y29233334D01*
X59652380Y30233334D02*
X59652380Y29661905D01*
X59652380Y29947620D02*
X58652380Y29947620D01*
X58795238Y29852381D01*
X58890476Y29757143D01*
X58938095Y29661905D01*
X58652380Y30852381D02*
X58652380Y30947620D01*
X58700000Y31042858D01*
X58747619Y31090477D01*
X58842857Y31138096D01*
X59033333Y31185715D01*
X59271428Y31185715D01*
X59461904Y31138096D01*
X59557142Y31090477D01*
X59604761Y31042858D01*
X59652380Y30947620D01*
X59652380Y30852381D01*
X59604761Y30757143D01*
X59557142Y30709524D01*
X59461904Y30661905D01*
X59271428Y30614286D01*
X59033333Y30614286D01*
X58842857Y30661905D01*
X58747619Y30709524D01*
X58700000Y30757143D01*
X58652380Y30852381D01*
X58952380Y18938096D02*
X59761904Y18938096D01*
X59857142Y18985715D01*
X59904761Y19033334D01*
X59952380Y19128572D01*
X59952380Y19319048D01*
X59904761Y19414286D01*
X59857142Y19461905D01*
X59761904Y19509524D01*
X58952380Y19509524D01*
X59952380Y20033334D02*
X59952380Y20223810D01*
X59904761Y20319048D01*
X59857142Y20366667D01*
X59714285Y20461905D01*
X59523809Y20509524D01*
X59142857Y20509524D01*
X59047619Y20461905D01*
X59000000Y20414286D01*
X58952380Y20319048D01*
X58952380Y20128572D01*
X59000000Y20033334D01*
X59047619Y19985715D01*
X59142857Y19938096D01*
X59380952Y19938096D01*
X59476190Y19985715D01*
X59523809Y20033334D01*
X59571428Y20128572D01*
X59571428Y20319048D01*
X59523809Y20414286D01*
X59476190Y20461905D01*
X59380952Y20509524D01*
X67102380Y73038096D02*
X67911904Y73038096D01*
X68007142Y73085715D01*
X68054761Y73133334D01*
X68102380Y73228572D01*
X68102380Y73419048D01*
X68054761Y73514286D01*
X68007142Y73561905D01*
X67911904Y73609524D01*
X67102380Y73609524D01*
X67530952Y74228572D02*
X67483333Y74133334D01*
X67435714Y74085715D01*
X67340476Y74038096D01*
X67292857Y74038096D01*
X67197619Y74085715D01*
X67150000Y74133334D01*
X67102380Y74228572D01*
X67102380Y74419048D01*
X67150000Y74514286D01*
X67197619Y74561905D01*
X67292857Y74609524D01*
X67340476Y74609524D01*
X67435714Y74561905D01*
X67483333Y74514286D01*
X67530952Y74419048D01*
X67530952Y74228572D01*
X67578571Y74133334D01*
X67626190Y74085715D01*
X67721428Y74038096D01*
X67911904Y74038096D01*
X68007142Y74085715D01*
X68054761Y74133334D01*
X68102380Y74228572D01*
X68102380Y74419048D01*
X68054761Y74514286D01*
X68007142Y74561905D01*
X67911904Y74609524D01*
X67721428Y74609524D01*
X67626190Y74561905D01*
X67578571Y74514286D01*
X67530952Y74419048D01*
X52802380Y73038096D02*
X53611904Y73038096D01*
X53707142Y73085715D01*
X53754761Y73133334D01*
X53802380Y73228572D01*
X53802380Y73419048D01*
X53754761Y73514286D01*
X53707142Y73561905D01*
X53611904Y73609524D01*
X52802380Y73609524D01*
X52802380Y73990477D02*
X52802380Y74657143D01*
X53802380Y74228572D01*
X66732380Y48748096D02*
X67541904Y48748096D01*
X67637142Y48795715D01*
X67684761Y48843334D01*
X67732380Y48938572D01*
X67732380Y49129048D01*
X67684761Y49224286D01*
X67637142Y49271905D01*
X67541904Y49319524D01*
X66732380Y49319524D01*
X66732380Y50224286D02*
X66732380Y50033810D01*
X66780000Y49938572D01*
X66827619Y49890953D01*
X66970476Y49795715D01*
X67160952Y49748096D01*
X67541904Y49748096D01*
X67637142Y49795715D01*
X67684761Y49843334D01*
X67732380Y49938572D01*
X67732380Y50129048D01*
X67684761Y50224286D01*
X67637142Y50271905D01*
X67541904Y50319524D01*
X67303809Y50319524D01*
X67208571Y50271905D01*
X67160952Y50224286D01*
X67113333Y50129048D01*
X67113333Y49938572D01*
X67160952Y49843334D01*
X67208571Y49795715D01*
X67303809Y49748096D01*
X40152380Y29838096D02*
X40961904Y29838096D01*
X41057142Y29885715D01*
X41104761Y29933334D01*
X41152380Y30028572D01*
X41152380Y30219048D01*
X41104761Y30314286D01*
X41057142Y30361905D01*
X40961904Y30409524D01*
X40152380Y30409524D01*
X40152380Y31361905D02*
X40152380Y30885715D01*
X40628571Y30838096D01*
X40580952Y30885715D01*
X40533333Y30980953D01*
X40533333Y31219048D01*
X40580952Y31314286D01*
X40628571Y31361905D01*
X40723809Y31409524D01*
X40961904Y31409524D01*
X41057142Y31361905D01*
X41104761Y31314286D01*
X41152380Y31219048D01*
X41152380Y30980953D01*
X41104761Y30885715D01*
X41057142Y30838096D01*
X40552380Y16638096D02*
X41361904Y16638096D01*
X41457142Y16685715D01*
X41504761Y16733334D01*
X41552380Y16828572D01*
X41552380Y17019048D01*
X41504761Y17114286D01*
X41457142Y17161905D01*
X41361904Y17209524D01*
X40552380Y17209524D01*
X40885714Y18114286D02*
X41552380Y18114286D01*
X40504761Y17876191D02*
X41219047Y17638096D01*
X41219047Y18257143D01*
X45352380Y58138096D02*
X46161904Y58138096D01*
X46257142Y58185715D01*
X46304761Y58233334D01*
X46352380Y58328572D01*
X46352380Y58519048D01*
X46304761Y58614286D01*
X46257142Y58661905D01*
X46161904Y58709524D01*
X45352380Y58709524D01*
X45352380Y59090477D02*
X45352380Y59709524D01*
X45733333Y59376191D01*
X45733333Y59519048D01*
X45780952Y59614286D01*
X45828571Y59661905D01*
X45923809Y59709524D01*
X46161904Y59709524D01*
X46257142Y59661905D01*
X46304761Y59614286D01*
X46352380Y59519048D01*
X46352380Y59233334D01*
X46304761Y59138096D01*
X46257142Y59090477D01*
X30938095Y60047620D02*
X30938095Y59238096D01*
X30985714Y59142858D01*
X31033333Y59095239D01*
X31128571Y59047620D01*
X31319047Y59047620D01*
X31414285Y59095239D01*
X31461904Y59142858D01*
X31509523Y59238096D01*
X31509523Y60047620D01*
X31938095Y59952381D02*
X31985714Y60000000D01*
X32080952Y60047620D01*
X32319047Y60047620D01*
X32414285Y60000000D01*
X32461904Y59952381D01*
X32509523Y59857143D01*
X32509523Y59761905D01*
X32461904Y59619048D01*
X31890476Y59047620D01*
X32509523Y59047620D01*
X15338095Y60047620D02*
X15338095Y59238096D01*
X15385714Y59142858D01*
X15433333Y59095239D01*
X15528571Y59047620D01*
X15719047Y59047620D01*
X15814285Y59095239D01*
X15861904Y59142858D01*
X15909523Y59238096D01*
X15909523Y60047620D01*
X16909523Y59047620D02*
X16338095Y59047620D01*
X16623809Y59047620D02*
X16623809Y60047620D01*
X16528571Y59904762D01*
X16433333Y59809524D01*
X16338095Y59761905D01*
X81204761Y33366667D02*
X81252380Y33509524D01*
X81252380Y33747620D01*
X81204761Y33842858D01*
X81157142Y33890477D01*
X81061904Y33938096D01*
X80966666Y33938096D01*
X80871428Y33890477D01*
X80823809Y33842858D01*
X80776190Y33747620D01*
X80728571Y33557143D01*
X80680952Y33461905D01*
X80633333Y33414286D01*
X80538095Y33366667D01*
X80442857Y33366667D01*
X80347619Y33414286D01*
X80300000Y33461905D01*
X80252380Y33557143D01*
X80252380Y33795239D01*
X80300000Y33938096D01*
X80252380Y34271429D02*
X81252380Y34509524D01*
X80538095Y34700000D01*
X81252380Y34890477D01*
X80252380Y35128572D01*
X80347619Y35461905D02*
X80300000Y35509524D01*
X80252380Y35604762D01*
X80252380Y35842858D01*
X80300000Y35938096D01*
X80347619Y35985715D01*
X80442857Y36033334D01*
X80538095Y36033334D01*
X80680952Y35985715D01*
X81252380Y35414286D01*
X81252380Y36033334D01*
X35304761Y27466667D02*
X35352380Y27609524D01*
X35352380Y27847620D01*
X35304761Y27942858D01*
X35257142Y27990477D01*
X35161904Y28038096D01*
X35066666Y28038096D01*
X34971428Y27990477D01*
X34923809Y27942858D01*
X34876190Y27847620D01*
X34828571Y27657143D01*
X34780952Y27561905D01*
X34733333Y27514286D01*
X34638095Y27466667D01*
X34542857Y27466667D01*
X34447619Y27514286D01*
X34400000Y27561905D01*
X34352380Y27657143D01*
X34352380Y27895239D01*
X34400000Y28038096D01*
X34352380Y28371429D02*
X35352380Y28609524D01*
X34638095Y28800000D01*
X35352380Y28990477D01*
X34352380Y29228572D01*
X35352380Y30133334D02*
X35352380Y29561905D01*
X35352380Y29847620D02*
X34352380Y29847620D01*
X34495238Y29752381D01*
X34590476Y29657143D01*
X34638095Y29561905D01*
X59922380Y11816762D02*
X59446190Y11483429D01*
X59922380Y11245334D02*
X58922380Y11245334D01*
X58922380Y11626286D01*
X58970000Y11721524D01*
X59017619Y11769143D01*
X59112857Y11816762D01*
X59255714Y11816762D01*
X59350952Y11769143D01*
X59398571Y11721524D01*
X59446190Y11626286D01*
X59446190Y11245334D01*
X58922380Y12102477D02*
X59922380Y12435810D01*
X58922380Y12769143D01*
X59255714Y13531048D02*
X59922380Y13531048D01*
X58874761Y13292953D02*
X59589047Y13054858D01*
X59589047Y13673905D01*
X65852380Y14704762D02*
X65376190Y14371429D01*
X65852380Y14133334D02*
X64852380Y14133334D01*
X64852380Y14514286D01*
X64900000Y14609524D01*
X64947619Y14657143D01*
X65042857Y14704762D01*
X65185714Y14704762D01*
X65280952Y14657143D01*
X65328571Y14609524D01*
X65376190Y14514286D01*
X65376190Y14133334D01*
X64852380Y14990477D02*
X65852380Y15323810D01*
X64852380Y15657143D01*
X64852380Y15895239D02*
X64852380Y16514286D01*
X65233333Y16180953D01*
X65233333Y16323810D01*
X65280952Y16419048D01*
X65328571Y16466667D01*
X65423809Y16514286D01*
X65661904Y16514286D01*
X65757142Y16466667D01*
X65804761Y16419048D01*
X65852380Y16323810D01*
X65852380Y16038096D01*
X65804761Y15942858D01*
X65757142Y15895239D01*
X41422380Y11804762D02*
X40946190Y11471429D01*
X41422380Y11233334D02*
X40422380Y11233334D01*
X40422380Y11614286D01*
X40470000Y11709524D01*
X40517619Y11757143D01*
X40612857Y11804762D01*
X40755714Y11804762D01*
X40850952Y11757143D01*
X40898571Y11709524D01*
X40946190Y11614286D01*
X40946190Y11233334D01*
X40422380Y12090477D02*
X41422380Y12423810D01*
X40422380Y12757143D01*
X40517619Y13042858D02*
X40470000Y13090477D01*
X40422380Y13185715D01*
X40422380Y13423810D01*
X40470000Y13519048D01*
X40517619Y13566667D01*
X40612857Y13614286D01*
X40708095Y13614286D01*
X40850952Y13566667D01*
X41422380Y12995239D01*
X41422380Y13614286D01*
X47352380Y14704762D02*
X46876190Y14371429D01*
X47352380Y14133334D02*
X46352380Y14133334D01*
X46352380Y14514286D01*
X46400000Y14609524D01*
X46447619Y14657143D01*
X46542857Y14704762D01*
X46685714Y14704762D01*
X46780952Y14657143D01*
X46828571Y14609524D01*
X46876190Y14514286D01*
X46876190Y14133334D01*
X46352380Y14990477D02*
X47352380Y15323810D01*
X46352380Y15657143D01*
X47352380Y16514286D02*
X47352380Y15942858D01*
X47352380Y16228572D02*
X46352380Y16228572D01*
X46495238Y16133334D01*
X46590476Y16038096D01*
X46638095Y15942858D01*
X78252380Y16057143D02*
X77776190Y15723810D01*
X78252380Y15485715D02*
X77252380Y15485715D01*
X77252380Y15866667D01*
X77300000Y15961905D01*
X77347619Y16009524D01*
X77442857Y16057143D01*
X77585714Y16057143D01*
X77680952Y16009524D01*
X77728571Y15961905D01*
X77776190Y15866667D01*
X77776190Y15485715D01*
X77585714Y16914286D02*
X78252380Y16914286D01*
X77204761Y16676191D02*
X77919047Y16438096D01*
X77919047Y17057143D01*
X78252380Y17961905D02*
X78252380Y17390477D01*
X78252380Y17676191D02*
X77252380Y17676191D01*
X77395238Y17580953D01*
X77490476Y17485715D01*
X77538095Y17390477D01*
X80252380Y16069143D02*
X79776190Y15735810D01*
X80252380Y15497715D02*
X79252380Y15497715D01*
X79252380Y15878667D01*
X79300000Y15973905D01*
X79347619Y16021524D01*
X79442857Y16069143D01*
X79585714Y16069143D01*
X79680952Y16021524D01*
X79728571Y15973905D01*
X79776190Y15878667D01*
X79776190Y15497715D01*
X79585714Y16926286D02*
X80252380Y16926286D01*
X79204761Y16688191D02*
X79919047Y16450096D01*
X79919047Y17069143D01*
X79252380Y17640572D02*
X79252380Y17735810D01*
X79300000Y17831048D01*
X79347619Y17878667D01*
X79442857Y17926286D01*
X79633333Y17973905D01*
X79871428Y17973905D01*
X80061904Y17926286D01*
X80157142Y17878667D01*
X80204761Y17831048D01*
X80252380Y17735810D01*
X80252380Y17640572D01*
X80204761Y17545334D01*
X80157142Y17497715D01*
X80061904Y17450096D01*
X79871428Y17402477D01*
X79633333Y17402477D01*
X79442857Y17450096D01*
X79347619Y17497715D01*
X79300000Y17545334D01*
X79252380Y17640572D01*
X79652380Y22569143D02*
X79176190Y22235810D01*
X79652380Y21997715D02*
X78652380Y21997715D01*
X78652380Y22378667D01*
X78700000Y22473905D01*
X78747619Y22521524D01*
X78842857Y22569143D01*
X78985714Y22569143D01*
X79080952Y22521524D01*
X79128571Y22473905D01*
X79176190Y22378667D01*
X79176190Y21997715D01*
X78652380Y22902477D02*
X78652380Y23521524D01*
X79033333Y23188191D01*
X79033333Y23331048D01*
X79080952Y23426286D01*
X79128571Y23473905D01*
X79223809Y23521524D01*
X79461904Y23521524D01*
X79557142Y23473905D01*
X79604761Y23426286D01*
X79652380Y23331048D01*
X79652380Y23045334D01*
X79604761Y22950096D01*
X79557142Y22902477D01*
X79652380Y23997715D02*
X79652380Y24188191D01*
X79604761Y24283429D01*
X79557142Y24331048D01*
X79414285Y24426286D01*
X79223809Y24473905D01*
X78842857Y24473905D01*
X78747619Y24426286D01*
X78700000Y24378667D01*
X78652380Y24283429D01*
X78652380Y24092953D01*
X78700000Y23997715D01*
X78747619Y23950096D01*
X78842857Y23902477D01*
X79080952Y23902477D01*
X79176190Y23950096D01*
X79223809Y23997715D01*
X79271428Y24092953D01*
X79271428Y24283429D01*
X79223809Y24378667D01*
X79176190Y24426286D01*
X79080952Y24473905D01*
X61152380Y43657143D02*
X60676190Y43323810D01*
X61152380Y43085715D02*
X60152380Y43085715D01*
X60152380Y43466667D01*
X60200000Y43561905D01*
X60247619Y43609524D01*
X60342857Y43657143D01*
X60485714Y43657143D01*
X60580952Y43609524D01*
X60628571Y43561905D01*
X60676190Y43466667D01*
X60676190Y43085715D01*
X60152380Y43990477D02*
X60152380Y44609524D01*
X60533333Y44276191D01*
X60533333Y44419048D01*
X60580952Y44514286D01*
X60628571Y44561905D01*
X60723809Y44609524D01*
X60961904Y44609524D01*
X61057142Y44561905D01*
X61104761Y44514286D01*
X61152380Y44419048D01*
X61152380Y44133334D01*
X61104761Y44038096D01*
X61057142Y43990477D01*
X60580952Y45180953D02*
X60533333Y45085715D01*
X60485714Y45038096D01*
X60390476Y44990477D01*
X60342857Y44990477D01*
X60247619Y45038096D01*
X60200000Y45085715D01*
X60152380Y45180953D01*
X60152380Y45371429D01*
X60200000Y45466667D01*
X60247619Y45514286D01*
X60342857Y45561905D01*
X60390476Y45561905D01*
X60485714Y45514286D01*
X60533333Y45466667D01*
X60580952Y45371429D01*
X60580952Y45180953D01*
X60628571Y45085715D01*
X60676190Y45038096D01*
X60771428Y44990477D01*
X60961904Y44990477D01*
X61057142Y45038096D01*
X61104761Y45085715D01*
X61152380Y45180953D01*
X61152380Y45371429D01*
X61104761Y45466667D01*
X61057142Y45514286D01*
X60961904Y45561905D01*
X60771428Y45561905D01*
X60676190Y45514286D01*
X60628571Y45466667D01*
X60580952Y45371429D01*
X65450000Y26783334D02*
X65216666Y27116667D01*
X65050000Y26783334D02*
X65050000Y27483334D01*
X65316666Y27483334D01*
X65383333Y27450000D01*
X65416666Y27416667D01*
X65450000Y27350000D01*
X65450000Y27250000D01*
X65416666Y27183334D01*
X65383333Y27150000D01*
X65316666Y27116667D01*
X65050000Y27116667D01*
X65683333Y27483334D02*
X66116666Y27483334D01*
X65883333Y27216667D01*
X65983333Y27216667D01*
X66050000Y27183334D01*
X66083333Y27150000D01*
X66116666Y27083334D01*
X66116666Y26916667D01*
X66083333Y26850000D01*
X66050000Y26816667D01*
X65983333Y26783334D01*
X65783333Y26783334D01*
X65716666Y26816667D01*
X65683333Y26850000D01*
X66350000Y27483334D02*
X66816666Y27483334D01*
X66516666Y26783334D01*
X65450000Y27783334D02*
X65216666Y28116667D01*
X65050000Y27783334D02*
X65050000Y28483334D01*
X65316666Y28483334D01*
X65383333Y28450000D01*
X65416666Y28416667D01*
X65450000Y28350000D01*
X65450000Y28250000D01*
X65416666Y28183334D01*
X65383333Y28150000D01*
X65316666Y28116667D01*
X65050000Y28116667D01*
X65683333Y28483334D02*
X66116666Y28483334D01*
X65883333Y28216667D01*
X65983333Y28216667D01*
X66050000Y28183334D01*
X66083333Y28150000D01*
X66116666Y28083334D01*
X66116666Y27916667D01*
X66083333Y27850000D01*
X66050000Y27816667D01*
X65983333Y27783334D01*
X65783333Y27783334D01*
X65716666Y27816667D01*
X65683333Y27850000D01*
X66716666Y28483334D02*
X66583333Y28483334D01*
X66516666Y28450000D01*
X66483333Y28416667D01*
X66416666Y28316667D01*
X66383333Y28183334D01*
X66383333Y27916667D01*
X66416666Y27850000D01*
X66450000Y27816667D01*
X66516666Y27783334D01*
X66650000Y27783334D01*
X66716666Y27816667D01*
X66750000Y27850000D01*
X66783333Y27916667D01*
X66783333Y28083334D01*
X66750000Y28150000D01*
X66716666Y28183334D01*
X66650000Y28216667D01*
X66516666Y28216667D01*
X66450000Y28183334D01*
X66416666Y28150000D01*
X66383333Y28083334D01*
X61461904Y26885715D02*
X61080952Y26619048D01*
X61461904Y26428572D02*
X60661904Y26428572D01*
X60661904Y26733334D01*
X60700000Y26809524D01*
X60738095Y26847620D01*
X60814285Y26885715D01*
X60928571Y26885715D01*
X61004761Y26847620D01*
X61042857Y26809524D01*
X61080952Y26733334D01*
X61080952Y26428572D01*
X60661904Y27152381D02*
X60661904Y27647620D01*
X60966666Y27380953D01*
X60966666Y27495239D01*
X61004761Y27571429D01*
X61042857Y27609524D01*
X61119047Y27647620D01*
X61309523Y27647620D01*
X61385714Y27609524D01*
X61423809Y27571429D01*
X61461904Y27495239D01*
X61461904Y27266667D01*
X61423809Y27190477D01*
X61385714Y27152381D01*
X60661904Y28371429D02*
X60661904Y27990477D01*
X61042857Y27952381D01*
X61004761Y27990477D01*
X60966666Y28066667D01*
X60966666Y28257143D01*
X61004761Y28333334D01*
X61042857Y28371429D01*
X61119047Y28409524D01*
X61309523Y28409524D01*
X61385714Y28371429D01*
X61423809Y28333334D01*
X61461904Y28257143D01*
X61461904Y28066667D01*
X61423809Y27990477D01*
X61385714Y27952381D01*
X63261904Y26785715D02*
X62880952Y26519048D01*
X63261904Y26328572D02*
X62461904Y26328572D01*
X62461904Y26633334D01*
X62500000Y26709524D01*
X62538095Y26747620D01*
X62614285Y26785715D01*
X62728571Y26785715D01*
X62804761Y26747620D01*
X62842857Y26709524D01*
X62880952Y26633334D01*
X62880952Y26328572D01*
X62461904Y27052381D02*
X62461904Y27547620D01*
X62766666Y27280953D01*
X62766666Y27395239D01*
X62804761Y27471429D01*
X62842857Y27509524D01*
X62919047Y27547620D01*
X63109523Y27547620D01*
X63185714Y27509524D01*
X63223809Y27471429D01*
X63261904Y27395239D01*
X63261904Y27166667D01*
X63223809Y27090477D01*
X63185714Y27052381D01*
X62728571Y28233334D02*
X63261904Y28233334D01*
X62423809Y28042858D02*
X62995238Y27852381D01*
X62995238Y28347620D01*
X64352380Y14657143D02*
X63876190Y14323810D01*
X64352380Y14085715D02*
X63352380Y14085715D01*
X63352380Y14466667D01*
X63400000Y14561905D01*
X63447619Y14609524D01*
X63542857Y14657143D01*
X63685714Y14657143D01*
X63780952Y14609524D01*
X63828571Y14561905D01*
X63876190Y14466667D01*
X63876190Y14085715D01*
X63352380Y14990477D02*
X63352380Y15609524D01*
X63733333Y15276191D01*
X63733333Y15419048D01*
X63780952Y15514286D01*
X63828571Y15561905D01*
X63923809Y15609524D01*
X64161904Y15609524D01*
X64257142Y15561905D01*
X64304761Y15514286D01*
X64352380Y15419048D01*
X64352380Y15133334D01*
X64304761Y15038096D01*
X64257142Y14990477D01*
X63352380Y15942858D02*
X63352380Y16561905D01*
X63733333Y16228572D01*
X63733333Y16371429D01*
X63780952Y16466667D01*
X63828571Y16514286D01*
X63923809Y16561905D01*
X64161904Y16561905D01*
X64257142Y16514286D01*
X64304761Y16466667D01*
X64352380Y16371429D01*
X64352380Y16085715D01*
X64304761Y15990477D01*
X64257142Y15942858D01*
X62652380Y14657143D02*
X62176190Y14323810D01*
X62652380Y14085715D02*
X61652380Y14085715D01*
X61652380Y14466667D01*
X61700000Y14561905D01*
X61747619Y14609524D01*
X61842857Y14657143D01*
X61985714Y14657143D01*
X62080952Y14609524D01*
X62128571Y14561905D01*
X62176190Y14466667D01*
X62176190Y14085715D01*
X61652380Y14990477D02*
X61652380Y15609524D01*
X62033333Y15276191D01*
X62033333Y15419048D01*
X62080952Y15514286D01*
X62128571Y15561905D01*
X62223809Y15609524D01*
X62461904Y15609524D01*
X62557142Y15561905D01*
X62604761Y15514286D01*
X62652380Y15419048D01*
X62652380Y15133334D01*
X62604761Y15038096D01*
X62557142Y14990477D01*
X61747619Y15990477D02*
X61700000Y16038096D01*
X61652380Y16133334D01*
X61652380Y16371429D01*
X61700000Y16466667D01*
X61747619Y16514286D01*
X61842857Y16561905D01*
X61938095Y16561905D01*
X62080952Y16514286D01*
X62652380Y15942858D01*
X62652380Y16561905D01*
X78952380Y62957143D02*
X78476190Y62623810D01*
X78952380Y62385715D02*
X77952380Y62385715D01*
X77952380Y62766667D01*
X78000000Y62861905D01*
X78047619Y62909524D01*
X78142857Y62957143D01*
X78285714Y62957143D01*
X78380952Y62909524D01*
X78428571Y62861905D01*
X78476190Y62766667D01*
X78476190Y62385715D01*
X77952380Y63290477D02*
X77952380Y63909524D01*
X78333333Y63576191D01*
X78333333Y63719048D01*
X78380952Y63814286D01*
X78428571Y63861905D01*
X78523809Y63909524D01*
X78761904Y63909524D01*
X78857142Y63861905D01*
X78904761Y63814286D01*
X78952380Y63719048D01*
X78952380Y63433334D01*
X78904761Y63338096D01*
X78857142Y63290477D01*
X78952380Y64861905D02*
X78952380Y64290477D01*
X78952380Y64576191D02*
X77952380Y64576191D01*
X78095238Y64480953D01*
X78190476Y64385715D01*
X78238095Y64290477D01*
X64852380Y62657143D02*
X64376190Y62323810D01*
X64852380Y62085715D02*
X63852380Y62085715D01*
X63852380Y62466667D01*
X63900000Y62561905D01*
X63947619Y62609524D01*
X64042857Y62657143D01*
X64185714Y62657143D01*
X64280952Y62609524D01*
X64328571Y62561905D01*
X64376190Y62466667D01*
X64376190Y62085715D01*
X63852380Y62990477D02*
X63852380Y63609524D01*
X64233333Y63276191D01*
X64233333Y63419048D01*
X64280952Y63514286D01*
X64328571Y63561905D01*
X64423809Y63609524D01*
X64661904Y63609524D01*
X64757142Y63561905D01*
X64804761Y63514286D01*
X64852380Y63419048D01*
X64852380Y63133334D01*
X64804761Y63038096D01*
X64757142Y62990477D01*
X63852380Y64228572D02*
X63852380Y64323810D01*
X63900000Y64419048D01*
X63947619Y64466667D01*
X64042857Y64514286D01*
X64233333Y64561905D01*
X64471428Y64561905D01*
X64661904Y64514286D01*
X64757142Y64466667D01*
X64804761Y64419048D01*
X64852380Y64323810D01*
X64852380Y64228572D01*
X64804761Y64133334D01*
X64757142Y64085715D01*
X64661904Y64038096D01*
X64471428Y63990477D01*
X64233333Y63990477D01*
X64042857Y64038096D01*
X63947619Y64085715D01*
X63900000Y64133334D01*
X63852380Y64228572D01*
X74152380Y62957143D02*
X73676190Y62623810D01*
X74152380Y62385715D02*
X73152380Y62385715D01*
X73152380Y62766667D01*
X73200000Y62861905D01*
X73247619Y62909524D01*
X73342857Y62957143D01*
X73485714Y62957143D01*
X73580952Y62909524D01*
X73628571Y62861905D01*
X73676190Y62766667D01*
X73676190Y62385715D01*
X73247619Y63338096D02*
X73200000Y63385715D01*
X73152380Y63480953D01*
X73152380Y63719048D01*
X73200000Y63814286D01*
X73247619Y63861905D01*
X73342857Y63909524D01*
X73438095Y63909524D01*
X73580952Y63861905D01*
X74152380Y63290477D01*
X74152380Y63909524D01*
X74152380Y64385715D02*
X74152380Y64576191D01*
X74104761Y64671429D01*
X74057142Y64719048D01*
X73914285Y64814286D01*
X73723809Y64861905D01*
X73342857Y64861905D01*
X73247619Y64814286D01*
X73200000Y64766667D01*
X73152380Y64671429D01*
X73152380Y64480953D01*
X73200000Y64385715D01*
X73247619Y64338096D01*
X73342857Y64290477D01*
X73580952Y64290477D01*
X73676190Y64338096D01*
X73723809Y64385715D01*
X73771428Y64480953D01*
X73771428Y64671429D01*
X73723809Y64766667D01*
X73676190Y64814286D01*
X73580952Y64861905D01*
X59952380Y62657143D02*
X59476190Y62323810D01*
X59952380Y62085715D02*
X58952380Y62085715D01*
X58952380Y62466667D01*
X59000000Y62561905D01*
X59047619Y62609524D01*
X59142857Y62657143D01*
X59285714Y62657143D01*
X59380952Y62609524D01*
X59428571Y62561905D01*
X59476190Y62466667D01*
X59476190Y62085715D01*
X59047619Y63038096D02*
X59000000Y63085715D01*
X58952380Y63180953D01*
X58952380Y63419048D01*
X59000000Y63514286D01*
X59047619Y63561905D01*
X59142857Y63609524D01*
X59238095Y63609524D01*
X59380952Y63561905D01*
X59952380Y62990477D01*
X59952380Y63609524D01*
X59380952Y64180953D02*
X59333333Y64085715D01*
X59285714Y64038096D01*
X59190476Y63990477D01*
X59142857Y63990477D01*
X59047619Y64038096D01*
X59000000Y64085715D01*
X58952380Y64180953D01*
X58952380Y64371429D01*
X59000000Y64466667D01*
X59047619Y64514286D01*
X59142857Y64561905D01*
X59190476Y64561905D01*
X59285714Y64514286D01*
X59333333Y64466667D01*
X59380952Y64371429D01*
X59380952Y64180953D01*
X59428571Y64085715D01*
X59476190Y64038096D01*
X59571428Y63990477D01*
X59761904Y63990477D01*
X59857142Y64038096D01*
X59904761Y64085715D01*
X59952380Y64180953D01*
X59952380Y64371429D01*
X59904761Y64466667D01*
X59857142Y64514286D01*
X59761904Y64561905D01*
X59571428Y64561905D01*
X59476190Y64514286D01*
X59428571Y64466667D01*
X59380952Y64371429D01*
X76961904Y45085715D02*
X76580952Y44819048D01*
X76961904Y44628572D02*
X76161904Y44628572D01*
X76161904Y44933334D01*
X76200000Y45009524D01*
X76238095Y45047620D01*
X76314285Y45085715D01*
X76428571Y45085715D01*
X76504761Y45047620D01*
X76542857Y45009524D01*
X76580952Y44933334D01*
X76580952Y44628572D01*
X76238095Y45390477D02*
X76200000Y45428572D01*
X76161904Y45504762D01*
X76161904Y45695239D01*
X76200000Y45771429D01*
X76238095Y45809524D01*
X76314285Y45847620D01*
X76390476Y45847620D01*
X76504761Y45809524D01*
X76961904Y45352381D01*
X76961904Y45847620D01*
X76161904Y46114286D02*
X76161904Y46647620D01*
X76961904Y46304762D01*
X71961904Y45098215D02*
X71580952Y44831548D01*
X71961904Y44641072D02*
X71161904Y44641072D01*
X71161904Y44945834D01*
X71200000Y45022024D01*
X71238095Y45060120D01*
X71314285Y45098215D01*
X71428571Y45098215D01*
X71504761Y45060120D01*
X71542857Y45022024D01*
X71580952Y44945834D01*
X71580952Y44641072D01*
X71238095Y45402977D02*
X71200000Y45441072D01*
X71161904Y45517262D01*
X71161904Y45707739D01*
X71200000Y45783929D01*
X71238095Y45822024D01*
X71314285Y45860120D01*
X71390476Y45860120D01*
X71504761Y45822024D01*
X71961904Y45364881D01*
X71961904Y45860120D01*
X71161904Y46583929D02*
X71161904Y46202977D01*
X71542857Y46164881D01*
X71504761Y46202977D01*
X71466666Y46279167D01*
X71466666Y46469643D01*
X71504761Y46545834D01*
X71542857Y46583929D01*
X71619047Y46622024D01*
X71809523Y46622024D01*
X71885714Y46583929D01*
X71923809Y46545834D01*
X71961904Y46469643D01*
X71961904Y46279167D01*
X71923809Y46202977D01*
X71885714Y46164881D01*
X69361904Y45098215D02*
X68980952Y44831548D01*
X69361904Y44641072D02*
X68561904Y44641072D01*
X68561904Y44945834D01*
X68600000Y45022024D01*
X68638095Y45060120D01*
X68714285Y45098215D01*
X68828571Y45098215D01*
X68904761Y45060120D01*
X68942857Y45022024D01*
X68980952Y44945834D01*
X68980952Y44641072D01*
X68638095Y45402977D02*
X68600000Y45441072D01*
X68561904Y45517262D01*
X68561904Y45707739D01*
X68600000Y45783929D01*
X68638095Y45822024D01*
X68714285Y45860120D01*
X68790476Y45860120D01*
X68904761Y45822024D01*
X69361904Y45364881D01*
X69361904Y45860120D01*
X68828571Y46545834D02*
X69361904Y46545834D01*
X68523809Y46355358D02*
X69095238Y46164881D01*
X69095238Y46660120D01*
X37152380Y21957143D02*
X36676190Y21623810D01*
X37152380Y21385715D02*
X36152380Y21385715D01*
X36152380Y21766667D01*
X36200000Y21861905D01*
X36247619Y21909524D01*
X36342857Y21957143D01*
X36485714Y21957143D01*
X36580952Y21909524D01*
X36628571Y21861905D01*
X36676190Y21766667D01*
X36676190Y21385715D01*
X36247619Y22338096D02*
X36200000Y22385715D01*
X36152380Y22480953D01*
X36152380Y22719048D01*
X36200000Y22814286D01*
X36247619Y22861905D01*
X36342857Y22909524D01*
X36438095Y22909524D01*
X36580952Y22861905D01*
X37152380Y22290477D01*
X37152380Y22909524D01*
X36152380Y23242858D02*
X36152380Y23861905D01*
X36533333Y23528572D01*
X36533333Y23671429D01*
X36580952Y23766667D01*
X36628571Y23814286D01*
X36723809Y23861905D01*
X36961904Y23861905D01*
X37057142Y23814286D01*
X37104761Y23766667D01*
X37152380Y23671429D01*
X37152380Y23385715D01*
X37104761Y23290477D01*
X37057142Y23242858D01*
X34652380Y16157143D02*
X34176190Y15823810D01*
X34652380Y15585715D02*
X33652380Y15585715D01*
X33652380Y15966667D01*
X33700000Y16061905D01*
X33747619Y16109524D01*
X33842857Y16157143D01*
X33985714Y16157143D01*
X34080952Y16109524D01*
X34128571Y16061905D01*
X34176190Y15966667D01*
X34176190Y15585715D01*
X33747619Y16538096D02*
X33700000Y16585715D01*
X33652380Y16680953D01*
X33652380Y16919048D01*
X33700000Y17014286D01*
X33747619Y17061905D01*
X33842857Y17109524D01*
X33938095Y17109524D01*
X34080952Y17061905D01*
X34652380Y16490477D01*
X34652380Y17109524D01*
X33747619Y17490477D02*
X33700000Y17538096D01*
X33652380Y17633334D01*
X33652380Y17871429D01*
X33700000Y17966667D01*
X33747619Y18014286D01*
X33842857Y18061905D01*
X33938095Y18061905D01*
X34080952Y18014286D01*
X34652380Y17442858D01*
X34652380Y18061905D01*
X35752380Y22557143D02*
X35276190Y22223810D01*
X35752380Y21985715D02*
X34752380Y21985715D01*
X34752380Y22366667D01*
X34800000Y22461905D01*
X34847619Y22509524D01*
X34942857Y22557143D01*
X35085714Y22557143D01*
X35180952Y22509524D01*
X35228571Y22461905D01*
X35276190Y22366667D01*
X35276190Y21985715D01*
X34847619Y22938096D02*
X34800000Y22985715D01*
X34752380Y23080953D01*
X34752380Y23319048D01*
X34800000Y23414286D01*
X34847619Y23461905D01*
X34942857Y23509524D01*
X35038095Y23509524D01*
X35180952Y23461905D01*
X35752380Y22890477D01*
X35752380Y23509524D01*
X35752380Y24461905D02*
X35752380Y23890477D01*
X35752380Y24176191D02*
X34752380Y24176191D01*
X34895238Y24080953D01*
X34990476Y23985715D01*
X35038095Y23890477D01*
X42652380Y43557143D02*
X42176190Y43223810D01*
X42652380Y42985715D02*
X41652380Y42985715D01*
X41652380Y43366667D01*
X41700000Y43461905D01*
X41747619Y43509524D01*
X41842857Y43557143D01*
X41985714Y43557143D01*
X42080952Y43509524D01*
X42128571Y43461905D01*
X42176190Y43366667D01*
X42176190Y42985715D01*
X41747619Y43938096D02*
X41700000Y43985715D01*
X41652380Y44080953D01*
X41652380Y44319048D01*
X41700000Y44414286D01*
X41747619Y44461905D01*
X41842857Y44509524D01*
X41938095Y44509524D01*
X42080952Y44461905D01*
X42652380Y43890477D01*
X42652380Y44509524D01*
X41652380Y45128572D02*
X41652380Y45223810D01*
X41700000Y45319048D01*
X41747619Y45366667D01*
X41842857Y45414286D01*
X42033333Y45461905D01*
X42271428Y45461905D01*
X42461904Y45414286D01*
X42557142Y45366667D01*
X42604761Y45319048D01*
X42652380Y45223810D01*
X42652380Y45128572D01*
X42604761Y45033334D01*
X42557142Y44985715D01*
X42461904Y44938096D01*
X42271428Y44890477D01*
X42033333Y44890477D01*
X41842857Y44938096D01*
X41747619Y44985715D01*
X41700000Y45033334D01*
X41652380Y45128572D01*
X46950000Y26783334D02*
X46716666Y27116667D01*
X46550000Y26783334D02*
X46550000Y27483334D01*
X46816666Y27483334D01*
X46883333Y27450000D01*
X46916666Y27416667D01*
X46950000Y27350000D01*
X46950000Y27250000D01*
X46916666Y27183334D01*
X46883333Y27150000D01*
X46816666Y27116667D01*
X46550000Y27116667D01*
X47616666Y26783334D02*
X47216666Y26783334D01*
X47416666Y26783334D02*
X47416666Y27483334D01*
X47350000Y27383334D01*
X47283333Y27316667D01*
X47216666Y27283334D01*
X47950000Y26783334D02*
X48083333Y26783334D01*
X48150000Y26816667D01*
X48183333Y26850000D01*
X48250000Y26950000D01*
X48283333Y27083334D01*
X48283333Y27350000D01*
X48250000Y27416667D01*
X48216666Y27450000D01*
X48150000Y27483334D01*
X48016666Y27483334D01*
X47950000Y27450000D01*
X47916666Y27416667D01*
X47883333Y27350000D01*
X47883333Y27183334D01*
X47916666Y27116667D01*
X47950000Y27083334D01*
X48016666Y27050000D01*
X48150000Y27050000D01*
X48216666Y27083334D01*
X48250000Y27116667D01*
X48283333Y27183334D01*
X46950000Y27783334D02*
X46716666Y28116667D01*
X46550000Y27783334D02*
X46550000Y28483334D01*
X46816666Y28483334D01*
X46883333Y28450000D01*
X46916666Y28416667D01*
X46950000Y28350000D01*
X46950000Y28250000D01*
X46916666Y28183334D01*
X46883333Y28150000D01*
X46816666Y28116667D01*
X46550000Y28116667D01*
X47616666Y27783334D02*
X47216666Y27783334D01*
X47416666Y27783334D02*
X47416666Y28483334D01*
X47350000Y28383334D01*
X47283333Y28316667D01*
X47216666Y28283334D01*
X48016666Y28183334D02*
X47950000Y28216667D01*
X47916666Y28250000D01*
X47883333Y28316667D01*
X47883333Y28350000D01*
X47916666Y28416667D01*
X47950000Y28450000D01*
X48016666Y28483334D01*
X48150000Y28483334D01*
X48216666Y28450000D01*
X48250000Y28416667D01*
X48283333Y28350000D01*
X48283333Y28316667D01*
X48250000Y28250000D01*
X48216666Y28216667D01*
X48150000Y28183334D01*
X48016666Y28183334D01*
X47950000Y28150000D01*
X47916666Y28116667D01*
X47883333Y28050000D01*
X47883333Y27916667D01*
X47916666Y27850000D01*
X47950000Y27816667D01*
X48016666Y27783334D01*
X48150000Y27783334D01*
X48216666Y27816667D01*
X48250000Y27850000D01*
X48283333Y27916667D01*
X48283333Y28050000D01*
X48250000Y28116667D01*
X48216666Y28150000D01*
X48150000Y28183334D01*
X42916666Y26850000D02*
X42583333Y26616667D01*
X42916666Y26450000D02*
X42216666Y26450000D01*
X42216666Y26716667D01*
X42250000Y26783334D01*
X42283333Y26816667D01*
X42350000Y26850000D01*
X42450000Y26850000D01*
X42516666Y26816667D01*
X42550000Y26783334D01*
X42583333Y26716667D01*
X42583333Y26450000D01*
X42916666Y27516667D02*
X42916666Y27116667D01*
X42916666Y27316667D02*
X42216666Y27316667D01*
X42316666Y27250000D01*
X42383333Y27183334D01*
X42416666Y27116667D01*
X42216666Y27750000D02*
X42216666Y28216667D01*
X42916666Y27916667D01*
X44716666Y26850000D02*
X44383333Y26616667D01*
X44716666Y26450000D02*
X44016666Y26450000D01*
X44016666Y26716667D01*
X44050000Y26783334D01*
X44083333Y26816667D01*
X44150000Y26850000D01*
X44250000Y26850000D01*
X44316666Y26816667D01*
X44350000Y26783334D01*
X44383333Y26716667D01*
X44383333Y26450000D01*
X44716666Y27516667D02*
X44716666Y27116667D01*
X44716666Y27316667D02*
X44016666Y27316667D01*
X44116666Y27250000D01*
X44183333Y27183334D01*
X44216666Y27116667D01*
X44016666Y28116667D02*
X44016666Y27983334D01*
X44050000Y27916667D01*
X44083333Y27883334D01*
X44183333Y27816667D01*
X44316666Y27783334D01*
X44583333Y27783334D01*
X44650000Y27816667D01*
X44683333Y27850000D01*
X44716666Y27916667D01*
X44716666Y28050000D01*
X44683333Y28116667D01*
X44650000Y28150000D01*
X44583333Y28183334D01*
X44416666Y28183334D01*
X44350000Y28150000D01*
X44316666Y28116667D01*
X44283333Y28050000D01*
X44283333Y27916667D01*
X44316666Y27850000D01*
X44350000Y27816667D01*
X44416666Y27783334D01*
X45652380Y14657143D02*
X45176190Y14323810D01*
X45652380Y14085715D02*
X44652380Y14085715D01*
X44652380Y14466667D01*
X44700000Y14561905D01*
X44747619Y14609524D01*
X44842857Y14657143D01*
X44985714Y14657143D01*
X45080952Y14609524D01*
X45128571Y14561905D01*
X45176190Y14466667D01*
X45176190Y14085715D01*
X45652380Y15609524D02*
X45652380Y15038096D01*
X45652380Y15323810D02*
X44652380Y15323810D01*
X44795238Y15228572D01*
X44890476Y15133334D01*
X44938095Y15038096D01*
X44652380Y16514286D02*
X44652380Y16038096D01*
X45128571Y15990477D01*
X45080952Y16038096D01*
X45033333Y16133334D01*
X45033333Y16371429D01*
X45080952Y16466667D01*
X45128571Y16514286D01*
X45223809Y16561905D01*
X45461904Y16561905D01*
X45557142Y16514286D01*
X45604761Y16466667D01*
X45652380Y16371429D01*
X45652380Y16133334D01*
X45604761Y16038096D01*
X45557142Y15990477D01*
X43952380Y14657143D02*
X43476190Y14323810D01*
X43952380Y14085715D02*
X42952380Y14085715D01*
X42952380Y14466667D01*
X43000000Y14561905D01*
X43047619Y14609524D01*
X43142857Y14657143D01*
X43285714Y14657143D01*
X43380952Y14609524D01*
X43428571Y14561905D01*
X43476190Y14466667D01*
X43476190Y14085715D01*
X43952380Y15609524D02*
X43952380Y15038096D01*
X43952380Y15323810D02*
X42952380Y15323810D01*
X43095238Y15228572D01*
X43190476Y15133334D01*
X43238095Y15038096D01*
X43285714Y16466667D02*
X43952380Y16466667D01*
X42904761Y16228572D02*
X43619047Y15990477D01*
X43619047Y16609524D01*
X40822380Y83557143D02*
X40346190Y83223810D01*
X40822380Y82985715D02*
X39822380Y82985715D01*
X39822380Y83366667D01*
X39870000Y83461905D01*
X39917619Y83509524D01*
X40012857Y83557143D01*
X40155714Y83557143D01*
X40250952Y83509524D01*
X40298571Y83461905D01*
X40346190Y83366667D01*
X40346190Y82985715D01*
X40822380Y84509524D02*
X40822380Y83938096D01*
X40822380Y84223810D02*
X39822380Y84223810D01*
X39965238Y84128572D01*
X40060476Y84033334D01*
X40108095Y83938096D01*
X39822380Y84842858D02*
X39822380Y85461905D01*
X40203333Y85128572D01*
X40203333Y85271429D01*
X40250952Y85366667D01*
X40298571Y85414286D01*
X40393809Y85461905D01*
X40631904Y85461905D01*
X40727142Y85414286D01*
X40774761Y85366667D01*
X40822380Y85271429D01*
X40822380Y84985715D01*
X40774761Y84890477D01*
X40727142Y84842858D01*
X48122380Y83569643D02*
X47646190Y83236310D01*
X48122380Y82998215D02*
X47122380Y82998215D01*
X47122380Y83379167D01*
X47170000Y83474405D01*
X47217619Y83522024D01*
X47312857Y83569643D01*
X47455714Y83569643D01*
X47550952Y83522024D01*
X47598571Y83474405D01*
X47646190Y83379167D01*
X47646190Y82998215D01*
X48122380Y84522024D02*
X48122380Y83950596D01*
X48122380Y84236310D02*
X47122380Y84236310D01*
X47265238Y84141072D01*
X47360476Y84045834D01*
X47408095Y83950596D01*
X47217619Y84902977D02*
X47170000Y84950596D01*
X47122380Y85045834D01*
X47122380Y85283929D01*
X47170000Y85379167D01*
X47217619Y85426786D01*
X47312857Y85474405D01*
X47408095Y85474405D01*
X47550952Y85426786D01*
X48122380Y84855358D01*
X48122380Y85474405D01*
X37169142Y37677620D02*
X36835809Y38153810D01*
X36597714Y37677620D02*
X36597714Y38677620D01*
X36978666Y38677620D01*
X37073904Y38630000D01*
X37121523Y38582381D01*
X37169142Y38487143D01*
X37169142Y38344286D01*
X37121523Y38249048D01*
X37073904Y38201429D01*
X36978666Y38153810D01*
X36597714Y38153810D01*
X38121523Y37677620D02*
X37550095Y37677620D01*
X37835809Y37677620D02*
X37835809Y38677620D01*
X37740571Y38534762D01*
X37645333Y38439524D01*
X37550095Y38391905D01*
X39073904Y37677620D02*
X38502476Y37677620D01*
X38788190Y37677620D02*
X38788190Y38677620D01*
X38692952Y38534762D01*
X38597714Y38439524D01*
X38502476Y38391905D01*
X51357142Y43447620D02*
X51023809Y43923810D01*
X50785714Y43447620D02*
X50785714Y44447620D01*
X51166666Y44447620D01*
X51261904Y44400000D01*
X51309523Y44352381D01*
X51357142Y44257143D01*
X51357142Y44114286D01*
X51309523Y44019048D01*
X51261904Y43971429D01*
X51166666Y43923810D01*
X50785714Y43923810D01*
X52309523Y43447620D02*
X51738095Y43447620D01*
X52023809Y43447620D02*
X52023809Y44447620D01*
X51928571Y44304762D01*
X51833333Y44209524D01*
X51738095Y44161905D01*
X52928571Y44447620D02*
X53023809Y44447620D01*
X53119047Y44400000D01*
X53166666Y44352381D01*
X53214285Y44257143D01*
X53261904Y44066667D01*
X53261904Y43828572D01*
X53214285Y43638096D01*
X53166666Y43542858D01*
X53119047Y43495239D01*
X53023809Y43447620D01*
X52928571Y43447620D01*
X52833333Y43495239D01*
X52785714Y43542858D01*
X52738095Y43638096D01*
X52690476Y43828572D01*
X52690476Y44066667D01*
X52738095Y44257143D01*
X52785714Y44352381D01*
X52833333Y44400000D01*
X52928571Y44447620D01*
X52333333Y45147620D02*
X52000000Y45623810D01*
X51761904Y45147620D02*
X51761904Y46147620D01*
X52142857Y46147620D01*
X52238095Y46100000D01*
X52285714Y46052381D01*
X52333333Y45957143D01*
X52333333Y45814286D01*
X52285714Y45719048D01*
X52238095Y45671429D01*
X52142857Y45623810D01*
X51761904Y45623810D01*
X52809523Y45147620D02*
X53000000Y45147620D01*
X53095238Y45195239D01*
X53142857Y45242858D01*
X53238095Y45385715D01*
X53285714Y45576191D01*
X53285714Y45957143D01*
X53238095Y46052381D01*
X53190476Y46100000D01*
X53095238Y46147620D01*
X52904761Y46147620D01*
X52809523Y46100000D01*
X52761904Y46052381D01*
X52714285Y45957143D01*
X52714285Y45719048D01*
X52761904Y45623810D01*
X52809523Y45576191D01*
X52904761Y45528572D01*
X53095238Y45528572D01*
X53190476Y45576191D01*
X53238095Y45623810D01*
X53285714Y45719048D01*
X52333333Y46847620D02*
X52000000Y47323810D01*
X51761904Y46847620D02*
X51761904Y47847620D01*
X52142857Y47847620D01*
X52238095Y47800000D01*
X52285714Y47752381D01*
X52333333Y47657143D01*
X52333333Y47514286D01*
X52285714Y47419048D01*
X52238095Y47371429D01*
X52142857Y47323810D01*
X51761904Y47323810D01*
X52666666Y47847620D02*
X53333333Y47847620D01*
X52904761Y46847620D01*
X52333333Y48547620D02*
X52000000Y49023810D01*
X51761904Y48547620D02*
X51761904Y49547620D01*
X52142857Y49547620D01*
X52238095Y49500000D01*
X52285714Y49452381D01*
X52333333Y49357143D01*
X52333333Y49214286D01*
X52285714Y49119048D01*
X52238095Y49071429D01*
X52142857Y49023810D01*
X51761904Y49023810D01*
X53190476Y49547620D02*
X53000000Y49547620D01*
X52904761Y49500000D01*
X52857142Y49452381D01*
X52761904Y49309524D01*
X52714285Y49119048D01*
X52714285Y48738096D01*
X52761904Y48642858D01*
X52809523Y48595239D01*
X52904761Y48547620D01*
X53095238Y48547620D01*
X53190476Y48595239D01*
X53238095Y48642858D01*
X53285714Y48738096D01*
X53285714Y48976191D01*
X53238095Y49071429D01*
X53190476Y49119048D01*
X53095238Y49166667D01*
X52904761Y49166667D01*
X52809523Y49119048D01*
X52761904Y49071429D01*
X52714285Y48976191D01*
X9333333Y88447620D02*
X9000000Y88923810D01*
X8761904Y88447620D02*
X8761904Y89447620D01*
X9142857Y89447620D01*
X9238095Y89400000D01*
X9285714Y89352381D01*
X9333333Y89257143D01*
X9333333Y89114286D01*
X9285714Y89019048D01*
X9238095Y88971429D01*
X9142857Y88923810D01*
X8761904Y88923810D01*
X10238095Y89447620D02*
X9761904Y89447620D01*
X9714285Y88971429D01*
X9761904Y89019048D01*
X9857142Y89066667D01*
X10095238Y89066667D01*
X10190476Y89019048D01*
X10238095Y88971429D01*
X10285714Y88876191D01*
X10285714Y88638096D01*
X10238095Y88542858D01*
X10190476Y88495239D01*
X10095238Y88447620D01*
X9857142Y88447620D01*
X9761904Y88495239D01*
X9714285Y88542858D01*
X9333333Y86547620D02*
X9000000Y87023810D01*
X8761904Y86547620D02*
X8761904Y87547620D01*
X9142857Y87547620D01*
X9238095Y87500000D01*
X9285714Y87452381D01*
X9333333Y87357143D01*
X9333333Y87214286D01*
X9285714Y87119048D01*
X9238095Y87071429D01*
X9142857Y87023810D01*
X8761904Y87023810D01*
X10190476Y87214286D02*
X10190476Y86547620D01*
X9952380Y87595239D02*
X9714285Y86880953D01*
X10333333Y86880953D01*
X52333333Y53647620D02*
X52000000Y54123810D01*
X51761904Y53647620D02*
X51761904Y54647620D01*
X52142857Y54647620D01*
X52238095Y54600000D01*
X52285714Y54552381D01*
X52333333Y54457143D01*
X52333333Y54314286D01*
X52285714Y54219048D01*
X52238095Y54171429D01*
X52142857Y54123810D01*
X51761904Y54123810D01*
X52666666Y54647620D02*
X53285714Y54647620D01*
X52952380Y54266667D01*
X53095238Y54266667D01*
X53190476Y54219048D01*
X53238095Y54171429D01*
X53285714Y54076191D01*
X53285714Y53838096D01*
X53238095Y53742858D01*
X53190476Y53695239D01*
X53095238Y53647620D01*
X52809523Y53647620D01*
X52714285Y53695239D01*
X52666666Y53742858D01*
X52333333Y50247620D02*
X52000000Y50723810D01*
X51761904Y50247620D02*
X51761904Y51247620D01*
X52142857Y51247620D01*
X52238095Y51200000D01*
X52285714Y51152381D01*
X52333333Y51057143D01*
X52333333Y50914286D01*
X52285714Y50819048D01*
X52238095Y50771429D01*
X52142857Y50723810D01*
X51761904Y50723810D01*
X52714285Y51152381D02*
X52761904Y51200000D01*
X52857142Y51247620D01*
X53095238Y51247620D01*
X53190476Y51200000D01*
X53238095Y51152381D01*
X53285714Y51057143D01*
X53285714Y50961905D01*
X53238095Y50819048D01*
X52666666Y50247620D01*
X53285714Y50247620D01*
X52333333Y51947620D02*
X52000000Y52423810D01*
X51761904Y51947620D02*
X51761904Y52947620D01*
X52142857Y52947620D01*
X52238095Y52900000D01*
X52285714Y52852381D01*
X52333333Y52757143D01*
X52333333Y52614286D01*
X52285714Y52519048D01*
X52238095Y52471429D01*
X52142857Y52423810D01*
X51761904Y52423810D01*
X53285714Y51947620D02*
X52714285Y51947620D01*
X53000000Y51947620D02*
X53000000Y52947620D01*
X52904761Y52804762D01*
X52809523Y52709524D01*
X52714285Y52661905D01*
X9847619Y91704762D02*
X9800000Y91609524D01*
X9704761Y91514286D01*
X9561904Y91371429D01*
X9514285Y91276191D01*
X9514285Y91180953D01*
X9752380Y91228572D02*
X9704761Y91133334D01*
X9609523Y91038096D01*
X9419047Y90990477D01*
X9085714Y90990477D01*
X8895238Y91038096D01*
X8800000Y91133334D01*
X8752380Y91228572D01*
X8752380Y91419048D01*
X8800000Y91514286D01*
X8895238Y91609524D01*
X9085714Y91657143D01*
X9419047Y91657143D01*
X9609523Y91609524D01*
X9704761Y91514286D01*
X9752380Y91419048D01*
X9752380Y91228572D01*
X8847619Y92038096D02*
X8800000Y92085715D01*
X8752380Y92180953D01*
X8752380Y92419048D01*
X8800000Y92514286D01*
X8847619Y92561905D01*
X8942857Y92609524D01*
X9038095Y92609524D01*
X9180952Y92561905D01*
X9752380Y91990477D01*
X9752380Y92609524D01*
X61847619Y53304762D02*
X61800000Y53209524D01*
X61704761Y53114286D01*
X61561904Y52971429D01*
X61514285Y52876191D01*
X61514285Y52780953D01*
X61752380Y52828572D02*
X61704761Y52733334D01*
X61609523Y52638096D01*
X61419047Y52590477D01*
X61085714Y52590477D01*
X60895238Y52638096D01*
X60800000Y52733334D01*
X60752380Y52828572D01*
X60752380Y53019048D01*
X60800000Y53114286D01*
X60895238Y53209524D01*
X61085714Y53257143D01*
X61419047Y53257143D01*
X61609523Y53209524D01*
X61704761Y53114286D01*
X61752380Y53019048D01*
X61752380Y52828572D01*
X61752380Y54209524D02*
X61752380Y53638096D01*
X61752380Y53923810D02*
X60752380Y53923810D01*
X60895238Y53828572D01*
X60990476Y53733334D01*
X61038095Y53638096D01*
X27261904Y76047620D02*
X27261904Y77047620D01*
X27833333Y76047620D02*
X27404761Y76619048D01*
X27833333Y77047620D02*
X27261904Y76476191D01*
X28785714Y76047620D02*
X28214285Y76047620D01*
X28500000Y76047620D02*
X28500000Y77047620D01*
X28404761Y76904762D01*
X28309523Y76809524D01*
X28214285Y76761905D01*
X69690476Y85747620D02*
X69690476Y85033334D01*
X69642857Y84890477D01*
X69547619Y84795239D01*
X69404761Y84747620D01*
X69309523Y84747620D01*
X70690476Y84747620D02*
X70119047Y84747620D01*
X70404761Y84747620D02*
X70404761Y85747620D01*
X70309523Y85604762D01*
X70214285Y85509524D01*
X70119047Y85461905D01*
X71595238Y85747620D02*
X71119047Y85747620D01*
X71071428Y85271429D01*
X71119047Y85319048D01*
X71214285Y85366667D01*
X71452380Y85366667D01*
X71547619Y85319048D01*
X71595238Y85271429D01*
X71642857Y85176191D01*
X71642857Y84938096D01*
X71595238Y84842858D01*
X71547619Y84795239D01*
X71452380Y84747620D01*
X71214285Y84747620D01*
X71119047Y84795239D01*
X71071428Y84842858D01*
X56961904Y92671429D02*
X57295238Y92671429D01*
X57438095Y92147620D02*
X56961904Y92147620D01*
X56961904Y93147620D01*
X57438095Y93147620D01*
X57866666Y92814286D02*
X57866666Y92147620D01*
X57866666Y92719048D02*
X57914285Y92766667D01*
X58009523Y92814286D01*
X58152380Y92814286D01*
X58247619Y92766667D01*
X58295238Y92671429D01*
X58295238Y92147620D01*
X59200000Y92195239D02*
X59104761Y92147620D01*
X58914285Y92147620D01*
X58819047Y92195239D01*
X58771428Y92242858D01*
X58723809Y92338096D01*
X58723809Y92623810D01*
X58771428Y92719048D01*
X58819047Y92766667D01*
X58914285Y92814286D01*
X59104761Y92814286D01*
X59200000Y92766667D01*
X59771428Y92147620D02*
X59676190Y92195239D01*
X59628571Y92242858D01*
X59580952Y92338096D01*
X59580952Y92623810D01*
X59628571Y92719048D01*
X59676190Y92766667D01*
X59771428Y92814286D01*
X59914285Y92814286D01*
X60009523Y92766667D01*
X60057142Y92719048D01*
X60104761Y92623810D01*
X60104761Y92338096D01*
X60057142Y92242858D01*
X60009523Y92195239D01*
X59914285Y92147620D01*
X59771428Y92147620D01*
X60961904Y92147620D02*
X60961904Y93147620D01*
X60961904Y92195239D02*
X60866666Y92147620D01*
X60676190Y92147620D01*
X60580952Y92195239D01*
X60533333Y92242858D01*
X60485714Y92338096D01*
X60485714Y92623810D01*
X60533333Y92719048D01*
X60580952Y92766667D01*
X60676190Y92814286D01*
X60866666Y92814286D01*
X60961904Y92766667D01*
X61819047Y92195239D02*
X61723809Y92147620D01*
X61533333Y92147620D01*
X61438095Y92195239D01*
X61390476Y92290477D01*
X61390476Y92671429D01*
X61438095Y92766667D01*
X61533333Y92814286D01*
X61723809Y92814286D01*
X61819047Y92766667D01*
X61866666Y92671429D01*
X61866666Y92576191D01*
X61390476Y92480953D01*
X62295238Y92147620D02*
X62295238Y92814286D01*
X62295238Y92623810D02*
X62342857Y92719048D01*
X62390476Y92766667D01*
X62485714Y92814286D01*
X62580952Y92814286D01*
X55452380Y86490477D02*
X56166666Y86490477D01*
X56309523Y86442858D01*
X56404761Y86347620D01*
X56452380Y86204762D01*
X56452380Y86109524D01*
X56452380Y87490477D02*
X56452380Y86919048D01*
X56452380Y87204762D02*
X55452380Y87204762D01*
X55595238Y87109524D01*
X55690476Y87014286D01*
X55738095Y86919048D01*
X55452380Y87823810D02*
X55452380Y88442858D01*
X55833333Y88109524D01*
X55833333Y88252381D01*
X55880952Y88347620D01*
X55928571Y88395239D01*
X56023809Y88442858D01*
X56261904Y88442858D01*
X56357142Y88395239D01*
X56404761Y88347620D01*
X56452380Y88252381D01*
X56452380Y87966667D01*
X56404761Y87871429D01*
X56357142Y87823810D01*
X48309523Y92295239D02*
X48452380Y92247620D01*
X48690476Y92247620D01*
X48785714Y92295239D01*
X48833333Y92342858D01*
X48880952Y92438096D01*
X48880952Y92533334D01*
X48833333Y92628572D01*
X48785714Y92676191D01*
X48690476Y92723810D01*
X48500000Y92771429D01*
X48404761Y92819048D01*
X48357142Y92866667D01*
X48309523Y92961905D01*
X48309523Y93057143D01*
X48357142Y93152381D01*
X48404761Y93200000D01*
X48500000Y93247620D01*
X48738095Y93247620D01*
X48880952Y93200000D01*
X49214285Y92914286D02*
X49404761Y92247620D01*
X49595238Y92723810D01*
X49785714Y92247620D01*
X49976190Y92914286D01*
X50357142Y92247620D02*
X50357142Y92914286D01*
X50357142Y93247620D02*
X50309523Y93200000D01*
X50357142Y93152381D01*
X50404761Y93200000D01*
X50357142Y93247620D01*
X50357142Y93152381D01*
X50690476Y92914286D02*
X51071428Y92914286D01*
X50833333Y93247620D02*
X50833333Y92390477D01*
X50880952Y92295239D01*
X50976190Y92247620D01*
X51071428Y92247620D01*
X51833333Y92295239D02*
X51738095Y92247620D01*
X51547619Y92247620D01*
X51452380Y92295239D01*
X51404761Y92342858D01*
X51357142Y92438096D01*
X51357142Y92723810D01*
X51404761Y92819048D01*
X51452380Y92866667D01*
X51547619Y92914286D01*
X51738095Y92914286D01*
X51833333Y92866667D01*
X52261904Y92247620D02*
X52261904Y93247620D01*
X52690476Y92247620D02*
X52690476Y92771429D01*
X52642857Y92866667D01*
X52547619Y92914286D01*
X52404761Y92914286D01*
X52309523Y92866667D01*
X52261904Y92819048D01*
X53690476Y92247620D02*
X53119047Y92247620D01*
X53404761Y92247620D02*
X53404761Y93247620D01*
X53309523Y93104762D01*
X53214285Y93009524D01*
X53119047Y92961905D01*
X11852380Y4690477D02*
X12566666Y4690477D01*
X12709523Y4642858D01*
X12804761Y4547620D01*
X12852380Y4404762D01*
X12852380Y4309524D01*
X12852380Y5690477D02*
X12852380Y5119048D01*
X12852380Y5404762D02*
X11852380Y5404762D01*
X11995238Y5309524D01*
X12090476Y5214286D01*
X12138095Y5119048D01*
X11947619Y6071429D02*
X11900000Y6119048D01*
X11852380Y6214286D01*
X11852380Y6452381D01*
X11900000Y6547620D01*
X11947619Y6595239D01*
X12042857Y6642858D01*
X12138095Y6642858D01*
X12280952Y6595239D01*
X12852380Y6023810D01*
X12852380Y6642858D01*
X20252380Y1480953D02*
X19252380Y1480953D01*
X19252380Y1719048D01*
X19300000Y1861905D01*
X19395238Y1957143D01*
X19490476Y2004762D01*
X19680952Y2052381D01*
X19823809Y2052381D01*
X20014285Y2004762D01*
X20109523Y1957143D01*
X20204761Y1861905D01*
X20252380Y1719048D01*
X20252380Y1480953D01*
X20252380Y2480953D02*
X19585714Y2480953D01*
X19252380Y2480953D02*
X19300000Y2433334D01*
X19347619Y2480953D01*
X19300000Y2528572D01*
X19252380Y2480953D01*
X19347619Y2480953D01*
X19585714Y2814286D02*
X19585714Y3195239D01*
X20252380Y2957143D02*
X19395238Y2957143D01*
X19300000Y3004762D01*
X19252380Y3100000D01*
X19252380Y3195239D01*
X19585714Y3385715D02*
X19585714Y3766667D01*
X20252380Y3528572D02*
X19395238Y3528572D01*
X19300000Y3576191D01*
X19252380Y3671429D01*
X19252380Y3766667D01*
X20347619Y3861905D02*
X20347619Y4623810D01*
X19728571Y5195239D02*
X19728571Y4861905D01*
X20252380Y4861905D02*
X19252380Y4861905D01*
X19252380Y5338096D01*
X20252380Y5861905D02*
X20204761Y5766667D01*
X20109523Y5719048D01*
X19252380Y5719048D01*
X20252380Y6385715D02*
X20204761Y6290477D01*
X20157142Y6242858D01*
X20061904Y6195239D01*
X19776190Y6195239D01*
X19680952Y6242858D01*
X19633333Y6290477D01*
X19585714Y6385715D01*
X19585714Y6528572D01*
X19633333Y6623810D01*
X19680952Y6671429D01*
X19776190Y6719048D01*
X20061904Y6719048D01*
X20157142Y6671429D01*
X20204761Y6623810D01*
X20252380Y6528572D01*
X20252380Y6385715D01*
X19585714Y7052381D02*
X20252380Y7242858D01*
X19776190Y7433334D01*
X20252380Y7623810D01*
X19585714Y7814286D01*
X11852380Y18590477D02*
X12566666Y18590477D01*
X12709523Y18542858D01*
X12804761Y18447620D01*
X12852380Y18304762D01*
X12852380Y18209524D01*
X12852380Y19590477D02*
X12852380Y19019048D01*
X12852380Y19304762D02*
X11852380Y19304762D01*
X11995238Y19209524D01*
X12090476Y19114286D01*
X12138095Y19019048D01*
X12852380Y20542858D02*
X12852380Y19971429D01*
X12852380Y20257143D02*
X11852380Y20257143D01*
X11995238Y20161905D01*
X12090476Y20066667D01*
X12138095Y19971429D01*
X19252380Y15042858D02*
X19252380Y15614286D01*
X20252380Y15328572D02*
X19252380Y15328572D01*
X20252380Y15947620D02*
X19252380Y15947620D01*
X20252380Y16376191D02*
X19728571Y16376191D01*
X19633333Y16328572D01*
X19585714Y16233334D01*
X19585714Y16090477D01*
X19633333Y15995239D01*
X19680952Y15947620D01*
X20204761Y17233334D02*
X20252380Y17138096D01*
X20252380Y16947620D01*
X20204761Y16852381D01*
X20109523Y16804762D01*
X19728571Y16804762D01*
X19633333Y16852381D01*
X19585714Y16947620D01*
X19585714Y17138096D01*
X19633333Y17233334D01*
X19728571Y17280953D01*
X19823809Y17280953D01*
X19919047Y16804762D01*
X20252380Y17709524D02*
X19585714Y17709524D01*
X19776190Y17709524D02*
X19680952Y17757143D01*
X19633333Y17804762D01*
X19585714Y17900000D01*
X19585714Y17995239D01*
X20252380Y18328572D02*
X19585714Y18328572D01*
X19680952Y18328572D02*
X19633333Y18376191D01*
X19585714Y18471429D01*
X19585714Y18614286D01*
X19633333Y18709524D01*
X19728571Y18757143D01*
X20252380Y18757143D01*
X19728571Y18757143D02*
X19633333Y18804762D01*
X19585714Y18900000D01*
X19585714Y19042858D01*
X19633333Y19138096D01*
X19728571Y19185715D01*
X20252380Y19185715D01*
X20252380Y20090477D02*
X19728571Y20090477D01*
X19633333Y20042858D01*
X19585714Y19947620D01*
X19585714Y19757143D01*
X19633333Y19661905D01*
X20204761Y20090477D02*
X20252380Y19995239D01*
X20252380Y19757143D01*
X20204761Y19661905D01*
X20109523Y19614286D01*
X20014285Y19614286D01*
X19919047Y19661905D01*
X19871428Y19757143D01*
X19871428Y19995239D01*
X19823809Y20090477D01*
X20252380Y20709524D02*
X20204761Y20614286D01*
X20109523Y20566667D01*
X19252380Y20566667D01*
X22752380Y19590477D02*
X23466666Y19590477D01*
X23609523Y19542858D01*
X23704761Y19447620D01*
X23752380Y19304762D01*
X23752380Y19209524D01*
X23752380Y20590477D02*
X23752380Y20019048D01*
X23752380Y20304762D02*
X22752380Y20304762D01*
X22895238Y20209524D01*
X22990476Y20114286D01*
X23038095Y20019048D01*
X22752380Y21209524D02*
X22752380Y21304762D01*
X22800000Y21400000D01*
X22847619Y21447620D01*
X22942857Y21495239D01*
X23133333Y21542858D01*
X23371428Y21542858D01*
X23561904Y21495239D01*
X23657142Y21447620D01*
X23704761Y21400000D01*
X23752380Y21304762D01*
X23752380Y21209524D01*
X23704761Y21114286D01*
X23657142Y21066667D01*
X23561904Y21019048D01*
X23371428Y20971429D01*
X23133333Y20971429D01*
X22942857Y21019048D01*
X22847619Y21066667D01*
X22800000Y21114286D01*
X22752380Y21209524D01*
X31204761Y15100000D02*
X31252380Y15242858D01*
X31252380Y15480953D01*
X31204761Y15576191D01*
X31157142Y15623810D01*
X31061904Y15671429D01*
X30966666Y15671429D01*
X30871428Y15623810D01*
X30823809Y15576191D01*
X30776190Y15480953D01*
X30728571Y15290477D01*
X30680952Y15195239D01*
X30633333Y15147620D01*
X30538095Y15100000D01*
X30442857Y15100000D01*
X30347619Y15147620D01*
X30300000Y15195239D01*
X30252380Y15290477D01*
X30252380Y15528572D01*
X30300000Y15671429D01*
X30585714Y16100000D02*
X31585714Y16100000D01*
X30633333Y16100000D02*
X30585714Y16195239D01*
X30585714Y16385715D01*
X30633333Y16480953D01*
X30680952Y16528572D01*
X30776190Y16576191D01*
X31061904Y16576191D01*
X31157142Y16528572D01*
X31204761Y16480953D01*
X31252380Y16385715D01*
X31252380Y16195239D01*
X31204761Y16100000D01*
X31252380Y17433334D02*
X30728571Y17433334D01*
X30633333Y17385715D01*
X30585714Y17290477D01*
X30585714Y17100000D01*
X30633333Y17004762D01*
X31204761Y17433334D02*
X31252380Y17338096D01*
X31252380Y17100000D01*
X31204761Y17004762D01*
X31109523Y16957143D01*
X31014285Y16957143D01*
X30919047Y17004762D01*
X30871428Y17100000D01*
X30871428Y17338096D01*
X30823809Y17433334D01*
X31252380Y17909524D02*
X30585714Y17909524D01*
X30776190Y17909524D02*
X30680952Y17957143D01*
X30633333Y18004762D01*
X30585714Y18100000D01*
X30585714Y18195239D01*
X31204761Y18909524D02*
X31252380Y18814286D01*
X31252380Y18623810D01*
X31204761Y18528572D01*
X31109523Y18480953D01*
X30728571Y18480953D01*
X30633333Y18528572D01*
X30585714Y18623810D01*
X30585714Y18814286D01*
X30633333Y18909524D01*
X30728571Y18957143D01*
X30823809Y18957143D01*
X30919047Y18480953D01*
X31347619Y19147620D02*
X31347619Y19909524D01*
X30966666Y20100000D02*
X30966666Y20576191D01*
X31252380Y20004762D02*
X30252380Y20338096D01*
X31252380Y20671429D01*
X30252380Y21433334D02*
X30252380Y21242858D01*
X30300000Y21147620D01*
X30347619Y21100000D01*
X30490476Y21004762D01*
X30680952Y20957143D01*
X31061904Y20957143D01*
X31157142Y21004762D01*
X31204761Y21052381D01*
X31252380Y21147620D01*
X31252380Y21338096D01*
X31204761Y21433334D01*
X31157142Y21480953D01*
X31061904Y21528572D01*
X30823809Y21528572D01*
X30728571Y21480953D01*
X30680952Y21433334D01*
X30633333Y21338096D01*
X30633333Y21147620D01*
X30680952Y21052381D01*
X30728571Y21004762D01*
X30823809Y20957143D01*
X31347619Y21719048D02*
X31347619Y22480953D01*
X30966666Y22671429D02*
X30966666Y23147620D01*
X31252380Y22576191D02*
X30252380Y22909524D01*
X31252380Y23242858D01*
X30252380Y23480953D02*
X30252380Y24147620D01*
X31252380Y23719048D01*
X1552380Y47966667D02*
X2266666Y47966667D01*
X2409523Y47919048D01*
X2504761Y47823810D01*
X2552380Y47680953D01*
X2552380Y47585715D01*
X2552380Y48490477D02*
X2552380Y48680953D01*
X2504761Y48776191D01*
X2457142Y48823810D01*
X2314285Y48919048D01*
X2123809Y48966667D01*
X1742857Y48966667D01*
X1647619Y48919048D01*
X1600000Y48871429D01*
X1552380Y48776191D01*
X1552380Y48585715D01*
X1600000Y48490477D01*
X1647619Y48442858D01*
X1742857Y48395239D01*
X1980952Y48395239D01*
X2076190Y48442858D01*
X2123809Y48490477D01*
X2171428Y48585715D01*
X2171428Y48776191D01*
X2123809Y48871429D01*
X2076190Y48919048D01*
X1980952Y48966667D01*
X9752380Y45180953D02*
X9752380Y44609524D01*
X9752380Y44895239D02*
X8752380Y44895239D01*
X8895238Y44800000D01*
X8990476Y44704762D01*
X9038095Y44609524D01*
X8847619Y45561905D02*
X8800000Y45609524D01*
X8752380Y45704762D01*
X8752380Y45942858D01*
X8800000Y46038096D01*
X8847619Y46085715D01*
X8942857Y46133334D01*
X9038095Y46133334D01*
X9180952Y46085715D01*
X9752380Y45514286D01*
X9752380Y46133334D01*
X8752380Y46419048D02*
X9752380Y46752381D01*
X8752380Y47085715D01*
X9704761Y48133334D02*
X9752380Y48276191D01*
X9752380Y48514286D01*
X9704761Y48609524D01*
X9657142Y48657143D01*
X9561904Y48704762D01*
X9466666Y48704762D01*
X9371428Y48657143D01*
X9323809Y48609524D01*
X9276190Y48514286D01*
X9228571Y48323810D01*
X9180952Y48228572D01*
X9133333Y48180953D01*
X9038095Y48133334D01*
X8942857Y48133334D01*
X8847619Y48180953D01*
X8800000Y48228572D01*
X8752380Y48323810D01*
X8752380Y48561905D01*
X8800000Y48704762D01*
X9085714Y49133334D02*
X10085714Y49133334D01*
X9133333Y49133334D02*
X9085714Y49228572D01*
X9085714Y49419048D01*
X9133333Y49514286D01*
X9180952Y49561905D01*
X9276190Y49609524D01*
X9561904Y49609524D01*
X9657142Y49561905D01*
X9704761Y49514286D01*
X9752380Y49419048D01*
X9752380Y49228572D01*
X9704761Y49133334D01*
X9752380Y50466667D02*
X9228571Y50466667D01*
X9133333Y50419048D01*
X9085714Y50323810D01*
X9085714Y50133334D01*
X9133333Y50038096D01*
X9704761Y50466667D02*
X9752380Y50371429D01*
X9752380Y50133334D01*
X9704761Y50038096D01*
X9609523Y49990477D01*
X9514285Y49990477D01*
X9419047Y50038096D01*
X9371428Y50133334D01*
X9371428Y50371429D01*
X9323809Y50466667D01*
X9752380Y50942858D02*
X9085714Y50942858D01*
X9276190Y50942858D02*
X9180952Y50990477D01*
X9133333Y51038096D01*
X9085714Y51133334D01*
X9085714Y51228572D01*
X9704761Y51942858D02*
X9752380Y51847620D01*
X9752380Y51657143D01*
X9704761Y51561905D01*
X9609523Y51514286D01*
X9228571Y51514286D01*
X9133333Y51561905D01*
X9085714Y51657143D01*
X9085714Y51847620D01*
X9133333Y51942858D01*
X9228571Y51990477D01*
X9323809Y51990477D01*
X9419047Y51514286D01*
X11852380Y39666667D02*
X12566666Y39666667D01*
X12709523Y39619048D01*
X12804761Y39523810D01*
X12852380Y39380953D01*
X12852380Y39285715D01*
X12280952Y40285715D02*
X12233333Y40190477D01*
X12185714Y40142858D01*
X12090476Y40095239D01*
X12042857Y40095239D01*
X11947619Y40142858D01*
X11900000Y40190477D01*
X11852380Y40285715D01*
X11852380Y40476191D01*
X11900000Y40571429D01*
X11947619Y40619048D01*
X12042857Y40666667D01*
X12090476Y40666667D01*
X12185714Y40619048D01*
X12233333Y40571429D01*
X12280952Y40476191D01*
X12280952Y40285715D01*
X12328571Y40190477D01*
X12376190Y40142858D01*
X12471428Y40095239D01*
X12661904Y40095239D01*
X12757142Y40142858D01*
X12804761Y40190477D01*
X12852380Y40285715D01*
X12852380Y40476191D01*
X12804761Y40571429D01*
X12757142Y40619048D01*
X12661904Y40666667D01*
X12471428Y40666667D01*
X12376190Y40619048D01*
X12328571Y40571429D01*
X12280952Y40476191D01*
X19052380Y36833334D02*
X19052380Y36357143D01*
X19528571Y36309524D01*
X19480952Y36357143D01*
X19433333Y36452381D01*
X19433333Y36690477D01*
X19480952Y36785715D01*
X19528571Y36833334D01*
X19623809Y36880953D01*
X19861904Y36880953D01*
X19957142Y36833334D01*
X20004761Y36785715D01*
X20052380Y36690477D01*
X20052380Y36452381D01*
X20004761Y36357143D01*
X19957142Y36309524D01*
X19052380Y37166667D02*
X20052380Y37500000D01*
X19052380Y37833334D01*
X20004761Y38880953D02*
X20052380Y39023810D01*
X20052380Y39261905D01*
X20004761Y39357143D01*
X19957142Y39404762D01*
X19861904Y39452381D01*
X19766666Y39452381D01*
X19671428Y39404762D01*
X19623809Y39357143D01*
X19576190Y39261905D01*
X19528571Y39071429D01*
X19480952Y38976191D01*
X19433333Y38928572D01*
X19338095Y38880953D01*
X19242857Y38880953D01*
X19147619Y38928572D01*
X19100000Y38976191D01*
X19052380Y39071429D01*
X19052380Y39309524D01*
X19100000Y39452381D01*
X19385714Y39880953D02*
X20385714Y39880953D01*
X19433333Y39880953D02*
X19385714Y39976191D01*
X19385714Y40166667D01*
X19433333Y40261905D01*
X19480952Y40309524D01*
X19576190Y40357143D01*
X19861904Y40357143D01*
X19957142Y40309524D01*
X20004761Y40261905D01*
X20052380Y40166667D01*
X20052380Y39976191D01*
X20004761Y39880953D01*
X20052380Y41214286D02*
X19528571Y41214286D01*
X19433333Y41166667D01*
X19385714Y41071429D01*
X19385714Y40880953D01*
X19433333Y40785715D01*
X20004761Y41214286D02*
X20052380Y41119048D01*
X20052380Y40880953D01*
X20004761Y40785715D01*
X19909523Y40738096D01*
X19814285Y40738096D01*
X19719047Y40785715D01*
X19671428Y40880953D01*
X19671428Y41119048D01*
X19623809Y41214286D01*
X20052380Y41690477D02*
X19385714Y41690477D01*
X19576190Y41690477D02*
X19480952Y41738096D01*
X19433333Y41785715D01*
X19385714Y41880953D01*
X19385714Y41976191D01*
X20004761Y42690477D02*
X20052380Y42595239D01*
X20052380Y42404762D01*
X20004761Y42309524D01*
X19909523Y42261905D01*
X19528571Y42261905D01*
X19433333Y42309524D01*
X19385714Y42404762D01*
X19385714Y42595239D01*
X19433333Y42690477D01*
X19528571Y42738096D01*
X19623809Y42738096D01*
X19719047Y42261905D01*
X19147619Y43119048D02*
X19100000Y43166667D01*
X19052380Y43261905D01*
X19052380Y43500000D01*
X19100000Y43595239D01*
X19147619Y43642858D01*
X19242857Y43690477D01*
X19338095Y43690477D01*
X19480952Y43642858D01*
X20052380Y43071429D01*
X20052380Y43690477D01*
X22752380Y34566667D02*
X23466666Y34566667D01*
X23609523Y34519048D01*
X23704761Y34423810D01*
X23752380Y34280953D01*
X23752380Y34185715D01*
X22752380Y34947620D02*
X22752380Y35614286D01*
X23752380Y35185715D01*
X31152380Y27600000D02*
X30152380Y27600000D01*
X30152380Y27980953D01*
X30200000Y28076191D01*
X30247619Y28123810D01*
X30342857Y28171429D01*
X30485714Y28171429D01*
X30580952Y28123810D01*
X30628571Y28076191D01*
X30676190Y27980953D01*
X30676190Y27600000D01*
X31152380Y28600000D02*
X30485714Y28600000D01*
X30676190Y28600000D02*
X30580952Y28647620D01*
X30533333Y28695239D01*
X30485714Y28790477D01*
X30485714Y28885715D01*
X31104761Y29600000D02*
X31152380Y29504762D01*
X31152380Y29314286D01*
X31104761Y29219048D01*
X31009523Y29171429D01*
X30628571Y29171429D01*
X30533333Y29219048D01*
X30485714Y29314286D01*
X30485714Y29504762D01*
X30533333Y29600000D01*
X30628571Y29647620D01*
X30723809Y29647620D01*
X30819047Y29171429D01*
X31104761Y30028572D02*
X31152380Y30123810D01*
X31152380Y30314286D01*
X31104761Y30409524D01*
X31009523Y30457143D01*
X30961904Y30457143D01*
X30866666Y30409524D01*
X30819047Y30314286D01*
X30819047Y30171429D01*
X30771428Y30076191D01*
X30676190Y30028572D01*
X30628571Y30028572D01*
X30533333Y30076191D01*
X30485714Y30171429D01*
X30485714Y30314286D01*
X30533333Y30409524D01*
X31104761Y30838096D02*
X31152380Y30933334D01*
X31152380Y31123810D01*
X31104761Y31219048D01*
X31009523Y31266667D01*
X30961904Y31266667D01*
X30866666Y31219048D01*
X30819047Y31123810D01*
X30819047Y30980953D01*
X30771428Y30885715D01*
X30676190Y30838096D01*
X30628571Y30838096D01*
X30533333Y30885715D01*
X30485714Y30980953D01*
X30485714Y31123810D01*
X30533333Y31219048D01*
X30485714Y32123810D02*
X31152380Y32123810D01*
X30485714Y31695239D02*
X31009523Y31695239D01*
X31104761Y31742858D01*
X31152380Y31838096D01*
X31152380Y31980953D01*
X31104761Y32076191D01*
X31057142Y32123810D01*
X31152380Y32600000D02*
X30485714Y32600000D01*
X30676190Y32600000D02*
X30580952Y32647620D01*
X30533333Y32695239D01*
X30485714Y32790477D01*
X30485714Y32885715D01*
X31104761Y33600000D02*
X31152380Y33504762D01*
X31152380Y33314286D01*
X31104761Y33219048D01*
X31009523Y33171429D01*
X30628571Y33171429D01*
X30533333Y33219048D01*
X30485714Y33314286D01*
X30485714Y33504762D01*
X30533333Y33600000D01*
X30628571Y33647620D01*
X30723809Y33647620D01*
X30819047Y33171429D01*
X22752380Y6166667D02*
X23466666Y6166667D01*
X23609523Y6119048D01*
X23704761Y6023810D01*
X23752380Y5880953D01*
X23752380Y5785715D01*
X22752380Y7071429D02*
X22752380Y6880953D01*
X22800000Y6785715D01*
X22847619Y6738096D01*
X22990476Y6642858D01*
X23180952Y6595239D01*
X23561904Y6595239D01*
X23657142Y6642858D01*
X23704761Y6690477D01*
X23752380Y6785715D01*
X23752380Y6976191D01*
X23704761Y7071429D01*
X23657142Y7119048D01*
X23561904Y7166667D01*
X23323809Y7166667D01*
X23228571Y7119048D01*
X23180952Y7071429D01*
X23133333Y6976191D01*
X23133333Y6785715D01*
X23180952Y6690477D01*
X23228571Y6642858D01*
X23323809Y6595239D01*
X31152380Y1166667D02*
X30152380Y1166667D01*
X31152380Y1785715D02*
X31104761Y1690477D01*
X31057142Y1642858D01*
X30961904Y1595239D01*
X30676190Y1595239D01*
X30580952Y1642858D01*
X30533333Y1690477D01*
X30485714Y1785715D01*
X30485714Y1928572D01*
X30533333Y2023810D01*
X30580952Y2071429D01*
X30676190Y2119048D01*
X30961904Y2119048D01*
X31057142Y2071429D01*
X31104761Y2023810D01*
X31152380Y1928572D01*
X31152380Y1785715D01*
X30152380Y2404762D02*
X30152380Y2976191D01*
X31152380Y2690477D02*
X30152380Y2690477D01*
X31247619Y3071429D02*
X31247619Y3833334D01*
X31152380Y4071429D02*
X30152380Y4071429D01*
X30866666Y4404762D01*
X30152380Y4738096D01*
X31152380Y4738096D01*
X31152380Y5357143D02*
X31104761Y5261905D01*
X31057142Y5214286D01*
X30961904Y5166667D01*
X30676190Y5166667D01*
X30580952Y5214286D01*
X30533333Y5261905D01*
X30485714Y5357143D01*
X30485714Y5500000D01*
X30533333Y5595239D01*
X30580952Y5642858D01*
X30676190Y5690477D01*
X30961904Y5690477D01*
X31057142Y5642858D01*
X31104761Y5595239D01*
X31152380Y5500000D01*
X31152380Y5357143D01*
X31152380Y6547620D02*
X30152380Y6547620D01*
X31104761Y6547620D02*
X31152380Y6452381D01*
X31152380Y6261905D01*
X31104761Y6166667D01*
X31057142Y6119048D01*
X30961904Y6071429D01*
X30676190Y6071429D01*
X30580952Y6119048D01*
X30533333Y6166667D01*
X30485714Y6261905D01*
X30485714Y6452381D01*
X30533333Y6547620D01*
X30485714Y7452381D02*
X31152380Y7452381D01*
X30485714Y7023810D02*
X31009523Y7023810D01*
X31104761Y7071429D01*
X31152380Y7166667D01*
X31152380Y7309524D01*
X31104761Y7404762D01*
X31057142Y7452381D01*
X31152380Y8071429D02*
X31104761Y7976191D01*
X31009523Y7928572D01*
X30152380Y7928572D01*
X31104761Y8833334D02*
X31152380Y8738096D01*
X31152380Y8547620D01*
X31104761Y8452381D01*
X31009523Y8404762D01*
X30628571Y8404762D01*
X30533333Y8452381D01*
X30485714Y8547620D01*
X30485714Y8738096D01*
X30533333Y8833334D01*
X30628571Y8880953D01*
X30723809Y8880953D01*
X30819047Y8404762D01*
X11852380Y47966667D02*
X12566666Y47966667D01*
X12709523Y47919048D01*
X12804761Y47823810D01*
X12852380Y47680953D01*
X12852380Y47585715D01*
X11852380Y48919048D02*
X11852380Y48442858D01*
X12328571Y48395239D01*
X12280952Y48442858D01*
X12233333Y48538096D01*
X12233333Y48776191D01*
X12280952Y48871429D01*
X12328571Y48919048D01*
X12423809Y48966667D01*
X12661904Y48966667D01*
X12757142Y48919048D01*
X12804761Y48871429D01*
X12852380Y48776191D01*
X12852380Y48538096D01*
X12804761Y48442858D01*
X12757142Y48395239D01*
X20052380Y45180953D02*
X20052380Y44609524D01*
X20052380Y44895239D02*
X19052380Y44895239D01*
X19195238Y44800000D01*
X19290476Y44704762D01*
X19338095Y44609524D01*
X19147619Y45561905D02*
X19100000Y45609524D01*
X19052380Y45704762D01*
X19052380Y45942858D01*
X19100000Y46038096D01*
X19147619Y46085715D01*
X19242857Y46133334D01*
X19338095Y46133334D01*
X19480952Y46085715D01*
X20052380Y45514286D01*
X20052380Y46133334D01*
X19052380Y46419048D02*
X20052380Y46752381D01*
X19052380Y47085715D01*
X20004761Y48133334D02*
X20052380Y48276191D01*
X20052380Y48514286D01*
X20004761Y48609524D01*
X19957142Y48657143D01*
X19861904Y48704762D01*
X19766666Y48704762D01*
X19671428Y48657143D01*
X19623809Y48609524D01*
X19576190Y48514286D01*
X19528571Y48323810D01*
X19480952Y48228572D01*
X19433333Y48180953D01*
X19338095Y48133334D01*
X19242857Y48133334D01*
X19147619Y48180953D01*
X19100000Y48228572D01*
X19052380Y48323810D01*
X19052380Y48561905D01*
X19100000Y48704762D01*
X19385714Y49133334D02*
X20385714Y49133334D01*
X19433333Y49133334D02*
X19385714Y49228572D01*
X19385714Y49419048D01*
X19433333Y49514286D01*
X19480952Y49561905D01*
X19576190Y49609524D01*
X19861904Y49609524D01*
X19957142Y49561905D01*
X20004761Y49514286D01*
X20052380Y49419048D01*
X20052380Y49228572D01*
X20004761Y49133334D01*
X20052380Y50466667D02*
X19528571Y50466667D01*
X19433333Y50419048D01*
X19385714Y50323810D01*
X19385714Y50133334D01*
X19433333Y50038096D01*
X20004761Y50466667D02*
X20052380Y50371429D01*
X20052380Y50133334D01*
X20004761Y50038096D01*
X19909523Y49990477D01*
X19814285Y49990477D01*
X19719047Y50038096D01*
X19671428Y50133334D01*
X19671428Y50371429D01*
X19623809Y50466667D01*
X20052380Y50942858D02*
X19385714Y50942858D01*
X19576190Y50942858D02*
X19480952Y50990477D01*
X19433333Y51038096D01*
X19385714Y51133334D01*
X19385714Y51228572D01*
X20004761Y51942858D02*
X20052380Y51847620D01*
X20052380Y51657143D01*
X20004761Y51561905D01*
X19909523Y51514286D01*
X19528571Y51514286D01*
X19433333Y51561905D01*
X19385714Y51657143D01*
X19385714Y51847620D01*
X19433333Y51942858D01*
X19528571Y51990477D01*
X19623809Y51990477D01*
X19719047Y51514286D01*
X1552380Y39666667D02*
X2266666Y39666667D01*
X2409523Y39619048D01*
X2504761Y39523810D01*
X2552380Y39380953D01*
X2552380Y39285715D01*
X1885714Y40571429D02*
X2552380Y40571429D01*
X1504761Y40333334D02*
X2219047Y40095239D01*
X2219047Y40714286D01*
X8852380Y36833334D02*
X8852380Y36357143D01*
X9328571Y36309524D01*
X9280952Y36357143D01*
X9233333Y36452381D01*
X9233333Y36690477D01*
X9280952Y36785715D01*
X9328571Y36833334D01*
X9423809Y36880953D01*
X9661904Y36880953D01*
X9757142Y36833334D01*
X9804761Y36785715D01*
X9852380Y36690477D01*
X9852380Y36452381D01*
X9804761Y36357143D01*
X9757142Y36309524D01*
X8852380Y37166667D02*
X9852380Y37500000D01*
X8852380Y37833334D01*
X9804761Y38880953D02*
X9852380Y39023810D01*
X9852380Y39261905D01*
X9804761Y39357143D01*
X9757142Y39404762D01*
X9661904Y39452381D01*
X9566666Y39452381D01*
X9471428Y39404762D01*
X9423809Y39357143D01*
X9376190Y39261905D01*
X9328571Y39071429D01*
X9280952Y38976191D01*
X9233333Y38928572D01*
X9138095Y38880953D01*
X9042857Y38880953D01*
X8947619Y38928572D01*
X8900000Y38976191D01*
X8852380Y39071429D01*
X8852380Y39309524D01*
X8900000Y39452381D01*
X9185714Y39880953D02*
X10185714Y39880953D01*
X9233333Y39880953D02*
X9185714Y39976191D01*
X9185714Y40166667D01*
X9233333Y40261905D01*
X9280952Y40309524D01*
X9376190Y40357143D01*
X9661904Y40357143D01*
X9757142Y40309524D01*
X9804761Y40261905D01*
X9852380Y40166667D01*
X9852380Y39976191D01*
X9804761Y39880953D01*
X9852380Y41214286D02*
X9328571Y41214286D01*
X9233333Y41166667D01*
X9185714Y41071429D01*
X9185714Y40880953D01*
X9233333Y40785715D01*
X9804761Y41214286D02*
X9852380Y41119048D01*
X9852380Y40880953D01*
X9804761Y40785715D01*
X9709523Y40738096D01*
X9614285Y40738096D01*
X9519047Y40785715D01*
X9471428Y40880953D01*
X9471428Y41119048D01*
X9423809Y41214286D01*
X9852380Y41690477D02*
X9185714Y41690477D01*
X9376190Y41690477D02*
X9280952Y41738096D01*
X9233333Y41785715D01*
X9185714Y41880953D01*
X9185714Y41976191D01*
X9804761Y42690477D02*
X9852380Y42595239D01*
X9852380Y42404762D01*
X9804761Y42309524D01*
X9709523Y42261905D01*
X9328571Y42261905D01*
X9233333Y42309524D01*
X9185714Y42404762D01*
X9185714Y42595239D01*
X9233333Y42690477D01*
X9328571Y42738096D01*
X9423809Y42738096D01*
X9519047Y42261905D01*
X9852380Y43690477D02*
X9852380Y43119048D01*
X9852380Y43404762D02*
X8852380Y43404762D01*
X8995238Y43309524D01*
X9090476Y43214286D01*
X9138095Y43119048D01*
X11852380Y30566667D02*
X12566666Y30566667D01*
X12709523Y30519048D01*
X12804761Y30423810D01*
X12852380Y30280953D01*
X12852380Y30185715D01*
X11852380Y30947620D02*
X11852380Y31566667D01*
X12233333Y31233334D01*
X12233333Y31376191D01*
X12280952Y31471429D01*
X12328571Y31519048D01*
X12423809Y31566667D01*
X12661904Y31566667D01*
X12757142Y31519048D01*
X12804761Y31471429D01*
X12852380Y31376191D01*
X12852380Y31090477D01*
X12804761Y30995239D01*
X12757142Y30947620D01*
X18952380Y26923810D02*
X18952380Y27542858D01*
X19333333Y27209524D01*
X19333333Y27352381D01*
X19380952Y27447620D01*
X19428571Y27495239D01*
X19523809Y27542858D01*
X19761904Y27542858D01*
X19857142Y27495239D01*
X19904761Y27447620D01*
X19952380Y27352381D01*
X19952380Y27066667D01*
X19904761Y26971429D01*
X19857142Y26923810D01*
X19857142Y27971429D02*
X19904761Y28019048D01*
X19952380Y27971429D01*
X19904761Y27923810D01*
X19857142Y27971429D01*
X19952380Y27971429D01*
X18952380Y28352381D02*
X18952380Y28971429D01*
X19333333Y28638096D01*
X19333333Y28780953D01*
X19380952Y28876191D01*
X19428571Y28923810D01*
X19523809Y28971429D01*
X19761904Y28971429D01*
X19857142Y28923810D01*
X19904761Y28876191D01*
X19952380Y28780953D01*
X19952380Y28495239D01*
X19904761Y28400000D01*
X19857142Y28352381D01*
X18952380Y29257143D02*
X19952380Y29590477D01*
X18952380Y29923810D01*
X19904761Y30971429D02*
X19952380Y31114286D01*
X19952380Y31352381D01*
X19904761Y31447620D01*
X19857142Y31495239D01*
X19761904Y31542858D01*
X19666666Y31542858D01*
X19571428Y31495239D01*
X19523809Y31447620D01*
X19476190Y31352381D01*
X19428571Y31161905D01*
X19380952Y31066667D01*
X19333333Y31019048D01*
X19238095Y30971429D01*
X19142857Y30971429D01*
X19047619Y31019048D01*
X19000000Y31066667D01*
X18952380Y31161905D01*
X18952380Y31400000D01*
X19000000Y31542858D01*
X19285714Y31971429D02*
X20285714Y31971429D01*
X19333333Y31971429D02*
X19285714Y32066667D01*
X19285714Y32257143D01*
X19333333Y32352381D01*
X19380952Y32400000D01*
X19476190Y32447620D01*
X19761904Y32447620D01*
X19857142Y32400000D01*
X19904761Y32352381D01*
X19952380Y32257143D01*
X19952380Y32066667D01*
X19904761Y31971429D01*
X19952380Y33304762D02*
X19428571Y33304762D01*
X19333333Y33257143D01*
X19285714Y33161905D01*
X19285714Y32971429D01*
X19333333Y32876191D01*
X19904761Y33304762D02*
X19952380Y33209524D01*
X19952380Y32971429D01*
X19904761Y32876191D01*
X19809523Y32828572D01*
X19714285Y32828572D01*
X19619047Y32876191D01*
X19571428Y32971429D01*
X19571428Y33209524D01*
X19523809Y33304762D01*
X19952380Y33780953D02*
X19285714Y33780953D01*
X19476190Y33780953D02*
X19380952Y33828572D01*
X19333333Y33876191D01*
X19285714Y33971429D01*
X19285714Y34066667D01*
X19904761Y34780953D02*
X19952380Y34685715D01*
X19952380Y34495239D01*
X19904761Y34400000D01*
X19809523Y34352381D01*
X19428571Y34352381D01*
X19333333Y34400000D01*
X19285714Y34495239D01*
X19285714Y34685715D01*
X19333333Y34780953D01*
X19428571Y34828572D01*
X19523809Y34828572D01*
X19619047Y34352381D01*
X-1107620Y77266667D02*
X-393334Y77266667D01*
X-250477Y77219048D01*
X-155239Y77123810D01*
X-107620Y76980953D01*
X-107620Y76885715D01*
X-107620Y78266667D02*
X-107620Y77695239D01*
X-107620Y77980953D02*
X-1107620Y77980953D01*
X-964762Y77885715D01*
X-869524Y77790477D01*
X-821905Y77695239D01*
X71572380Y27185715D02*
X70572380Y27185715D01*
X70572380Y27423810D01*
X70620000Y27566667D01*
X70715238Y27661905D01*
X70810476Y27709524D01*
X71000952Y27757143D01*
X71143809Y27757143D01*
X71334285Y27709524D01*
X71429523Y27661905D01*
X71524761Y27566667D01*
X71572380Y27423810D01*
X71572380Y27185715D01*
X71572380Y28709524D02*
X71572380Y28138096D01*
X71572380Y28423810D02*
X70572380Y28423810D01*
X70715238Y28328572D01*
X70810476Y28233334D01*
X70858095Y28138096D01*
X71572380Y29661905D02*
X71572380Y29090477D01*
X71572380Y29376191D02*
X70572380Y29376191D01*
X70715238Y29280953D01*
X70810476Y29185715D01*
X70858095Y29090477D01*
X59552380Y43085715D02*
X58552380Y43085715D01*
X58552380Y43323810D01*
X58600000Y43466667D01*
X58695238Y43561905D01*
X58790476Y43609524D01*
X58980952Y43657143D01*
X59123809Y43657143D01*
X59314285Y43609524D01*
X59409523Y43561905D01*
X59504761Y43466667D01*
X59552380Y43323810D01*
X59552380Y43085715D01*
X59552380Y44609524D02*
X59552380Y44038096D01*
X59552380Y44323810D02*
X58552380Y44323810D01*
X58695238Y44228572D01*
X58790476Y44133334D01*
X58838095Y44038096D01*
X58552380Y45228572D02*
X58552380Y45323810D01*
X58600000Y45419048D01*
X58647619Y45466667D01*
X58742857Y45514286D01*
X58933333Y45561905D01*
X59171428Y45561905D01*
X59361904Y45514286D01*
X59457142Y45466667D01*
X59504761Y45419048D01*
X59552380Y45323810D01*
X59552380Y45228572D01*
X59504761Y45133334D01*
X59457142Y45085715D01*
X59361904Y45038096D01*
X59171428Y44990477D01*
X58933333Y44990477D01*
X58742857Y45038096D01*
X58647619Y45085715D01*
X58600000Y45133334D01*
X58552380Y45228572D01*
X76132380Y20661905D02*
X75132380Y20661905D01*
X75132380Y20900000D01*
X75180000Y21042858D01*
X75275238Y21138096D01*
X75370476Y21185715D01*
X75560952Y21233334D01*
X75703809Y21233334D01*
X75894285Y21185715D01*
X75989523Y21138096D01*
X76084761Y21042858D01*
X76132380Y20900000D01*
X76132380Y20661905D01*
X76132380Y21709524D02*
X76132380Y21900000D01*
X76084761Y21995239D01*
X76037142Y22042858D01*
X75894285Y22138096D01*
X75703809Y22185715D01*
X75322857Y22185715D01*
X75227619Y22138096D01*
X75180000Y22090477D01*
X75132380Y21995239D01*
X75132380Y21804762D01*
X75180000Y21709524D01*
X75227619Y21661905D01*
X75322857Y21614286D01*
X75560952Y21614286D01*
X75656190Y21661905D01*
X75703809Y21709524D01*
X75751428Y21804762D01*
X75751428Y21995239D01*
X75703809Y22090477D01*
X75656190Y22138096D01*
X75560952Y22185715D01*
X68683333Y27783334D02*
X68683333Y28483334D01*
X68850000Y28483334D01*
X68950000Y28450000D01*
X69016666Y28383334D01*
X69050000Y28316667D01*
X69083333Y28183334D01*
X69083333Y28083334D01*
X69050000Y27950000D01*
X69016666Y27883334D01*
X68950000Y27816667D01*
X68850000Y27783334D01*
X68683333Y27783334D01*
X69483333Y28183334D02*
X69416666Y28216667D01*
X69383333Y28250000D01*
X69350000Y28316667D01*
X69350000Y28350000D01*
X69383333Y28416667D01*
X69416666Y28450000D01*
X69483333Y28483334D01*
X69616666Y28483334D01*
X69683333Y28450000D01*
X69716666Y28416667D01*
X69750000Y28350000D01*
X69750000Y28316667D01*
X69716666Y28250000D01*
X69683333Y28216667D01*
X69616666Y28183334D01*
X69483333Y28183334D01*
X69416666Y28150000D01*
X69383333Y28116667D01*
X69350000Y28050000D01*
X69350000Y27916667D01*
X69383333Y27850000D01*
X69416666Y27816667D01*
X69483333Y27783334D01*
X69616666Y27783334D01*
X69683333Y27816667D01*
X69716666Y27850000D01*
X69750000Y27916667D01*
X69750000Y28050000D01*
X69716666Y28116667D01*
X69683333Y28150000D01*
X69616666Y28183334D01*
X68683333Y26883334D02*
X68683333Y27583334D01*
X68850000Y27583334D01*
X68950000Y27550000D01*
X69016666Y27483334D01*
X69050000Y27416667D01*
X69083333Y27283334D01*
X69083333Y27183334D01*
X69050000Y27050000D01*
X69016666Y26983334D01*
X68950000Y26916667D01*
X68850000Y26883334D01*
X68683333Y26883334D01*
X69316666Y27583334D02*
X69783333Y27583334D01*
X69483333Y26883334D01*
X57652380Y30061905D02*
X56652380Y30061905D01*
X56652380Y30300000D01*
X56700000Y30442858D01*
X56795238Y30538096D01*
X56890476Y30585715D01*
X57080952Y30633334D01*
X57223809Y30633334D01*
X57414285Y30585715D01*
X57509523Y30538096D01*
X57604761Y30442858D01*
X57652380Y30300000D01*
X57652380Y30061905D01*
X56652380Y31490477D02*
X56652380Y31300000D01*
X56700000Y31204762D01*
X56747619Y31157143D01*
X56890476Y31061905D01*
X57080952Y31014286D01*
X57461904Y31014286D01*
X57557142Y31061905D01*
X57604761Y31109524D01*
X57652380Y31204762D01*
X57652380Y31395239D01*
X57604761Y31490477D01*
X57557142Y31538096D01*
X57461904Y31585715D01*
X57223809Y31585715D01*
X57128571Y31538096D01*
X57080952Y31490477D01*
X57033333Y31395239D01*
X57033333Y31204762D01*
X57080952Y31109524D01*
X57128571Y31061905D01*
X57223809Y31014286D01*
X40852380Y42961905D02*
X39852380Y42961905D01*
X39852380Y43200000D01*
X39900000Y43342858D01*
X39995238Y43438096D01*
X40090476Y43485715D01*
X40280952Y43533334D01*
X40423809Y43533334D01*
X40614285Y43485715D01*
X40709523Y43438096D01*
X40804761Y43342858D01*
X40852380Y43200000D01*
X40852380Y42961905D01*
X39852380Y44438096D02*
X39852380Y43961905D01*
X40328571Y43914286D01*
X40280952Y43961905D01*
X40233333Y44057143D01*
X40233333Y44295239D01*
X40280952Y44390477D01*
X40328571Y44438096D01*
X40423809Y44485715D01*
X40661904Y44485715D01*
X40757142Y44438096D01*
X40804761Y44390477D01*
X40852380Y44295239D01*
X40852380Y44057143D01*
X40804761Y43961905D01*
X40757142Y43914286D01*
X57752380Y20761905D02*
X56752380Y20761905D01*
X56752380Y21000000D01*
X56800000Y21142858D01*
X56895238Y21238096D01*
X56990476Y21285715D01*
X57180952Y21333334D01*
X57323809Y21333334D01*
X57514285Y21285715D01*
X57609523Y21238096D01*
X57704761Y21142858D01*
X57752380Y21000000D01*
X57752380Y20761905D01*
X57085714Y22190477D02*
X57752380Y22190477D01*
X56704761Y21952381D02*
X57419047Y21714286D01*
X57419047Y22333334D01*
X50183333Y27783334D02*
X50183333Y28483334D01*
X50350000Y28483334D01*
X50450000Y28450000D01*
X50516666Y28383334D01*
X50550000Y28316667D01*
X50583333Y28183334D01*
X50583333Y28083334D01*
X50550000Y27950000D01*
X50516666Y27883334D01*
X50450000Y27816667D01*
X50350000Y27783334D01*
X50183333Y27783334D01*
X50816666Y28483334D02*
X51250000Y28483334D01*
X51016666Y28216667D01*
X51116666Y28216667D01*
X51183333Y28183334D01*
X51216666Y28150000D01*
X51250000Y28083334D01*
X51250000Y27916667D01*
X51216666Y27850000D01*
X51183333Y27816667D01*
X51116666Y27783334D01*
X50916666Y27783334D01*
X50850000Y27816667D01*
X50816666Y27850000D01*
X50183333Y26883334D02*
X50183333Y27583334D01*
X50350000Y27583334D01*
X50450000Y27550000D01*
X50516666Y27483334D01*
X50550000Y27416667D01*
X50583333Y27283334D01*
X50583333Y27183334D01*
X50550000Y27050000D01*
X50516666Y26983334D01*
X50450000Y26916667D01*
X50350000Y26883334D01*
X50183333Y26883334D01*
X50850000Y27516667D02*
X50883333Y27550000D01*
X50950000Y27583334D01*
X51116666Y27583334D01*
X51183333Y27550000D01*
X51216666Y27516667D01*
X51250000Y27450000D01*
X51250000Y27383334D01*
X51216666Y27283334D01*
X50816666Y26883334D01*
X51250000Y26883334D01*
X16161904Y85947620D02*
X16161904Y86947620D01*
X16400000Y86947620D01*
X16542857Y86900000D01*
X16638095Y86804762D01*
X16685714Y86709524D01*
X16733333Y86519048D01*
X16733333Y86376191D01*
X16685714Y86185715D01*
X16638095Y86090477D01*
X16542857Y85995239D01*
X16400000Y85947620D01*
X16161904Y85947620D01*
X17685714Y85947620D02*
X17114285Y85947620D01*
X17400000Y85947620D02*
X17400000Y86947620D01*
X17304761Y86804762D01*
X17209523Y86709524D01*
X17114285Y86661905D01*
X75857142Y41942858D02*
X75809523Y41895239D01*
X75666666Y41847620D01*
X75571428Y41847620D01*
X75428571Y41895239D01*
X75333333Y41990477D01*
X75285714Y42085715D01*
X75238095Y42276191D01*
X75238095Y42419048D01*
X75285714Y42609524D01*
X75333333Y42704762D01*
X75428571Y42800000D01*
X75571428Y42847620D01*
X75666666Y42847620D01*
X75809523Y42800000D01*
X75857142Y42752381D01*
X76190476Y42847620D02*
X76809523Y42847620D01*
X76476190Y42466667D01*
X76619047Y42466667D01*
X76714285Y42419048D01*
X76761904Y42371429D01*
X76809523Y42276191D01*
X76809523Y42038096D01*
X76761904Y41942858D01*
X76714285Y41895239D01*
X76619047Y41847620D01*
X76333333Y41847620D01*
X76238095Y41895239D01*
X76190476Y41942858D01*
X77666666Y42514286D02*
X77666666Y41847620D01*
X77428571Y42895239D02*
X77190476Y42180953D01*
X77809523Y42180953D01*
X76527142Y32757143D02*
X76574761Y32709524D01*
X76622380Y32566667D01*
X76622380Y32471429D01*
X76574761Y32328572D01*
X76479523Y32233334D01*
X76384285Y32185715D01*
X76193809Y32138096D01*
X76050952Y32138096D01*
X75860476Y32185715D01*
X75765238Y32233334D01*
X75670000Y32328572D01*
X75622380Y32471429D01*
X75622380Y32566667D01*
X75670000Y32709524D01*
X75717619Y32757143D01*
X75622380Y33090477D02*
X75622380Y33709524D01*
X76003333Y33376191D01*
X76003333Y33519048D01*
X76050952Y33614286D01*
X76098571Y33661905D01*
X76193809Y33709524D01*
X76431904Y33709524D01*
X76527142Y33661905D01*
X76574761Y33614286D01*
X76622380Y33519048D01*
X76622380Y33233334D01*
X76574761Y33138096D01*
X76527142Y33090477D01*
X75622380Y34042858D02*
X75622380Y34661905D01*
X76003333Y34328572D01*
X76003333Y34471429D01*
X76050952Y34566667D01*
X76098571Y34614286D01*
X76193809Y34661905D01*
X76431904Y34661905D01*
X76527142Y34614286D01*
X76574761Y34566667D01*
X76622380Y34471429D01*
X76622380Y34185715D01*
X76574761Y34090477D01*
X76527142Y34042858D01*
X75857142Y35542858D02*
X75809523Y35495239D01*
X75666666Y35447620D01*
X75571428Y35447620D01*
X75428571Y35495239D01*
X75333333Y35590477D01*
X75285714Y35685715D01*
X75238095Y35876191D01*
X75238095Y36019048D01*
X75285714Y36209524D01*
X75333333Y36304762D01*
X75428571Y36400000D01*
X75571428Y36447620D01*
X75666666Y36447620D01*
X75809523Y36400000D01*
X75857142Y36352381D01*
X76190476Y36447620D02*
X76809523Y36447620D01*
X76476190Y36066667D01*
X76619047Y36066667D01*
X76714285Y36019048D01*
X76761904Y35971429D01*
X76809523Y35876191D01*
X76809523Y35638096D01*
X76761904Y35542858D01*
X76714285Y35495239D01*
X76619047Y35447620D01*
X76333333Y35447620D01*
X76238095Y35495239D01*
X76190476Y35542858D01*
X77190476Y36352381D02*
X77238095Y36400000D01*
X77333333Y36447620D01*
X77571428Y36447620D01*
X77666666Y36400000D01*
X77714285Y36352381D01*
X77761904Y36257143D01*
X77761904Y36161905D01*
X77714285Y36019048D01*
X77142857Y35447620D01*
X77761904Y35447620D01*
X74587142Y32757143D02*
X74634761Y32709524D01*
X74682380Y32566667D01*
X74682380Y32471429D01*
X74634761Y32328572D01*
X74539523Y32233334D01*
X74444285Y32185715D01*
X74253809Y32138096D01*
X74110952Y32138096D01*
X73920476Y32185715D01*
X73825238Y32233334D01*
X73730000Y32328572D01*
X73682380Y32471429D01*
X73682380Y32566667D01*
X73730000Y32709524D01*
X73777619Y32757143D01*
X73682380Y33090477D02*
X73682380Y33709524D01*
X74063333Y33376191D01*
X74063333Y33519048D01*
X74110952Y33614286D01*
X74158571Y33661905D01*
X74253809Y33709524D01*
X74491904Y33709524D01*
X74587142Y33661905D01*
X74634761Y33614286D01*
X74682380Y33519048D01*
X74682380Y33233334D01*
X74634761Y33138096D01*
X74587142Y33090477D01*
X74682380Y34661905D02*
X74682380Y34090477D01*
X74682380Y34376191D02*
X73682380Y34376191D01*
X73825238Y34280953D01*
X73920476Y34185715D01*
X73968095Y34090477D01*
X58257142Y24157143D02*
X58304761Y24109524D01*
X58352380Y23966667D01*
X58352380Y23871429D01*
X58304761Y23728572D01*
X58209523Y23633334D01*
X58114285Y23585715D01*
X57923809Y23538096D01*
X57780952Y23538096D01*
X57590476Y23585715D01*
X57495238Y23633334D01*
X57400000Y23728572D01*
X57352380Y23871429D01*
X57352380Y23966667D01*
X57400000Y24109524D01*
X57447619Y24157143D01*
X57352380Y24490477D02*
X57352380Y25109524D01*
X57733333Y24776191D01*
X57733333Y24919048D01*
X57780952Y25014286D01*
X57828571Y25061905D01*
X57923809Y25109524D01*
X58161904Y25109524D01*
X58257142Y25061905D01*
X58304761Y25014286D01*
X58352380Y24919048D01*
X58352380Y24633334D01*
X58304761Y24538096D01*
X58257142Y24490477D01*
X57352380Y25728572D02*
X57352380Y25823810D01*
X57400000Y25919048D01*
X57447619Y25966667D01*
X57542857Y26014286D01*
X57733333Y26061905D01*
X57971428Y26061905D01*
X58161904Y26014286D01*
X58257142Y25966667D01*
X58304761Y25919048D01*
X58352380Y25823810D01*
X58352380Y25728572D01*
X58304761Y25633334D01*
X58257142Y25585715D01*
X58161904Y25538096D01*
X57971428Y25490477D01*
X57733333Y25490477D01*
X57542857Y25538096D01*
X57447619Y25585715D01*
X57400000Y25633334D01*
X57352380Y25728572D01*
X69257142Y11642858D02*
X69209523Y11595239D01*
X69066666Y11547620D01*
X68971428Y11547620D01*
X68828571Y11595239D01*
X68733333Y11690477D01*
X68685714Y11785715D01*
X68638095Y11976191D01*
X68638095Y12119048D01*
X68685714Y12309524D01*
X68733333Y12404762D01*
X68828571Y12500000D01*
X68971428Y12547620D01*
X69066666Y12547620D01*
X69209523Y12500000D01*
X69257142Y12452381D01*
X69638095Y12452381D02*
X69685714Y12500000D01*
X69780952Y12547620D01*
X70019047Y12547620D01*
X70114285Y12500000D01*
X70161904Y12452381D01*
X70209523Y12357143D01*
X70209523Y12261905D01*
X70161904Y12119048D01*
X69590476Y11547620D01*
X70209523Y11547620D01*
X70685714Y11547620D02*
X70876190Y11547620D01*
X70971428Y11595239D01*
X71019047Y11642858D01*
X71114285Y11785715D01*
X71161904Y11976191D01*
X71161904Y12357143D01*
X71114285Y12452381D01*
X71066666Y12500000D01*
X70971428Y12547620D01*
X70780952Y12547620D01*
X70685714Y12500000D01*
X70638095Y12452381D01*
X70590476Y12357143D01*
X70590476Y12119048D01*
X70638095Y12023810D01*
X70685714Y11976191D01*
X70780952Y11928572D01*
X70971428Y11928572D01*
X71066666Y11976191D01*
X71114285Y12023810D01*
X71161904Y12119048D01*
X67050000Y17450000D02*
X67016666Y17416667D01*
X66916666Y17383334D01*
X66850000Y17383334D01*
X66750000Y17416667D01*
X66683333Y17483334D01*
X66650000Y17550000D01*
X66616666Y17683334D01*
X66616666Y17783334D01*
X66650000Y17916667D01*
X66683333Y17983334D01*
X66750000Y18050000D01*
X66850000Y18083334D01*
X66916666Y18083334D01*
X67016666Y18050000D01*
X67050000Y18016667D01*
X67316666Y18016667D02*
X67350000Y18050000D01*
X67416666Y18083334D01*
X67583333Y18083334D01*
X67650000Y18050000D01*
X67683333Y18016667D01*
X67716666Y17950000D01*
X67716666Y17883334D01*
X67683333Y17783334D01*
X67283333Y17383334D01*
X67716666Y17383334D01*
X68116666Y17783334D02*
X68050000Y17816667D01*
X68016666Y17850000D01*
X67983333Y17916667D01*
X67983333Y17950000D01*
X68016666Y18016667D01*
X68050000Y18050000D01*
X68116666Y18083334D01*
X68250000Y18083334D01*
X68316666Y18050000D01*
X68350000Y18016667D01*
X68383333Y17950000D01*
X68383333Y17916667D01*
X68350000Y17850000D01*
X68316666Y17816667D01*
X68250000Y17783334D01*
X68116666Y17783334D01*
X68050000Y17750000D01*
X68016666Y17716667D01*
X67983333Y17650000D01*
X67983333Y17516667D01*
X68016666Y17450000D01*
X68050000Y17416667D01*
X68116666Y17383334D01*
X68250000Y17383334D01*
X68316666Y17416667D01*
X68350000Y17450000D01*
X68383333Y17516667D01*
X68383333Y17650000D01*
X68350000Y17716667D01*
X68316666Y17750000D01*
X68250000Y17783334D01*
X69150000Y17450000D02*
X69116666Y17416667D01*
X69016666Y17383334D01*
X68950000Y17383334D01*
X68850000Y17416667D01*
X68783333Y17483334D01*
X68750000Y17550000D01*
X68716666Y17683334D01*
X68716666Y17783334D01*
X68750000Y17916667D01*
X68783333Y17983334D01*
X68850000Y18050000D01*
X68950000Y18083334D01*
X69016666Y18083334D01*
X69116666Y18050000D01*
X69150000Y18016667D01*
X69416666Y18016667D02*
X69450000Y18050000D01*
X69516666Y18083334D01*
X69683333Y18083334D01*
X69750000Y18050000D01*
X69783333Y18016667D01*
X69816666Y17950000D01*
X69816666Y17883334D01*
X69783333Y17783334D01*
X69383333Y17383334D01*
X69816666Y17383334D01*
X70050000Y18083334D02*
X70516666Y18083334D01*
X70216666Y17383334D01*
X67650000Y21750000D02*
X67683333Y21716667D01*
X67716666Y21616667D01*
X67716666Y21550000D01*
X67683333Y21450000D01*
X67616666Y21383334D01*
X67550000Y21350000D01*
X67416666Y21316667D01*
X67316666Y21316667D01*
X67183333Y21350000D01*
X67116666Y21383334D01*
X67050000Y21450000D01*
X67016666Y21550000D01*
X67016666Y21616667D01*
X67050000Y21716667D01*
X67083333Y21750000D01*
X67083333Y22016667D02*
X67050000Y22050000D01*
X67016666Y22116667D01*
X67016666Y22283334D01*
X67050000Y22350000D01*
X67083333Y22383334D01*
X67150000Y22416667D01*
X67216666Y22416667D01*
X67316666Y22383334D01*
X67716666Y21983334D01*
X67716666Y22416667D01*
X67016666Y23016667D02*
X67016666Y22883334D01*
X67050000Y22816667D01*
X67083333Y22783334D01*
X67183333Y22716667D01*
X67316666Y22683334D01*
X67583333Y22683334D01*
X67650000Y22716667D01*
X67683333Y22750000D01*
X67716666Y22816667D01*
X67716666Y22950000D01*
X67683333Y23016667D01*
X67650000Y23050000D01*
X67583333Y23083334D01*
X67416666Y23083334D01*
X67350000Y23050000D01*
X67316666Y23016667D01*
X67283333Y22950000D01*
X67283333Y22816667D01*
X67316666Y22750000D01*
X67350000Y22716667D01*
X67416666Y22683334D01*
X76557142Y12157143D02*
X76604761Y12109524D01*
X76652380Y11966667D01*
X76652380Y11871429D01*
X76604761Y11728572D01*
X76509523Y11633334D01*
X76414285Y11585715D01*
X76223809Y11538096D01*
X76080952Y11538096D01*
X75890476Y11585715D01*
X75795238Y11633334D01*
X75700000Y11728572D01*
X75652380Y11871429D01*
X75652380Y11966667D01*
X75700000Y12109524D01*
X75747619Y12157143D01*
X75747619Y12538096D02*
X75700000Y12585715D01*
X75652380Y12680953D01*
X75652380Y12919048D01*
X75700000Y13014286D01*
X75747619Y13061905D01*
X75842857Y13109524D01*
X75938095Y13109524D01*
X76080952Y13061905D01*
X76652380Y12490477D01*
X76652380Y13109524D01*
X75652380Y14014286D02*
X75652380Y13538096D01*
X76128571Y13490477D01*
X76080952Y13538096D01*
X76033333Y13633334D01*
X76033333Y13871429D01*
X76080952Y13966667D01*
X76128571Y14014286D01*
X76223809Y14061905D01*
X76461904Y14061905D01*
X76557142Y14014286D01*
X76604761Y13966667D01*
X76652380Y13871429D01*
X76652380Y13633334D01*
X76604761Y13538096D01*
X76557142Y13490477D01*
X40557142Y71457143D02*
X40604761Y71409524D01*
X40652380Y71266667D01*
X40652380Y71171429D01*
X40604761Y71028572D01*
X40509523Y70933334D01*
X40414285Y70885715D01*
X40223809Y70838096D01*
X40080952Y70838096D01*
X39890476Y70885715D01*
X39795238Y70933334D01*
X39700000Y71028572D01*
X39652380Y71171429D01*
X39652380Y71266667D01*
X39700000Y71409524D01*
X39747619Y71457143D01*
X39747619Y71838096D02*
X39700000Y71885715D01*
X39652380Y71980953D01*
X39652380Y72219048D01*
X39700000Y72314286D01*
X39747619Y72361905D01*
X39842857Y72409524D01*
X39938095Y72409524D01*
X40080952Y72361905D01*
X40652380Y71790477D01*
X40652380Y72409524D01*
X39985714Y73266667D02*
X40652380Y73266667D01*
X39604761Y73028572D02*
X40319047Y72790477D01*
X40319047Y73409524D01*
X66027142Y55257143D02*
X66074761Y55209524D01*
X66122380Y55066667D01*
X66122380Y54971429D01*
X66074761Y54828572D01*
X65979523Y54733334D01*
X65884285Y54685715D01*
X65693809Y54638096D01*
X65550952Y54638096D01*
X65360476Y54685715D01*
X65265238Y54733334D01*
X65170000Y54828572D01*
X65122380Y54971429D01*
X65122380Y55066667D01*
X65170000Y55209524D01*
X65217619Y55257143D01*
X65217619Y55638096D02*
X65170000Y55685715D01*
X65122380Y55780953D01*
X65122380Y56019048D01*
X65170000Y56114286D01*
X65217619Y56161905D01*
X65312857Y56209524D01*
X65408095Y56209524D01*
X65550952Y56161905D01*
X66122380Y55590477D01*
X66122380Y56209524D01*
X65122380Y56542858D02*
X65122380Y57161905D01*
X65503333Y56828572D01*
X65503333Y56971429D01*
X65550952Y57066667D01*
X65598571Y57114286D01*
X65693809Y57161905D01*
X65931904Y57161905D01*
X66027142Y57114286D01*
X66074761Y57066667D01*
X66122380Y56971429D01*
X66122380Y56685715D01*
X66074761Y56590477D01*
X66027142Y56542858D01*
X51357142Y41742858D02*
X51309523Y41695239D01*
X51166666Y41647620D01*
X51071428Y41647620D01*
X50928571Y41695239D01*
X50833333Y41790477D01*
X50785714Y41885715D01*
X50738095Y42076191D01*
X50738095Y42219048D01*
X50785714Y42409524D01*
X50833333Y42504762D01*
X50928571Y42600000D01*
X51071428Y42647620D01*
X51166666Y42647620D01*
X51309523Y42600000D01*
X51357142Y42552381D01*
X51738095Y42552381D02*
X51785714Y42600000D01*
X51880952Y42647620D01*
X52119047Y42647620D01*
X52214285Y42600000D01*
X52261904Y42552381D01*
X52309523Y42457143D01*
X52309523Y42361905D01*
X52261904Y42219048D01*
X51690476Y41647620D01*
X52309523Y41647620D01*
X52690476Y42552381D02*
X52738095Y42600000D01*
X52833333Y42647620D01*
X53071428Y42647620D01*
X53166666Y42600000D01*
X53214285Y42552381D01*
X53261904Y42457143D01*
X53261904Y42361905D01*
X53214285Y42219048D01*
X52642857Y41647620D01*
X53261904Y41647620D01*
X34157142Y22557143D02*
X34204761Y22509524D01*
X34252380Y22366667D01*
X34252380Y22271429D01*
X34204761Y22128572D01*
X34109523Y22033334D01*
X34014285Y21985715D01*
X33823809Y21938096D01*
X33680952Y21938096D01*
X33490476Y21985715D01*
X33395238Y22033334D01*
X33300000Y22128572D01*
X33252380Y22271429D01*
X33252380Y22366667D01*
X33300000Y22509524D01*
X33347619Y22557143D01*
X33347619Y22938096D02*
X33300000Y22985715D01*
X33252380Y23080953D01*
X33252380Y23319048D01*
X33300000Y23414286D01*
X33347619Y23461905D01*
X33442857Y23509524D01*
X33538095Y23509524D01*
X33680952Y23461905D01*
X34252380Y22890477D01*
X34252380Y23509524D01*
X34252380Y24461905D02*
X34252380Y23890477D01*
X34252380Y24176191D02*
X33252380Y24176191D01*
X33395238Y24080953D01*
X33490476Y23985715D01*
X33538095Y23890477D01*
X57357142Y35542858D02*
X57309523Y35495239D01*
X57166666Y35447620D01*
X57071428Y35447620D01*
X56928571Y35495239D01*
X56833333Y35590477D01*
X56785714Y35685715D01*
X56738095Y35876191D01*
X56738095Y36019048D01*
X56785714Y36209524D01*
X56833333Y36304762D01*
X56928571Y36400000D01*
X57071428Y36447620D01*
X57166666Y36447620D01*
X57309523Y36400000D01*
X57357142Y36352381D01*
X57738095Y36352381D02*
X57785714Y36400000D01*
X57880952Y36447620D01*
X58119047Y36447620D01*
X58214285Y36400000D01*
X58261904Y36352381D01*
X58309523Y36257143D01*
X58309523Y36161905D01*
X58261904Y36019048D01*
X57690476Y35447620D01*
X58309523Y35447620D01*
X58928571Y36447620D02*
X59023809Y36447620D01*
X59119047Y36400000D01*
X59166666Y36352381D01*
X59214285Y36257143D01*
X59261904Y36066667D01*
X59261904Y35828572D01*
X59214285Y35638096D01*
X59166666Y35542858D01*
X59119047Y35495239D01*
X59023809Y35447620D01*
X58928571Y35447620D01*
X58833333Y35495239D01*
X58785714Y35542858D01*
X58738095Y35638096D01*
X58690476Y35828572D01*
X58690476Y36066667D01*
X58738095Y36257143D01*
X58785714Y36352381D01*
X58833333Y36400000D01*
X58928571Y36447620D01*
X56257142Y32757143D02*
X56304761Y32709524D01*
X56352380Y32566667D01*
X56352380Y32471429D01*
X56304761Y32328572D01*
X56209523Y32233334D01*
X56114285Y32185715D01*
X55923809Y32138096D01*
X55780952Y32138096D01*
X55590476Y32185715D01*
X55495238Y32233334D01*
X55400000Y32328572D01*
X55352380Y32471429D01*
X55352380Y32566667D01*
X55400000Y32709524D01*
X55447619Y32757143D01*
X56352380Y33709524D02*
X56352380Y33138096D01*
X56352380Y33423810D02*
X55352380Y33423810D01*
X55495238Y33328572D01*
X55590476Y33233334D01*
X55638095Y33138096D01*
X56352380Y34185715D02*
X56352380Y34376191D01*
X56304761Y34471429D01*
X56257142Y34519048D01*
X56114285Y34614286D01*
X55923809Y34661905D01*
X55542857Y34661905D01*
X55447619Y34614286D01*
X55400000Y34566667D01*
X55352380Y34471429D01*
X55352380Y34280953D01*
X55400000Y34185715D01*
X55447619Y34138096D01*
X55542857Y34090477D01*
X55780952Y34090477D01*
X55876190Y34138096D01*
X55923809Y34185715D01*
X55971428Y34280953D01*
X55971428Y34471429D01*
X55923809Y34566667D01*
X55876190Y34614286D01*
X55780952Y34661905D01*
X41050000Y26850000D02*
X41083333Y26816667D01*
X41116666Y26716667D01*
X41116666Y26650000D01*
X41083333Y26550000D01*
X41016666Y26483334D01*
X40950000Y26450000D01*
X40816666Y26416667D01*
X40716666Y26416667D01*
X40583333Y26450000D01*
X40516666Y26483334D01*
X40450000Y26550000D01*
X40416666Y26650000D01*
X40416666Y26716667D01*
X40450000Y26816667D01*
X40483333Y26850000D01*
X41116666Y27516667D02*
X41116666Y27116667D01*
X41116666Y27316667D02*
X40416666Y27316667D01*
X40516666Y27250000D01*
X40583333Y27183334D01*
X40616666Y27116667D01*
X40716666Y27916667D02*
X40683333Y27850000D01*
X40650000Y27816667D01*
X40583333Y27783334D01*
X40550000Y27783334D01*
X40483333Y27816667D01*
X40450000Y27850000D01*
X40416666Y27916667D01*
X40416666Y28050000D01*
X40450000Y28116667D01*
X40483333Y28150000D01*
X40550000Y28183334D01*
X40583333Y28183334D01*
X40650000Y28150000D01*
X40683333Y28116667D01*
X40716666Y28050000D01*
X40716666Y27916667D01*
X40750000Y27850000D01*
X40783333Y27816667D01*
X40850000Y27783334D01*
X40983333Y27783334D01*
X41050000Y27816667D01*
X41083333Y27850000D01*
X41116666Y27916667D01*
X41116666Y28050000D01*
X41083333Y28116667D01*
X41050000Y28150000D01*
X40983333Y28183334D01*
X40850000Y28183334D01*
X40783333Y28150000D01*
X40750000Y28116667D01*
X40716666Y28050000D01*
X50357142Y11542858D02*
X50309523Y11495239D01*
X50166666Y11447620D01*
X50071428Y11447620D01*
X49928571Y11495239D01*
X49833333Y11590477D01*
X49785714Y11685715D01*
X49738095Y11876191D01*
X49738095Y12019048D01*
X49785714Y12209524D01*
X49833333Y12304762D01*
X49928571Y12400000D01*
X50071428Y12447620D01*
X50166666Y12447620D01*
X50309523Y12400000D01*
X50357142Y12352381D01*
X51309523Y11447620D02*
X50738095Y11447620D01*
X51023809Y11447620D02*
X51023809Y12447620D01*
X50928571Y12304762D01*
X50833333Y12209524D01*
X50738095Y12161905D01*
X51642857Y12447620D02*
X52309523Y12447620D01*
X51880952Y11447620D01*
X48550000Y17550000D02*
X48516666Y17516667D01*
X48416666Y17483334D01*
X48350000Y17483334D01*
X48250000Y17516667D01*
X48183333Y17583334D01*
X48150000Y17650000D01*
X48116666Y17783334D01*
X48116666Y17883334D01*
X48150000Y18016667D01*
X48183333Y18083334D01*
X48250000Y18150000D01*
X48350000Y18183334D01*
X48416666Y18183334D01*
X48516666Y18150000D01*
X48550000Y18116667D01*
X49216666Y17483334D02*
X48816666Y17483334D01*
X49016666Y17483334D02*
X49016666Y18183334D01*
X48950000Y18083334D01*
X48883333Y18016667D01*
X48816666Y17983334D01*
X49816666Y18183334D02*
X49683333Y18183334D01*
X49616666Y18150000D01*
X49583333Y18116667D01*
X49516666Y18016667D01*
X49483333Y17883334D01*
X49483333Y17616667D01*
X49516666Y17550000D01*
X49550000Y17516667D01*
X49616666Y17483334D01*
X49750000Y17483334D01*
X49816666Y17516667D01*
X49850000Y17550000D01*
X49883333Y17616667D01*
X49883333Y17783334D01*
X49850000Y17850000D01*
X49816666Y17883334D01*
X49750000Y17916667D01*
X49616666Y17916667D01*
X49550000Y17883334D01*
X49516666Y17850000D01*
X49483333Y17783334D01*
X50750000Y17450000D02*
X50716666Y17416667D01*
X50616666Y17383334D01*
X50550000Y17383334D01*
X50450000Y17416667D01*
X50383333Y17483334D01*
X50350000Y17550000D01*
X50316666Y17683334D01*
X50316666Y17783334D01*
X50350000Y17916667D01*
X50383333Y17983334D01*
X50450000Y18050000D01*
X50550000Y18083334D01*
X50616666Y18083334D01*
X50716666Y18050000D01*
X50750000Y18016667D01*
X51416666Y17383334D02*
X51016666Y17383334D01*
X51216666Y17383334D02*
X51216666Y18083334D01*
X51150000Y17983334D01*
X51083333Y17916667D01*
X51016666Y17883334D01*
X52050000Y18083334D02*
X51716666Y18083334D01*
X51683333Y17750000D01*
X51716666Y17783334D01*
X51783333Y17816667D01*
X51950000Y17816667D01*
X52016666Y17783334D01*
X52050000Y17750000D01*
X52083333Y17683334D01*
X52083333Y17516667D01*
X52050000Y17450000D01*
X52016666Y17416667D01*
X51950000Y17383334D01*
X51783333Y17383334D01*
X51716666Y17416667D01*
X51683333Y17450000D01*
X48450000Y21650000D02*
X48416666Y21616667D01*
X48316666Y21583334D01*
X48250000Y21583334D01*
X48150000Y21616667D01*
X48083333Y21683334D01*
X48050000Y21750000D01*
X48016666Y21883334D01*
X48016666Y21983334D01*
X48050000Y22116667D01*
X48083333Y22183334D01*
X48150000Y22250000D01*
X48250000Y22283334D01*
X48316666Y22283334D01*
X48416666Y22250000D01*
X48450000Y22216667D01*
X49116666Y21583334D02*
X48716666Y21583334D01*
X48916666Y21583334D02*
X48916666Y22283334D01*
X48850000Y22183334D01*
X48783333Y22116667D01*
X48716666Y22083334D01*
X49716666Y22050000D02*
X49716666Y21583334D01*
X49550000Y22316667D02*
X49383333Y21816667D01*
X49816666Y21816667D01*
X59387142Y15245143D02*
X59434761Y15197524D01*
X59482380Y15054667D01*
X59482380Y14959429D01*
X59434761Y14816572D01*
X59339523Y14721334D01*
X59244285Y14673715D01*
X59053809Y14626096D01*
X58910952Y14626096D01*
X58720476Y14673715D01*
X58625238Y14721334D01*
X58530000Y14816572D01*
X58482380Y14959429D01*
X58482380Y15054667D01*
X58530000Y15197524D01*
X58577619Y15245143D01*
X59482380Y16197524D02*
X59482380Y15626096D01*
X59482380Y15911810D02*
X58482380Y15911810D01*
X58625238Y15816572D01*
X58720476Y15721334D01*
X58768095Y15626096D01*
X58482380Y16530858D02*
X58482380Y17149905D01*
X58863333Y16816572D01*
X58863333Y16959429D01*
X58910952Y17054667D01*
X58958571Y17102286D01*
X59053809Y17149905D01*
X59291904Y17149905D01*
X59387142Y17102286D01*
X59434761Y17054667D01*
X59482380Y16959429D01*
X59482380Y16673715D01*
X59434761Y16578477D01*
X59387142Y16530858D01*
X42045142Y50112858D02*
X41997523Y50065239D01*
X41854666Y50017620D01*
X41759428Y50017620D01*
X41616571Y50065239D01*
X41521333Y50160477D01*
X41473714Y50255715D01*
X41426095Y50446191D01*
X41426095Y50589048D01*
X41473714Y50779524D01*
X41521333Y50874762D01*
X41616571Y50970000D01*
X41759428Y51017620D01*
X41854666Y51017620D01*
X41997523Y50970000D01*
X42045142Y50922381D01*
X42997523Y50017620D02*
X42426095Y50017620D01*
X42711809Y50017620D02*
X42711809Y51017620D01*
X42616571Y50874762D01*
X42521333Y50779524D01*
X42426095Y50731905D01*
X43378476Y50922381D02*
X43426095Y50970000D01*
X43521333Y51017620D01*
X43759428Y51017620D01*
X43854666Y50970000D01*
X43902285Y50922381D01*
X43949904Y50827143D01*
X43949904Y50731905D01*
X43902285Y50589048D01*
X43330857Y50017620D01*
X43949904Y50017620D01*
X35057142Y53942858D02*
X35009523Y53895239D01*
X34866666Y53847620D01*
X34771428Y53847620D01*
X34628571Y53895239D01*
X34533333Y53990477D01*
X34485714Y54085715D01*
X34438095Y54276191D01*
X34438095Y54419048D01*
X34485714Y54609524D01*
X34533333Y54704762D01*
X34628571Y54800000D01*
X34771428Y54847620D01*
X34866666Y54847620D01*
X35009523Y54800000D01*
X35057142Y54752381D01*
X36009523Y53847620D02*
X35438095Y53847620D01*
X35723809Y53847620D02*
X35723809Y54847620D01*
X35628571Y54704762D01*
X35533333Y54609524D01*
X35438095Y54561905D01*
X36961904Y53847620D02*
X36390476Y53847620D01*
X36676190Y53847620D02*
X36676190Y54847620D01*
X36580952Y54704762D01*
X36485714Y54609524D01*
X36390476Y54561905D01*
X19557142Y53942858D02*
X19509523Y53895239D01*
X19366666Y53847620D01*
X19271428Y53847620D01*
X19128571Y53895239D01*
X19033333Y53990477D01*
X18985714Y54085715D01*
X18938095Y54276191D01*
X18938095Y54419048D01*
X18985714Y54609524D01*
X19033333Y54704762D01*
X19128571Y54800000D01*
X19271428Y54847620D01*
X19366666Y54847620D01*
X19509523Y54800000D01*
X19557142Y54752381D01*
X20509523Y53847620D02*
X19938095Y53847620D01*
X20223809Y53847620D02*
X20223809Y54847620D01*
X20128571Y54704762D01*
X20033333Y54609524D01*
X19938095Y54561905D01*
X21128571Y54847620D02*
X21223809Y54847620D01*
X21319047Y54800000D01*
X21366666Y54752381D01*
X21414285Y54657143D01*
X21461904Y54466667D01*
X21461904Y54228572D01*
X21414285Y54038096D01*
X21366666Y53942858D01*
X21319047Y53895239D01*
X21223809Y53847620D01*
X21128571Y53847620D01*
X21033333Y53895239D01*
X20985714Y53942858D01*
X20938095Y54038096D01*
X20890476Y54228572D01*
X20890476Y54466667D01*
X20938095Y54657143D01*
X20985714Y54752381D01*
X21033333Y54800000D01*
X21128571Y54847620D01*
X46533333Y54542858D02*
X46485714Y54495239D01*
X46342857Y54447620D01*
X46247619Y54447620D01*
X46104761Y54495239D01*
X46009523Y54590477D01*
X45961904Y54685715D01*
X45914285Y54876191D01*
X45914285Y55019048D01*
X45961904Y55209524D01*
X46009523Y55304762D01*
X46104761Y55400000D01*
X46247619Y55447620D01*
X46342857Y55447620D01*
X46485714Y55400000D01*
X46533333Y55352381D01*
X47009523Y54447620D02*
X47200000Y54447620D01*
X47295238Y54495239D01*
X47342857Y54542858D01*
X47438095Y54685715D01*
X47485714Y54876191D01*
X47485714Y55257143D01*
X47438095Y55352381D01*
X47390476Y55400000D01*
X47295238Y55447620D01*
X47104761Y55447620D01*
X47009523Y55400000D01*
X46961904Y55352381D01*
X46914285Y55257143D01*
X46914285Y55019048D01*
X46961904Y54923810D01*
X47009523Y54876191D01*
X47104761Y54828572D01*
X47295238Y54828572D01*
X47390476Y54876191D01*
X47438095Y54923810D01*
X47485714Y55019048D01*
X38233333Y58442858D02*
X38185714Y58395239D01*
X38042857Y58347620D01*
X37947619Y58347620D01*
X37804761Y58395239D01*
X37709523Y58490477D01*
X37661904Y58585715D01*
X37614285Y58776191D01*
X37614285Y58919048D01*
X37661904Y59109524D01*
X37709523Y59204762D01*
X37804761Y59300000D01*
X37947619Y59347620D01*
X38042857Y59347620D01*
X38185714Y59300000D01*
X38233333Y59252381D01*
X38804761Y58919048D02*
X38709523Y58966667D01*
X38661904Y59014286D01*
X38614285Y59109524D01*
X38614285Y59157143D01*
X38661904Y59252381D01*
X38709523Y59300000D01*
X38804761Y59347620D01*
X38995238Y59347620D01*
X39090476Y59300000D01*
X39138095Y59252381D01*
X39185714Y59157143D01*
X39185714Y59109524D01*
X39138095Y59014286D01*
X39090476Y58966667D01*
X38995238Y58919048D01*
X38804761Y58919048D01*
X38709523Y58871429D01*
X38661904Y58823810D01*
X38614285Y58728572D01*
X38614285Y58538096D01*
X38661904Y58442858D01*
X38709523Y58395239D01*
X38804761Y58347620D01*
X38995238Y58347620D01*
X39090476Y58395239D01*
X39138095Y58442858D01*
X39185714Y58538096D01*
X39185714Y58728572D01*
X39138095Y58823810D01*
X39090476Y58871429D01*
X38995238Y58919048D01*
X22733333Y58442858D02*
X22685714Y58395239D01*
X22542857Y58347620D01*
X22447619Y58347620D01*
X22304761Y58395239D01*
X22209523Y58490477D01*
X22161904Y58585715D01*
X22114285Y58776191D01*
X22114285Y58919048D01*
X22161904Y59109524D01*
X22209523Y59204762D01*
X22304761Y59300000D01*
X22447619Y59347620D01*
X22542857Y59347620D01*
X22685714Y59300000D01*
X22733333Y59252381D01*
X23066666Y59347620D02*
X23733333Y59347620D01*
X23304761Y58347620D01*
X46533333Y61742858D02*
X46485714Y61695239D01*
X46342857Y61647620D01*
X46247619Y61647620D01*
X46104761Y61695239D01*
X46009523Y61790477D01*
X45961904Y61885715D01*
X45914285Y62076191D01*
X45914285Y62219048D01*
X45961904Y62409524D01*
X46009523Y62504762D01*
X46104761Y62600000D01*
X46247619Y62647620D01*
X46342857Y62647620D01*
X46485714Y62600000D01*
X46533333Y62552381D01*
X47390476Y62647620D02*
X47200000Y62647620D01*
X47104761Y62600000D01*
X47057142Y62552381D01*
X46961904Y62409524D01*
X46914285Y62219048D01*
X46914285Y61838096D01*
X46961904Y61742858D01*
X47009523Y61695239D01*
X47104761Y61647620D01*
X47295238Y61647620D01*
X47390476Y61695239D01*
X47438095Y61742858D01*
X47485714Y61838096D01*
X47485714Y62076191D01*
X47438095Y62171429D01*
X47390476Y62219048D01*
X47295238Y62266667D01*
X47104761Y62266667D01*
X47009523Y62219048D01*
X46961904Y62171429D01*
X46914285Y62076191D01*
X31733333Y68842858D02*
X31685714Y68795239D01*
X31542857Y68747620D01*
X31447619Y68747620D01*
X31304761Y68795239D01*
X31209523Y68890477D01*
X31161904Y68985715D01*
X31114285Y69176191D01*
X31114285Y69319048D01*
X31161904Y69509524D01*
X31209523Y69604762D01*
X31304761Y69700000D01*
X31447619Y69747620D01*
X31542857Y69747620D01*
X31685714Y69700000D01*
X31733333Y69652381D01*
X32638095Y69747620D02*
X32161904Y69747620D01*
X32114285Y69271429D01*
X32161904Y69319048D01*
X32257142Y69366667D01*
X32495238Y69366667D01*
X32590476Y69319048D01*
X32638095Y69271429D01*
X32685714Y69176191D01*
X32685714Y68938096D01*
X32638095Y68842858D01*
X32590476Y68795239D01*
X32495238Y68747620D01*
X32257142Y68747620D01*
X32161904Y68795239D01*
X32114285Y68842858D01*
X16133333Y68842858D02*
X16085714Y68795239D01*
X15942857Y68747620D01*
X15847619Y68747620D01*
X15704761Y68795239D01*
X15609523Y68890477D01*
X15561904Y68985715D01*
X15514285Y69176191D01*
X15514285Y69319048D01*
X15561904Y69509524D01*
X15609523Y69604762D01*
X15704761Y69700000D01*
X15847619Y69747620D01*
X15942857Y69747620D01*
X16085714Y69700000D01*
X16133333Y69652381D01*
X16990476Y69414286D02*
X16990476Y68747620D01*
X16752380Y69795239D02*
X16514285Y69080953D01*
X17133333Y69080953D01*
X44933333Y63542858D02*
X44885714Y63495239D01*
X44742857Y63447620D01*
X44647619Y63447620D01*
X44504761Y63495239D01*
X44409523Y63590477D01*
X44361904Y63685715D01*
X44314285Y63876191D01*
X44314285Y64019048D01*
X44361904Y64209524D01*
X44409523Y64304762D01*
X44504761Y64400000D01*
X44647619Y64447620D01*
X44742857Y64447620D01*
X44885714Y64400000D01*
X44933333Y64352381D01*
X45266666Y64447620D02*
X45885714Y64447620D01*
X45552380Y64066667D01*
X45695238Y64066667D01*
X45790476Y64019048D01*
X45838095Y63971429D01*
X45885714Y63876191D01*
X45885714Y63638096D01*
X45838095Y63542858D01*
X45790476Y63495239D01*
X45695238Y63447620D01*
X45409523Y63447620D01*
X45314285Y63495239D01*
X45266666Y63542858D01*
X33033333Y71842858D02*
X32985714Y71795239D01*
X32842857Y71747620D01*
X32747619Y71747620D01*
X32604761Y71795239D01*
X32509523Y71890477D01*
X32461904Y71985715D01*
X32414285Y72176191D01*
X32414285Y72319048D01*
X32461904Y72509524D01*
X32509523Y72604762D01*
X32604761Y72700000D01*
X32747619Y72747620D01*
X32842857Y72747620D01*
X32985714Y72700000D01*
X33033333Y72652381D01*
X33414285Y72652381D02*
X33461904Y72700000D01*
X33557142Y72747620D01*
X33795238Y72747620D01*
X33890476Y72700000D01*
X33938095Y72652381D01*
X33985714Y72557143D01*
X33985714Y72461905D01*
X33938095Y72319048D01*
X33366666Y71747620D01*
X33985714Y71747620D01*
X17533333Y71842858D02*
X17485714Y71795239D01*
X17342857Y71747620D01*
X17247619Y71747620D01*
X17104761Y71795239D01*
X17009523Y71890477D01*
X16961904Y71985715D01*
X16914285Y72176191D01*
X16914285Y72319048D01*
X16961904Y72509524D01*
X17009523Y72604762D01*
X17104761Y72700000D01*
X17247619Y72747620D01*
X17342857Y72747620D01*
X17485714Y72700000D01*
X17533333Y72652381D01*
X18485714Y71747620D02*
X17914285Y71747620D01*
X18200000Y71747620D02*
X18200000Y72747620D01*
X18104761Y72604762D01*
X18009523Y72509524D01*
X17914285Y72461905D01*
M02*
