M48
; DRILL file {KiCad (5.1.5)-3} date 5/29/2020 4:30:44 PM
; FORMAT={3:3/ absolute / metric / suppress leading zeros}
; #@! TF.CreationDate,2020-05-29T16:30:44+07:00
; #@! TF.GenerationSoftware,Kicad,Pcbnew,(5.1.5)-3
FMAT,2
METRIC,TZ
T1C0.400
T2C0.750
T3C0.920
T4C1.000
T5C1.300
T6C2.330
%
G90
G05
T1
X10811Y36300
X11000Y43175
X11793Y33008
X11900Y28700
X11900Y26200
X12682Y30161
X13500Y34900
X14057Y79103
X14200Y27700
X14500Y33900
X17900Y36000
X19200Y16800
X19200Y14100
X24000Y45000
X29600Y25800
X29901Y21599
X32400Y20000
X34200Y10600
X34500Y53500
X35925Y36613
X36700Y13200
X38200Y20300
X38900Y9700
X38900Y6200
X39100Y19800
X39358Y39791
X39900Y27000
X40000Y38100
X40000Y29000
X41039Y36795
X43020Y38796
X43400Y78600
X43900Y28248
X44075Y32785
X44900Y27900
X45117Y35939
X45200Y40300
X45233Y33208
X46000Y27900
X46147Y46172
X46308Y44282
X46337Y50226
X46362Y36746
X47181Y27928
X47186Y35463
X47800Y43200
X47924Y42083
X47927Y36673
X48018Y44467
X48215Y35223
X48400Y22900
X48799Y26923
X48812Y31850
X49500Y57300
X49544Y31125
X49550Y27649
X51220Y39523
X52075Y38153
X52300Y17600
X52800Y25200
X52869Y23864
X52987Y35588
X53000Y56700
X53000Y37300
X53144Y40542
X53151Y44466
X53494Y28089
X54600Y59500
X54925Y83075
X56822Y42777
X56856Y34154
X56925Y83075
X57200Y35900
X57400Y24500
X58010Y41160
X58105Y26647
X58800Y55300
X58800Y29700
X58925Y83075
X59049Y33752
X59300Y59100
X59403Y37962
X60500Y59300
X60925Y83075
X61200Y39000
X62700Y54500
X62925Y83075
X62975Y27597
X63200Y39575
X63700Y31400
X64240Y36591
X64700Y60400
X64800Y31400
X64925Y83075
X67200Y41300
X67251Y31316
X67786Y17834
X68100Y40000
X68300Y84100
X68321Y22851
X68600Y56200
X69000Y46400
X69600Y40500
X69804Y29812
X69925Y92075
X69925Y86075
X69925Y64075
X70900Y30400
X70925Y83075
X71100Y56400
X71600Y33900
X71925Y90075
X72800Y50200
X72925Y87075
X72925Y83075
X73400Y29081
X73700Y56400
X73925Y92075
X74100Y46400
X74925Y85075
X74925Y83075
X76000Y26100
X76925Y83075
X77800Y16900
X78925Y86075
X78925Y83075
X79500Y17000
X79925Y89075
X79925Y69075
X79925Y71075
X80800Y60400
T2
X43500Y89400
X45500Y89400
X59300Y89400
X61300Y89400
X63300Y89400
X65300Y89400
X67300Y89400
X69300Y89400
X15300Y49300
X15300Y47300
X26200Y39900
X26200Y37900
X26200Y35900
X26200Y33900
X26200Y31900
X26200Y29900
X15300Y7500
X15300Y5500
X15300Y3500
X5000Y41000
X5000Y39000
X26200Y9500
X26200Y7500
X26200Y5500
X26200Y3500
X15300Y41000
X15300Y39000
X15300Y21400
X15300Y19400
X15300Y17400
X26200Y23400
X26200Y21400
X26200Y19400
X26200Y17400
X5000Y49300
X5000Y47300
X50800Y89400
X52800Y89400
X15300Y31900
X15300Y29900
T3
X46000Y8000
X46000Y6000
X48500Y8000
X48500Y6000
X64500Y8000
X64500Y6000
X67000Y8000
X67000Y6000
T4
X21850Y91650
X21850Y79650
X4000Y33600
X4000Y31060
X4000Y28520
X4000Y25980
X4000Y23440
X4000Y20900
X4000Y18360
X4000Y15820
X4000Y13280
X6540Y33600
X6540Y31060
X6540Y28520
X6540Y25980
X6540Y23440
X6540Y20900
X6540Y18360
X6540Y15820
X6540Y13280
T5
X19900Y85700
X34050Y79650
X34100Y91700
X5700Y80100
X5700Y75100
T6
X41230Y3290
X53270Y3290
X59730Y3290
X71770Y3290
T0
M30
