G04 #@! TF.GenerationSoftware,KiCad,Pcbnew,(5.1.5)-3*
G04 #@! TF.CreationDate,2020-05-29T16:30:41+07:00*
G04 #@! TF.ProjectId,LIBV,4c494256-2e6b-4696-9361-645f70636258,rev?*
G04 #@! TF.SameCoordinates,PX6b93100PY86f1e60*
G04 #@! TF.FileFunction,Soldermask,Bot*
G04 #@! TF.FilePolarity,Negative*
%FSLAX46Y46*%
G04 Gerber Fmt 4.6, Leading zero omitted, Abs format (unit mm)*
G04 Created by KiCad (PCBNEW (5.1.5)-3) date 2020-05-29 16:30:41*
%MOMM*%
%LPD*%
G04 APERTURE LIST*
%ADD10C,0.100000*%
G04 APERTURE END LIST*
D10*
G36*
X53795331Y5021789D02*
G01*
X54123092Y4886026D01*
X54418070Y4688928D01*
X54668928Y4438070D01*
X54866026Y4143092D01*
X55001789Y3815331D01*
X55071000Y3467384D01*
X55071000Y3112616D01*
X55001789Y2764669D01*
X54866026Y2436908D01*
X54668928Y2141930D01*
X54418070Y1891072D01*
X54123092Y1693974D01*
X53795331Y1558211D01*
X53447384Y1489000D01*
X53092616Y1489000D01*
X52744669Y1558211D01*
X52416908Y1693974D01*
X52121930Y1891072D01*
X51871072Y2141930D01*
X51673974Y2436908D01*
X51538211Y2764669D01*
X51469000Y3112616D01*
X51469000Y3467384D01*
X51538211Y3815331D01*
X51673974Y4143092D01*
X51871072Y4438070D01*
X52121930Y4688928D01*
X52416908Y4886026D01*
X52744669Y5021789D01*
X53092616Y5091000D01*
X53447384Y5091000D01*
X53795331Y5021789D01*
G37*
G36*
X60255331Y5021789D02*
G01*
X60583092Y4886026D01*
X60878070Y4688928D01*
X61128928Y4438070D01*
X61326026Y4143092D01*
X61461789Y3815331D01*
X61531000Y3467384D01*
X61531000Y3112616D01*
X61461789Y2764669D01*
X61326026Y2436908D01*
X61128928Y2141930D01*
X60878070Y1891072D01*
X60583092Y1693974D01*
X60255331Y1558211D01*
X59907384Y1489000D01*
X59552616Y1489000D01*
X59204669Y1558211D01*
X58876908Y1693974D01*
X58581930Y1891072D01*
X58331072Y2141930D01*
X58133974Y2436908D01*
X57998211Y2764669D01*
X57929000Y3112616D01*
X57929000Y3467384D01*
X57998211Y3815331D01*
X58133974Y4143092D01*
X58331072Y4438070D01*
X58581930Y4688928D01*
X58876908Y4886026D01*
X59204669Y5021789D01*
X59552616Y5091000D01*
X59907384Y5091000D01*
X60255331Y5021789D01*
G37*
G36*
X72295331Y5021789D02*
G01*
X72623092Y4886026D01*
X72918070Y4688928D01*
X73168928Y4438070D01*
X73366026Y4143092D01*
X73501789Y3815331D01*
X73571000Y3467384D01*
X73571000Y3112616D01*
X73501789Y2764669D01*
X73366026Y2436908D01*
X73168928Y2141930D01*
X72918070Y1891072D01*
X72623092Y1693974D01*
X72295331Y1558211D01*
X71947384Y1489000D01*
X71592616Y1489000D01*
X71244669Y1558211D01*
X70916908Y1693974D01*
X70621930Y1891072D01*
X70371072Y2141930D01*
X70173974Y2436908D01*
X70038211Y2764669D01*
X69969000Y3112616D01*
X69969000Y3467384D01*
X70038211Y3815331D01*
X70173974Y4143092D01*
X70371072Y4438070D01*
X70621930Y4688928D01*
X70916908Y4886026D01*
X71244669Y5021789D01*
X71592616Y5091000D01*
X71947384Y5091000D01*
X72295331Y5021789D01*
G37*
G36*
X41755331Y5021789D02*
G01*
X42083092Y4886026D01*
X42378070Y4688928D01*
X42628928Y4438070D01*
X42826026Y4143092D01*
X42961789Y3815331D01*
X43031000Y3467384D01*
X43031000Y3112616D01*
X42961789Y2764669D01*
X42826026Y2436908D01*
X42628928Y2141930D01*
X42378070Y1891072D01*
X42083092Y1693974D01*
X41755331Y1558211D01*
X41407384Y1489000D01*
X41052616Y1489000D01*
X40704669Y1558211D01*
X40376908Y1693974D01*
X40081930Y1891072D01*
X39831072Y2141930D01*
X39633974Y2436908D01*
X39498211Y2764669D01*
X39429000Y3112616D01*
X39429000Y3467384D01*
X39498211Y3815331D01*
X39633974Y4143092D01*
X39831072Y4438070D01*
X40081930Y4688928D01*
X40376908Y4886026D01*
X40704669Y5021789D01*
X41052616Y5091000D01*
X41407384Y5091000D01*
X41755331Y5021789D01*
G37*
G36*
X26966242Y4146596D02*
G01*
X27003337Y4135343D01*
X27037515Y4117075D01*
X27067481Y4092481D01*
X27092075Y4062515D01*
X27110343Y4028337D01*
X27121596Y3991242D01*
X27126000Y3946526D01*
X27126000Y3053474D01*
X27121596Y3008758D01*
X27110343Y2971663D01*
X27092075Y2937485D01*
X27067481Y2907519D01*
X27037515Y2882925D01*
X27003337Y2864657D01*
X26966242Y2853404D01*
X26921526Y2849000D01*
X25478474Y2849000D01*
X25433758Y2853404D01*
X25396663Y2864657D01*
X25362485Y2882925D01*
X25332519Y2907519D01*
X25307925Y2937485D01*
X25289657Y2971663D01*
X25278404Y3008758D01*
X25274000Y3053474D01*
X25274000Y3946526D01*
X25278404Y3991242D01*
X25289657Y4028337D01*
X25307925Y4062515D01*
X25332519Y4092481D01*
X25362485Y4117075D01*
X25396663Y4135343D01*
X25433758Y4146596D01*
X25478474Y4151000D01*
X26921526Y4151000D01*
X26966242Y4146596D01*
G37*
G36*
X16066242Y4146596D02*
G01*
X16103337Y4135343D01*
X16137515Y4117075D01*
X16167481Y4092481D01*
X16192075Y4062515D01*
X16210343Y4028337D01*
X16221596Y3991242D01*
X16226000Y3946526D01*
X16226000Y3053474D01*
X16221596Y3008758D01*
X16210343Y2971663D01*
X16192075Y2937485D01*
X16167481Y2907519D01*
X16137515Y2882925D01*
X16103337Y2864657D01*
X16066242Y2853404D01*
X16021526Y2849000D01*
X14578474Y2849000D01*
X14533758Y2853404D01*
X14496663Y2864657D01*
X14462485Y2882925D01*
X14432519Y2907519D01*
X14407925Y2937485D01*
X14389657Y2971663D01*
X14378404Y3008758D01*
X14374000Y3053474D01*
X14374000Y3946526D01*
X14378404Y3991242D01*
X14389657Y4028337D01*
X14407925Y4062515D01*
X14432519Y4092481D01*
X14462485Y4117075D01*
X14496663Y4135343D01*
X14533758Y4146596D01*
X14578474Y4151000D01*
X16021526Y4151000D01*
X16066242Y4146596D01*
G37*
G36*
X26538855Y6147860D02*
G01*
X26602618Y6141580D01*
X26693404Y6114040D01*
X26725336Y6104354D01*
X26838425Y6043906D01*
X26937554Y5962554D01*
X27018906Y5863425D01*
X27079354Y5750336D01*
X27079355Y5750332D01*
X27116580Y5627618D01*
X27129149Y5500000D01*
X27116580Y5372382D01*
X27094668Y5300148D01*
X27079354Y5249664D01*
X27018906Y5136575D01*
X26937554Y5037446D01*
X26838425Y4956094D01*
X26725336Y4895646D01*
X26693623Y4886026D01*
X26602618Y4858420D01*
X26538855Y4852140D01*
X26506974Y4849000D01*
X25893026Y4849000D01*
X25861145Y4852140D01*
X25797382Y4858420D01*
X25706377Y4886026D01*
X25674664Y4895646D01*
X25561575Y4956094D01*
X25462446Y5037446D01*
X25381094Y5136575D01*
X25320646Y5249664D01*
X25305332Y5300148D01*
X25283420Y5372382D01*
X25270851Y5500000D01*
X25283420Y5627618D01*
X25320645Y5750332D01*
X25320646Y5750336D01*
X25381094Y5863425D01*
X25462446Y5962554D01*
X25561575Y6043906D01*
X25674664Y6104354D01*
X25706596Y6114040D01*
X25797382Y6141580D01*
X25861145Y6147860D01*
X25893026Y6151000D01*
X26506974Y6151000D01*
X26538855Y6147860D01*
G37*
G36*
X15638855Y6147860D02*
G01*
X15702618Y6141580D01*
X15793404Y6114040D01*
X15825336Y6104354D01*
X15938425Y6043906D01*
X16037554Y5962554D01*
X16118906Y5863425D01*
X16179354Y5750336D01*
X16179355Y5750332D01*
X16216580Y5627618D01*
X16229149Y5500000D01*
X16216580Y5372382D01*
X16194668Y5300148D01*
X16179354Y5249664D01*
X16118906Y5136575D01*
X16037554Y5037446D01*
X15938425Y4956094D01*
X15825336Y4895646D01*
X15793623Y4886026D01*
X15702618Y4858420D01*
X15638855Y4852140D01*
X15606974Y4849000D01*
X14993026Y4849000D01*
X14961145Y4852140D01*
X14897382Y4858420D01*
X14806377Y4886026D01*
X14774664Y4895646D01*
X14661575Y4956094D01*
X14562446Y5037446D01*
X14481094Y5136575D01*
X14420646Y5249664D01*
X14405332Y5300148D01*
X14383420Y5372382D01*
X14370851Y5500000D01*
X14383420Y5627618D01*
X14420645Y5750332D01*
X14420646Y5750336D01*
X14481094Y5863425D01*
X14562446Y5962554D01*
X14661575Y6043906D01*
X14774664Y6104354D01*
X14806596Y6114040D01*
X14897382Y6141580D01*
X14961145Y6147860D01*
X14993026Y6151000D01*
X15606974Y6151000D01*
X15638855Y6147860D01*
G37*
G36*
X46113512Y8896073D02*
G01*
X46262812Y8866376D01*
X46426784Y8798456D01*
X46574354Y8699853D01*
X46699853Y8574354D01*
X46798456Y8426784D01*
X46866376Y8262812D01*
X46888616Y8151000D01*
X46897895Y8104354D01*
X46901000Y8088741D01*
X46901000Y7911259D01*
X46866376Y7737188D01*
X46798456Y7573216D01*
X46699853Y7425646D01*
X46574354Y7300147D01*
X46426784Y7201544D01*
X46262812Y7133624D01*
X46207362Y7122595D01*
X46183922Y7115484D01*
X46162311Y7103933D01*
X46143369Y7088387D01*
X46127824Y7069445D01*
X46116273Y7047835D01*
X46109160Y7024386D01*
X46106758Y7000000D01*
X46109160Y6975613D01*
X46116273Y6952165D01*
X46127824Y6930554D01*
X46143370Y6911612D01*
X46162312Y6896067D01*
X46183922Y6884516D01*
X46207362Y6877405D01*
X46262812Y6866376D01*
X46426784Y6798456D01*
X46574354Y6699853D01*
X46699853Y6574354D01*
X46798456Y6426784D01*
X46866376Y6262812D01*
X46888616Y6151000D01*
X46897895Y6104354D01*
X46901000Y6088741D01*
X46901000Y5911259D01*
X46866376Y5737188D01*
X46798456Y5573216D01*
X46699853Y5425646D01*
X46574354Y5300147D01*
X46426784Y5201544D01*
X46262812Y5133624D01*
X46113512Y5103927D01*
X46088742Y5099000D01*
X45911258Y5099000D01*
X45886488Y5103927D01*
X45737188Y5133624D01*
X45573216Y5201544D01*
X45425646Y5300147D01*
X45300147Y5425646D01*
X45201544Y5573216D01*
X45133624Y5737188D01*
X45099000Y5911259D01*
X45099000Y6088741D01*
X45102106Y6104354D01*
X45111384Y6151000D01*
X45133624Y6262812D01*
X45201544Y6426784D01*
X45300147Y6574354D01*
X45425646Y6699853D01*
X45573216Y6798456D01*
X45737188Y6866376D01*
X45792638Y6877405D01*
X45816078Y6884516D01*
X45837689Y6896067D01*
X45856631Y6911613D01*
X45872176Y6930555D01*
X45883727Y6952165D01*
X45890840Y6975614D01*
X45893242Y7000000D01*
X45890840Y7024387D01*
X45883727Y7047835D01*
X45872176Y7069446D01*
X45856630Y7088388D01*
X45837688Y7103933D01*
X45816078Y7115484D01*
X45792638Y7122595D01*
X45737188Y7133624D01*
X45573216Y7201544D01*
X45425646Y7300147D01*
X45300147Y7425646D01*
X45201544Y7573216D01*
X45133624Y7737188D01*
X45099000Y7911259D01*
X45099000Y8088741D01*
X45102106Y8104354D01*
X45111384Y8151000D01*
X45133624Y8262812D01*
X45201544Y8426784D01*
X45300147Y8574354D01*
X45425646Y8699853D01*
X45573216Y8798456D01*
X45737188Y8866376D01*
X45886488Y8896073D01*
X45911258Y8901000D01*
X46088742Y8901000D01*
X46113512Y8896073D01*
G37*
G36*
X64613512Y8896073D02*
G01*
X64762812Y8866376D01*
X64926784Y8798456D01*
X65074354Y8699853D01*
X65199853Y8574354D01*
X65298456Y8426784D01*
X65366376Y8262812D01*
X65388616Y8151000D01*
X65397895Y8104354D01*
X65401000Y8088741D01*
X65401000Y7911259D01*
X65366376Y7737188D01*
X65298456Y7573216D01*
X65199853Y7425646D01*
X65074354Y7300147D01*
X64926784Y7201544D01*
X64762812Y7133624D01*
X64707362Y7122595D01*
X64683922Y7115484D01*
X64662311Y7103933D01*
X64643369Y7088387D01*
X64627824Y7069445D01*
X64616273Y7047835D01*
X64609160Y7024386D01*
X64606758Y7000000D01*
X64609160Y6975613D01*
X64616273Y6952165D01*
X64627824Y6930554D01*
X64643370Y6911612D01*
X64662312Y6896067D01*
X64683922Y6884516D01*
X64707362Y6877405D01*
X64762812Y6866376D01*
X64926784Y6798456D01*
X65074354Y6699853D01*
X65199853Y6574354D01*
X65298456Y6426784D01*
X65366376Y6262812D01*
X65388616Y6151000D01*
X65397895Y6104354D01*
X65401000Y6088741D01*
X65401000Y5911259D01*
X65366376Y5737188D01*
X65298456Y5573216D01*
X65199853Y5425646D01*
X65074354Y5300147D01*
X64926784Y5201544D01*
X64762812Y5133624D01*
X64613512Y5103927D01*
X64588742Y5099000D01*
X64411258Y5099000D01*
X64386488Y5103927D01*
X64237188Y5133624D01*
X64073216Y5201544D01*
X63925646Y5300147D01*
X63800147Y5425646D01*
X63701544Y5573216D01*
X63633624Y5737188D01*
X63599000Y5911259D01*
X63599000Y6088741D01*
X63602106Y6104354D01*
X63611384Y6151000D01*
X63633624Y6262812D01*
X63701544Y6426784D01*
X63800147Y6574354D01*
X63925646Y6699853D01*
X64073216Y6798456D01*
X64237188Y6866376D01*
X64292638Y6877405D01*
X64316078Y6884516D01*
X64337689Y6896067D01*
X64356631Y6911613D01*
X64372176Y6930555D01*
X64383727Y6952165D01*
X64390840Y6975614D01*
X64393242Y7000000D01*
X64390840Y7024387D01*
X64383727Y7047835D01*
X64372176Y7069446D01*
X64356630Y7088388D01*
X64337688Y7103933D01*
X64316078Y7115484D01*
X64292638Y7122595D01*
X64237188Y7133624D01*
X64073216Y7201544D01*
X63925646Y7300147D01*
X63800147Y7425646D01*
X63701544Y7573216D01*
X63633624Y7737188D01*
X63599000Y7911259D01*
X63599000Y8088741D01*
X63602106Y8104354D01*
X63611384Y8151000D01*
X63633624Y8262812D01*
X63701544Y8426784D01*
X63800147Y8574354D01*
X63925646Y8699853D01*
X64073216Y8798456D01*
X64237188Y8866376D01*
X64386488Y8896073D01*
X64411258Y8901000D01*
X64588742Y8901000D01*
X64613512Y8896073D01*
G37*
G36*
X67901000Y7099000D02*
G01*
X67329617Y7099000D01*
X67305231Y7096598D01*
X67281782Y7089485D01*
X67260171Y7077934D01*
X67241229Y7062389D01*
X67225684Y7043447D01*
X67214133Y7021836D01*
X67207020Y6998387D01*
X67204618Y6974001D01*
X67207020Y6949615D01*
X67214133Y6926166D01*
X67225684Y6904555D01*
X67241229Y6885613D01*
X67260171Y6870068D01*
X67281771Y6858523D01*
X67426784Y6798456D01*
X67574354Y6699853D01*
X67699853Y6574354D01*
X67798456Y6426784D01*
X67866376Y6262812D01*
X67888616Y6151000D01*
X67897895Y6104354D01*
X67901000Y6088741D01*
X67901000Y5911259D01*
X67866376Y5737188D01*
X67798456Y5573216D01*
X67699853Y5425646D01*
X67574354Y5300147D01*
X67426784Y5201544D01*
X67262812Y5133624D01*
X67113512Y5103927D01*
X67088742Y5099000D01*
X66911258Y5099000D01*
X66886488Y5103927D01*
X66737188Y5133624D01*
X66573216Y5201544D01*
X66425646Y5300147D01*
X66300147Y5425646D01*
X66201544Y5573216D01*
X66133624Y5737188D01*
X66099000Y5911259D01*
X66099000Y6088741D01*
X66102106Y6104354D01*
X66111384Y6151000D01*
X66133624Y6262812D01*
X66201544Y6426784D01*
X66300147Y6574354D01*
X66425646Y6699853D01*
X66573216Y6798456D01*
X66718229Y6858523D01*
X66739829Y6870068D01*
X66758771Y6885613D01*
X66774316Y6904555D01*
X66785867Y6926166D01*
X66792980Y6949615D01*
X66795382Y6974001D01*
X66792980Y6998387D01*
X66785867Y7021836D01*
X66774316Y7043447D01*
X66758771Y7062389D01*
X66739829Y7077934D01*
X66718218Y7089485D01*
X66694769Y7096598D01*
X66670383Y7099000D01*
X66099000Y7099000D01*
X66099000Y8901000D01*
X67901000Y8901000D01*
X67901000Y7099000D01*
G37*
G36*
X49401000Y7099000D02*
G01*
X48829617Y7099000D01*
X48805231Y7096598D01*
X48781782Y7089485D01*
X48760171Y7077934D01*
X48741229Y7062389D01*
X48725684Y7043447D01*
X48714133Y7021836D01*
X48707020Y6998387D01*
X48704618Y6974001D01*
X48707020Y6949615D01*
X48714133Y6926166D01*
X48725684Y6904555D01*
X48741229Y6885613D01*
X48760171Y6870068D01*
X48781771Y6858523D01*
X48926784Y6798456D01*
X49074354Y6699853D01*
X49199853Y6574354D01*
X49298456Y6426784D01*
X49366376Y6262812D01*
X49388616Y6151000D01*
X49397895Y6104354D01*
X49401000Y6088741D01*
X49401000Y5911259D01*
X49366376Y5737188D01*
X49298456Y5573216D01*
X49199853Y5425646D01*
X49074354Y5300147D01*
X48926784Y5201544D01*
X48762812Y5133624D01*
X48613512Y5103927D01*
X48588742Y5099000D01*
X48411258Y5099000D01*
X48386488Y5103927D01*
X48237188Y5133624D01*
X48073216Y5201544D01*
X47925646Y5300147D01*
X47800147Y5425646D01*
X47701544Y5573216D01*
X47633624Y5737188D01*
X47599000Y5911259D01*
X47599000Y6088741D01*
X47602106Y6104354D01*
X47611384Y6151000D01*
X47633624Y6262812D01*
X47701544Y6426784D01*
X47800147Y6574354D01*
X47925646Y6699853D01*
X48073216Y6798456D01*
X48218229Y6858523D01*
X48239829Y6870068D01*
X48258771Y6885613D01*
X48274316Y6904555D01*
X48285867Y6926166D01*
X48292980Y6949615D01*
X48295382Y6974001D01*
X48292980Y6998387D01*
X48285867Y7021836D01*
X48274316Y7043447D01*
X48258771Y7062389D01*
X48239829Y7077934D01*
X48218218Y7089485D01*
X48194769Y7096598D01*
X48170383Y7099000D01*
X47599000Y7099000D01*
X47599000Y8901000D01*
X49401000Y8901000D01*
X49401000Y7099000D01*
G37*
G36*
X15638855Y8147860D02*
G01*
X15702618Y8141580D01*
X15793404Y8114040D01*
X15825336Y8104354D01*
X15938425Y8043906D01*
X16037554Y7962554D01*
X16118906Y7863425D01*
X16179354Y7750336D01*
X16179355Y7750332D01*
X16216580Y7627618D01*
X16229149Y7500000D01*
X16216580Y7372382D01*
X16194668Y7300148D01*
X16179354Y7249664D01*
X16118906Y7136575D01*
X16037554Y7037446D01*
X15938425Y6956094D01*
X15825336Y6895646D01*
X15793404Y6885960D01*
X15702618Y6858420D01*
X15638855Y6852140D01*
X15606974Y6849000D01*
X14993026Y6849000D01*
X14961145Y6852140D01*
X14897382Y6858420D01*
X14806596Y6885960D01*
X14774664Y6895646D01*
X14661575Y6956094D01*
X14562446Y7037446D01*
X14481094Y7136575D01*
X14420646Y7249664D01*
X14405332Y7300148D01*
X14383420Y7372382D01*
X14370851Y7500000D01*
X14383420Y7627618D01*
X14420645Y7750332D01*
X14420646Y7750336D01*
X14481094Y7863425D01*
X14562446Y7962554D01*
X14661575Y8043906D01*
X14774664Y8104354D01*
X14806596Y8114040D01*
X14897382Y8141580D01*
X14961145Y8147860D01*
X14993026Y8151000D01*
X15606974Y8151000D01*
X15638855Y8147860D01*
G37*
G36*
X26538855Y8147860D02*
G01*
X26602618Y8141580D01*
X26693404Y8114040D01*
X26725336Y8104354D01*
X26838425Y8043906D01*
X26937554Y7962554D01*
X27018906Y7863425D01*
X27079354Y7750336D01*
X27079355Y7750332D01*
X27116580Y7627618D01*
X27129149Y7500000D01*
X27116580Y7372382D01*
X27094668Y7300148D01*
X27079354Y7249664D01*
X27018906Y7136575D01*
X26937554Y7037446D01*
X26838425Y6956094D01*
X26725336Y6895646D01*
X26693404Y6885960D01*
X26602618Y6858420D01*
X26538855Y6852140D01*
X26506974Y6849000D01*
X25893026Y6849000D01*
X25861145Y6852140D01*
X25797382Y6858420D01*
X25706596Y6885960D01*
X25674664Y6895646D01*
X25561575Y6956094D01*
X25462446Y7037446D01*
X25381094Y7136575D01*
X25320646Y7249664D01*
X25305332Y7300148D01*
X25283420Y7372382D01*
X25270851Y7500000D01*
X25283420Y7627618D01*
X25320645Y7750332D01*
X25320646Y7750336D01*
X25381094Y7863425D01*
X25462446Y7962554D01*
X25561575Y8043906D01*
X25674664Y8104354D01*
X25706596Y8114040D01*
X25797382Y8141580D01*
X25861145Y8147860D01*
X25893026Y8151000D01*
X26506974Y8151000D01*
X26538855Y8147860D01*
G37*
G36*
X26538855Y10147860D02*
G01*
X26602618Y10141580D01*
X26693404Y10114040D01*
X26725336Y10104354D01*
X26838425Y10043906D01*
X26937554Y9962554D01*
X27018906Y9863425D01*
X27079354Y9750336D01*
X27079355Y9750332D01*
X27116580Y9627618D01*
X27129149Y9500000D01*
X27116580Y9372382D01*
X27089040Y9281596D01*
X27079354Y9249664D01*
X27018906Y9136575D01*
X26937554Y9037446D01*
X26838425Y8956094D01*
X26725336Y8895646D01*
X26693404Y8885960D01*
X26602618Y8858420D01*
X26538855Y8852140D01*
X26506974Y8849000D01*
X25893026Y8849000D01*
X25861145Y8852140D01*
X25797382Y8858420D01*
X25706596Y8885960D01*
X25674664Y8895646D01*
X25561575Y8956094D01*
X25462446Y9037446D01*
X25381094Y9136575D01*
X25320646Y9249664D01*
X25310960Y9281596D01*
X25283420Y9372382D01*
X25270851Y9500000D01*
X25283420Y9627618D01*
X25320645Y9750332D01*
X25320646Y9750336D01*
X25381094Y9863425D01*
X25462446Y9962554D01*
X25561575Y10043906D01*
X25674664Y10104354D01*
X25706596Y10114040D01*
X25797382Y10141580D01*
X25861145Y10147860D01*
X25893026Y10151000D01*
X26506974Y10151000D01*
X26538855Y10147860D01*
G37*
G36*
X6653512Y14176073D02*
G01*
X6802812Y14146376D01*
X6966784Y14078456D01*
X7114354Y13979853D01*
X7239853Y13854354D01*
X7338456Y13706784D01*
X7406376Y13542812D01*
X7441000Y13368741D01*
X7441000Y13191259D01*
X7406376Y13017188D01*
X7338456Y12853216D01*
X7239853Y12705646D01*
X7114354Y12580147D01*
X6966784Y12481544D01*
X6802812Y12413624D01*
X6653512Y12383927D01*
X6628742Y12379000D01*
X6451258Y12379000D01*
X6426488Y12383927D01*
X6277188Y12413624D01*
X6113216Y12481544D01*
X5965646Y12580147D01*
X5840147Y12705646D01*
X5741544Y12853216D01*
X5673624Y13017188D01*
X5639000Y13191259D01*
X5639000Y13368741D01*
X5673624Y13542812D01*
X5741544Y13706784D01*
X5840147Y13854354D01*
X5965646Y13979853D01*
X6113216Y14078456D01*
X6277188Y14146376D01*
X6426488Y14176073D01*
X6451258Y14181000D01*
X6628742Y14181000D01*
X6653512Y14176073D01*
G37*
G36*
X4113512Y14176073D02*
G01*
X4262812Y14146376D01*
X4426784Y14078456D01*
X4574354Y13979853D01*
X4699853Y13854354D01*
X4798456Y13706784D01*
X4866376Y13542812D01*
X4901000Y13368741D01*
X4901000Y13191259D01*
X4866376Y13017188D01*
X4798456Y12853216D01*
X4699853Y12705646D01*
X4574354Y12580147D01*
X4426784Y12481544D01*
X4262812Y12413624D01*
X4113512Y12383927D01*
X4088742Y12379000D01*
X3911258Y12379000D01*
X3886488Y12383927D01*
X3737188Y12413624D01*
X3573216Y12481544D01*
X3425646Y12580147D01*
X3300147Y12705646D01*
X3201544Y12853216D01*
X3133624Y13017188D01*
X3099000Y13191259D01*
X3099000Y13368741D01*
X3133624Y13542812D01*
X3201544Y13706784D01*
X3300147Y13854354D01*
X3425646Y13979853D01*
X3573216Y14078456D01*
X3737188Y14146376D01*
X3886488Y14176073D01*
X3911258Y14181000D01*
X4088742Y14181000D01*
X4113512Y14176073D01*
G37*
G36*
X4113512Y16716073D02*
G01*
X4262812Y16686376D01*
X4426784Y16618456D01*
X4574354Y16519853D01*
X4699853Y16394354D01*
X4798456Y16246784D01*
X4866376Y16082812D01*
X4901000Y15908741D01*
X4901000Y15731259D01*
X4866376Y15557188D01*
X4798456Y15393216D01*
X4699853Y15245646D01*
X4574354Y15120147D01*
X4426784Y15021544D01*
X4262812Y14953624D01*
X4113512Y14923927D01*
X4088742Y14919000D01*
X3911258Y14919000D01*
X3886488Y14923927D01*
X3737188Y14953624D01*
X3573216Y15021544D01*
X3425646Y15120147D01*
X3300147Y15245646D01*
X3201544Y15393216D01*
X3133624Y15557188D01*
X3099000Y15731259D01*
X3099000Y15908741D01*
X3133624Y16082812D01*
X3201544Y16246784D01*
X3300147Y16394354D01*
X3425646Y16519853D01*
X3573216Y16618456D01*
X3737188Y16686376D01*
X3886488Y16716073D01*
X3911258Y16721000D01*
X4088742Y16721000D01*
X4113512Y16716073D01*
G37*
G36*
X6653512Y16716073D02*
G01*
X6802812Y16686376D01*
X6966784Y16618456D01*
X7114354Y16519853D01*
X7239853Y16394354D01*
X7338456Y16246784D01*
X7406376Y16082812D01*
X7441000Y15908741D01*
X7441000Y15731259D01*
X7406376Y15557188D01*
X7338456Y15393216D01*
X7239853Y15245646D01*
X7114354Y15120147D01*
X6966784Y15021544D01*
X6802812Y14953624D01*
X6653512Y14923927D01*
X6628742Y14919000D01*
X6451258Y14919000D01*
X6426488Y14923927D01*
X6277188Y14953624D01*
X6113216Y15021544D01*
X5965646Y15120147D01*
X5840147Y15245646D01*
X5741544Y15393216D01*
X5673624Y15557188D01*
X5639000Y15731259D01*
X5639000Y15908741D01*
X5673624Y16082812D01*
X5741544Y16246784D01*
X5840147Y16394354D01*
X5965646Y16519853D01*
X6113216Y16618456D01*
X6277188Y16686376D01*
X6426488Y16716073D01*
X6451258Y16721000D01*
X6628742Y16721000D01*
X6653512Y16716073D01*
G37*
G36*
X16066242Y18046596D02*
G01*
X16103337Y18035343D01*
X16137515Y18017075D01*
X16167481Y17992481D01*
X16192075Y17962515D01*
X16210343Y17928337D01*
X16221596Y17891242D01*
X16226000Y17846526D01*
X16226000Y16953474D01*
X16221596Y16908758D01*
X16210343Y16871663D01*
X16192075Y16837485D01*
X16167481Y16807519D01*
X16137515Y16782925D01*
X16103337Y16764657D01*
X16066242Y16753404D01*
X16021526Y16749000D01*
X14578474Y16749000D01*
X14533758Y16753404D01*
X14496663Y16764657D01*
X14462485Y16782925D01*
X14432519Y16807519D01*
X14407925Y16837485D01*
X14389657Y16871663D01*
X14378404Y16908758D01*
X14374000Y16953474D01*
X14374000Y17846526D01*
X14378404Y17891242D01*
X14389657Y17928337D01*
X14407925Y17962515D01*
X14432519Y17992481D01*
X14462485Y18017075D01*
X14496663Y18035343D01*
X14533758Y18046596D01*
X14578474Y18051000D01*
X16021526Y18051000D01*
X16066242Y18046596D01*
G37*
G36*
X26966242Y18046596D02*
G01*
X27003337Y18035343D01*
X27037515Y18017075D01*
X27067481Y17992481D01*
X27092075Y17962515D01*
X27110343Y17928337D01*
X27121596Y17891242D01*
X27126000Y17846526D01*
X27126000Y16953474D01*
X27121596Y16908758D01*
X27110343Y16871663D01*
X27092075Y16837485D01*
X27067481Y16807519D01*
X27037515Y16782925D01*
X27003337Y16764657D01*
X26966242Y16753404D01*
X26921526Y16749000D01*
X25478474Y16749000D01*
X25433758Y16753404D01*
X25396663Y16764657D01*
X25362485Y16782925D01*
X25332519Y16807519D01*
X25307925Y16837485D01*
X25289657Y16871663D01*
X25278404Y16908758D01*
X25274000Y16953474D01*
X25274000Y17846526D01*
X25278404Y17891242D01*
X25289657Y17928337D01*
X25307925Y17962515D01*
X25332519Y17992481D01*
X25362485Y18017075D01*
X25396663Y18035343D01*
X25433758Y18046596D01*
X25478474Y18051000D01*
X26921526Y18051000D01*
X26966242Y18046596D01*
G37*
G36*
X4113512Y19256073D02*
G01*
X4262812Y19226376D01*
X4426784Y19158456D01*
X4574354Y19059853D01*
X4699853Y18934354D01*
X4798456Y18786784D01*
X4866376Y18622812D01*
X4901000Y18448741D01*
X4901000Y18271259D01*
X4866376Y18097188D01*
X4798456Y17933216D01*
X4699853Y17785646D01*
X4574354Y17660147D01*
X4426784Y17561544D01*
X4262812Y17493624D01*
X4113512Y17463927D01*
X4088742Y17459000D01*
X3911258Y17459000D01*
X3886488Y17463927D01*
X3737188Y17493624D01*
X3573216Y17561544D01*
X3425646Y17660147D01*
X3300147Y17785646D01*
X3201544Y17933216D01*
X3133624Y18097188D01*
X3099000Y18271259D01*
X3099000Y18448741D01*
X3133624Y18622812D01*
X3201544Y18786784D01*
X3300147Y18934354D01*
X3425646Y19059853D01*
X3573216Y19158456D01*
X3737188Y19226376D01*
X3886488Y19256073D01*
X3911258Y19261000D01*
X4088742Y19261000D01*
X4113512Y19256073D01*
G37*
G36*
X6653512Y19256073D02*
G01*
X6802812Y19226376D01*
X6966784Y19158456D01*
X7114354Y19059853D01*
X7239853Y18934354D01*
X7338456Y18786784D01*
X7406376Y18622812D01*
X7441000Y18448741D01*
X7441000Y18271259D01*
X7406376Y18097188D01*
X7338456Y17933216D01*
X7239853Y17785646D01*
X7114354Y17660147D01*
X6966784Y17561544D01*
X6802812Y17493624D01*
X6653512Y17463927D01*
X6628742Y17459000D01*
X6451258Y17459000D01*
X6426488Y17463927D01*
X6277188Y17493624D01*
X6113216Y17561544D01*
X5965646Y17660147D01*
X5840147Y17785646D01*
X5741544Y17933216D01*
X5673624Y18097188D01*
X5639000Y18271259D01*
X5639000Y18448741D01*
X5673624Y18622812D01*
X5741544Y18786784D01*
X5840147Y18934354D01*
X5965646Y19059853D01*
X6113216Y19158456D01*
X6277188Y19226376D01*
X6426488Y19256073D01*
X6451258Y19261000D01*
X6628742Y19261000D01*
X6653512Y19256073D01*
G37*
G36*
X26538855Y20047860D02*
G01*
X26602618Y20041580D01*
X26693404Y20014040D01*
X26725336Y20004354D01*
X26838425Y19943906D01*
X26937554Y19862554D01*
X27018906Y19763425D01*
X27079354Y19650336D01*
X27079355Y19650332D01*
X27116580Y19527618D01*
X27129149Y19400000D01*
X27116580Y19272382D01*
X27113127Y19261000D01*
X27079354Y19149664D01*
X27018906Y19036575D01*
X26937554Y18937446D01*
X26838425Y18856094D01*
X26725336Y18795646D01*
X26696121Y18786784D01*
X26602618Y18758420D01*
X26538855Y18752140D01*
X26506974Y18749000D01*
X25893026Y18749000D01*
X25861145Y18752140D01*
X25797382Y18758420D01*
X25703879Y18786784D01*
X25674664Y18795646D01*
X25561575Y18856094D01*
X25462446Y18937446D01*
X25381094Y19036575D01*
X25320646Y19149664D01*
X25286873Y19261000D01*
X25283420Y19272382D01*
X25270851Y19400000D01*
X25283420Y19527618D01*
X25320645Y19650332D01*
X25320646Y19650336D01*
X25381094Y19763425D01*
X25462446Y19862554D01*
X25561575Y19943906D01*
X25674664Y20004354D01*
X25706596Y20014040D01*
X25797382Y20041580D01*
X25861145Y20047860D01*
X25893026Y20051000D01*
X26506974Y20051000D01*
X26538855Y20047860D01*
G37*
G36*
X15638855Y20047860D02*
G01*
X15702618Y20041580D01*
X15793404Y20014040D01*
X15825336Y20004354D01*
X15938425Y19943906D01*
X16037554Y19862554D01*
X16118906Y19763425D01*
X16179354Y19650336D01*
X16179355Y19650332D01*
X16216580Y19527618D01*
X16229149Y19400000D01*
X16216580Y19272382D01*
X16213127Y19261000D01*
X16179354Y19149664D01*
X16118906Y19036575D01*
X16037554Y18937446D01*
X15938425Y18856094D01*
X15825336Y18795646D01*
X15796121Y18786784D01*
X15702618Y18758420D01*
X15638855Y18752140D01*
X15606974Y18749000D01*
X14993026Y18749000D01*
X14961145Y18752140D01*
X14897382Y18758420D01*
X14803879Y18786784D01*
X14774664Y18795646D01*
X14661575Y18856094D01*
X14562446Y18937446D01*
X14481094Y19036575D01*
X14420646Y19149664D01*
X14386873Y19261000D01*
X14383420Y19272382D01*
X14370851Y19400000D01*
X14383420Y19527618D01*
X14420645Y19650332D01*
X14420646Y19650336D01*
X14481094Y19763425D01*
X14562446Y19862554D01*
X14661575Y19943906D01*
X14774664Y20004354D01*
X14806596Y20014040D01*
X14897382Y20041580D01*
X14961145Y20047860D01*
X14993026Y20051000D01*
X15606974Y20051000D01*
X15638855Y20047860D01*
G37*
G36*
X6653512Y21796073D02*
G01*
X6802812Y21766376D01*
X6966784Y21698456D01*
X7114354Y21599853D01*
X7239853Y21474354D01*
X7338456Y21326784D01*
X7406376Y21162812D01*
X7436073Y21013512D01*
X7441000Y20988742D01*
X7441000Y20811258D01*
X7437894Y20795645D01*
X7406376Y20637188D01*
X7338456Y20473216D01*
X7239853Y20325646D01*
X7114354Y20200147D01*
X6966784Y20101544D01*
X6802812Y20033624D01*
X6655663Y20004355D01*
X6628742Y19999000D01*
X6451258Y19999000D01*
X6424337Y20004355D01*
X6277188Y20033624D01*
X6113216Y20101544D01*
X5965646Y20200147D01*
X5840147Y20325646D01*
X5741544Y20473216D01*
X5673624Y20637188D01*
X5642106Y20795645D01*
X5639000Y20811258D01*
X5639000Y20988742D01*
X5643927Y21013512D01*
X5673624Y21162812D01*
X5741544Y21326784D01*
X5840147Y21474354D01*
X5965646Y21599853D01*
X6113216Y21698456D01*
X6277188Y21766376D01*
X6426488Y21796073D01*
X6451258Y21801000D01*
X6628742Y21801000D01*
X6653512Y21796073D01*
G37*
G36*
X4113512Y21796073D02*
G01*
X4262812Y21766376D01*
X4426784Y21698456D01*
X4574354Y21599853D01*
X4699853Y21474354D01*
X4798456Y21326784D01*
X4866376Y21162812D01*
X4896073Y21013512D01*
X4901000Y20988742D01*
X4901000Y20811258D01*
X4897894Y20795645D01*
X4866376Y20637188D01*
X4798456Y20473216D01*
X4699853Y20325646D01*
X4574354Y20200147D01*
X4426784Y20101544D01*
X4262812Y20033624D01*
X4115663Y20004355D01*
X4088742Y19999000D01*
X3911258Y19999000D01*
X3884337Y20004355D01*
X3737188Y20033624D01*
X3573216Y20101544D01*
X3425646Y20200147D01*
X3300147Y20325646D01*
X3201544Y20473216D01*
X3133624Y20637188D01*
X3102106Y20795645D01*
X3099000Y20811258D01*
X3099000Y20988742D01*
X3103927Y21013512D01*
X3133624Y21162812D01*
X3201544Y21326784D01*
X3300147Y21474354D01*
X3425646Y21599853D01*
X3573216Y21698456D01*
X3737188Y21766376D01*
X3886488Y21796073D01*
X3911258Y21801000D01*
X4088742Y21801000D01*
X4113512Y21796073D01*
G37*
G36*
X15638855Y22047860D02*
G01*
X15702618Y22041580D01*
X15793404Y22014040D01*
X15825336Y22004354D01*
X15938425Y21943906D01*
X16037554Y21862554D01*
X16118906Y21763425D01*
X16179354Y21650336D01*
X16179355Y21650332D01*
X16216580Y21527618D01*
X16229149Y21400000D01*
X16216580Y21272382D01*
X16189040Y21181596D01*
X16179354Y21149664D01*
X16118906Y21036575D01*
X16037554Y20937446D01*
X15938425Y20856094D01*
X15825336Y20795646D01*
X15793404Y20785960D01*
X15702618Y20758420D01*
X15638855Y20752140D01*
X15606974Y20749000D01*
X14993026Y20749000D01*
X14961145Y20752140D01*
X14897382Y20758420D01*
X14806596Y20785960D01*
X14774664Y20795646D01*
X14661575Y20856094D01*
X14562446Y20937446D01*
X14481094Y21036575D01*
X14420646Y21149664D01*
X14410960Y21181596D01*
X14383420Y21272382D01*
X14370851Y21400000D01*
X14383420Y21527618D01*
X14420645Y21650332D01*
X14420646Y21650336D01*
X14481094Y21763425D01*
X14562446Y21862554D01*
X14661575Y21943906D01*
X14774664Y22004354D01*
X14806596Y22014040D01*
X14897382Y22041580D01*
X14961145Y22047860D01*
X14993026Y22051000D01*
X15606974Y22051000D01*
X15638855Y22047860D01*
G37*
G36*
X26538855Y22047860D02*
G01*
X26602618Y22041580D01*
X26693404Y22014040D01*
X26725336Y22004354D01*
X26838425Y21943906D01*
X26937554Y21862554D01*
X27018906Y21763425D01*
X27079354Y21650336D01*
X27079355Y21650332D01*
X27116580Y21527618D01*
X27129149Y21400000D01*
X27116580Y21272382D01*
X27089040Y21181596D01*
X27079354Y21149664D01*
X27018906Y21036575D01*
X26937554Y20937446D01*
X26838425Y20856094D01*
X26725336Y20795646D01*
X26693404Y20785960D01*
X26602618Y20758420D01*
X26538855Y20752140D01*
X26506974Y20749000D01*
X25893026Y20749000D01*
X25861145Y20752140D01*
X25797382Y20758420D01*
X25706596Y20785960D01*
X25674664Y20795646D01*
X25561575Y20856094D01*
X25462446Y20937446D01*
X25381094Y21036575D01*
X25320646Y21149664D01*
X25310960Y21181596D01*
X25283420Y21272382D01*
X25270851Y21400000D01*
X25283420Y21527618D01*
X25320645Y21650332D01*
X25320646Y21650336D01*
X25381094Y21763425D01*
X25462446Y21862554D01*
X25561575Y21943906D01*
X25674664Y22004354D01*
X25706596Y22014040D01*
X25797382Y22041580D01*
X25861145Y22047860D01*
X25893026Y22051000D01*
X26506974Y22051000D01*
X26538855Y22047860D01*
G37*
G36*
X4113512Y24336073D02*
G01*
X4262812Y24306376D01*
X4426784Y24238456D01*
X4574354Y24139853D01*
X4699853Y24014354D01*
X4798456Y23866784D01*
X4866376Y23702812D01*
X4901000Y23528741D01*
X4901000Y23351259D01*
X4866376Y23177188D01*
X4798456Y23013216D01*
X4699853Y22865646D01*
X4574354Y22740147D01*
X4426784Y22641544D01*
X4262812Y22573624D01*
X4113512Y22543927D01*
X4088742Y22539000D01*
X3911258Y22539000D01*
X3886488Y22543927D01*
X3737188Y22573624D01*
X3573216Y22641544D01*
X3425646Y22740147D01*
X3300147Y22865646D01*
X3201544Y23013216D01*
X3133624Y23177188D01*
X3099000Y23351259D01*
X3099000Y23528741D01*
X3133624Y23702812D01*
X3201544Y23866784D01*
X3300147Y24014354D01*
X3425646Y24139853D01*
X3573216Y24238456D01*
X3737188Y24306376D01*
X3886488Y24336073D01*
X3911258Y24341000D01*
X4088742Y24341000D01*
X4113512Y24336073D01*
G37*
G36*
X6653512Y24336073D02*
G01*
X6802812Y24306376D01*
X6966784Y24238456D01*
X7114354Y24139853D01*
X7239853Y24014354D01*
X7338456Y23866784D01*
X7406376Y23702812D01*
X7441000Y23528741D01*
X7441000Y23351259D01*
X7406376Y23177188D01*
X7338456Y23013216D01*
X7239853Y22865646D01*
X7114354Y22740147D01*
X6966784Y22641544D01*
X6802812Y22573624D01*
X6653512Y22543927D01*
X6628742Y22539000D01*
X6451258Y22539000D01*
X6426488Y22543927D01*
X6277188Y22573624D01*
X6113216Y22641544D01*
X5965646Y22740147D01*
X5840147Y22865646D01*
X5741544Y23013216D01*
X5673624Y23177188D01*
X5639000Y23351259D01*
X5639000Y23528741D01*
X5673624Y23702812D01*
X5741544Y23866784D01*
X5840147Y24014354D01*
X5965646Y24139853D01*
X6113216Y24238456D01*
X6277188Y24306376D01*
X6426488Y24336073D01*
X6451258Y24341000D01*
X6628742Y24341000D01*
X6653512Y24336073D01*
G37*
G36*
X26538855Y24047860D02*
G01*
X26602618Y24041580D01*
X26692370Y24014354D01*
X26725336Y24004354D01*
X26838425Y23943906D01*
X26937554Y23862554D01*
X27018906Y23763425D01*
X27079354Y23650336D01*
X27079355Y23650332D01*
X27116580Y23527618D01*
X27129149Y23400000D01*
X27116580Y23272382D01*
X27089040Y23181596D01*
X27079354Y23149664D01*
X27018906Y23036575D01*
X26937554Y22937446D01*
X26838425Y22856094D01*
X26725336Y22795646D01*
X26693404Y22785960D01*
X26602618Y22758420D01*
X26538855Y22752140D01*
X26506974Y22749000D01*
X25893026Y22749000D01*
X25861145Y22752140D01*
X25797382Y22758420D01*
X25706596Y22785960D01*
X25674664Y22795646D01*
X25561575Y22856094D01*
X25462446Y22937446D01*
X25381094Y23036575D01*
X25320646Y23149664D01*
X25310960Y23181596D01*
X25283420Y23272382D01*
X25270851Y23400000D01*
X25283420Y23527618D01*
X25320645Y23650332D01*
X25320646Y23650336D01*
X25381094Y23763425D01*
X25462446Y23862554D01*
X25561575Y23943906D01*
X25674664Y24004354D01*
X25707630Y24014354D01*
X25797382Y24041580D01*
X25861145Y24047860D01*
X25893026Y24051000D01*
X26506974Y24051000D01*
X26538855Y24047860D01*
G37*
G36*
X6653512Y26876073D02*
G01*
X6802812Y26846376D01*
X6966784Y26778456D01*
X7114354Y26679853D01*
X7239853Y26554354D01*
X7338456Y26406784D01*
X7406376Y26242812D01*
X7441000Y26068741D01*
X7441000Y25891259D01*
X7406376Y25717188D01*
X7338456Y25553216D01*
X7239853Y25405646D01*
X7114354Y25280147D01*
X6966784Y25181544D01*
X6802812Y25113624D01*
X6653512Y25083927D01*
X6628742Y25079000D01*
X6451258Y25079000D01*
X6426488Y25083927D01*
X6277188Y25113624D01*
X6113216Y25181544D01*
X5965646Y25280147D01*
X5840147Y25405646D01*
X5741544Y25553216D01*
X5673624Y25717188D01*
X5639000Y25891259D01*
X5639000Y26068741D01*
X5673624Y26242812D01*
X5741544Y26406784D01*
X5840147Y26554354D01*
X5965646Y26679853D01*
X6113216Y26778456D01*
X6277188Y26846376D01*
X6426488Y26876073D01*
X6451258Y26881000D01*
X6628742Y26881000D01*
X6653512Y26876073D01*
G37*
G36*
X4113512Y26876073D02*
G01*
X4262812Y26846376D01*
X4426784Y26778456D01*
X4574354Y26679853D01*
X4699853Y26554354D01*
X4798456Y26406784D01*
X4866376Y26242812D01*
X4901000Y26068741D01*
X4901000Y25891259D01*
X4866376Y25717188D01*
X4798456Y25553216D01*
X4699853Y25405646D01*
X4574354Y25280147D01*
X4426784Y25181544D01*
X4262812Y25113624D01*
X4113512Y25083927D01*
X4088742Y25079000D01*
X3911258Y25079000D01*
X3886488Y25083927D01*
X3737188Y25113624D01*
X3573216Y25181544D01*
X3425646Y25280147D01*
X3300147Y25405646D01*
X3201544Y25553216D01*
X3133624Y25717188D01*
X3099000Y25891259D01*
X3099000Y26068741D01*
X3133624Y26242812D01*
X3201544Y26406784D01*
X3300147Y26554354D01*
X3425646Y26679853D01*
X3573216Y26778456D01*
X3737188Y26846376D01*
X3886488Y26876073D01*
X3911258Y26881000D01*
X4088742Y26881000D01*
X4113512Y26876073D01*
G37*
G36*
X4111631Y29416447D02*
G01*
X4262812Y29386376D01*
X4426784Y29318456D01*
X4574354Y29219853D01*
X4699853Y29094354D01*
X4798456Y28946784D01*
X4866376Y28782812D01*
X4901000Y28608741D01*
X4901000Y28431259D01*
X4866376Y28257188D01*
X4798456Y28093216D01*
X4699853Y27945646D01*
X4574354Y27820147D01*
X4426784Y27721544D01*
X4262812Y27653624D01*
X4113512Y27623927D01*
X4088742Y27619000D01*
X3911258Y27619000D01*
X3886488Y27623927D01*
X3737188Y27653624D01*
X3573216Y27721544D01*
X3425646Y27820147D01*
X3300147Y27945646D01*
X3201544Y28093216D01*
X3133624Y28257188D01*
X3099000Y28431259D01*
X3099000Y28608741D01*
X3133624Y28782812D01*
X3201544Y28946784D01*
X3300147Y29094354D01*
X3425646Y29219853D01*
X3573216Y29318456D01*
X3737188Y29386376D01*
X3888369Y29416447D01*
X3911258Y29421000D01*
X4088742Y29421000D01*
X4111631Y29416447D01*
G37*
G36*
X6651631Y29416447D02*
G01*
X6802812Y29386376D01*
X6966784Y29318456D01*
X7114354Y29219853D01*
X7239853Y29094354D01*
X7338456Y28946784D01*
X7406376Y28782812D01*
X7441000Y28608741D01*
X7441000Y28431259D01*
X7406376Y28257188D01*
X7338456Y28093216D01*
X7239853Y27945646D01*
X7114354Y27820147D01*
X6966784Y27721544D01*
X6802812Y27653624D01*
X6653512Y27623927D01*
X6628742Y27619000D01*
X6451258Y27619000D01*
X6426488Y27623927D01*
X6277188Y27653624D01*
X6113216Y27721544D01*
X5965646Y27820147D01*
X5840147Y27945646D01*
X5741544Y28093216D01*
X5673624Y28257188D01*
X5639000Y28431259D01*
X5639000Y28608741D01*
X5673624Y28782812D01*
X5741544Y28946784D01*
X5840147Y29094354D01*
X5965646Y29219853D01*
X6113216Y29318456D01*
X6277188Y29386376D01*
X6428369Y29416447D01*
X6451258Y29421000D01*
X6628742Y29421000D01*
X6651631Y29416447D01*
G37*
G36*
X16066242Y30546596D02*
G01*
X16103337Y30535343D01*
X16137515Y30517075D01*
X16167481Y30492481D01*
X16192075Y30462515D01*
X16210343Y30428337D01*
X16221596Y30391242D01*
X16226000Y30346526D01*
X16226000Y29453474D01*
X16221596Y29408758D01*
X16210343Y29371663D01*
X16192075Y29337485D01*
X16167481Y29307519D01*
X16137515Y29282925D01*
X16103337Y29264657D01*
X16066242Y29253404D01*
X16021526Y29249000D01*
X14578474Y29249000D01*
X14533758Y29253404D01*
X14496663Y29264657D01*
X14462485Y29282925D01*
X14432519Y29307519D01*
X14407925Y29337485D01*
X14389657Y29371663D01*
X14378404Y29408758D01*
X14374000Y29453474D01*
X14374000Y30346526D01*
X14378404Y30391242D01*
X14389657Y30428337D01*
X14407925Y30462515D01*
X14432519Y30492481D01*
X14462485Y30517075D01*
X14496663Y30535343D01*
X14533758Y30546596D01*
X14578474Y30551000D01*
X16021526Y30551000D01*
X16066242Y30546596D01*
G37*
G36*
X26966242Y30546596D02*
G01*
X27003337Y30535343D01*
X27037515Y30517075D01*
X27067481Y30492481D01*
X27092075Y30462515D01*
X27110343Y30428337D01*
X27121596Y30391242D01*
X27126000Y30346526D01*
X27126000Y29453474D01*
X27121596Y29408758D01*
X27110343Y29371663D01*
X27092075Y29337485D01*
X27067481Y29307519D01*
X27037515Y29282925D01*
X27003337Y29264657D01*
X26966242Y29253404D01*
X26921526Y29249000D01*
X25478474Y29249000D01*
X25433758Y29253404D01*
X25396663Y29264657D01*
X25362485Y29282925D01*
X25332519Y29307519D01*
X25307925Y29337485D01*
X25289657Y29371663D01*
X25278404Y29408758D01*
X25274000Y29453474D01*
X25274000Y30346526D01*
X25278404Y30391242D01*
X25289657Y30428337D01*
X25307925Y30462515D01*
X25332519Y30492481D01*
X25362485Y30517075D01*
X25396663Y30535343D01*
X25433758Y30546596D01*
X25478474Y30551000D01*
X26921526Y30551000D01*
X26966242Y30546596D01*
G37*
G36*
X6653512Y31956073D02*
G01*
X6802812Y31926376D01*
X6966784Y31858456D01*
X7114354Y31759853D01*
X7239853Y31634354D01*
X7338456Y31486784D01*
X7406376Y31322812D01*
X7441000Y31148741D01*
X7441000Y30971259D01*
X7406376Y30797188D01*
X7338456Y30633216D01*
X7239853Y30485646D01*
X7114354Y30360147D01*
X6966784Y30261544D01*
X6802812Y30193624D01*
X6653512Y30163927D01*
X6628742Y30159000D01*
X6451258Y30159000D01*
X6426488Y30163927D01*
X6277188Y30193624D01*
X6113216Y30261544D01*
X5965646Y30360147D01*
X5840147Y30485646D01*
X5741544Y30633216D01*
X5673624Y30797188D01*
X5639000Y30971259D01*
X5639000Y31148741D01*
X5673624Y31322812D01*
X5741544Y31486784D01*
X5840147Y31634354D01*
X5965646Y31759853D01*
X6113216Y31858456D01*
X6277188Y31926376D01*
X6426488Y31956073D01*
X6451258Y31961000D01*
X6628742Y31961000D01*
X6653512Y31956073D01*
G37*
G36*
X4113512Y31956073D02*
G01*
X4262812Y31926376D01*
X4426784Y31858456D01*
X4574354Y31759853D01*
X4699853Y31634354D01*
X4798456Y31486784D01*
X4866376Y31322812D01*
X4901000Y31148741D01*
X4901000Y30971259D01*
X4866376Y30797188D01*
X4798456Y30633216D01*
X4699853Y30485646D01*
X4574354Y30360147D01*
X4426784Y30261544D01*
X4262812Y30193624D01*
X4113512Y30163927D01*
X4088742Y30159000D01*
X3911258Y30159000D01*
X3886488Y30163927D01*
X3737188Y30193624D01*
X3573216Y30261544D01*
X3425646Y30360147D01*
X3300147Y30485646D01*
X3201544Y30633216D01*
X3133624Y30797188D01*
X3099000Y30971259D01*
X3099000Y31148741D01*
X3133624Y31322812D01*
X3201544Y31486784D01*
X3300147Y31634354D01*
X3425646Y31759853D01*
X3573216Y31858456D01*
X3737188Y31926376D01*
X3886488Y31956073D01*
X3911258Y31961000D01*
X4088742Y31961000D01*
X4113512Y31956073D01*
G37*
G36*
X26538855Y32547860D02*
G01*
X26602618Y32541580D01*
X26693404Y32514040D01*
X26725336Y32504354D01*
X26838425Y32443906D01*
X26937554Y32362554D01*
X27018906Y32263425D01*
X27079354Y32150336D01*
X27079355Y32150332D01*
X27116580Y32027618D01*
X27129149Y31900000D01*
X27116580Y31772382D01*
X27112779Y31759853D01*
X27079354Y31649664D01*
X27018906Y31536575D01*
X26937554Y31437446D01*
X26838425Y31356094D01*
X26725336Y31295646D01*
X26693404Y31285960D01*
X26602618Y31258420D01*
X26538855Y31252140D01*
X26506974Y31249000D01*
X25893026Y31249000D01*
X25861145Y31252140D01*
X25797382Y31258420D01*
X25706596Y31285960D01*
X25674664Y31295646D01*
X25561575Y31356094D01*
X25462446Y31437446D01*
X25381094Y31536575D01*
X25320646Y31649664D01*
X25287221Y31759853D01*
X25283420Y31772382D01*
X25270851Y31900000D01*
X25283420Y32027618D01*
X25320645Y32150332D01*
X25320646Y32150336D01*
X25381094Y32263425D01*
X25462446Y32362554D01*
X25561575Y32443906D01*
X25674664Y32504354D01*
X25706596Y32514040D01*
X25797382Y32541580D01*
X25861145Y32547860D01*
X25893026Y32551000D01*
X26506974Y32551000D01*
X26538855Y32547860D01*
G37*
G36*
X15638855Y32547860D02*
G01*
X15702618Y32541580D01*
X15793404Y32514040D01*
X15825336Y32504354D01*
X15938425Y32443906D01*
X16037554Y32362554D01*
X16118906Y32263425D01*
X16179354Y32150336D01*
X16179355Y32150332D01*
X16216580Y32027618D01*
X16229149Y31900000D01*
X16216580Y31772382D01*
X16212779Y31759853D01*
X16179354Y31649664D01*
X16118906Y31536575D01*
X16037554Y31437446D01*
X15938425Y31356094D01*
X15825336Y31295646D01*
X15793404Y31285960D01*
X15702618Y31258420D01*
X15638855Y31252140D01*
X15606974Y31249000D01*
X14993026Y31249000D01*
X14961145Y31252140D01*
X14897382Y31258420D01*
X14806596Y31285960D01*
X14774664Y31295646D01*
X14661575Y31356094D01*
X14562446Y31437446D01*
X14481094Y31536575D01*
X14420646Y31649664D01*
X14387221Y31759853D01*
X14383420Y31772382D01*
X14370851Y31900000D01*
X14383420Y32027618D01*
X14420645Y32150332D01*
X14420646Y32150336D01*
X14481094Y32263425D01*
X14562446Y32362554D01*
X14661575Y32443906D01*
X14774664Y32504354D01*
X14806596Y32514040D01*
X14897382Y32541580D01*
X14961145Y32547860D01*
X14993026Y32551000D01*
X15606974Y32551000D01*
X15638855Y32547860D01*
G37*
G36*
X6653512Y34496073D02*
G01*
X6802812Y34466376D01*
X6966784Y34398456D01*
X7114354Y34299853D01*
X7239853Y34174354D01*
X7338456Y34026784D01*
X7406376Y33862812D01*
X7441000Y33688741D01*
X7441000Y33511259D01*
X7406376Y33337188D01*
X7338456Y33173216D01*
X7239853Y33025646D01*
X7114354Y32900147D01*
X6966784Y32801544D01*
X6802812Y32733624D01*
X6653512Y32703927D01*
X6628742Y32699000D01*
X6451258Y32699000D01*
X6426488Y32703927D01*
X6277188Y32733624D01*
X6113216Y32801544D01*
X5965646Y32900147D01*
X5840147Y33025646D01*
X5741544Y33173216D01*
X5673624Y33337188D01*
X5639000Y33511259D01*
X5639000Y33688741D01*
X5673624Y33862812D01*
X5741544Y34026784D01*
X5840147Y34174354D01*
X5965646Y34299853D01*
X6113216Y34398456D01*
X6277188Y34466376D01*
X6426488Y34496073D01*
X6451258Y34501000D01*
X6628742Y34501000D01*
X6653512Y34496073D01*
G37*
G36*
X4901000Y32699000D02*
G01*
X3099000Y32699000D01*
X3099000Y34501000D01*
X4901000Y34501000D01*
X4901000Y32699000D01*
G37*
G36*
X26538855Y34547860D02*
G01*
X26602618Y34541580D01*
X26693404Y34514040D01*
X26725336Y34504354D01*
X26838425Y34443906D01*
X26937554Y34362554D01*
X27018906Y34263425D01*
X27079354Y34150336D01*
X27079355Y34150332D01*
X27116580Y34027618D01*
X27129149Y33900000D01*
X27116580Y33772382D01*
X27091208Y33688742D01*
X27079354Y33649664D01*
X27018906Y33536575D01*
X26937554Y33437446D01*
X26838425Y33356094D01*
X26725336Y33295646D01*
X26693404Y33285960D01*
X26602618Y33258420D01*
X26538855Y33252140D01*
X26506974Y33249000D01*
X25893026Y33249000D01*
X25861145Y33252140D01*
X25797382Y33258420D01*
X25706596Y33285960D01*
X25674664Y33295646D01*
X25561575Y33356094D01*
X25462446Y33437446D01*
X25381094Y33536575D01*
X25320646Y33649664D01*
X25308792Y33688742D01*
X25283420Y33772382D01*
X25270851Y33900000D01*
X25283420Y34027618D01*
X25320645Y34150332D01*
X25320646Y34150336D01*
X25381094Y34263425D01*
X25462446Y34362554D01*
X25561575Y34443906D01*
X25674664Y34504354D01*
X25706596Y34514040D01*
X25797382Y34541580D01*
X25861145Y34547860D01*
X25893026Y34551000D01*
X26506974Y34551000D01*
X26538855Y34547860D01*
G37*
G36*
X26538855Y36547860D02*
G01*
X26602618Y36541580D01*
X26693404Y36514040D01*
X26725336Y36504354D01*
X26838425Y36443906D01*
X26937554Y36362554D01*
X27018906Y36263425D01*
X27079354Y36150336D01*
X27079355Y36150332D01*
X27116580Y36027618D01*
X27129149Y35900000D01*
X27116580Y35772382D01*
X27089040Y35681596D01*
X27079354Y35649664D01*
X27018906Y35536575D01*
X26937554Y35437446D01*
X26838425Y35356094D01*
X26725336Y35295646D01*
X26693404Y35285960D01*
X26602618Y35258420D01*
X26538855Y35252140D01*
X26506974Y35249000D01*
X25893026Y35249000D01*
X25861145Y35252140D01*
X25797382Y35258420D01*
X25706596Y35285960D01*
X25674664Y35295646D01*
X25561575Y35356094D01*
X25462446Y35437446D01*
X25381094Y35536575D01*
X25320646Y35649664D01*
X25310960Y35681596D01*
X25283420Y35772382D01*
X25270851Y35900000D01*
X25283420Y36027618D01*
X25320645Y36150332D01*
X25320646Y36150336D01*
X25381094Y36263425D01*
X25462446Y36362554D01*
X25561575Y36443906D01*
X25674664Y36504354D01*
X25706596Y36514040D01*
X25797382Y36541580D01*
X25861145Y36547860D01*
X25893026Y36551000D01*
X26506974Y36551000D01*
X26538855Y36547860D01*
G37*
G36*
X26538855Y38547860D02*
G01*
X26602618Y38541580D01*
X26685470Y38516447D01*
X26725336Y38504354D01*
X26838425Y38443906D01*
X26937554Y38362554D01*
X27018906Y38263425D01*
X27079354Y38150336D01*
X27079355Y38150332D01*
X27116580Y38027618D01*
X27129149Y37900000D01*
X27116580Y37772382D01*
X27089040Y37681596D01*
X27079354Y37649664D01*
X27018906Y37536575D01*
X26937554Y37437446D01*
X26838425Y37356094D01*
X26725336Y37295646D01*
X26693404Y37285960D01*
X26602618Y37258420D01*
X26538855Y37252140D01*
X26506974Y37249000D01*
X25893026Y37249000D01*
X25861145Y37252140D01*
X25797382Y37258420D01*
X25706596Y37285960D01*
X25674664Y37295646D01*
X25561575Y37356094D01*
X25462446Y37437446D01*
X25381094Y37536575D01*
X25320646Y37649664D01*
X25310960Y37681596D01*
X25283420Y37772382D01*
X25270851Y37900000D01*
X25283420Y38027618D01*
X25320645Y38150332D01*
X25320646Y38150336D01*
X25381094Y38263425D01*
X25462446Y38362554D01*
X25561575Y38443906D01*
X25674664Y38504354D01*
X25714530Y38516447D01*
X25797382Y38541580D01*
X25861145Y38547860D01*
X25893026Y38551000D01*
X26506974Y38551000D01*
X26538855Y38547860D01*
G37*
G36*
X16066242Y39646596D02*
G01*
X16103337Y39635343D01*
X16137515Y39617075D01*
X16167481Y39592481D01*
X16192075Y39562515D01*
X16210343Y39528337D01*
X16221596Y39491242D01*
X16226000Y39446526D01*
X16226000Y38553474D01*
X16221596Y38508758D01*
X16210343Y38471663D01*
X16192075Y38437485D01*
X16167481Y38407519D01*
X16137515Y38382925D01*
X16103337Y38364657D01*
X16066242Y38353404D01*
X16021526Y38349000D01*
X14578474Y38349000D01*
X14533758Y38353404D01*
X14496663Y38364657D01*
X14462485Y38382925D01*
X14432519Y38407519D01*
X14407925Y38437485D01*
X14389657Y38471663D01*
X14378404Y38508758D01*
X14374000Y38553474D01*
X14374000Y39446526D01*
X14378404Y39491242D01*
X14389657Y39528337D01*
X14407925Y39562515D01*
X14432519Y39592481D01*
X14462485Y39617075D01*
X14496663Y39635343D01*
X14533758Y39646596D01*
X14578474Y39651000D01*
X16021526Y39651000D01*
X16066242Y39646596D01*
G37*
G36*
X5766242Y39646596D02*
G01*
X5803337Y39635343D01*
X5837515Y39617075D01*
X5867481Y39592481D01*
X5892075Y39562515D01*
X5910343Y39528337D01*
X5921596Y39491242D01*
X5926000Y39446526D01*
X5926000Y38553474D01*
X5921596Y38508758D01*
X5910343Y38471663D01*
X5892075Y38437485D01*
X5867481Y38407519D01*
X5837515Y38382925D01*
X5803337Y38364657D01*
X5766242Y38353404D01*
X5721526Y38349000D01*
X4278474Y38349000D01*
X4233758Y38353404D01*
X4196663Y38364657D01*
X4162485Y38382925D01*
X4132519Y38407519D01*
X4107925Y38437485D01*
X4089657Y38471663D01*
X4078404Y38508758D01*
X4074000Y38553474D01*
X4074000Y39446526D01*
X4078404Y39491242D01*
X4089657Y39528337D01*
X4107925Y39562515D01*
X4132519Y39592481D01*
X4162485Y39617075D01*
X4196663Y39635343D01*
X4233758Y39646596D01*
X4278474Y39651000D01*
X5721526Y39651000D01*
X5766242Y39646596D01*
G37*
G36*
X26538855Y40547860D02*
G01*
X26602618Y40541580D01*
X26693404Y40514040D01*
X26725336Y40504354D01*
X26838425Y40443906D01*
X26937554Y40362554D01*
X27018906Y40263425D01*
X27079354Y40150336D01*
X27079355Y40150332D01*
X27116580Y40027618D01*
X27129149Y39900000D01*
X27116580Y39772382D01*
X27089040Y39681596D01*
X27079354Y39649664D01*
X27018906Y39536575D01*
X26937554Y39437446D01*
X26838425Y39356094D01*
X26725336Y39295646D01*
X26693404Y39285960D01*
X26602618Y39258420D01*
X26538855Y39252140D01*
X26506974Y39249000D01*
X25893026Y39249000D01*
X25861145Y39252140D01*
X25797382Y39258420D01*
X25706596Y39285960D01*
X25674664Y39295646D01*
X25561575Y39356094D01*
X25462446Y39437446D01*
X25381094Y39536575D01*
X25320646Y39649664D01*
X25310960Y39681596D01*
X25283420Y39772382D01*
X25270851Y39900000D01*
X25283420Y40027618D01*
X25320645Y40150332D01*
X25320646Y40150336D01*
X25381094Y40263425D01*
X25462446Y40362554D01*
X25561575Y40443906D01*
X25674664Y40504354D01*
X25706596Y40514040D01*
X25797382Y40541580D01*
X25861145Y40547860D01*
X25893026Y40551000D01*
X26506974Y40551000D01*
X26538855Y40547860D01*
G37*
G36*
X15638855Y41647860D02*
G01*
X15702618Y41641580D01*
X15793404Y41614040D01*
X15825336Y41604354D01*
X15938425Y41543906D01*
X16037554Y41462554D01*
X16118906Y41363425D01*
X16179354Y41250336D01*
X16179355Y41250332D01*
X16216580Y41127618D01*
X16229149Y41000000D01*
X16216580Y40872382D01*
X16189040Y40781596D01*
X16179354Y40749664D01*
X16118906Y40636575D01*
X16037554Y40537446D01*
X15938425Y40456094D01*
X15825336Y40395646D01*
X15793404Y40385960D01*
X15702618Y40358420D01*
X15638855Y40352140D01*
X15606974Y40349000D01*
X14993026Y40349000D01*
X14961145Y40352140D01*
X14897382Y40358420D01*
X14806596Y40385960D01*
X14774664Y40395646D01*
X14661575Y40456094D01*
X14562446Y40537446D01*
X14481094Y40636575D01*
X14420646Y40749664D01*
X14410960Y40781596D01*
X14383420Y40872382D01*
X14370851Y41000000D01*
X14383420Y41127618D01*
X14420645Y41250332D01*
X14420646Y41250336D01*
X14481094Y41363425D01*
X14562446Y41462554D01*
X14661575Y41543906D01*
X14774664Y41604354D01*
X14806596Y41614040D01*
X14897382Y41641580D01*
X14961145Y41647860D01*
X14993026Y41651000D01*
X15606974Y41651000D01*
X15638855Y41647860D01*
G37*
G36*
X5338855Y41647860D02*
G01*
X5402618Y41641580D01*
X5493404Y41614040D01*
X5525336Y41604354D01*
X5638425Y41543906D01*
X5737554Y41462554D01*
X5818906Y41363425D01*
X5879354Y41250336D01*
X5879355Y41250332D01*
X5916580Y41127618D01*
X5929149Y41000000D01*
X5916580Y40872382D01*
X5889040Y40781596D01*
X5879354Y40749664D01*
X5818906Y40636575D01*
X5737554Y40537446D01*
X5638425Y40456094D01*
X5525336Y40395646D01*
X5493404Y40385960D01*
X5402618Y40358420D01*
X5338855Y40352140D01*
X5306974Y40349000D01*
X4693026Y40349000D01*
X4661145Y40352140D01*
X4597382Y40358420D01*
X4506596Y40385960D01*
X4474664Y40395646D01*
X4361575Y40456094D01*
X4262446Y40537446D01*
X4181094Y40636575D01*
X4120646Y40749664D01*
X4110960Y40781596D01*
X4083420Y40872382D01*
X4070851Y41000000D01*
X4083420Y41127618D01*
X4120645Y41250332D01*
X4120646Y41250336D01*
X4181094Y41363425D01*
X4262446Y41462554D01*
X4361575Y41543906D01*
X4474664Y41604354D01*
X4506596Y41614040D01*
X4597382Y41641580D01*
X4661145Y41647860D01*
X4693026Y41651000D01*
X5306974Y41651000D01*
X5338855Y41647860D01*
G37*
G36*
X5766242Y47946596D02*
G01*
X5803337Y47935343D01*
X5837515Y47917075D01*
X5867481Y47892481D01*
X5892075Y47862515D01*
X5910343Y47828337D01*
X5921596Y47791242D01*
X5926000Y47746526D01*
X5926000Y46853474D01*
X5921596Y46808758D01*
X5910343Y46771663D01*
X5892075Y46737485D01*
X5867481Y46707519D01*
X5837515Y46682925D01*
X5803337Y46664657D01*
X5766242Y46653404D01*
X5721526Y46649000D01*
X4278474Y46649000D01*
X4233758Y46653404D01*
X4196663Y46664657D01*
X4162485Y46682925D01*
X4132519Y46707519D01*
X4107925Y46737485D01*
X4089657Y46771663D01*
X4078404Y46808758D01*
X4074000Y46853474D01*
X4074000Y47746526D01*
X4078404Y47791242D01*
X4089657Y47828337D01*
X4107925Y47862515D01*
X4132519Y47892481D01*
X4162485Y47917075D01*
X4196663Y47935343D01*
X4233758Y47946596D01*
X4278474Y47951000D01*
X5721526Y47951000D01*
X5766242Y47946596D01*
G37*
G36*
X16066242Y47946596D02*
G01*
X16103337Y47935343D01*
X16137515Y47917075D01*
X16167481Y47892481D01*
X16192075Y47862515D01*
X16210343Y47828337D01*
X16221596Y47791242D01*
X16226000Y47746526D01*
X16226000Y46853474D01*
X16221596Y46808758D01*
X16210343Y46771663D01*
X16192075Y46737485D01*
X16167481Y46707519D01*
X16137515Y46682925D01*
X16103337Y46664657D01*
X16066242Y46653404D01*
X16021526Y46649000D01*
X14578474Y46649000D01*
X14533758Y46653404D01*
X14496663Y46664657D01*
X14462485Y46682925D01*
X14432519Y46707519D01*
X14407925Y46737485D01*
X14389657Y46771663D01*
X14378404Y46808758D01*
X14374000Y46853474D01*
X14374000Y47746526D01*
X14378404Y47791242D01*
X14389657Y47828337D01*
X14407925Y47862515D01*
X14432519Y47892481D01*
X14462485Y47917075D01*
X14496663Y47935343D01*
X14533758Y47946596D01*
X14578474Y47951000D01*
X16021526Y47951000D01*
X16066242Y47946596D01*
G37*
G36*
X15638855Y49947860D02*
G01*
X15702618Y49941580D01*
X15793404Y49914040D01*
X15825336Y49904354D01*
X15938425Y49843906D01*
X16037554Y49762554D01*
X16118906Y49663425D01*
X16179354Y49550336D01*
X16179355Y49550332D01*
X16216580Y49427618D01*
X16229149Y49300000D01*
X16216580Y49172382D01*
X16189040Y49081596D01*
X16179354Y49049664D01*
X16118906Y48936575D01*
X16037554Y48837446D01*
X15938425Y48756094D01*
X15825336Y48695646D01*
X15793404Y48685960D01*
X15702618Y48658420D01*
X15638855Y48652140D01*
X15606974Y48649000D01*
X14993026Y48649000D01*
X14961145Y48652140D01*
X14897382Y48658420D01*
X14806596Y48685960D01*
X14774664Y48695646D01*
X14661575Y48756094D01*
X14562446Y48837446D01*
X14481094Y48936575D01*
X14420646Y49049664D01*
X14410960Y49081596D01*
X14383420Y49172382D01*
X14370851Y49300000D01*
X14383420Y49427618D01*
X14420645Y49550332D01*
X14420646Y49550336D01*
X14481094Y49663425D01*
X14562446Y49762554D01*
X14661575Y49843906D01*
X14774664Y49904354D01*
X14806596Y49914040D01*
X14897382Y49941580D01*
X14961145Y49947860D01*
X14993026Y49951000D01*
X15606974Y49951000D01*
X15638855Y49947860D01*
G37*
G36*
X5338855Y49947860D02*
G01*
X5402618Y49941580D01*
X5493404Y49914040D01*
X5525336Y49904354D01*
X5638425Y49843906D01*
X5737554Y49762554D01*
X5818906Y49663425D01*
X5879354Y49550336D01*
X5879355Y49550332D01*
X5916580Y49427618D01*
X5929149Y49300000D01*
X5916580Y49172382D01*
X5889040Y49081596D01*
X5879354Y49049664D01*
X5818906Y48936575D01*
X5737554Y48837446D01*
X5638425Y48756094D01*
X5525336Y48695646D01*
X5493404Y48685960D01*
X5402618Y48658420D01*
X5338855Y48652140D01*
X5306974Y48649000D01*
X4693026Y48649000D01*
X4661145Y48652140D01*
X4597382Y48658420D01*
X4506596Y48685960D01*
X4474664Y48695646D01*
X4361575Y48756094D01*
X4262446Y48837446D01*
X4181094Y48936575D01*
X4120646Y49049664D01*
X4110960Y49081596D01*
X4083420Y49172382D01*
X4070851Y49300000D01*
X4083420Y49427618D01*
X4120645Y49550332D01*
X4120646Y49550336D01*
X4181094Y49663425D01*
X4262446Y49762554D01*
X4361575Y49843906D01*
X4474664Y49904354D01*
X4506596Y49914040D01*
X4597382Y49941580D01*
X4661145Y49947860D01*
X4693026Y49951000D01*
X5306974Y49951000D01*
X5338855Y49947860D01*
G37*
G36*
X7051000Y73749000D02*
G01*
X4349000Y73749000D01*
X4349000Y76451000D01*
X7051000Y76451000D01*
X7051000Y73749000D01*
G37*
G36*
X34352585Y81171198D02*
G01*
X34502410Y81141396D01*
X34784674Y81024479D01*
X35038705Y80854741D01*
X35254741Y80638705D01*
X35424479Y80384674D01*
X35541396Y80102410D01*
X35601000Y79802760D01*
X35601000Y79497240D01*
X35541396Y79197590D01*
X35424479Y78915326D01*
X35254741Y78661295D01*
X35038705Y78445259D01*
X34784674Y78275521D01*
X34502410Y78158604D01*
X34352585Y78128802D01*
X34202761Y78099000D01*
X33897239Y78099000D01*
X33747415Y78128802D01*
X33597590Y78158604D01*
X33315326Y78275521D01*
X33061295Y78445259D01*
X32845259Y78661295D01*
X32675521Y78915326D01*
X32558604Y79197590D01*
X32499000Y79497240D01*
X32499000Y79802760D01*
X32558604Y80102410D01*
X32675521Y80384674D01*
X32845259Y80638705D01*
X33061295Y80854741D01*
X33315326Y81024479D01*
X33597590Y81141396D01*
X33747415Y81171198D01*
X33897239Y81201000D01*
X34202761Y81201000D01*
X34352585Y81171198D01*
G37*
G36*
X22229487Y80901004D02*
G01*
X22466253Y80802932D01*
X22466255Y80802931D01*
X22560529Y80739939D01*
X22679339Y80660553D01*
X22860553Y80479339D01*
X23002932Y80266253D01*
X23101004Y80029487D01*
X23151000Y79778139D01*
X23151000Y79521861D01*
X23101004Y79270513D01*
X23070798Y79197590D01*
X23002931Y79033745D01*
X22860553Y78820661D01*
X22679339Y78639447D01*
X22466255Y78497069D01*
X22466254Y78497068D01*
X22466253Y78497068D01*
X22229487Y78398996D01*
X21978139Y78349000D01*
X21721861Y78349000D01*
X21470513Y78398996D01*
X21233747Y78497068D01*
X21233746Y78497068D01*
X21233745Y78497069D01*
X21020661Y78639447D01*
X20839447Y78820661D01*
X20697069Y79033745D01*
X20629202Y79197590D01*
X20598996Y79270513D01*
X20549000Y79521861D01*
X20549000Y79778139D01*
X20598996Y80029487D01*
X20697068Y80266253D01*
X20839447Y80479339D01*
X21020661Y80660553D01*
X21139471Y80739939D01*
X21233745Y80802931D01*
X21233747Y80802932D01*
X21470513Y80901004D01*
X21721861Y80951000D01*
X21978139Y80951000D01*
X22229487Y80901004D01*
G37*
G36*
X6094072Y81399082D02*
G01*
X6339939Y81297241D01*
X6451328Y81222813D01*
X6561211Y81149391D01*
X6749391Y80961211D01*
X6897242Y80739937D01*
X6999082Y80494072D01*
X7051000Y80233063D01*
X7051000Y79966937D01*
X6999082Y79705928D01*
X6897242Y79460063D01*
X6770588Y79270512D01*
X6749390Y79238788D01*
X6561212Y79050610D01*
X6339939Y78902759D01*
X6339938Y78902758D01*
X6339937Y78902758D01*
X6094072Y78800918D01*
X5833063Y78749000D01*
X5566937Y78749000D01*
X5305928Y78800918D01*
X5060063Y78902758D01*
X5060062Y78902758D01*
X5060061Y78902759D01*
X4838788Y79050610D01*
X4650610Y79238788D01*
X4629413Y79270512D01*
X4502758Y79460063D01*
X4400918Y79705928D01*
X4349000Y79966937D01*
X4349000Y80233063D01*
X4400918Y80494072D01*
X4502758Y80739937D01*
X4650609Y80961211D01*
X4838789Y81149391D01*
X4948672Y81222813D01*
X5060061Y81297241D01*
X5305928Y81399082D01*
X5566937Y81451000D01*
X5833063Y81451000D01*
X6094072Y81399082D01*
G37*
G36*
X20202585Y87221198D02*
G01*
X20352410Y87191396D01*
X20634674Y87074479D01*
X20888705Y86904741D01*
X21104741Y86688705D01*
X21274479Y86434674D01*
X21391396Y86152410D01*
X21451000Y85852760D01*
X21451000Y85547240D01*
X21391396Y85247590D01*
X21274479Y84965326D01*
X21104741Y84711295D01*
X20888705Y84495259D01*
X20634674Y84325521D01*
X20352410Y84208604D01*
X20202585Y84178802D01*
X20052761Y84149000D01*
X19747239Y84149000D01*
X19597415Y84178802D01*
X19447590Y84208604D01*
X19165326Y84325521D01*
X18911295Y84495259D01*
X18695259Y84711295D01*
X18525521Y84965326D01*
X18408604Y85247590D01*
X18349000Y85547240D01*
X18349000Y85852760D01*
X18408604Y86152410D01*
X18525521Y86434674D01*
X18695259Y86688705D01*
X18911295Y86904741D01*
X19165326Y87074479D01*
X19447590Y87191396D01*
X19597415Y87221198D01*
X19747239Y87251000D01*
X20052761Y87251000D01*
X20202585Y87221198D01*
G37*
G36*
X63427617Y90316580D02*
G01*
X63508399Y90292075D01*
X63550335Y90279354D01*
X63663424Y90218906D01*
X63762554Y90137553D01*
X63843906Y90038425D01*
X63904354Y89925336D01*
X63914040Y89893404D01*
X63941580Y89802618D01*
X63951000Y89706973D01*
X63951000Y89093027D01*
X63941580Y88997382D01*
X63914040Y88906596D01*
X63904354Y88874664D01*
X63843906Y88761575D01*
X63762554Y88662446D01*
X63663425Y88581094D01*
X63550336Y88520646D01*
X63518404Y88510960D01*
X63427618Y88483420D01*
X63300000Y88470851D01*
X63172383Y88483420D01*
X63081597Y88510960D01*
X63049665Y88520646D01*
X62936576Y88581094D01*
X62837447Y88662446D01*
X62756096Y88761573D01*
X62756095Y88761575D01*
X62695647Y88874664D01*
X62695645Y88874667D01*
X62683237Y88915573D01*
X62658420Y88997382D01*
X62649000Y89093027D01*
X62649000Y89706972D01*
X62658420Y89802617D01*
X62695645Y89925331D01*
X62695646Y89925335D01*
X62756094Y90038424D01*
X62837447Y90137554D01*
X62936575Y90218906D01*
X63049664Y90279354D01*
X63091600Y90292075D01*
X63172382Y90316580D01*
X63300000Y90329149D01*
X63427617Y90316580D01*
G37*
G36*
X69427617Y90316580D02*
G01*
X69508399Y90292075D01*
X69550335Y90279354D01*
X69663424Y90218906D01*
X69762554Y90137553D01*
X69843906Y90038425D01*
X69904354Y89925336D01*
X69914040Y89893404D01*
X69941580Y89802618D01*
X69951000Y89706973D01*
X69951000Y89093027D01*
X69941580Y88997382D01*
X69914040Y88906596D01*
X69904354Y88874664D01*
X69843906Y88761575D01*
X69762554Y88662446D01*
X69663425Y88581094D01*
X69550336Y88520646D01*
X69518404Y88510960D01*
X69427618Y88483420D01*
X69300000Y88470851D01*
X69172383Y88483420D01*
X69081597Y88510960D01*
X69049665Y88520646D01*
X68936576Y88581094D01*
X68837447Y88662446D01*
X68756096Y88761573D01*
X68756095Y88761575D01*
X68695647Y88874664D01*
X68695645Y88874667D01*
X68683237Y88915573D01*
X68658420Y88997382D01*
X68649000Y89093027D01*
X68649000Y89706972D01*
X68658420Y89802617D01*
X68695645Y89925331D01*
X68695646Y89925335D01*
X68756094Y90038424D01*
X68837447Y90137554D01*
X68936575Y90218906D01*
X69049664Y90279354D01*
X69091600Y90292075D01*
X69172382Y90316580D01*
X69300000Y90329149D01*
X69427617Y90316580D01*
G37*
G36*
X52927617Y90316580D02*
G01*
X53008399Y90292075D01*
X53050335Y90279354D01*
X53163424Y90218906D01*
X53262554Y90137553D01*
X53343906Y90038425D01*
X53404354Y89925336D01*
X53414040Y89893404D01*
X53441580Y89802618D01*
X53451000Y89706973D01*
X53451000Y89093027D01*
X53441580Y88997382D01*
X53414040Y88906596D01*
X53404354Y88874664D01*
X53343906Y88761575D01*
X53262554Y88662446D01*
X53163425Y88581094D01*
X53050336Y88520646D01*
X53018404Y88510960D01*
X52927618Y88483420D01*
X52800000Y88470851D01*
X52672383Y88483420D01*
X52581597Y88510960D01*
X52549665Y88520646D01*
X52436576Y88581094D01*
X52337447Y88662446D01*
X52256096Y88761573D01*
X52256095Y88761575D01*
X52195647Y88874664D01*
X52195645Y88874667D01*
X52183237Y88915573D01*
X52158420Y88997382D01*
X52149000Y89093027D01*
X52149000Y89706972D01*
X52158420Y89802617D01*
X52195645Y89925331D01*
X52195646Y89925335D01*
X52256094Y90038424D01*
X52337447Y90137554D01*
X52436575Y90218906D01*
X52549664Y90279354D01*
X52591600Y90292075D01*
X52672382Y90316580D01*
X52800000Y90329149D01*
X52927617Y90316580D01*
G37*
G36*
X61427617Y90316580D02*
G01*
X61508399Y90292075D01*
X61550335Y90279354D01*
X61663424Y90218906D01*
X61762554Y90137553D01*
X61843906Y90038425D01*
X61904354Y89925336D01*
X61914040Y89893404D01*
X61941580Y89802618D01*
X61951000Y89706973D01*
X61951000Y89093027D01*
X61941580Y88997382D01*
X61914040Y88906596D01*
X61904354Y88874664D01*
X61843906Y88761575D01*
X61762554Y88662446D01*
X61663425Y88581094D01*
X61550336Y88520646D01*
X61518404Y88510960D01*
X61427618Y88483420D01*
X61300000Y88470851D01*
X61172383Y88483420D01*
X61081597Y88510960D01*
X61049665Y88520646D01*
X60936576Y88581094D01*
X60837447Y88662446D01*
X60756096Y88761573D01*
X60756095Y88761575D01*
X60695647Y88874664D01*
X60695645Y88874667D01*
X60683237Y88915573D01*
X60658420Y88997382D01*
X60649000Y89093027D01*
X60649000Y89706972D01*
X60658420Y89802617D01*
X60695645Y89925331D01*
X60695646Y89925335D01*
X60756094Y90038424D01*
X60837447Y90137554D01*
X60936575Y90218906D01*
X61049664Y90279354D01*
X61091600Y90292075D01*
X61172382Y90316580D01*
X61300000Y90329149D01*
X61427617Y90316580D01*
G37*
G36*
X65427617Y90316580D02*
G01*
X65508399Y90292075D01*
X65550335Y90279354D01*
X65663424Y90218906D01*
X65762554Y90137553D01*
X65843906Y90038425D01*
X65904354Y89925336D01*
X65914040Y89893404D01*
X65941580Y89802618D01*
X65951000Y89706973D01*
X65951000Y89093027D01*
X65941580Y88997382D01*
X65914040Y88906596D01*
X65904354Y88874664D01*
X65843906Y88761575D01*
X65762554Y88662446D01*
X65663425Y88581094D01*
X65550336Y88520646D01*
X65518404Y88510960D01*
X65427618Y88483420D01*
X65300000Y88470851D01*
X65172383Y88483420D01*
X65081597Y88510960D01*
X65049665Y88520646D01*
X64936576Y88581094D01*
X64837447Y88662446D01*
X64756096Y88761573D01*
X64756095Y88761575D01*
X64695647Y88874664D01*
X64695645Y88874667D01*
X64683237Y88915573D01*
X64658420Y88997382D01*
X64649000Y89093027D01*
X64649000Y89706972D01*
X64658420Y89802617D01*
X64695645Y89925331D01*
X64695646Y89925335D01*
X64756094Y90038424D01*
X64837447Y90137554D01*
X64936575Y90218906D01*
X65049664Y90279354D01*
X65091600Y90292075D01*
X65172382Y90316580D01*
X65300000Y90329149D01*
X65427617Y90316580D01*
G37*
G36*
X67427617Y90316580D02*
G01*
X67508399Y90292075D01*
X67550335Y90279354D01*
X67663424Y90218906D01*
X67762554Y90137553D01*
X67843906Y90038425D01*
X67904354Y89925336D01*
X67914040Y89893404D01*
X67941580Y89802618D01*
X67951000Y89706973D01*
X67951000Y89093027D01*
X67941580Y88997382D01*
X67914040Y88906596D01*
X67904354Y88874664D01*
X67843906Y88761575D01*
X67762554Y88662446D01*
X67663425Y88581094D01*
X67550336Y88520646D01*
X67518404Y88510960D01*
X67427618Y88483420D01*
X67300000Y88470851D01*
X67172383Y88483420D01*
X67081597Y88510960D01*
X67049665Y88520646D01*
X66936576Y88581094D01*
X66837447Y88662446D01*
X66756096Y88761573D01*
X66756095Y88761575D01*
X66695647Y88874664D01*
X66695645Y88874667D01*
X66683237Y88915573D01*
X66658420Y88997382D01*
X66649000Y89093027D01*
X66649000Y89706972D01*
X66658420Y89802617D01*
X66695645Y89925331D01*
X66695646Y89925335D01*
X66756094Y90038424D01*
X66837447Y90137554D01*
X66936575Y90218906D01*
X67049664Y90279354D01*
X67091600Y90292075D01*
X67172382Y90316580D01*
X67300000Y90329149D01*
X67427617Y90316580D01*
G37*
G36*
X45627617Y90316580D02*
G01*
X45708399Y90292075D01*
X45750335Y90279354D01*
X45863424Y90218906D01*
X45962554Y90137553D01*
X46043906Y90038425D01*
X46104354Y89925336D01*
X46114040Y89893404D01*
X46141580Y89802618D01*
X46151000Y89706973D01*
X46151000Y89093027D01*
X46141580Y88997382D01*
X46114040Y88906596D01*
X46104354Y88874664D01*
X46043906Y88761575D01*
X45962554Y88662446D01*
X45863425Y88581094D01*
X45750336Y88520646D01*
X45718404Y88510960D01*
X45627618Y88483420D01*
X45500000Y88470851D01*
X45372383Y88483420D01*
X45281597Y88510960D01*
X45249665Y88520646D01*
X45136576Y88581094D01*
X45037447Y88662446D01*
X44956096Y88761573D01*
X44956095Y88761575D01*
X44895647Y88874664D01*
X44895645Y88874667D01*
X44883237Y88915573D01*
X44858420Y88997382D01*
X44849000Y89093027D01*
X44849000Y89706972D01*
X44858420Y89802617D01*
X44895645Y89925331D01*
X44895646Y89925335D01*
X44956094Y90038424D01*
X45037447Y90137554D01*
X45136575Y90218906D01*
X45249664Y90279354D01*
X45291600Y90292075D01*
X45372382Y90316580D01*
X45500000Y90329149D01*
X45627617Y90316580D01*
G37*
G36*
X51291242Y90321596D02*
G01*
X51328337Y90310343D01*
X51362515Y90292075D01*
X51392481Y90267481D01*
X51417075Y90237515D01*
X51435343Y90203337D01*
X51446596Y90166242D01*
X51451000Y90121526D01*
X51451000Y88678474D01*
X51446596Y88633758D01*
X51435343Y88596663D01*
X51417075Y88562485D01*
X51392481Y88532519D01*
X51362515Y88507925D01*
X51328337Y88489657D01*
X51291242Y88478404D01*
X51246526Y88474000D01*
X50353474Y88474000D01*
X50308758Y88478404D01*
X50271663Y88489657D01*
X50237485Y88507925D01*
X50207519Y88532519D01*
X50182925Y88562485D01*
X50164657Y88596663D01*
X50153404Y88633758D01*
X50149000Y88678474D01*
X50149000Y90121526D01*
X50153404Y90166242D01*
X50164657Y90203337D01*
X50182925Y90237515D01*
X50207519Y90267481D01*
X50237485Y90292075D01*
X50271663Y90310343D01*
X50308758Y90321596D01*
X50353474Y90326000D01*
X51246526Y90326000D01*
X51291242Y90321596D01*
G37*
G36*
X43991242Y90321596D02*
G01*
X44028337Y90310343D01*
X44062515Y90292075D01*
X44092481Y90267481D01*
X44117075Y90237515D01*
X44135343Y90203337D01*
X44146596Y90166242D01*
X44151000Y90121526D01*
X44151000Y88678474D01*
X44146596Y88633758D01*
X44135343Y88596663D01*
X44117075Y88562485D01*
X44092481Y88532519D01*
X44062515Y88507925D01*
X44028337Y88489657D01*
X43991242Y88478404D01*
X43946526Y88474000D01*
X43053474Y88474000D01*
X43008758Y88478404D01*
X42971663Y88489657D01*
X42937485Y88507925D01*
X42907519Y88532519D01*
X42882925Y88562485D01*
X42864657Y88596663D01*
X42853404Y88633758D01*
X42849000Y88678474D01*
X42849000Y90121526D01*
X42853404Y90166242D01*
X42864657Y90203337D01*
X42882925Y90237515D01*
X42907519Y90267481D01*
X42937485Y90292075D01*
X42971663Y90310343D01*
X43008758Y90321596D01*
X43053474Y90326000D01*
X43946526Y90326000D01*
X43991242Y90321596D01*
G37*
G36*
X59791242Y90321596D02*
G01*
X59828337Y90310343D01*
X59862515Y90292075D01*
X59892481Y90267481D01*
X59917075Y90237515D01*
X59935343Y90203337D01*
X59946596Y90166242D01*
X59951000Y90121526D01*
X59951000Y88678474D01*
X59946596Y88633758D01*
X59935343Y88596663D01*
X59917075Y88562485D01*
X59892481Y88532519D01*
X59862515Y88507925D01*
X59828337Y88489657D01*
X59791242Y88478404D01*
X59746526Y88474000D01*
X58853474Y88474000D01*
X58808758Y88478404D01*
X58771663Y88489657D01*
X58737485Y88507925D01*
X58707519Y88532519D01*
X58682925Y88562485D01*
X58664657Y88596663D01*
X58653404Y88633758D01*
X58649000Y88678474D01*
X58649000Y90121526D01*
X58653404Y90166242D01*
X58664657Y90203337D01*
X58682925Y90237515D01*
X58707519Y90267481D01*
X58737485Y90292075D01*
X58771663Y90310343D01*
X58808758Y90321596D01*
X58853474Y90326000D01*
X59746526Y90326000D01*
X59791242Y90321596D01*
G37*
G36*
X34402585Y93221198D02*
G01*
X34552410Y93191396D01*
X34834674Y93074479D01*
X35088705Y92904741D01*
X35304741Y92688705D01*
X35474479Y92434674D01*
X35591396Y92152410D01*
X35651000Y91852760D01*
X35651000Y91547240D01*
X35591396Y91247590D01*
X35474479Y90965326D01*
X35304741Y90711295D01*
X35088705Y90495259D01*
X34834674Y90325521D01*
X34552410Y90208604D01*
X34402585Y90178802D01*
X34252761Y90149000D01*
X33947239Y90149000D01*
X33797415Y90178802D01*
X33647590Y90208604D01*
X33365326Y90325521D01*
X33111295Y90495259D01*
X32895259Y90711295D01*
X32725521Y90965326D01*
X32608604Y91247590D01*
X32549000Y91547240D01*
X32549000Y91852760D01*
X32608604Y92152410D01*
X32725521Y92434674D01*
X32895259Y92688705D01*
X33111295Y92904741D01*
X33365326Y93074479D01*
X33647590Y93191396D01*
X33797415Y93221198D01*
X33947239Y93251000D01*
X34252761Y93251000D01*
X34402585Y93221198D01*
G37*
G36*
X22229487Y92901004D02*
G01*
X22466253Y92802932D01*
X22466255Y92802931D01*
X22637208Y92688704D01*
X22679339Y92660553D01*
X22860553Y92479339D01*
X23002932Y92266253D01*
X23101004Y92029487D01*
X23151000Y91778139D01*
X23151000Y91521861D01*
X23101004Y91270513D01*
X23002932Y91033747D01*
X23002931Y91033745D01*
X22860553Y90820661D01*
X22679339Y90639447D01*
X22466255Y90497069D01*
X22466254Y90497068D01*
X22466253Y90497068D01*
X22229487Y90398996D01*
X21978139Y90349000D01*
X21721861Y90349000D01*
X21470513Y90398996D01*
X21233747Y90497068D01*
X21233746Y90497068D01*
X21233745Y90497069D01*
X21020661Y90639447D01*
X20839447Y90820661D01*
X20697069Y91033745D01*
X20697068Y91033747D01*
X20598996Y91270513D01*
X20549000Y91521861D01*
X20549000Y91778139D01*
X20598996Y92029487D01*
X20697068Y92266253D01*
X20839447Y92479339D01*
X21020661Y92660553D01*
X21062792Y92688704D01*
X21233745Y92802931D01*
X21233747Y92802932D01*
X21470513Y92901004D01*
X21721861Y92951000D01*
X21978139Y92951000D01*
X22229487Y92901004D01*
G37*
M02*
